%FSTAX25Y25*%
%MOIN*%
%SFA1B1*%

%IPPOS*%
%ADD29C,0.006000*%
%ADD30C,0.005000*%
%ADD32C,0.008000*%
%ADD34O,0.055118X0.076772*%
%ADD35C,0.131000*%
%ADD36C,0.016000*%
%ADD37C,0.024000*%
%LNdigit_copper_signal_2-1*%
%LPD*%
G36*
X0053571Y0117908D02*
X0057893Y0117305D01*
X0062141Y0116306*
X0066279Y0114919*
X0070271Y0113157*
X0074083Y0111033*
X0077683Y0108567*
X008104Y0105779*
X0084126Y0102694*
X0086914Y0099336*
X008938Y0095736*
X0091503Y0091924*
X0093266Y0087932*
X0094653Y0083794*
X0095652Y0079547*
X0096255Y0075225*
X0096456Y0070866*
Y0013779*
X0096217Y0011044*
X0095506Y0008393*
X0094346Y0005905*
X0092772Y0003656*
X0090831Y0001715*
X0088582Y0000141*
X0086094Y-0001018*
X0083443Y-0001729*
X0080708Y-0001968*
X0017716*
X0014981Y-0001729*
X001233Y-0001018*
X0009842Y0000141*
X0007593Y0001715*
X0005652Y0003656*
X0004078Y0005905*
X0002918Y0008393*
X0002207Y0011044*
X0001968Y0013779*
Y0070866*
X000217Y0075225*
X0002772Y0079547*
X0003771Y0083794*
X0005158Y0087932*
X0006921Y0091924*
X0009044Y0095736*
X001151Y0099336*
X0014298Y0102694*
X0017384Y0105779*
X0020741Y0108567*
X0024341Y0111033*
X0028154Y0113157*
X0032145Y0114919*
X0036283Y0116306*
X0040531Y0117305*
X0044853Y0117908*
X0049212Y011811*
X0053571Y0117908*
G37*
%LNdigit_copper_signal_2-2*%
%LPC*%
G36*
X0031462Y0103585D02*
X0030994Y0103492D01*
X0030597Y0103227*
X0030331Y010283*
X0030238Y0102362*
X0030331Y0101894*
X0030597Y0101497*
X0030994Y0101231*
X0031462Y0101138*
X003193Y0101231*
X0032327Y0101497*
X0032592Y0101894*
X0032685Y0102362*
X0032592Y010283*
X0032327Y0103227*
X003193Y0103492*
X0031462Y0103585*
G37*
G36*
X0066148Y0099699D02*
Y0098548D01*
X0067299*
X0067255Y0098772*
X0066901Y0099301*
X0066372Y0099655*
X0066148Y0099699*
G37*
G36*
X0065348D02*
X0065123Y0099655D01*
X0064594Y0099301*
X006424Y0098772*
X0064196Y0098548*
X0065348*
Y0099699*
G37*
G36*
X00558Y0099651D02*
X0055575Y0099607D01*
X0055046Y0099253*
X0054692Y0098724*
X0054648Y00985*
X00558*
Y0099651*
G37*
G36*
X0049212Y0112101D02*
X004785Y0111967D01*
X004654Y011157*
X0045332Y0110924*
X0044274Y0110056*
X0043405Y0108997*
X004276Y010779*
X0042363Y010648*
X0042228Y0105118*
X0042363Y0103755*
X004276Y0102445*
X0043405Y0101238*
X0044274Y0100179*
X0045332Y0099311*
X004654Y0098665*
X004785Y0098268*
X0049212Y0098134*
X0050575Y0098268*
X0051885Y0098665*
X0053092Y0099311*
X005415Y0100179*
X0055019Y0101238*
X0055664Y0102445*
X0056062Y0103755*
X0056196Y0105118*
X0056062Y010648*
X0055664Y010779*
X0055019Y0108997*
X005415Y0110056*
X0053092Y0110924*
X0051885Y011157*
X0050575Y0111967*
X0049212Y0112101*
G37*
G36*
X00748Y0100323D02*
X0074331Y010023D01*
X0073934Y0099965*
X0073669Y0099568*
X0073576Y00991*
X0073669Y0098631*
X0073934Y0098234*
X0074331Y0097969*
X00748Y0097876*
X0075268Y0097969*
X0075665Y0098234*
X007593Y0098631*
X0076023Y00991*
X007593Y0099568*
X0075665Y0099965*
X0075268Y010023*
X00748Y0100323*
G37*
G36*
X00155Y0099823D02*
X0015031Y009973D01*
X0014634Y0099465*
X0014369Y0099068*
X0014276Y00986*
X0014369Y0098131*
X0014634Y0097734*
X0015031Y0097469*
X00155Y0097376*
X0015968Y0097469*
X0016365Y0097734*
X001663Y0098131*
X0016723Y00986*
X001663Y0099068*
X0016365Y0099465*
X0015968Y009973*
X00155Y0099823*
G37*
G36*
X0062204Y0099523D02*
X0061736Y009943D01*
X0061339Y0099165*
X0061074Y0098768*
X0060981Y00983*
X0061074Y0097831*
X0061339Y0097434*
X0061736Y0097169*
X0062204Y0097076*
X0062672Y0097169*
X0063069Y0097434*
X0063335Y0097831*
X0063428Y00983*
X0063335Y0098768*
X0063069Y0099165*
X0062672Y009943*
X0062204Y0099523*
G37*
G36*
X00566Y0099651D02*
Y00981D01*
X00562*
Y00977*
X0054648*
X0054692Y0097475*
X0055046Y0096946*
X0055391Y0096715*
X005524Y0096215*
X0053998*
X0053965Y0096265*
X0053568Y009653*
X00531Y0096623*
X0052631Y009653*
X0052234Y0096265*
X0051969Y0095868*
X0051876Y00954*
X0051969Y0094931*
X0052234Y0094534*
X0052631Y0094269*
X00531Y0094176*
X0053568Y0094269*
X0053965Y0094534*
X0053998Y0094584*
X0078062*
X0084284Y0088362*
Y0042264*
X0084346Y0041952*
X0084523Y0041687*
X0089301Y0036909*
X0089109Y0036447*
X0076132*
X007582Y0036385*
X0075629Y0036258*
X0075386Y0036354*
X0075175Y0036535*
X0075188Y00366*
X0071268*
X0071344Y0036219*
X0071786Y0035558*
X0072448Y0035116*
X0073228Y003496*
X0073255Y0034966*
X0073568Y0034518*
X0073484Y003438*
X0073231Y003433*
X0072834Y0034065*
X0072569Y0033668*
X0072476Y00332*
X0072569Y0032731*
X0072834Y0032334*
X0073231Y0032069*
X00737Y0031976*
X0074168Y0032069*
X0074565Y0032334*
X007483Y0032731*
X0074923Y00332*
X0074911Y0033258*
X007647Y0034816*
X0090353*
X0090578Y0034478*
X0090916Y0034253*
Y0008731*
X0084969Y0002784*
X0042269*
X0022839Y0022214*
X0023003Y0022756*
X0023068Y0022769*
X0023465Y0023034*
X002373Y0023431*
X0023823Y00239*
X002373Y0024368*
X0023465Y0024765*
X0023068Y002503*
X00226Y0025123*
X0022131Y002503*
X0021734Y0024765*
X0021469Y0024368*
X0021456Y0024303*
X0020914Y0024139*
X0009411Y0035641*
X0009423Y00357*
X000933Y0036168*
X0009065Y0036565*
X0009015Y0036598*
Y0042262*
X0009641Y0042888*
X00097Y0042876*
X0010168Y0042969*
X0010565Y0043234*
X001083Y0043631*
X0010923Y00441*
X001083Y0044568*
X0010565Y0044965*
X0010168Y004523*
X00097Y0045323*
X0009231Y004523*
X0008834Y0044965*
X0008569Y0044568*
X0008476Y00441*
X0008488Y0044041*
X0007623Y0043176*
X0007446Y0042912*
X0007384Y00426*
Y0036598*
X0007334Y0036565*
X0007069Y0036168*
X0006976Y00357*
X0007069Y0035231*
X0007334Y0034834*
X0007731Y0034569*
X00082Y0034476*
X0008258Y0034488*
X0041354Y0001391*
Y0001391*
X0041619Y0001214*
X0041931Y0001152*
X0085307*
X0085307*
X0085619Y0001214*
X0085884Y0001391*
X0092309Y0007816*
X0092309Y0007816*
X0092485Y0008081*
X0092548Y0008393*
Y0008393*
Y0034253*
X0092885Y0034478*
X0093239Y0035008*
X0093363Y0035632*
X0093239Y0036256*
X0092885Y0036785*
X0092356Y0037139*
X0091732Y0037263*
X0091333Y0037184*
X0085915Y0042602*
Y00887*
X0085853Y0089012*
X0085676Y0089276*
X0078976Y0095976*
X0078712Y0096153*
X00784Y0096215*
X0066602*
X0066484Y0096715*
X0066901Y0096994*
X0067255Y0097523*
X0067299Y0097748*
X0064196*
X006424Y0097523*
X0064594Y0096994*
X0065011Y0096715*
X0064893Y0096215*
X0057159*
X0057008Y0096715*
X0057353Y0096946*
X0057411Y0097033*
X0058064Y009711*
X0058193Y0097024*
X0058661Y0096931*
X0059129Y0097024*
X0059526Y009729*
X0059791Y0097686*
X0059884Y0098155*
X0059791Y0098623*
X0059526Y009902*
X0059129Y0099285*
X0058661Y0099378*
X0058193Y0099285*
X0058013Y0099165*
X0057375Y0099221*
X0057353Y0099253*
X0056824Y0099607*
X00566Y0099651*
G37*
G36*
X00875Y0092365D02*
X0087031Y0092272D01*
X0086634Y0092006*
X0086369Y009161*
X0086276Y0091141*
X0086369Y0090673*
X0086634Y0090276*
X0087031Y0090011*
X00875Y0089918*
X0087968Y0090011*
X0088365Y0090276*
X008863Y0090673*
X0088723Y0091141*
X008863Y009161*
X0088365Y0092006*
X0087968Y0092272*
X00875Y0092365*
G37*
G36*
X00347Y0100413D02*
X00249D01*
X0024626Y0100359*
X0024395Y0100204*
X0019804Y0095613*
X0011766*
X0011665Y0095765*
X0011268Y009603*
X00108Y0096123*
X0010331Y009603*
X0009934Y0095765*
X0009669Y0095368*
X0009576Y00949*
X0009669Y0094431*
X0009934Y0094034*
X0010331Y0093769*
X00108Y0093676*
X0011268Y0093769*
X0011665Y0094034*
X0011766Y0094186*
X00201*
X0020373Y009424*
X0020604Y0094395*
X0025195Y0098986*
X0032017*
X0032047Y0098981*
X0032096Y0098486*
X0031994Y0098465*
X0031815Y009843*
X0031418Y0098165*
X0031153Y0097768*
X0031059Y00973*
X0031153Y0096831*
X0031418Y0096434*
X0031486Y0096389*
Y00842*
X003154Y0083926*
X0031695Y0083695*
X0034686Y0080704*
Y0053141*
X0032495Y005095*
X003234Y0050718*
X0032286Y0050445*
Y0034066*
X0032134Y0033965*
X0031977Y003373*
X003195Y003372*
X0031449*
X0031422Y003373*
X0031265Y0033965*
X0030868Y003423*
X00304Y0034323*
X0029931Y003423*
X0029534Y0033965*
X0029269Y0033568*
X0029176Y00331*
X0029269Y0032631*
X0029534Y0032234*
X0029788Y0032065*
Y0031997*
X0029842Y0031724*
X0029997Y0031493*
X0031095Y0030395*
X0031326Y003024*
X00316Y0030186*
X0035522*
X0035525Y0030183*
X0035744Y0029686*
X00355Y0029321*
X0035456Y0029097*
X0038559*
X0038515Y0029321*
X0038161Y0029851*
X0037632Y0030204*
X0037289Y0030273*
X0037144Y003075*
X0037491Y0031097*
X0037968Y0030952*
X0037969Y0030948*
X0038234Y0030551*
X0038631Y0030286*
X00391Y0030193*
X0039568Y0030286*
X0039965Y0030551*
X004023Y0030948*
X0040323Y0031416*
X004023Y0031884*
X0039965Y0032281*
X0039568Y0032546*
X0039564Y0032547*
X0039399Y003309*
X0039904Y0033595*
X0040059Y0033826*
X0040113Y00341*
Y0081704*
X0048695Y0090286*
X0062767*
X0063034Y0089786*
X0062992Y0089724*
X0062948Y00895*
X0066051*
X0066007Y0089724*
X0065965Y0089786*
X0066233Y0090286*
X0067333*
X0067434Y0090134*
X0067831Y0089869*
X00683Y0089776*
X0068768Y0089869*
X0069165Y0090134*
X006943Y0090531*
X0069523Y0091*
X006943Y0091468*
X0069165Y0091865*
X0068768Y009213*
X00683Y0092223*
X0067831Y009213*
X0067434Y0091865*
X0067333Y0091713*
X00484*
X0048126Y0091659*
X0047895Y0091504*
X0038895Y0082504*
X003874Y0082273*
X0038686Y0082*
Y0034395*
X0037069Y0032778*
X0036608Y0033025*
X0036623Y00331*
X003653Y0033568*
X0036265Y0033965*
X0036113Y0034066*
Y0051135*
X0036904Y0051926*
X0037059Y0052158*
X0037113Y0052431*
Y0084704*
X0038604Y0086195*
X0038759Y0086426*
X0038813Y00867*
Y00963*
X0038759Y0096573*
X0038604Y0096804*
X0035204Y0100204*
X0034973Y0100359*
X00347Y0100413*
G37*
G36*
X0066051Y00887D02*
X00649D01*
Y0087548*
X0065124Y0087592*
X0065653Y0087946*
X0066007Y0088475*
X0066051Y00887*
G37*
G36*
X00641D02*
X0062948D01*
X0062992Y0088475*
X0063346Y0087946*
X0063875Y0087592*
X00641Y0087548*
Y00887*
G37*
G36*
X00141Y0089123D02*
X0013631Y008903D01*
X0013234Y0088765*
X0012969Y0088368*
X0012876Y00879*
X0012969Y0087431*
X0013234Y0087034*
X0013631Y0086769*
X00141Y0086676*
X0014568Y0086769*
X0014965Y0087034*
X001523Y0087431*
X0015323Y00879*
X001523Y0088368*
X0014965Y0088765*
X0014568Y008903*
X00141Y0089123*
G37*
G36*
X00581Y0089018D02*
X0057631Y0088925D01*
X0057234Y008866*
X0056969Y0088263*
X0056876Y0087795*
X0056969Y0087327*
X0057234Y008693*
X0057631Y0086664*
X00581Y0086571*
X0058568Y0086664*
X0058965Y008693*
X005923Y0087327*
X0059323Y0087795*
X005923Y0088263*
X0058965Y008866*
X0058568Y0088925*
X00581Y0089018*
G37*
G36*
X00273Y0088323D02*
X0026831Y008823D01*
X0026434Y0087965*
X0026169Y0087568*
X0026076Y00871*
X0026169Y0086631*
X0026434Y0086234*
X0026831Y0085969*
X00273Y0085876*
X0027768Y0085969*
X0028165Y0086234*
X002843Y0086631*
X0028523Y00871*
X002843Y0087568*
X0028165Y0087965*
X0027768Y008823*
X00273Y0088323*
G37*
G36*
X00715Y0088123D02*
X0071031Y008803D01*
X0070634Y0087765*
X0070369Y0087368*
X0070276Y00869*
X0070369Y0086431*
X0070634Y0086034*
X0071031Y0085769*
X00715Y0085676*
X0071968Y0085769*
X0072365Y0086034*
X007263Y0086431*
X0072723Y00869*
X007263Y0087368*
X0072365Y0087765*
X0071968Y008803*
X00715Y0088123*
G37*
G36*
X00804Y0080928D02*
X0079931Y0080835D01*
X0079534Y0080569*
X0079269Y0080173*
X0079176Y0079704*
X0079269Y0079236*
X0079534Y0078839*
X0079931Y0078574*
X00804Y0078481*
X0080868Y0078574*
X0081265Y0078839*
X008153Y0079236*
X0081623Y0079704*
X008153Y0080173*
X0081265Y0080569*
X0080868Y0080835*
X00804Y0080928*
G37*
G36*
X00669Y0080723D02*
X0066431Y008063D01*
X0066034Y0080365*
X0065769Y0079968*
X0065676Y00795*
X0065769Y0079031*
X0066034Y0078634*
X0066431Y0078369*
X00669Y0078276*
X0067368Y0078369*
X0067765Y0078634*
X006803Y0079031*
X0068123Y00795*
X006803Y0079968*
X0067765Y0080365*
X0067368Y008063*
X00669Y0080723*
G37*
G36*
X0017971Y007888D02*
Y0077728D01*
X0019123*
X0019078Y0077952*
X0018725Y0078481*
X0018195Y0078835*
X0017971Y007888*
G37*
G36*
X0017171D02*
X0016947Y0078835D01*
X0016418Y0078481*
X0016064Y0077952*
X0016019Y0077728*
X0017171*
Y007888*
G37*
G36*
X00299Y0079223D02*
X0029431Y007913D01*
X0029034Y0078865*
X0028769Y0078468*
X0028676Y0078*
X0028769Y0077531*
X0029034Y0077134*
X0029431Y0076869*
X00299Y0076776*
X0030368Y0076869*
X0030765Y0077134*
X003103Y0077531*
X0031123Y0078*
X003103Y0078468*
X0030765Y0078865*
X0030368Y007913*
X00299Y0079223*
G37*
G36*
X00141Y0078623D02*
X0013631Y007853D01*
X0013234Y0078265*
X0012969Y0077868*
X0012876Y00774*
X0012969Y0076931*
X0013234Y0076534*
X0013631Y0076269*
X00141Y0076176*
X0014568Y0076269*
X0014965Y0076534*
X001523Y0076931*
X0015323Y00774*
X001523Y0077868*
X0014965Y0078265*
X0014568Y007853*
X00141Y0078623*
G37*
G36*
X0019123Y0076928D02*
X0017971D01*
Y0075776*
X0018195Y0075821*
X0018725Y0076174*
X0019078Y0076704*
X0019123Y0076928*
G37*
G36*
X0017171D02*
X0016019D01*
X0016064Y0076704*
X0016418Y0076174*
X0016947Y0075821*
X0017171Y0075776*
Y0076928*
G37*
G36*
X00686Y0078223D02*
X0068131Y007813D01*
X0067734Y0077865*
X0067469Y0077468*
X0067376Y0077*
X0067469Y0076531*
X0067734Y0076134*
X0068131Y0075869*
X00686Y0075776*
X0069068Y0075869*
X0069465Y0076134*
X006973Y0076531*
X0069823Y0077*
X006973Y0077468*
X0069465Y0077865*
X0069068Y007813*
X00686Y0078223*
G37*
G36*
X0069Y0083113D02*
X00467D01*
X0046426Y0083059*
X0046195Y0082904*
X0043878Y0080588*
X00437Y0080623*
X0043231Y008053*
X0042834Y0080265*
X0042569Y0079868*
X0042476Y00794*
X0042569Y0078931*
X0042834Y0078534*
X0043231Y0078269*
X00437Y0078176*
X0044168Y0078269*
X0044565Y0078534*
X004505Y0078487*
X0045386Y0078162*
Y00542*
X004544Y0053926*
X0045595Y0053695*
X0053595Y0045695*
X0053826Y004554*
X00541Y0045486*
X0067633*
X0067734Y0045334*
X0068131Y0045069*
X00686Y0044976*
X0069068Y0045069*
X0069465Y0045334*
X006973Y0045731*
X0069823Y00462*
X006973Y0046668*
X0069514Y0046991*
X0069465Y0047254*
Y0047371*
X0069514Y0047633*
X006973Y0047957*
X0069823Y0048425*
X006973Y0048893*
X0069537Y0049181*
X0069494Y0049512*
X0069537Y0049843*
X006973Y0050131*
X0069823Y00506*
X0069788Y0050778*
X0070904Y0051895*
X0071059Y0052126*
X0071113Y00524*
Y00552*
X0071059Y0055473*
X0070904Y0055704*
X0064313Y0062295*
Y0078633*
X0064465Y0078734*
X006473Y0079131*
X0064823Y00796*
X006473Y0080068*
X0064465Y0080465*
X0064068Y008073*
X00636Y0080823*
X0063131Y008073*
X0062734Y0080465*
X0062686Y0080392*
X0062282*
X0061885Y0080657*
X0061417Y0080751*
X0061353Y0080738*
X0061032Y0080784*
X0060833Y008126*
X0060967Y0081515*
X0061102Y0081686*
X0068704*
X0070686Y0079704*
Y0075095*
X0067978Y0072388*
X00678Y0072423*
X0067331Y007233*
X0066934Y0072065*
X0066669Y0071668*
X0066576Y00712*
X0066669Y0070731*
X0066934Y0070334*
X0067169Y0070177*
X0067179Y007015*
Y0069649*
X0067169Y0069622*
X0066934Y0069465*
X0066669Y0069068*
X0066576Y00686*
X0066669Y0068131*
X0066934Y0067734*
X0067331Y0067469*
X00678Y0067376*
X0068268Y0067469*
X0068665Y0067734*
X006893Y0068131*
X0069023Y00686*
X006893Y0069068*
X0068665Y0069465*
X006843Y0069622*
X006842Y0069649*
Y007015*
X006843Y0070177*
X0068665Y0070334*
X006893Y0070731*
X0069023Y00712*
X0068988Y0071378*
X0071904Y0074295*
X0072059Y0074526*
X0072113Y00748*
Y008*
X0072059Y0080273*
X0071904Y0080504*
X0069504Y0082904*
X0069273Y0083059*
X0069Y0083113*
G37*
G36*
X00209Y0074923D02*
X0020431Y007483D01*
X0020034Y0074565*
X0019769Y0074168*
X0019676Y00737*
X0019769Y0073231*
X0019974Y0072925*
X0020009Y00726*
X0019974Y0072274*
X0019769Y0071968*
X0019676Y00715*
X0019769Y0071031*
X0020034Y0070634*
X0020431Y0070369*
X00209Y0070276*
X0021368Y0070369*
X0021765Y0070634*
X002203Y0071031*
X0022123Y00715*
X002203Y0071968*
X0021826Y0072274*
X002179Y00726*
X0021826Y0072925*
X002203Y0073231*
X0022123Y00737*
X002203Y0074168*
X0021765Y0074565*
X0021368Y007483*
X00209Y0074923*
G37*
G36*
X00899Y0070923D02*
X0089431Y007083D01*
X0089034Y0070565*
X0088769Y0070168*
X0088676Y00697*
X0088769Y0069231*
X0089034Y0068834*
X0089431Y0068569*
X00899Y0068476*
X0090368Y0068569*
X0090765Y0068834*
X009103Y0069231*
X0091123Y00697*
X009103Y0070168*
X0090765Y0070565*
X0090368Y007083*
X00899Y0070923*
G37*
G36*
X00121Y0070723D02*
X0011631Y007063D01*
X0011234Y0070365*
X0010969Y0069968*
X0010876Y00695*
X0010969Y0069031*
X0011234Y0068634*
X0011631Y0068369*
X00121Y0068276*
X0012568Y0068369*
X0012965Y0068634*
X001323Y0069031*
X0013323Y00695*
X001323Y0069968*
X0012965Y0070365*
X0012568Y007063*
X00121Y0070723*
G37*
G36*
X0031Y0069723D02*
X0030531Y006963D01*
X0030134Y0069365*
X0029869Y0068968*
X0029776Y00685*
X0029869Y0068031*
X0030134Y0067634*
X0030531Y0067369*
X0031Y0067276*
X0031468Y0067369*
X0031865Y0067634*
X003213Y0068031*
X0032223Y00685*
X003213Y0068968*
X0031865Y0069365*
X0031468Y006963*
X0031Y0069723*
G37*
G36*
X00081Y0066971D02*
X0007631Y0066878D01*
X0007234Y0066613*
X0006969Y0066216*
X0006876Y0065748*
X0006969Y0065279*
X0007234Y0064882*
X0007631Y0064617*
X00081Y0064524*
X0008568Y0064617*
X0008965Y0064882*
X000923Y0065279*
X0009323Y0065748*
X000923Y0066216*
X0008965Y0066613*
X0008568Y0066878*
X00081Y0066971*
G37*
G36*
X00221Y0067923D02*
X0021631Y006783D01*
X0021234Y0067565*
X0020969Y0067168*
X0020876Y00667*
X0020969Y0066231*
X0021234Y0065834*
Y0065565*
X0020969Y0065168*
X0020876Y00647*
X0020969Y0064231*
X0021234Y0063834*
X0021631Y0063569*
X00221Y0063476*
X0022568Y0063569*
X0022965Y0063834*
X002323Y0064231*
X0023323Y00647*
X002323Y0065168*
X0022965Y0065565*
Y0065834*
X002323Y0066231*
X0023323Y00667*
X002323Y0067168*
X0022965Y0067565*
X0022568Y006783*
X00221Y0067923*
G37*
G36*
X0032Y0065323D02*
X0031531Y006523D01*
X0031134Y0064965*
X0030869Y0064568*
X0030776Y00641*
X0030869Y0063631*
X0031134Y0063234*
X0031531Y0062969*
X0032Y0062876*
X0032468Y0062969*
X0032865Y0063234*
X003313Y0063631*
X0033223Y00641*
X003313Y0064568*
X0032865Y0064965*
X0032468Y006523*
X0032Y0065323*
G37*
G36*
X00682Y0063923D02*
X0067731Y006383D01*
X0067334Y0063565*
X0067069Y0063168*
X0066976Y00627*
X0067069Y0062231*
X0067334Y0061834*
X0067731Y0061569*
X00682Y0061476*
X0068668Y0061569*
X0069065Y0061834*
X006933Y0062231*
X0069423Y00627*
X006933Y0063168*
X0069065Y0063565*
X0068668Y006383*
X00682Y0063923*
G37*
G36*
X0092132Y0061159D02*
Y00596D01*
X0093691*
X0093616Y005998*
X0093174Y0060641*
X0092512Y0061084*
X0092132Y0061159*
G37*
G36*
X0091332D02*
X0090951Y0061084D01*
X009029Y0060641*
X0089848Y005998*
X0089772Y00596*
X0091332*
Y0061159*
G37*
G36*
X0030315Y0060278D02*
X0029846Y0060185D01*
X0029449Y005992*
X0029184Y0059523*
X0029091Y0059055*
X0029184Y0058586*
X0029449Y005819*
X0029846Y0057924*
X0030315Y0057831*
X0030783Y0057924*
X003118Y005819*
X0031445Y0058586*
X0031538Y0059055*
X0031445Y0059523*
X003118Y005992*
X0030783Y0060185*
X0030315Y0060278*
G37*
G36*
X0093691Y00588D02*
X0092132D01*
Y005724*
X0092512Y0057316*
X0093174Y0057758*
X0093616Y0058419*
X0093691Y00588*
G37*
G36*
X0091332D02*
X0089772D01*
X0089848Y0058419*
X009029Y0057758*
X0090951Y0057316*
X0091332Y005724*
Y00588*
G37*
G36*
X00814Y0059662D02*
X0080931Y0059569D01*
X0080534Y0059304*
X0080269Y0058907*
X0080176Y0058439*
X0080269Y005797*
X0080534Y0057574*
X0080931Y0057308*
X00814Y0057215*
X0081868Y0057308*
X0082265Y0057574*
X008253Y005797*
X0082623Y0058439*
X008253Y0058907*
X0082265Y0059304*
X0081868Y0059569*
X00814Y0059662*
G37*
G36*
X0022037Y005916D02*
X0021568Y0059067D01*
X0021171Y0058802*
X0020906Y0058405*
X0020813Y0057937*
X0020906Y0057468*
X0021171Y0057071*
X0021568Y0056806*
X0022037Y0056713*
X0022505Y0056806*
X0022902Y0057071*
X0023167Y0057468*
X002326Y0057937*
X0023167Y0058405*
X0022902Y0058802*
X0022505Y0059067*
X0022037Y005916*
G37*
G36*
X00318Y0055947D02*
X0031331Y0055854D01*
X0030934Y0055589*
X0030669Y0055192*
X0030576Y0054724*
X0030669Y0054256*
X0030934Y0053859*
X0031331Y0053594*
X00318Y00535*
X0032268Y0053594*
X0032665Y0053859*
X003293Y0054256*
X0033023Y0054724*
X003293Y0055192*
X0032665Y0055589*
X0032268Y0055854*
X00318Y0055947*
G37*
G36*
X00302Y0052745D02*
Y0051593D01*
X0031351*
X0031307Y0051818*
X0030953Y0052347*
X0030424Y00527*
X00302Y0052745*
G37*
G36*
X00294D02*
X0029175Y00527D01*
X0028646Y0052347*
X0028292Y0051818*
X0028248Y0051593*
X00294*
Y0052745*
G37*
G36*
X0031351Y0050793D02*
X00302D01*
Y0049641*
X0030424Y0049686*
X0030953Y005004*
X0031307Y0050569*
X0031351Y0050793*
G37*
G36*
X00294D02*
X0028248D01*
X0028292Y0050569*
X0028646Y005004*
X0029175Y0049686*
X00294Y0049641*
Y0050793*
G37*
G36*
X009Y0051923D02*
X0089531Y005183D01*
X0089134Y0051565*
X0088869Y0051168*
X0088776Y00507*
X0088869Y0050231*
X0089134Y0049834*
X0089531Y0049569*
X009Y0049476*
X0090468Y0049569*
X0090865Y0049834*
X009113Y0050231*
X0091223Y00507*
X009113Y0051168*
X0090865Y0051565*
X0090468Y005183*
X009Y0051923*
G37*
G36*
X00079Y0049498D02*
X0007431Y0049405D01*
X0007034Y004914*
X0006769Y0048743*
X0006676Y0048275*
X0006769Y0047807*
X0007034Y004741*
X0007431Y0047144*
X00079Y0047051*
X0008368Y0047144*
X0008765Y004741*
X000903Y0047807*
X0009123Y0048275*
X000903Y0048743*
X0008765Y004914*
X0008368Y0049405*
X00079Y0049498*
G37*
G36*
X0057289Y0043874D02*
Y0042722D01*
X0058441*
X0058396Y0042947*
X0058043Y0043476*
X0057514Y004383*
X0057289Y0043874*
G37*
G36*
X0056489D02*
X0056265Y004383D01*
X0055736Y0043476*
X0055382Y0042947*
X0055338Y0042722*
X0056489*
Y0043874*
G37*
G36*
X0065748Y0042562D02*
X0065279Y0042469D01*
X0064882Y0042203*
X0064818Y0042107*
X0064217*
X0064152Y0042203*
X0063755Y0042469*
X0063287Y0042562*
X0062819Y0042469*
X0062422Y0042203*
X0062157Y0041806*
X0062063Y0041338*
X0062157Y004087*
X0062422Y0040473*
X0062819Y0040208*
X0063287Y0040115*
X0063755Y0040208*
X0064152Y0040473*
X0064217Y0040569*
X0064818*
X0064882Y0040473*
X0065279Y0040208*
X0065748Y0040115*
X0066216Y0040208*
X0066613Y0040473*
X0066878Y004087*
X0066971Y0041338*
X0066878Y0041806*
X0066613Y0042203*
X0066216Y0042469*
X0065748Y0042562*
G37*
G36*
X0052657Y0043349D02*
X0052189Y0043256D01*
X0051792Y0042991*
X0051527Y0042594*
X0051434Y0042126*
X0051527Y0041657*
X0051792Y004126*
X0052189Y0040995*
X0052657Y0040902*
X0053125Y0040995*
X0053522Y004126*
X0053787Y0041657*
X0053881Y0042126*
X0053787Y0042594*
X0053522Y0042991*
X0053125Y0043256*
X0052657Y0043349*
G37*
G36*
X004872Y0043251D02*
X0048252Y0043157D01*
X0047855Y0042892*
X004759Y0042495*
X0047497Y0042027*
X004759Y0041559*
X0047855Y0041162*
X0048252Y0040897*
X004872Y0040804*
X0049188Y0040897*
X0049585Y0041162*
X004985Y0041559*
X0049944Y0042027*
X004985Y0042495*
X0049585Y0042892*
X0049188Y0043157*
X004872Y0043251*
G37*
G36*
X0058441Y0041922D02*
X0057289D01*
Y0040771*
X0057514Y0040815*
X0058043Y0041169*
X0058396Y0041698*
X0058441Y0041922*
G37*
G36*
X0056489D02*
X0055338D01*
X0055382Y0041698*
X0055736Y0041169*
X0056265Y0040815*
X0056489Y0040771*
Y0041922*
G37*
G36*
X00825Y0041823D02*
X0082031Y004173D01*
X0081634Y0041465*
X0081369Y0041068*
X0081276Y00406*
X0081369Y0040131*
X0081634Y0039734*
X0082031Y0039469*
X00825Y0039376*
X0082968Y0039469*
X0083365Y0039734*
X008363Y0040131*
X0083723Y00406*
X008363Y0041068*
X0083365Y0041465*
X0082968Y004173*
X00825Y0041823*
G37*
G36*
X0073628Y0038959D02*
Y00374D01*
X0075188*
X0075112Y003778*
X007467Y0038441*
X0074008Y0038884*
X0073628Y0038959*
G37*
G36*
X0072828D02*
X0072448Y0038884D01*
X0071786Y0038441*
X0071344Y003778*
X0071268Y00374*
X0072828*
Y0038959*
G37*
G36*
X00272Y0035723D02*
X0026731Y003563D01*
X0026334Y0035365*
X0026069Y0034968*
X0025976Y00345*
X0026069Y0034031*
X0026334Y0033634*
X0026731Y0033369*
X00272Y0033276*
X0027668Y0033369*
X0028065Y0033634*
X002833Y0034031*
X0028423Y00345*
X002833Y0034968*
X0028065Y0035365*
X0027668Y003563*
X00272Y0035723*
G37*
G36*
X0066389Y0033113D02*
X0065921Y003302D01*
X0065524Y0032754*
X0065259Y0032358*
X0065166Y0031889*
X0065259Y0031421*
X0065524Y0031024*
X0065921Y0030759*
X0066389Y0030666*
X0066858Y0030759*
X0067254Y0031024*
X006752Y0031421*
X0067613Y0031889*
X006752Y0032358*
X0067254Y0032754*
X0066858Y003302*
X0066389Y0033113*
G37*
G36*
X0049212Y0031523D02*
X0048744Y003143D01*
X0048347Y0031165*
X0048082Y0030768*
X0047989Y00303*
X0048082Y0029831*
X0048347Y0029434*
X0048744Y0029169*
X0049212Y0029076*
X004968Y0029169*
X0050077Y0029434*
X0050343Y0029831*
X0050436Y00303*
X0050343Y0030768*
X0050077Y0031165*
X004968Y003143*
X0049212Y0031523*
G37*
G36*
X0038559Y0028297D02*
X0037407D01*
Y0027145*
X0037632Y002719*
X0038161Y0027544*
X0038515Y0028073*
X0038559Y0028297*
G37*
G36*
X0036607D02*
X0035456D01*
X00355Y0028073*
X0035854Y0027544*
X0036383Y002719*
X0036607Y0027145*
Y0028297*
G37*
G36*
X00567Y0027551D02*
Y00264D01*
X0057851*
X0057807Y0026624*
X0057453Y0027153*
X0056924Y0027507*
X00567Y0027551*
G37*
G36*
X00559D02*
X0055675Y0027507D01*
X0055146Y0027153*
X0054792Y0026624*
X0054748Y00264*
X00559*
Y0027551*
G37*
G36*
X00518Y0026623D02*
X0051331Y002653D01*
X0050934Y0026265*
X0050669Y0025868*
X005061Y0025568*
X0050098Y0025433*
X0050077Y0025465*
X004968Y002573*
X0049212Y0025823*
X0048744Y002573*
X0048347Y0025465*
X0048082Y0025068*
X0047989Y00246*
X0048082Y0024131*
X0048347Y0023734*
X0048744Y0023469*
X0049212Y0023376*
X004968Y0023469*
X0050077Y0023734*
X0050343Y0024131*
X0050402Y0024431*
X0050913Y0024566*
X0050934Y0024534*
X0051331Y0024269*
X00518Y0024176*
X0052268Y0024269*
X0052665Y0024534*
X005293Y0024931*
X0053023Y00254*
X005293Y0025868*
X0052665Y0026265*
X0052268Y002653*
X00518Y0026623*
G37*
G36*
X0063287Y0027223D02*
X0062819Y002713D01*
X0062422Y0026865*
X0062157Y0026468*
X0062063Y0026*
X0062157Y0025531*
X0062422Y0025134*
X0062819Y0024869*
X0063287Y0024776*
X0063755Y0024869*
X0064152Y0025134*
X0064417Y0025531*
X006451Y0026*
X0064417Y0026468*
X0064152Y0026865*
X0063755Y002713*
X0063287Y0027223*
G37*
G36*
X00598D02*
X0059331Y002713D01*
X0058934Y0026865*
X0058669Y0026468*
X0058576Y0026*
X0058669Y0025531*
X0058934Y0025134*
X0059331Y0024869*
X00598Y0024776*
X0060268Y0024869*
X0060665Y0025134*
X006093Y0025531*
X0061023Y0026*
X006093Y0026468*
X0060665Y0026865*
X0060268Y002713*
X00598Y0027223*
G37*
G36*
X0057851Y00256D02*
X00567D01*
Y0024448*
X0056924Y0024492*
X0057453Y0024846*
X0057807Y0025375*
X0057851Y00256*
G37*
G36*
X00559D02*
X0054748D01*
X0054792Y0025375*
X0055146Y0024846*
X0055675Y0024492*
X00559Y0024448*
Y00256*
G37*
G36*
X008582Y0022423D02*
X0085351Y002233D01*
X0084954Y0022065*
X0084689Y0021668*
X0084596Y00212*
X0084689Y0020731*
X0084954Y0020334*
X0085351Y0020069*
X008582Y0019976*
X0086288Y0020069*
X0086685Y0020334*
X008695Y0020731*
X0087043Y00212*
X008695Y0021668*
X0086685Y0022065*
X0086288Y002233*
X008582Y0022423*
G37*
G36*
X0063287Y0020624D02*
X0062463Y0020515D01*
X0061695Y0020197*
X0061036Y0019691*
X006053Y0019032*
X0060212Y0018264*
X0060104Y0017441*
Y0015275*
X0060212Y0014451*
X006053Y0013684*
X0061036Y0013024*
X0061695Y0012518*
X0062463Y00122*
X0063287Y0012092*
X0064111Y00122*
X0064879Y0012518*
X0065538Y0013024*
X0066044Y0013684*
X0066362Y0014451*
X006647Y0015275*
Y0017441*
X0066362Y0018264*
X0066044Y0019032*
X0065538Y0019691*
X0064879Y0020197*
X0064111Y0020515*
X0063287Y0020624*
G37*
G36*
X0035137D02*
X0034313Y0020515D01*
X0033546Y0020197*
X0032887Y0019691*
X0032381Y0019032*
X0032063Y0018264*
X0031954Y0017441*
Y0015275*
X0032063Y0014451*
X0032381Y0013684*
X0032887Y0013024*
X0033546Y0012518*
X0034313Y00122*
X0035137Y0012092*
X0035961Y00122*
X0036729Y0012518*
X0037388Y0013024*
X0037894Y0013684*
X0038212Y0014451*
X003832Y0015275*
Y0017441*
X0038212Y0018264*
X0037894Y0019032*
X0037388Y0019691*
X0036729Y0020197*
X0035961Y0020515*
X0035137Y0020624*
G37*
G36*
X0068925Y0007848D02*
X0068457Y0007755D01*
X006806Y000749*
X0067794Y0007093*
X0067701Y0006625*
X0067794Y0006157*
X006806Y000576*
X0068457Y0005494*
X0068925Y0005401*
X0069393Y0005494*
X006979Y000576*
X0070055Y0006157*
X0070148Y0006625*
X0070055Y0007093*
X006979Y000749*
X0069393Y0007755*
X0068925Y0007848*
G37*
G36*
X0082677Y0018794D02*
X0081314Y001866D01*
X0080004Y0018262*
X0078797Y0017617*
X0077738Y0016749*
X007687Y001569*
X0076225Y0014483*
X0075827Y0013173*
X0075693Y001181*
X0075827Y0010448*
X0076225Y0009138*
X007687Y0007931*
X0077738Y0006872*
X0078797Y0006004*
X0080004Y0005358*
X0081314Y0004961*
X0082677Y0004827*
X0084039Y0004961*
X0085349Y0005358*
X0086557Y0006004*
X0087615Y0006872*
X0088483Y0007931*
X0089129Y0009138*
X0089526Y0010448*
X008966Y001181*
X0089526Y0013173*
X0089129Y0014483*
X0088483Y001569*
X0087615Y0016749*
X0086557Y0017617*
X0085349Y0018262*
X0084039Y001866*
X0082677Y0018794*
G37*
G36*
X0015748D02*
X0014385Y001866D01*
X0013075Y0018262*
X0011868Y0017617*
X0010809Y0016749*
X0009941Y001569*
X0009295Y0014483*
X0008898Y0013173*
X0008764Y001181*
X0008898Y0010448*
X0009295Y0009138*
X0009941Y0007931*
X0010809Y0006872*
X0011868Y0006004*
X0013075Y0005358*
X0014385Y0004961*
X0015748Y0004827*
X001711Y0004961*
X001842Y0005358*
X0019627Y0006004*
X0020686Y0006872*
X0021554Y0007931*
X00222Y0009138*
X0022597Y0010448*
X0022731Y001181*
X0022597Y0013173*
X00222Y0014483*
X0021554Y001569*
X0020686Y0016749*
X0019627Y0017617*
X001842Y0018262*
X001711Y001866*
X0015748Y0018794*
G37*
%LNdigit_copper_signal_2-3*%
%LPD*%
G36*
X0037386Y0096004D02*
Y0086995D01*
X0035895Y0085504*
X003574Y0085273*
X0035686Y0085*
Y0082376*
X0035224Y0082185*
X0032913Y0084495*
Y0096277*
X0033148Y0096434*
X0033413Y0096831*
X0033507Y00973*
X0033413Y0097768*
X0033148Y0098165*
X0032751Y009843*
X0032572Y0098465*
X003247Y0098486*
X0032519Y0098981*
X0032549Y0098986*
X0034404*
X0037386Y0096004*
G37*
G36*
X0054847Y0081186D02*
X0054775Y0081078D01*
X0054682Y008061*
X0054775Y0080142*
X005504Y0079745*
X0055026Y0079152*
X0054919Y0078991*
X0054826Y0078523*
X0054919Y0078055*
X0055184Y0077658*
X0055581Y0077393*
X0056049Y00773*
X0056517Y0077393*
X0056914Y0077658*
X005718Y0078055*
X0057744Y0078329*
X0057874Y0078304*
X0058342Y0078397*
X0058739Y0078662*
X0059004Y0079059*
X0059039Y0079233*
X0059132Y0079532*
X0059582Y0079596*
X0059645Y0079583*
X0059709Y0079596*
X0060158Y0079532*
X0060252Y0079233*
X0060286Y0079059*
X0060552Y0078662*
X0060949Y0078397*
X0061417Y0078304*
X0061885Y0078397*
X0062282Y0078662*
X0062871Y0078643*
X0062886Y0078633*
Y0062*
X006294Y0061726*
X0063095Y0061495*
X0069686Y0054904*
Y0054164*
X0069186Y0053896*
X0069068Y0053975*
X00686Y0054069*
X0068131Y0053975*
X0067734Y005371*
X0067599Y0053508*
X0059429*
X005145Y0061487*
Y0078527*
X0051652Y0078662*
X0051667Y0078685*
X0052269*
X0052284Y0078662*
X0052681Y0078397*
X0053149Y0078304*
X0053617Y0078397*
X0054014Y0078662*
X005428Y0079059*
X0054373Y0079527*
X005428Y0079995*
X0054014Y0080392*
X0053617Y0080657*
X0053149Y0080751*
X0052681Y0080657*
X0052284Y0080392*
X0052269Y0080369*
X0051667*
X0051652Y0080392*
X0051255Y0080657*
X0050787Y0080751*
X0050319Y0080657*
X0049922Y0080392*
X0049907Y0080369*
X0049305*
X004929Y0080392*
X0048893Y0080657*
X0048425Y0080751*
X0047957Y0080657*
X004756Y0080392*
X004752Y0080333*
X0046965Y0080265*
X0046568Y008053*
X004655Y0080533*
X0046385Y0081076*
X0046995Y0081686*
X0054579*
X0054847Y0081186*
G37*
G36*
X0049763Y0078616D02*
X0050124Y0078275D01*
Y0061212*
X0050175Y0060959*
X0050318Y0060744*
X0058685Y0052376*
X00589Y0052233*
X0059154Y0052182*
X0067599*
X0067734Y005198*
X0067746Y0051972*
Y0051472*
X0067734Y0051465*
X0067469Y0051068*
X0067376Y00506*
X0067469Y0050131*
X0067662Y0049843*
X0067692Y0049614*
X0067388Y0049138*
X005647*
X0049138Y005647*
Y0078561*
X004929Y0078662*
X0049763Y0078616*
G37*
G36*
X0047448Y0078456D02*
X0047711Y007825D01*
Y0056174*
X0047765Y0055901*
X004792Y005567*
X005567Y004792*
X0055901Y0047765*
X0056174Y0047711*
X0067397*
X0067609Y0047211*
X0067375Y0046913*
X0054395*
X0046813Y0054495*
Y0078433*
X0046965Y0078534*
X0047448Y0078456*
G37*
%LNdigit_copper_signal_2-4*%
%LPC*%
G36*
X00353Y0095711D02*
X0034831Y0095618D01*
X0034434Y0095353*
X0034169Y0094956*
X0034076Y0094488*
X0034169Y009402*
X0034434Y0093623*
X0034831Y0093357*
X00353Y0093264*
X0035768Y0093357*
X0036165Y0093623*
X003643Y009402*
X0036523Y0094488*
X003643Y0094956*
X0036165Y0095353*
X0035768Y0095618*
X00353Y0095711*
G37*
G36*
X00354Y0089923D02*
X0034931Y008983D01*
X0034534Y0089565*
X0034269Y0089168*
X0034176Y00887*
X0034269Y0088231*
X0034534Y0087834*
X0034931Y0087569*
X00354Y0087476*
X0035868Y0087569*
X0036265Y0087834*
X003653Y0088231*
X0036623Y00887*
X003653Y0089168*
X0036265Y0089565*
X0035868Y008983*
X00354Y0089923*
G37*
%LNdigit_copper_signal_2-5*%
%LPD*%
G54D29*
X00467Y00824D02*
X0069D01*
X00437Y00794D02*
X00467Y00824D01*
X0069D02*
X00714Y008D01*
X00484Y0091D02*
X00683D01*
X00394Y0082D02*
X00484Y0091D01*
X0048425Y0056174D02*
Y0079527D01*
X00461Y00542D02*
Y00794D01*
X00394Y00341D02*
Y0082D01*
X00362Y00309D02*
X00394Y00341D01*
X00316Y00309D02*
X00362D01*
X0030502Y0031997D02*
X00316Y00309D01*
X0030502Y0031997D02*
Y0032997D01*
X00304Y00331D02*
X0030502Y0032997D01*
X00108Y00949D02*
X00201D01*
X00249Y00997*
X00347*
X00381Y00963*
Y00867D02*
Y00963D01*
X00364Y0085D02*
X00381Y00867D01*
X00364Y0052431D02*
Y0085D01*
X00354Y0051431D02*
X00364Y0052431D01*
X00354Y00331D02*
Y0051431D01*
X00322Y00842D02*
X00354Y0081D01*
Y0052845D02*
Y0081D01*
X00322Y00842D02*
Y0097216D01*
X0032283Y00973*
X0033Y0050445D02*
X00354Y0052845D01*
X0033Y00331D02*
Y0050445D01*
X00541Y00462D02*
X00686D01*
X00461Y00542D02*
X00541Y00462D01*
X00678Y00712D02*
X00714Y00748D01*
Y008*
X0048425Y0056174D02*
X0056174Y0048425D01*
X00686*
X00636Y0062D02*
Y00796D01*
Y0062D02*
X00704Y00552D01*
Y00524D02*
Y00552D01*
X00686Y00506D02*
X00704Y00524D01*
G54D30*
X0050787Y0061212D02*
Y0079527D01*
Y0061212D02*
X0059154Y0052845D01*
X00686*
G54D32*
X00531Y00954D02*
X00784D01*
X00851Y00887*
X0091732Y0008393D02*
Y0035632D01*
X0085307Y0001968D02*
X0091732Y0008393D01*
X0041931Y0001968D02*
X0085307D01*
X00082Y00357D02*
X0041931Y0001968D01*
X00851Y0042264D02*
Y00887D01*
Y0042264D02*
X0091732Y0035632D01*
X00082Y00426D02*
X00097Y00441D01*
X00082Y00357D02*
Y00426D01*
X00737Y00332D02*
X0076132Y0035632D01*
X0091732*
G54D34*
X0063287Y0016358D03*
X0035137D03*
G54D35*
X0049212Y0105118D03*
X0015748Y001181D03*
X0082677D03*
G54D36*
X0055905Y008061D03*
X0053149Y0079527D03*
X0056049Y0078523D03*
X0050787Y0079527D03*
X00581Y0087795D03*
X0048425Y0079527D03*
X0057874D03*
X0061417D03*
X004872Y0042027D03*
X0052657Y0042126D03*
X0056889Y0042322D03*
X0037007Y0028697D03*
X00298Y0051193D03*
X0017571Y0077328D03*
X00562Y00981D03*
X00645Y00891D03*
X00737Y00332D03*
X00082Y00357D03*
X00531Y00954D03*
X00683Y0091D03*
X00353Y0094488D03*
X0032283Y00973D03*
X00108Y00949D03*
X0033Y00331D03*
X00304D03*
X00354D03*
X0068925Y0006625D03*
X00299Y0078D03*
X00354Y00887D03*
X00391Y0031416D03*
X0062204Y00983D03*
X0058661Y0098155D03*
X0065748Y0098148D03*
X00081Y0065748D03*
X00079Y0048275D03*
X00155Y00986D03*
X00273Y00871D03*
X00748Y00991D03*
X00715Y00869D03*
X00814Y0058439D03*
X00804Y0079704D03*
X00899Y00697D03*
X009Y00507D03*
X00825Y00406D03*
X0049212Y00303D03*
X0063287Y0026D03*
X00598D03*
X00272Y00345D03*
X00121Y00695D03*
X00141Y00774D03*
Y00879D03*
X00226Y00239D03*
X0031462Y0102362D03*
X00875Y0091141D03*
X008582Y00212D03*
X0032Y00641D03*
X00318Y0054724D03*
X00097Y00441D03*
X0049212Y00246D03*
X00518Y00254D03*
X00209Y00737D03*
Y00715D03*
X0059645Y0080807D03*
X0022037Y0057937D03*
X0066389Y0031889D03*
X00563Y0026D03*
X00682Y00627D03*
X00221Y00667D03*
Y00647D03*
X00437Y00794D03*
X00461D03*
X00678Y00686D03*
X00686Y00462D03*
Y0048425D03*
Y00506D03*
Y0052845D03*
X00678Y00712D03*
X0031Y00685D03*
X00686Y0077D03*
X00669Y00795D03*
X00636Y00796D03*
X0063287Y0041338D03*
X0065748D03*
X0030315Y0059055D03*
G54D37*
X0091732Y00592D03*
X0073228Y0037D03*
X0091732Y0035632D03*
M02*