%FSTAX25Y25*%
%MOIN*%
%SFA1B1*%

%IPPOS*%
%AMD16*
4,1,8,-0.030000,0.007500,-0.030000,-0.007500,-0.022500,-0.015000,0.022500,-0.015000,0.030000,-0.007500,0.030000,0.007500,0.022500,0.015000,-0.022500,0.015000,-0.030000,0.007500,0.0*
1,1,0.015000,-0.022500,0.007500*
1,1,0.015000,-0.022500,-0.007500*
1,1,0.015000,0.022500,-0.007500*
1,1,0.015000,0.022500,0.007500*
%
G04~CAMADD=16~8~0.0~0.0~300.0~600.0~75.0~0.0~15~0.0~0.0~0.0~0.0~0~0.0~0.0~0.0~0.0~0~0.0~0.0~0.0~90.0~600.0~300.0*
%ADD16D16*%
%ADD17R,0.020470X0.020470*%
%ADD18R,0.039370X0.035430*%
%ADD19R,0.035430X0.039370*%
%ADD20R,0.031500X0.035430*%
%ADD21R,0.051180X0.027560*%
%ADD22C,0.009000*%
%ADD23R,0.017720X0.021650*%
%ADD24R,0.025590X0.021650*%
%ADD25R,0.021650X0.017720*%
%ADD26R,0.017720X0.011810*%
%ADD27R,0.014960X0.043310*%
%ADD28R,0.009060X0.028740*%
%ADD29R,0.020470X0.020470*%
%ADD30R,0.028350X0.028350*%
%LNdigit-1*%
%LPD*%
G54D16*
X0006205Y0033169D03*
X0006299Y0029528D03*
Y0026D03*
Y0022441D03*
Y0018898D03*
G54D17*
X0082451Y0025295D03*
Y0022146D03*
X0072342D03*
Y0025295D03*
X0091732Y0066142D03*
Y0062992D03*
X00931Y0051125D03*
Y0054275D03*
X0066899Y0056115D03*
Y0059265D03*
X0070442Y0056115D03*
Y0059265D03*
X0066929Y0086614D03*
Y0083465D03*
X0063386Y0086614D03*
Y0083465D03*
G54D18*
X0077559Y0029626D03*
Y0023327D03*
X0026083Y0048228D03*
Y0054527D03*
X0091732Y0046457D03*
Y0040157D03*
G54D19*
X0052461Y0085138D03*
X005876D03*
G54D20*
X0010925Y0060728D03*
Y0054232D03*
X0015846Y0060728D03*
Y0054232D03*
G54D21*
X0085039Y0062992D03*
Y0066732D03*
Y0070472D03*
X007559D03*
Y0062992D03*
X0085433Y0046654D03*
Y0050394D03*
Y0054134D03*
X0075984D03*
Y0046654D03*
G54D22*
X0053858Y0062598D03*
Y006063D03*
Y0058661D03*
Y0056693D03*
Y0054724D03*
X0051732Y0062598D03*
Y006063D03*
Y0058661D03*
Y0056693D03*
Y0054724D03*
X0049606Y0062598D03*
Y006063D03*
Y0058661D03*
Y0056693D03*
Y0054724D03*
X004748Y0062598D03*
Y006063D03*
Y0058661D03*
Y0056693D03*
Y0054724D03*
X0045354Y0062598D03*
Y006063D03*
Y0058661D03*
Y0056693D03*
Y0054724D03*
G54D23*
X0060433Y003937D03*
X005689D03*
X0060433Y00357D03*
X005689D03*
X0024213Y0102362D03*
X0027756D03*
X0024213Y0098819D03*
X0027756D03*
G54D24*
X007126Y0094882D03*
Y0090945D03*
X0028346D03*
Y0094882D03*
X0014173Y0090945D03*
Y0094882D03*
G54D25*
X0084252Y0094685D03*
Y0091142D03*
G54D26*
X0075295Y0094882D03*
Y0092913D03*
Y0090945D03*
X008061D03*
Y0092913D03*
Y0094882D03*
X0018602D03*
Y0092913D03*
Y0090945D03*
X0023917D03*
Y0092913D03*
Y0094882D03*
G54D27*
X0039075Y0016437D03*
X0059252D03*
G54D28*
X0054675Y0021358D03*
X00531D03*
X0051526D03*
X0049951D03*
X0043652D03*
X0045226D03*
X0046801D03*
X0048376D03*
Y0011319D03*
X0046801D03*
X0045226D03*
X0043652D03*
X0049951D03*
X0051526D03*
X00531D03*
X0054675D03*
G54D29*
X007874Y0076378D03*
X007559D03*
X0079134Y0040551D03*
X0075984D03*
X0024409Y0066535D03*
X0027559D03*
X0024409Y0070079D03*
X0027559D03*
X0024409Y0062992D03*
X0027559D03*
X0024409Y0059449D03*
X0027559D03*
G54D30*
X0011417Y0065748D03*
X0015354D03*
X0011417Y0048425D03*
X0015354D03*
M02*