%FSTAX25Y25*%
%MOIN*%
%SFA1B1*%

%IPPOS*%
%ADD9500C,0.008000*%
%ADD9501C,0.012000*%
%ADD9502C,0.122050*%
%LNdigit-roundholes-1*%
%LPD*%
G54D9500*
X00082Y00357D03*
X00097Y00441D03*
X00079Y0048275D03*
X00081Y0065748D03*
X00121Y00695D03*
X00141Y00774D03*
X0017572Y0077328D03*
X00209Y00737D03*
Y00715D03*
X00221Y00667D03*
Y00647D03*
X0022037Y0057937D03*
X0030315Y0059055D03*
X00318Y0054724D03*
X00298Y0051194D03*
X0032Y00641D03*
X0031Y00685D03*
X00299Y0078D03*
X00273Y00871D03*
X00354Y00887D03*
X00353Y0094488D03*
X0032283Y00973D03*
X0031462Y0102362D03*
X00155Y00986D03*
X00108Y00949D03*
X00141Y00879D03*
X00437Y00794D03*
X00461D03*
X0048425Y0079528D03*
X0050787D03*
X005315D03*
X0055905Y008061D03*
X005605Y0078524D03*
X0057874Y0079528D03*
X0059646Y0080807D03*
X0061417Y0079528D03*
X00636Y00796D03*
X00669Y00795D03*
X00686Y0077D03*
X00678Y00712D03*
Y00686D03*
X00682Y00627D03*
X00686Y0052846D03*
Y00506D03*
Y0048425D03*
Y00462D03*
X0065748Y0041339D03*
X0063287D03*
X005689Y0042323D03*
X0052658Y0042126D03*
X004872Y0042028D03*
X0049213Y00303D03*
Y00246D03*
X00518Y00254D03*
X00563Y0026D03*
X00598D03*
X0063287D03*
X006639Y003189D03*
X00737Y00332D03*
X00825Y00406D03*
X009Y00507D03*
X00814Y0058439D03*
X00899Y00697D03*
X00804Y0079705D03*
X00715Y00869D03*
X00683Y0091D03*
X00645Y00891D03*
X00581Y0087795D03*
X0058661Y0098155D03*
X00562Y00981D03*
X00531Y00954D03*
X0062205Y00983D03*
X0065748Y0098148D03*
X00748Y00991D03*
X00875Y0091142D03*
X008582Y00212D03*
X0068925Y0006625D03*
X0037008Y0028698D03*
X00391Y0031416D03*
X00354Y00331D03*
X0033D03*
X00304D03*
X00272Y00345D03*
X00226Y00239D03*
G54D9501*
X0073228Y0037D03*
X0091732Y0035632D03*
Y00592D03*
G54D9502*
X0015748Y0011811D03*
X0082677D03*
X0049213Y0105118D03*
M02*