%FSTAX25Y25*%
%MOIN*%
%SFA1B1*%

%IPPOS*%
%ADD11C,0.009840*%
%ADD12C,0.007870*%
%ADD14C,0.010000*%
%LNdigit-1*%
%LPD*%
G54D11*
X0077953Y0079528D02*
D01*
X0077951Y0079562*
X0077948Y0079596*
X0077942Y007963*
X0077933Y0079663*
X0077923Y0079696*
X007791Y0079728*
X0077895Y0079758*
X0077878Y0079788*
X0077859Y0079817*
X0077837Y0079844*
X0077814Y0079869*
X007779Y0079893*
X0077763Y0079915*
X0077736Y0079935*
X0077707Y0079954*
X0077676Y007997*
X0077645Y0079984*
X0077613Y0079995*
X007758Y0080005*
X0077546Y0080012*
X0077512Y0080017*
X0077478Y0080019*
X0077443*
X0077409Y0080017*
X0077375Y0080012*
X0077341Y0080005*
X0077308Y0079995*
X0077276Y0079984*
X0077245Y007997*
X0077215Y0079954*
X0077185Y0079935*
X0077158Y0079915*
X0077131Y0079893*
X0077107Y0079869*
X0077084Y0079844*
X0077062Y0079817*
X0077043Y0079788*
X0077026Y0079758*
X0077011Y0079728*
X0076998Y0079696*
X0076988Y0079663*
X0076979Y007963*
X0076973Y0079596*
X007697Y0079562*
X0076969Y0079528*
X007697Y0079493*
X0076973Y0079459*
X0076979Y0079425*
X0076988Y0079392*
X0076998Y0079359*
X0077011Y0079327*
X0077026Y0079297*
X0077043Y0079267*
X0077062Y0079238*
X0077084Y0079211*
X0077107Y0079186*
X0077131Y0079162*
X0077158Y007914*
X0077185Y007912*
X0077215Y0079101*
X0077245Y0079085*
X0077276Y0079071*
X0077308Y007906*
X0077341Y007905*
X0077375Y0079043*
X0077409Y0079038*
X0077443Y0079036*
X0077478*
X0077512Y0079038*
X0077546Y0079043*
X007758Y007905*
X0077613Y007906*
X0077645Y0079071*
X0077676Y0079085*
X0077707Y0079101*
X0077736Y007912*
X0077763Y007914*
X007779Y0079162*
X0077814Y0079186*
X0077837Y0079211*
X0077859Y0079238*
X0077878Y0079267*
X0077895Y0079297*
X007791Y0079327*
X0077923Y0079359*
X0077933Y0079392*
X0077942Y0079425*
X0077948Y0079459*
X0077951Y0079493*
X0077953Y0079528*
X0054823Y002498D02*
D01*
X0054821Y0025014*
X0054818Y0025048*
X0054812Y0025082*
X0054803Y0025115*
X0054793Y0025148*
X005478Y002518*
X0054765Y002521*
X0054748Y002524*
X0054729Y0025269*
X0054707Y0025296*
X0054684Y0025321*
X005466Y0025345*
X0054633Y0025367*
X0054606Y0025387*
X0054577Y0025406*
X0054546Y0025422*
X0054515Y0025436*
X0054483Y0025447*
X005445Y0025457*
X0054416Y0025464*
X0054382Y0025469*
X0054348Y0025471*
X0054313*
X0054279Y0025469*
X0054245Y0025464*
X0054211Y0025457*
X0054178Y0025447*
X0054146Y0025436*
X0054115Y0025422*
X0054085Y0025406*
X0054055Y0025387*
X0054028Y0025367*
X0054001Y0025345*
X0053977Y0025321*
X0053954Y0025296*
X0053932Y0025269*
X0053913Y002524*
X0053896Y002521*
X0053881Y002518*
X0053868Y0025148*
X0053858Y0025115*
X0053849Y0025082*
X0053843Y0025048*
X005384Y0025014*
X0053839Y002498*
X005384Y0024945*
X0053843Y0024911*
X0053849Y0024877*
X0053858Y0024844*
X0053868Y0024811*
X0053881Y0024779*
X0053896Y0024749*
X0053913Y0024719*
X0053932Y002469*
X0053954Y0024663*
X0053977Y0024638*
X0054001Y0024614*
X0054028Y0024592*
X0054055Y0024572*
X0054085Y0024553*
X0054115Y0024537*
X0054146Y0024523*
X0054178Y0024512*
X0054211Y0024502*
X0054245Y0024495*
X0054279Y002449*
X0054313Y0024488*
X0054348*
X0054382Y002449*
X0054416Y0024495*
X005445Y0024502*
X0054483Y0024512*
X0054515Y0024523*
X0054546Y0024537*
X0054577Y0024553*
X0054606Y0024572*
X0054633Y0024592*
X005466Y0024614*
X0054684Y0024638*
X0054707Y0024663*
X0054729Y002469*
X0054748Y0024719*
X0054765Y0024749*
X005478Y0024779*
X0054793Y0024811*
X0054803Y0024844*
X0054812Y0024877*
X0054818Y0024911*
X0054821Y0024945*
X0054823Y002498*
G54D12*
X0073228Y0081299D02*
Y0082776D01*
X0071752Y0084252D02*
X0073228Y0082776D01*
X0070276Y0084252D02*
X0071752D01*
X0073228Y0037008D02*
Y0039961D01*
X0070276Y0037008D02*
X0073228D01*
X0025984D02*
X0028937D01*
X0025984D02*
Y0039961D01*
Y0081299D02*
Y0084252D01*
X0028937*
X0064567Y0007067D02*
Y0011138D01*
X0033858Y0007067D02*
Y0011138D01*
Y0022815D02*
X0041732D01*
X0033858Y0021579D02*
Y0022815D01*
X0056693D02*
X0064567D01*
Y0021579D02*
Y0022815D01*
X0033858Y0007067D02*
X0064567D01*
X001378Y0056299D02*
X0014173D01*
X001378Y0059449D02*
X0014173D01*
G54D14*
X00804Y0085964D02*
Y0083881D01*
X0079984Y0083465*
X007915*
X0078734Y0083881*
Y0085964*
X0077901Y0083465D02*
X0077068D01*
X0077484*
Y0085964*
X0077901Y0085547*
X0041339Y0027953D02*
X0043838D01*
Y0029202*
X0043421Y0029619*
X0042588*
X0042172Y0029202*
Y0027953*
Y0028786D02*
X0041339Y0029619D01*
X0043838Y0032118D02*
X0043421Y0031285D01*
X0042588Y0030452*
X0041755*
X0041339Y0030869*
Y0031701*
X0041755Y0032118*
X0042172*
X0042588Y0031701*
Y0030452*
X0011024Y0084252D02*
Y0086751D01*
X0009774*
X0009358Y0086335*
Y0085502*
X0009774Y0085085*
X0011024*
X0010191D02*
X0009358Y0084252D01*
X0006858Y0086751D02*
X0008524D01*
Y0085502*
X0007691Y0085918*
X0007275*
X0006858Y0085502*
Y0084668*
X0007275Y0084252*
X0008108*
X0008524Y0084668*
X0011024Y0080709D02*
Y0083208D01*
X0009774*
X0009358Y0082791*
Y0081958*
X0009774Y0081542*
X0011024*
X0010191D02*
X0009358Y0080709D01*
X0007275D02*
Y0083208D01*
X0008524Y0081958*
X0006858*
X0045276Y0027953D02*
X0047775D01*
Y0029202*
X0047358Y0029619*
X0046525*
X0046109Y0029202*
Y0027953*
Y0028786D02*
X0045276Y0029619D01*
X0047358Y0030452D02*
X0047775Y0030869D01*
Y0031701*
X0047358Y0032118*
X0046942*
X0046525Y0031701*
Y0031285*
Y0031701*
X0046109Y0032118*
X0045692*
X0045276Y0031701*
Y0030869*
X0045692Y0030452*
X0066043Y0101279D02*
X0068542D01*
Y0102529*
X0068126Y0102946*
X0067293*
X0066876Y0102529*
Y0101279*
Y0102113D02*
X0066043Y0102946D01*
Y0105445D02*
Y0103779D01*
X0067709Y0105445*
X0068126*
X0068542Y0105028*
Y0104195*
X0068126Y0103779*
X00108Y003937D02*
Y0041869D01*
X000955*
X0009134Y0041453*
Y004062*
X000955Y0040203*
X00108*
X0009967D02*
X0009134Y003937D01*
X0008301D02*
X0007468D01*
X0007884*
Y0041869*
X0008301Y0041453*
X0027816Y0021149D02*
Y0021982D01*
Y0021565*
X0029898*
X0030315Y0021982*
Y0022398*
X0029898Y0022815*
X0030315Y0020316D02*
Y0019483D01*
Y0019899*
X0027816*
X0028232Y0020316*
X0039878Y0090938D02*
X0040295Y0090521D01*
Y0089688*
X0039878Y0089272*
X0038212*
X0037795Y0089688*
Y0090521*
X0038212Y0090938*
X0037795Y0091771D02*
Y0092604D01*
Y0092187*
X0040295*
X0039878Y0091771*
Y0093853D02*
X0040295Y009427D01*
Y0095103*
X0039878Y009552*
X0039461*
X0039045Y0095103*
Y0094687*
Y0095103*
X0038628Y009552*
X0038212*
X0037795Y0095103*
Y009427*
X0038212Y0093853*
X0072358Y0029225D02*
X0072775Y0028809D01*
Y0027976*
X0072358Y0027559*
X0070692*
X0070276Y0027976*
Y0028809*
X0070692Y0029225*
X0070276Y0030058D02*
Y0030891D01*
Y0030475*
X0072775*
X0072358Y0030058*
X0070276Y0033807D02*
Y0032141D01*
X0071942Y0033807*
X0072358*
X0072775Y0033391*
Y0032557*
X0072358Y0032141*
X0008176Y0063106D02*
X0008593Y0063523D01*
X0009426*
X0009843Y0063106*
Y006144*
X0009426Y0061024*
X0008593*
X0008176Y006144*
X0007343Y0061024D02*
X000651D01*
X0006927*
Y0063523*
X0007343Y0063106*
X0005261Y0061024D02*
X0004428D01*
X0004844*
Y0063523*
X0005261Y0063106*
X0010145Y0053658D02*
X0010561Y0054074D01*
X0011394*
X0011811Y0053658*
Y0051991*
X0011394Y0051575*
X0010561*
X0010145Y0051991*
X0009312Y0051575D02*
X0008479D01*
X0008895*
Y0054074*
X0009312Y0053658*
X0007229D02*
X0006813Y0054074D01*
X000598*
X0005563Y0053658*
Y0051991*
X000598Y0051575*
X0006813*
X0007229Y0051991*
Y0053658*
X0006208Y0059169D02*
X0006624Y0059586D01*
X0007457*
X0007874Y0059169*
Y0057503*
X0007457Y0057087*
X0006624*
X0006208Y0057503*
X0005375D02*
X0004958Y0057087D01*
X0004125*
X0003709Y0057503*
Y0059169*
X0004125Y0059586*
X0004958*
X0005375Y0059169*
Y0058753*
X0004958Y0058336*
X0003709*
X0063916Y0102946D02*
X0064333Y0102529D01*
Y0101696*
X0063916Y0101279*
X006225*
X0061834Y0101696*
Y0102529*
X006225Y0102946*
X0063916Y0103779D02*
X0064333Y0104195D01*
Y0105028*
X0063916Y0105445*
X00635*
X0063083Y0105028*
X0062667Y0105445*
X006225*
X0061834Y0105028*
Y0104195*
X006225Y0103779*
X0062667*
X0063083Y0104195*
X00635Y0103779*
X0063916*
X0063083Y0104195D02*
Y0105028D01*
X0059976Y0102946D02*
X0060393Y0102529D01*
Y0101696*
X0059976Y0101279*
X005831*
X0057894Y0101696*
Y0102529*
X005831Y0102946*
X0060393Y0103779D02*
Y0105445D01*
X0059976*
X005831Y0103779*
X0057894*
X000857Y0074917D02*
X0008987Y0075334D01*
X000982*
X0010236Y0074917*
Y0073251*
X000982Y0072835*
X0008987*
X000857Y0073251*
X0006071Y0075334D02*
X0006904Y0074917D01*
X0007737Y0074084*
Y0073251*
X0007321Y0072835*
X0006487*
X0006071Y0073251*
Y0073668*
X0006487Y0074084*
X0007737*
X000857Y0078854D02*
X0008987Y0079271D01*
X000982*
X0010236Y0078854*
Y0077188*
X000982Y0076772*
X0008987*
X000857Y0077188*
X0006071Y0079271D02*
X0007737D01*
Y0078021*
X0006904Y0078438*
X0006487*
X0006071Y0078021*
Y0077188*
X0006487Y0076772*
X0007321*
X0007737Y0077188*
X0008176Y0070583D02*
X0008593Y0070999D01*
X0009426*
X0009843Y0070583*
Y0068916*
X0009426Y00685*
X0008593*
X0008176Y0068916*
X0006094Y00685D02*
Y0070999D01*
X0007343Y006975*
X0005677*
X0024894Y0029807D02*
X0024478Y0029391D01*
X0023645*
X0023228Y0029807*
Y0031473*
X0023645Y003189*
X0024478*
X0024894Y0031473*
X0025727Y0029807D02*
X0026144Y0029391D01*
X0026977*
X0027394Y0029807*
Y0030224*
X0026977Y003064*
X0026561*
X0026977*
X0027394Y0031057*
Y0031473*
X0026977Y003189*
X0026144*
X0025727Y0031473*
X0024107Y002587D02*
X002369Y0025454D01*
X0022858*
X0022441Y002587*
Y0027536*
X0022858Y0027953*
X002369*
X0024107Y0027536*
X0026606Y0027953D02*
X002494D01*
X0026606Y0026287*
Y002587*
X002619Y0025454*
X0025357*
X002494Y002587*
X0068224Y0029225D02*
X0068641Y0028809D01*
Y0027976*
X0068224Y0027559*
X0066558*
X0066142Y0027976*
Y0028809*
X0066558Y0029225*
X0066142Y0030058D02*
Y0030891D01*
Y0030475*
X0068641*
X0068224Y0030058*
M02*