%FSTAX25Y25*%
%MOIN*%
%SFA1B1*%

%IPPOS*%
%AMD63*
4,1,8,-0.019700,0.002000,-0.019700,-0.002000,-0.017700,-0.003900,0.017700,-0.003900,0.019700,-0.002000,0.019700,0.002000,0.017700,0.003900,-0.017700,0.003900,-0.019700,0.002000,0.0*
%
%ADD17R,0.020470X0.020470*%
%ADD19R,0.035430X0.039370*%
%ADD23R,0.017720X0.021650*%
%ADD29R,0.020470X0.020470*%
%ADD60R,0.318900X0.318900*%
%ADD61O,0.007870X0.039370*%
%ADD62O,0.039370X0.007870*%
G04~CAMADD=63~4~0.0~0.0~78.7~393.7~0.0~19.7~0~0.0~0.0~0.0~0.0~0~0.0~0.0~0.0~0.0~0~0.0~0.0~0.0~90.0~394.0~78.0*
%ADD63D63*%
%ADD64R,0.017720X0.017720*%
%ADD65R,0.021650X0.025590*%
%ADD66R,0.015750X0.059060*%
%ADD67R,0.024410X0.024410*%
%LNdigit-1*%
%LPD*%
G54D17*
X0032283Y0094488D03*
Y0091339D03*
X0063287Y002874D03*
Y003189D03*
X0062205Y0094488D03*
Y0091339D03*
X0058661Y0094488D03*
Y0091339D03*
X0059842Y002874D03*
Y003189D03*
G54D19*
X0010827Y0057874D03*
X0017126D03*
G54D23*
X0016732Y0044094D03*
X0013189D03*
G54D29*
X0015157Y0062598D03*
X0018307D03*
X0014961Y005315D03*
X001811D03*
X0015157Y00696D03*
X0018307D03*
X0015157Y0066142D03*
X0018307D03*
X0029921Y0030709D03*
X0033071D03*
G54D60*
X0049606Y006063D03*
G54D61*
X0068504Y0084252D03*
X0066929D03*
X0065354D03*
X0063779D03*
X0062205D03*
X006063D03*
X0059055D03*
X005748D03*
X0055905D03*
X0054331D03*
X0052756D03*
X0051181D03*
X0049606D03*
X0048031D03*
X0046457D03*
X0044882D03*
X0043307D03*
X0041732D03*
X0040157D03*
X0038583D03*
X0037008D03*
X0035433D03*
X0033858D03*
X0032283D03*
X0030709D03*
Y0037008D03*
X0032283D03*
X0033858D03*
X0035433D03*
X0037008D03*
X0038583D03*
X0040157D03*
X0041732D03*
X0043307D03*
X0044882D03*
X0046457D03*
X0048031D03*
X0049606D03*
X0051181D03*
X0052756D03*
X0054331D03*
X0055905D03*
X005748D03*
X0059055D03*
X006063D03*
X0062205D03*
X0063779D03*
X0065354D03*
X0066929D03*
X0068504D03*
G54D62*
X0025984Y0079527D03*
Y0077953D03*
Y0076378D03*
Y0074803D03*
Y0073228D03*
Y0071653D03*
Y0070079D03*
Y0068504D03*
Y0066929D03*
Y0065354D03*
Y0063779D03*
Y0062205D03*
Y006063D03*
Y0059055D03*
Y005748D03*
Y0055905D03*
Y0054331D03*
Y0052756D03*
Y0051181D03*
Y0049606D03*
Y0048031D03*
Y0046457D03*
Y0044882D03*
Y0043307D03*
Y0041732D03*
X0073228D03*
Y0043307D03*
Y0044882D03*
Y0046457D03*
Y0048031D03*
Y0049606D03*
Y0051181D03*
Y0052756D03*
Y0054331D03*
Y0055905D03*
Y005748D03*
Y0059055D03*
Y006063D03*
Y0062205D03*
Y0063779D03*
Y0065354D03*
Y0066929D03*
Y0068504D03*
Y0070079D03*
Y0071653D03*
Y0073228D03*
Y0074803D03*
Y0076378D03*
Y0077953D03*
G54D63*
X0073228Y0079528D03*
G54D64*
X0052756Y002874D03*
Y003189D03*
X0056299D03*
Y002874D03*
X0065748Y0091339D03*
Y0094488D03*
G54D65*
X0014173Y0084646D03*
X001811D03*
X0014173Y0080709D03*
X001811D03*
G54D66*
X0054331Y0019862D03*
X0051772D03*
X0049213D03*
X0046654D03*
X0044094D03*
G54D67*
X0014028Y00736D03*
X0017572D03*
X0029724Y0026772D03*
X0033268D03*
M02*