%FSTAX25Y25*%
%MOIN*%
%SFA1B1*%

%IPPOS*%
%ADD49C,0.010000*%
%LNdigit_mechanical_1-1*%
%LPD*%
G54D49*
X0001968Y0070866D02*
X000217Y0075225D01*
X0002772Y0079547*
X0003771Y0083794*
X0005158Y0087932*
X0006921Y0091924*
X0009044Y0095736*
X001151Y0099336*
X0014298Y0102694*
X0017384Y0105779*
X0020741Y0108567*
X0024341Y0111033*
X0028154Y0113157*
X0032145Y0114919*
X0036283Y0116306*
X0040531Y0117305*
X0044853Y0117908*
X0049212Y011811*
X0053571Y0117908*
X0057893Y0117305*
X0062141Y0116306*
X0066279Y0114919*
X0070271Y0113157*
X0074083Y0111033*
X0077683Y0108567*
X008104Y0105779*
X0084126Y0102694*
X0086914Y0099336*
X008938Y0095736*
X0091503Y0091924*
X0093266Y0087932*
X0094653Y0083794*
X0095652Y0079547*
X0096255Y0075225*
X0096456Y0070866*
Y0013779D02*
Y0070866D01*
X0096217Y0011044D02*
X0096456Y0013779D01*
X0095506Y0008393D02*
X0096217Y0011044D01*
X0094346Y0005905D02*
X0095506Y0008393D01*
X0092772Y0003656D02*
X0094346Y0005905D01*
X0090831Y0001715D02*
X0092772Y0003656D01*
X0088582Y0000141D02*
X0090831Y0001715D01*
X0086094Y-0001018D02*
X0088582Y0000141D01*
X0083443Y-0001729D02*
X0086094Y-0001018D01*
X0080708Y-0001968D02*
X0083443Y-0001729D01*
X0017716Y-0001968D02*
X0080708D01*
X0014981Y-0001729D02*
X0017716Y-0001968D01*
X001233Y-0001018D02*
X0014981Y-0001729D01*
X0009842Y0000141D02*
X001233Y-0001018D01*
X0007593Y0001715D02*
X0009842Y0000141D01*
X0005652Y0003656D02*
X0007593Y0001715D01*
X0004078Y0005905D02*
X0005652Y0003656D01*
X0002918Y0008393D02*
X0004078Y0005905D01*
X0002207Y0011044D02*
X0002918Y0008393D01*
X0001968Y0013779D02*
X0002207Y0011044D01*
X0001968Y0013779D02*
Y0070866D01*
M02*