%FSTAX25Y25*%
%MOIN*%
%SFA1B1*%

%IPPOS*%
%ADD15C,0.005000*%
%ADD52C,0.006000*%
%ADD56O,0.055120X0.076770*%
%ADD57C,0.150000*%
%ADD58C,0.016000*%
%LNdigit-1*%
%LPD*%
G36*
X0053572Y0117909D02*
X0057894Y0117306D01*
X0062142Y0116306*
X0066279Y011492*
X0070271Y0113157*
X0074083Y0111034*
X0077684Y0108568*
X0081041Y010578*
X0084126Y0102694*
X0086914Y0099337*
X008938Y0095737*
X0091504Y0091925*
X0093266Y0087932*
X0094653Y0083795*
X0095652Y0079547*
X0096255Y0075225*
X0096457Y0070866*
Y0013779*
X0096217Y0011045*
X0095507Y0008393*
X0094347Y0005905*
X0092772Y0003657*
X0090831Y0001716*
X0088583Y0000141*
X0086095Y-0001019*
X0083443Y-0001729*
X0080709Y-0001969*
X0017716*
X0014982Y-0001729*
X001233Y-0001019*
X0009842Y0000141*
X0007594Y0001716*
X0005653Y0003657*
X0004078Y0005905*
X0002918Y0008393*
X0002208Y0011045*
X0001968Y0013779*
Y0070866*
X000217Y0075225*
X0002773Y0079547*
X0003772Y0083795*
X0005159Y0087932*
X0006921Y0091925*
X0009045Y0095737*
X0011511Y0099337*
X0014299Y0102694*
X0017384Y010578*
X0020742Y0108568*
X0024342Y0111034*
X0028154Y0113157*
X0032146Y011492*
X0036284Y0116306*
X0040531Y0117306*
X0044853Y0117909*
X0049213Y011811*
X0053572Y0117909*
G37*
%LNdigit-2*%
%LPC*%
G36*
X0049613Y0113419D02*
Y0105518D01*
X0057513*
X0057392Y0106745*
X0056918Y010831*
X0056147Y0109751*
X005511Y0111015*
X0053846Y0112053*
X0052404Y0112823*
X005084Y0113298*
X0049613Y0113419*
G37*
G36*
X0048812D02*
X0047585Y0113298D01*
X0046021Y0112823*
X0044579Y0112053*
X0043315Y0111015*
X0042278Y0109751*
X0041507Y010831*
X0041033Y0106745*
X0040912Y0105518*
X0048812*
Y0113419*
G37*
G36*
X0034055Y0103586D02*
X0033587Y0103493D01*
X003319Y0103227*
X0033037Y0102998*
X0033018Y010299*
X00325*
X0032481Y0102998*
X0032327Y0103227*
X003193Y0103493*
X0031462Y0103586*
X0030994Y0103493*
X0030597Y0103227*
X0030332Y010283*
X0030239Y0102362*
X0030332Y0101894*
X0030597Y0101497*
X0030994Y0101232*
X0031462Y0101139*
X003193Y0101232*
X0032327Y0101497*
X0032481Y0101727*
X00325Y0101734*
X0033018*
X0033037Y0101727*
X003319Y0101497*
X0033587Y0101232*
X0034055Y0101139*
X0034523Y0101232*
X003492Y0101497*
X0035186Y0101894*
X0035279Y0102362*
X0035186Y010283*
X003492Y0103227*
X0034523Y0103493*
X0034055Y0103586*
G37*
G36*
X00752Y0100652D02*
Y00995D01*
X0076352*
X0076307Y0099724*
X0075954Y0100253*
X0075424Y0100607*
X00752Y0100652*
G37*
G36*
X00744D02*
X0074176Y0100607D01*
X0073646Y0100253*
X0073293Y0099724*
X0073248Y00995*
X00744*
Y0100652*
G37*
G36*
X00159Y0100152D02*
Y0099D01*
X0017052*
X0017007Y0099224*
X0016654Y0099753*
X0016124Y0100107*
X00159Y0100152*
G37*
G36*
X00151D02*
X0014876Y0100107D01*
X0014346Y0099753*
X0013993Y0099224*
X0013948Y0099*
X00151*
Y0100152*
G37*
G36*
X0061805Y0099852D02*
X006158Y0099807D01*
X0061051Y0099454*
X0060698Y0098924*
X0060674Y0098804*
X0060214Y0098782*
X0060161Y0098791*
X0059815Y0099309*
X0059286Y0099662*
X0059061Y0099707*
Y0098155*
Y0096603*
X0059286Y0096648*
X0059815Y0097002*
X0060169Y0097531*
X0060193Y0097651*
X0060653Y0097673*
X0060705Y0097665*
X0061051Y0097146*
X006158Y0096793*
X0061805Y0096748*
Y00983*
Y0099852*
G37*
G36*
X0062605D02*
Y00987D01*
X0063757*
X0063712Y0098924*
X0063358Y0099454*
X0062829Y0099807*
X0062605Y0099852*
G37*
G36*
X0076352Y00987D02*
X00752D01*
Y0097548*
X0075424Y0097593*
X0075954Y0097947*
X0076307Y0098476*
X0076352Y00987*
G37*
G36*
X00744D02*
X0073248D01*
X0073293Y0098476*
X0073646Y0097947*
X0074176Y0097593*
X00744Y0097548*
Y00987*
G37*
G36*
X0017052Y00982D02*
X00159D01*
Y0097048*
X0016124Y0097093*
X0016654Y0097447*
X0017007Y0097976*
X0017052Y00982*
G37*
G36*
X00151D02*
X0013948D01*
X0013993Y0097976*
X0014346Y0097447*
X0014876Y0097093*
X00151Y0097048*
Y00982*
G37*
G36*
X0065748Y0099372D02*
X006528Y0099278D01*
X0064883Y0099013*
X0064618Y0098616*
X0064525Y0098148*
X0064618Y009768*
X0064883Y0097283*
X006528Y0097018*
X0065748Y0096925*
X0066216Y0097018*
X0066613Y0097283*
X0066878Y009768*
X0066972Y0098148*
X0066878Y0098616*
X0066613Y0099013*
X0066216Y0099278*
X0065748Y0099372*
G37*
G36*
X0048812Y0104718D02*
X0040912D01*
X0041033Y0103491*
X0041507Y0101926*
X0042278Y0100484*
X0043315Y0099221*
X0044579Y0098183*
X0046021Y0097413*
X0047585Y0096938*
X0048812Y0096817*
Y0104718*
G37*
G36*
X0063757Y00979D02*
X0062605D01*
Y0096748*
X0062829Y0096793*
X0063358Y0097146*
X0063712Y0097676*
X0063757Y00979*
G37*
G36*
X0057513Y0104718D02*
X0049613D01*
Y0096817*
X005084Y0096938*
X0052404Y0097413*
X0053846Y0098183*
X0054559Y0098769*
X0055033Y0098575*
X0055063Y0098535*
X0054976Y00981*
X005507Y0097632*
X0055335Y0097235*
X0055732Y009697*
X00562Y0096877*
X0056668Y009697*
X0056848Y009709*
X0057486Y0097034*
X0057508Y0097002*
X0058037Y0096648*
X0058261Y0096603*
Y0098155*
Y0099707*
X0058037Y0099662*
X0057508Y0099309*
X005745Y0099221*
X0056797Y0099144*
X0056668Y009923*
X00562Y0099323*
X0055771Y0099238*
X0055733Y0099269*
X0055571Y0099782*
X0056147Y0100484*
X0056918Y0101926*
X0057392Y0103491*
X0057513Y0104718*
G37*
G36*
X0032283Y0098523D02*
X0031815Y009843D01*
X0031418Y0098165*
X0031153Y0097768*
X003106Y00973*
X0031153Y0096832*
X0031418Y0096435*
X0031815Y009617*
X0032283Y0096077*
X0032752Y009617*
X0033149Y0096435*
X0033414Y0096832*
X0033507Y00973*
X0033414Y0097768*
X0033149Y0098165*
X0032752Y009843*
X0032283Y0098523*
G37*
G36*
X00357Y009604D02*
Y0094888D01*
X0036852*
X0036807Y0095113*
X0036454Y0095642*
X0035924Y0095995*
X00357Y009604*
G37*
G36*
X00349D02*
X0034676Y0095995D01*
X0034146Y0095642*
X0033793Y0095113*
X0033748Y0094888*
X00349*
Y009604*
G37*
G36*
X00108Y0096123D02*
X0010332Y009603D01*
X0009935Y0095765*
X000967Y0095368*
X0009577Y00949*
X000967Y0094432*
X0009935Y0094035*
X0010332Y009377*
X00108Y0093677*
X0011268Y009377*
X0011665Y0094035*
X001193Y0094432*
X0012024Y00949*
X001193Y0095368*
X0011665Y0095765*
X0011268Y009603*
X00108Y0096123*
G37*
G36*
X0036852Y0094088D02*
X00357D01*
Y0092936*
X0035924Y0092981*
X0036454Y0093335*
X0036807Y0093864*
X0036852Y0094088*
G37*
G36*
X00349D02*
X0033748D01*
X0033793Y0093864*
X0034146Y0093335*
X0034676Y0092981*
X00349Y0092936*
Y0094088*
G37*
G36*
X00875Y0092365D02*
X0087032Y0092272D01*
X0086635Y0092007*
X008637Y009161*
X0086277Y0091142*
X008637Y0090674*
X0086635Y0090277*
X0087032Y0090011*
X00875Y0089918*
X0087968Y0090011*
X0088365Y0090277*
X008863Y0090674*
X0088723Y0091142*
X008863Y009161*
X0088365Y0092007*
X0087968Y0092272*
X00875Y0092365*
G37*
G36*
X00683Y0092224D02*
X0067832Y009213D01*
X0067435Y0091865*
X006717Y0091468*
X0067076Y0091*
X006717Y0090532*
X0067435Y0090135*
X0067832Y008987*
X00683Y0089776*
X0068768Y008987*
X0069165Y0090135*
X006943Y0090532*
X0069524Y0091*
X006943Y0091468*
X0069165Y0091865*
X0068768Y009213*
X00683Y0092224*
G37*
G36*
X0054632Y0090823D02*
Y0089672D01*
X0055784*
X0055739Y0089896*
X0055386Y0090425*
X0054857Y0090779*
X0054632Y0090823*
G37*
G36*
X0053832D02*
X0053608Y0090779D01*
X0053079Y0090425*
X0052725Y0089896*
X005268Y0089672*
X0053832*
Y0090823*
G37*
G36*
X00358Y0090252D02*
Y00891D01*
X0036952*
X0036907Y0089324*
X0036553Y0089854*
X0036024Y0090207*
X00358Y0090252*
G37*
G36*
X0035D02*
X0034776Y0090207D01*
X0034247Y0089854*
X0033893Y0089324*
X0033848Y00891*
X0035*
Y0090252*
G37*
G36*
X00145Y0089452D02*
Y00883D01*
X0015652*
X0015607Y0088524*
X0015254Y0089053*
X0014724Y0089407*
X00145Y0089452*
G37*
G36*
X00137D02*
X0013476Y0089407D01*
X0012946Y0089053*
X0012593Y0088524*
X0012548Y00883*
X00137*
Y0089452*
G37*
G36*
X0050295Y0090495D02*
X0049827Y0090402D01*
X004943Y0090137*
X0049165Y008974*
X0049072Y0089272*
X0049165Y0088803*
X004943Y0088406*
X0049827Y0088141*
X0050295Y0088048*
X0050763Y0088141*
X005116Y0088406*
X0051426Y0088803*
X0051519Y0089272*
X0051426Y008974*
X005116Y0090137*
X0050763Y0090402*
X0050295Y0090495*
G37*
G36*
X0055784Y0088872D02*
X0054632D01*
Y008772*
X0054857Y0087765*
X0055386Y0088118*
X0055739Y0088647*
X0055784Y0088872*
G37*
G36*
X0053832D02*
X005268D01*
X0052725Y0088647*
X0053079Y0088118*
X0053608Y0087765*
X0053832Y008772*
Y0088872*
G37*
G36*
X00277Y0088652D02*
Y00875D01*
X0028852*
X0028807Y0087724*
X0028453Y0088253*
X0027924Y0088607*
X00277Y0088652*
G37*
G36*
X00269D02*
X0026676Y0088607D01*
X0026147Y0088253*
X0025793Y0087724*
X0025748Y00875*
X00269*
Y0088652*
G37*
G36*
X00719Y0088452D02*
Y00873D01*
X0073052*
X0073007Y0087524*
X0072654Y0088054*
X0072124Y0088407*
X00719Y0088452*
G37*
G36*
X00711D02*
X0070876Y0088407D01*
X0070346Y0088054*
X0069993Y0087524*
X0069948Y00873*
X00711*
Y0088452*
G37*
G36*
X0036952Y00883D02*
X00358D01*
Y0087148*
X0036024Y0087193*
X0036553Y0087546*
X0036907Y0088076*
X0036952Y00883*
G37*
G36*
X0035D02*
X0033848D01*
X0033893Y0088076*
X0034247Y0087546*
X0034776Y0087193*
X0035Y0087148*
Y00883*
G37*
G36*
X0015652Y00875D02*
X00145D01*
Y0086348*
X0014724Y0086393*
X0015254Y0086747*
X0015607Y0087276*
X0015652Y00875*
G37*
G36*
X00137D02*
X0012548D01*
X0012593Y0087276*
X0012946Y0086747*
X0013476Y0086393*
X00137Y0086348*
Y00875*
G37*
G36*
X0028852Y00867D02*
X00277D01*
Y0085548*
X0027924Y0085593*
X0028453Y0085947*
X0028807Y0086476*
X0028852Y00867*
G37*
G36*
X00269D02*
X0025748D01*
X0025793Y0086476*
X0026147Y0085947*
X0026676Y0085593*
X00269Y0085548*
Y00867*
G37*
G36*
X0073052Y00865D02*
X00719D01*
Y0085348*
X0072124Y0085393*
X0072654Y0085747*
X0073007Y0086276*
X0073052Y00865*
G37*
G36*
X00711D02*
X0069948D01*
X0069993Y0086276*
X0070346Y0085747*
X0070876Y0085393*
X00711Y0085348*
Y00865*
G37*
G36*
X0059646Y0082031D02*
X0059177Y0081937D01*
X005878Y0081672*
X0058515Y0081275*
X0058481Y0081101*
X0058387Y0080802*
X0057938Y0080738*
X0057874Y0080751*
X0057583Y0080693*
X0057403Y008066*
X0057047Y008102*
X0057036Y0081078*
X0056771Y0081475*
X0056374Y0081741*
X0055905Y0081834*
X0055437Y0081741*
X005504Y0081475*
X0054775Y0081078*
X0054682Y008061*
X0054223Y0080356*
X0054026Y0080375*
X0054015Y0080393*
X0053618Y0080658*
X005315Y0080751*
X0052681Y0080658*
X0052284Y0080393*
X0052269Y008037*
X0051668*
X0051652Y0080393*
X0051256Y0080658*
X0050787Y0080751*
X0050319Y0080658*
X0049922Y0080393*
X0049907Y008037*
X0049306*
X004929Y0080393*
X0048893Y0080658*
X0048425Y0080751*
X0047957Y0080658*
X004756Y0080393*
X0047521Y0080334*
X0046965Y0080265*
X0046568Y008053*
X00461Y0080624*
X0045632Y008053*
X0045235Y0080265*
X0045201Y0080214*
X0044599*
X0044565Y0080265*
X0044168Y008053*
X00437Y0080624*
X0043232Y008053*
X0042835Y0080265*
X004257Y0079868*
X0042476Y00794*
X004257Y0078932*
X0042835Y0078535*
X0043232Y007827*
X00437Y0078176*
X0044168Y007827*
X0044565Y0078535*
X0044599Y0078586*
X0045201*
X0045235Y0078535*
X0045632Y007827*
X00461Y0078176*
X0046568Y007827*
X0046965Y0078535*
X0047005Y0078594*
X004756Y0078662*
X0047957Y0078397*
X0048425Y0078304*
X0048893Y0078397*
X004929Y0078662*
X0049306Y0078685*
X0049907*
X0049922Y0078662*
X0050319Y0078397*
X0050787Y0078304*
X0051256Y0078397*
X0051652Y0078662*
X0051668Y0078685*
X0052269*
X0052284Y0078662*
X0052681Y0078397*
X005315Y0078304*
X0053437Y0078361*
X0053937Y0078055*
Y007702*
X004608Y0069163*
X0032*
X0031865Y0069365*
X0031468Y006963*
X0031Y0069723*
X0030532Y006963*
X0030135Y0069365*
X002987Y0068968*
X0029776Y00685*
X002987Y0068032*
X0030135Y0067635*
X0030532Y006737*
X0031Y0067277*
X0031468Y006737*
X0031865Y0067635*
X0032Y0067837*
X0046354*
X0046608Y0067888*
X0046823Y0068031*
X0055068Y0076277*
X0055212Y0076492*
X005523Y0076584*
X0055234Y0076592*
X0055582Y0076876*
X005565Y0076903*
Y0078524*
X005645*
Y0076972*
X0056674Y0077016*
X0057203Y007737*
X0057557Y0077899*
X0057646Y0078349*
X0057874Y0078304*
X0058342Y0078397*
X0058739Y0078662*
X0059004Y0079059*
X0059039Y0079233*
X0059132Y0079532*
X0059582Y0079596*
X0059646Y0079584*
X0059709Y0079596*
X0060159Y0079532*
X0060252Y0079233*
X0060287Y0079059*
X0060552Y0078662*
X0060949Y0078397*
X0061417Y0078304*
X0061885Y0078397*
X0062213Y0078616*
X00624Y0078659*
X0062871Y0078644*
X0063132Y007847*
X00636Y0078377*
X0064068Y007847*
X0064465Y0078735*
X006473Y0079132*
X0064824Y00796*
X006473Y0080068*
X0064465Y0080465*
X0064068Y008073*
X00636Y0080823*
X0063132Y008073*
X0062735Y0080465*
X0062687Y0080393*
X0062283*
X0061885Y0080658*
X0061417Y0080751*
X0061354Y0080738*
X0060904Y0080802*
X0060811Y0081101*
X0060776Y0081275*
X0060511Y0081672*
X0060114Y0081937*
X0059646Y0082031*
G37*
G36*
X00808Y0081257D02*
Y0080105D01*
X0081952*
X0081907Y0080329*
X0081554Y0080858*
X0081024Y0081212*
X00808Y0081257*
G37*
G36*
X008D02*
X0079776Y0081212D01*
X0079246Y0080858*
X0078893Y0080329*
X0078848Y0080105*
X008*
Y0081257*
G37*
G36*
X00303Y0079552D02*
Y00784D01*
X0031452*
X0031407Y0078624*
X0031054Y0079154*
X0030524Y0079507*
X00303Y0079552*
G37*
G36*
X00295D02*
X0029276Y0079507D01*
X0028747Y0079154*
X0028393Y0078624*
X0028348Y00784*
X00295*
Y0079552*
G37*
G36*
X00669Y0080724D02*
X0066432Y008063D01*
X0066035Y0080365*
X006577Y0079968*
X0065676Y00795*
X006577Y0079032*
X0066035Y0078635*
X0066432Y007837*
X00669Y0078276*
X0067368Y007837*
X0067765Y0078635*
X006803Y0079032*
X0068124Y00795*
X006803Y0079968*
X0067765Y0080365*
X0067368Y008063*
X00669Y0080724*
G37*
G36*
X0081952Y0079305D02*
X00808D01*
Y0078153*
X0081024Y0078198*
X0081554Y0078551*
X0081907Y007908*
X0081952Y0079305*
G37*
G36*
X008D02*
X0078848D01*
X0078893Y007908*
X0079246Y0078551*
X0079776Y0078198*
X008Y0078153*
Y0079305*
G37*
G36*
X00145Y0078952D02*
Y00778D01*
X0015652*
X0015607Y0078024*
X0015254Y0078553*
X0014724Y0078907*
X00145Y0078952*
G37*
G36*
X00137D02*
X0013476Y0078907D01*
X0012946Y0078553*
X0012593Y0078024*
X0012548Y00778*
X00137*
Y0078952*
G37*
G36*
X0031452Y00776D02*
X00303D01*
Y0076448*
X0030524Y0076493*
X0031054Y0076846*
X0031407Y0077376*
X0031452Y00776*
G37*
G36*
X00295D02*
X0028348D01*
X0028393Y0077376*
X0028747Y0076846*
X0029276Y0076493*
X00295Y0076448*
Y00776*
G37*
G36*
X0017572Y0078552D02*
X0017103Y0078459D01*
X0016706Y0078193*
X0016441Y0077797*
X0016348Y0077328*
X0016441Y007686*
X0016706Y0076463*
X0017103Y0076198*
X0017572Y0076105*
X001804Y0076198*
X0018437Y0076463*
X0018702Y007686*
X0018795Y0077328*
X0018702Y0077797*
X0018437Y0078193*
X001804Y0078459*
X0017572Y0078552*
G37*
G36*
X0015652Y0077D02*
X00145D01*
Y0075848*
X0014724Y0075893*
X0015254Y0076247*
X0015607Y0076776*
X0015652Y0077*
G37*
G36*
X00137D02*
X0012548D01*
X0012593Y0076776*
X0012946Y0076247*
X0013476Y0075893*
X00137Y0075848*
Y0077*
G37*
G36*
X00686Y0078224D02*
X0068132Y007813D01*
X0067735Y0077865*
X006747Y0077468*
X0067377Y0077*
X006747Y0076532*
X0067735Y0076135*
X0068132Y007587*
X00686Y0075776*
X0069068Y007587*
X0069465Y0076135*
X006973Y0076532*
X0069823Y0077*
X006973Y0077468*
X0069465Y0077865*
X0069068Y007813*
X00686Y0078224*
G37*
G36*
X00209Y0074923D02*
X0020432Y007483D01*
X0020035Y0074565*
X001977Y0074168*
X0019677Y00737*
X001977Y0073232*
X0019974Y0072926*
X0020009Y00726*
X0019974Y0072274*
X001977Y0071968*
X0019677Y00715*
X001977Y0071032*
X0020035Y0070635*
X0020432Y007037*
X00209Y0070276*
X0021368Y007037*
X0021765Y0070635*
X002203Y0071032*
X0022124Y00715*
X002203Y0071968*
X0021826Y0072274*
X0021791Y00726*
X0021826Y0072926*
X002203Y0073232*
X0022124Y00737*
X002203Y0074168*
X0021765Y0074565*
X0021368Y007483*
X00209Y0074923*
G37*
G36*
X00903Y0071252D02*
Y00701D01*
X0091452*
X0091407Y0070324*
X0091053Y0070854*
X0090524Y0071207*
X00903Y0071252*
G37*
G36*
X00895D02*
X0089276Y0071207D01*
X0088747Y0070854*
X0088393Y0070324*
X0088348Y00701*
X00895*
Y0071252*
G37*
G36*
X00125Y0071052D02*
Y00699D01*
X0013652*
X0013607Y0070124*
X0013253Y0070653*
X0012724Y0071007*
X00125Y0071052*
G37*
G36*
X00117D02*
X0011476Y0071007D01*
X0010947Y0070653*
X0010593Y0070124*
X0010548Y00699*
X00117*
Y0071052*
G37*
G36*
X0091452Y00693D02*
X00903D01*
Y0068148*
X0090524Y0068193*
X0091053Y0068546*
X0091407Y0069076*
X0091452Y00693*
G37*
G36*
X00895D02*
X0088348D01*
X0088393Y0069076*
X0088747Y0068546*
X0089276Y0068193*
X00895Y0068148*
Y00693*
G37*
G36*
X0013652Y00691D02*
X00125D01*
Y0067948*
X0012724Y0067993*
X0013253Y0068347*
X0013607Y0068876*
X0013652Y00691*
G37*
G36*
X00117D02*
X0010548D01*
X0010593Y0068876*
X0010947Y0068347*
X0011476Y0067993*
X00117Y0067948*
Y00691*
G37*
G36*
X00678Y0072423D02*
X0067332Y007233D01*
X0066935Y0072065*
X006667Y0071668*
X0066576Y00712*
X006667Y0070732*
X0066935Y0070335*
X006717Y0070178*
X006718Y007015*
Y006965*
X006717Y0069622*
X0066935Y0069465*
X006667Y0069068*
X0066576Y00686*
X006667Y0068132*
X0066935Y0067735*
X0067332Y006747*
X00678Y0067377*
X0068268Y006747*
X0068665Y0067735*
X006893Y0068132*
X0069024Y00686*
X006893Y0069068*
X0068665Y0069465*
X006843Y0069622*
X006842Y006965*
Y007015*
X006843Y0070178*
X0068665Y0070335*
X006893Y0070732*
X0069024Y00712*
X006893Y0071668*
X0068665Y0072065*
X0068268Y007233*
X00678Y0072423*
G37*
G36*
X00085Y00673D02*
Y0066148D01*
X0009652*
X0009607Y0066372*
X0009253Y0066902*
X0008724Y0067255*
X00085Y00673*
G37*
G36*
X00077D02*
X0007476Y0067255D01*
X0006946Y0066902*
X0006593Y0066372*
X0006548Y0066148*
X00077*
Y00673*
G37*
G36*
X00324Y0065652D02*
Y00645D01*
X0033552*
X0033507Y0064724*
X0033154Y0065254*
X0032624Y0065607*
X00324Y0065652*
G37*
G36*
X00316D02*
X0031376Y0065607D01*
X0030847Y0065254*
X0030493Y0064724*
X0030448Y00645*
X00316*
Y0065652*
G37*
G36*
X0009652Y0065348D02*
X00085D01*
Y0064196*
X0008724Y0064241*
X0009253Y0064595*
X0009607Y0065124*
X0009652Y0065348*
G37*
G36*
X00077D02*
X0006548D01*
X0006593Y0065124*
X0006946Y0064595*
X0007476Y0064241*
X00077Y0064196*
Y0065348*
G37*
G36*
X00221Y0067923D02*
X0021632Y006783D01*
X0021235Y0067565*
X002097Y0067168*
X0020877Y00667*
X002097Y0066232*
X0021235Y0065835*
Y0065565*
X002097Y0065168*
X0020877Y00647*
X002097Y0064232*
X0021235Y0063835*
X0021632Y006357*
X00221Y0063477*
X0022568Y006357*
X0022965Y0063835*
X002323Y0064232*
X0023324Y00647*
X002323Y0065168*
X0022965Y0065565*
Y0065835*
X002323Y0066232*
X0023324Y00667*
X002323Y0067168*
X0022965Y0067565*
X0022568Y006783*
X00221Y0067923*
G37*
G36*
X0033552Y00637D02*
X00324D01*
Y0062548*
X0032624Y0062593*
X0033154Y0062946*
X0033507Y0063476*
X0033552Y00637*
G37*
G36*
X00316D02*
X0030448D01*
X0030493Y0063476*
X0030847Y0062946*
X0031376Y0062593*
X00316Y0062548*
Y00637*
G37*
G36*
X00682Y0063924D02*
X0067732Y006383D01*
X0067335Y0063565*
X006707Y0063168*
X0066976Y00627*
X006707Y0062232*
X0067335Y0061835*
X0067732Y006157*
X00682Y0061476*
X0068668Y006157*
X0069065Y0061835*
X006933Y0062232*
X0069424Y00627*
X006933Y0063168*
X0069065Y0063565*
X0068668Y006383*
X00682Y0063924*
G37*
G36*
X00818Y0059991D02*
Y0058839D01*
X0082952*
X0082907Y0059063*
X0082553Y0059593*
X0082024Y0059946*
X00818Y0059991*
G37*
G36*
X0081D02*
X0080776Y0059946D01*
X0080247Y0059593*
X0079893Y0059063*
X0079848Y0058839*
X0081*
Y0059991*
G37*
G36*
X0030315Y0060279D02*
X0029847Y0060185D01*
X002945Y005992*
X0029185Y0059523*
X0029091Y0059055*
X0029185Y0058587*
X002945Y005819*
X0029847Y0057925*
X0030315Y0057832*
X0030783Y0057925*
X003118Y005819*
X0031445Y0058587*
X0031539Y0059055*
X0031445Y0059523*
X003118Y005992*
X0030783Y0060185*
X0030315Y0060279*
G37*
G36*
X0091732Y0060831D02*
X0091108Y0060707D01*
X0090579Y0060353*
X0090225Y0059824*
X0090101Y00592*
X0090225Y0058576*
X0090579Y0058047*
X0091108Y0057693*
X0091732Y0057569*
X0092357Y0057693*
X0092886Y0058047*
X0093239Y0058576*
X0093364Y00592*
X0093239Y0059824*
X0092886Y0060353*
X0092357Y0060707*
X0091732Y0060831*
G37*
G36*
X0082952Y0058039D02*
X00818D01*
Y0056887*
X0082024Y0056932*
X0082553Y0057286*
X0082907Y0057815*
X0082952Y0058039*
G37*
G36*
X0081D02*
X0079848D01*
X0079893Y0057815*
X0080247Y0057286*
X0080776Y0056932*
X0081Y0056887*
Y0058039*
G37*
G36*
X0022037Y0059161D02*
X0021569Y0059067D01*
X0021172Y0058802*
X0020907Y0058405*
X0020813Y0057937*
X0020907Y0057469*
X0021172Y0057072*
X0021569Y0056807*
X0022037Y0056713*
X0022505Y0056807*
X0022902Y0057072*
X0023167Y0057469*
X002326Y0057937*
X0023167Y0058405*
X0022902Y0058802*
X0022505Y0059067*
X0022037Y0059161*
G37*
G36*
X00322Y0056276D02*
Y0055124D01*
X0033352*
X0033307Y0055349*
X0032954Y0055878*
X0032424Y0056232*
X00322Y0056276*
G37*
G36*
X00314D02*
X0031176Y0056232D01*
X0030646Y0055878*
X0030293Y0055349*
X0030248Y0055124*
X00314*
Y0056276*
G37*
G36*
X0033352Y0054324D02*
X00322D01*
Y0053173*
X0032424Y0053217*
X0032954Y0053571*
X0033307Y00541*
X0033352Y0054324*
G37*
G36*
X00314D02*
X0030248D01*
X0030293Y00541*
X0030646Y0053571*
X0031176Y0053217*
X00314Y0053173*
Y0054324*
G37*
G36*
X00904Y0052252D02*
Y00511D01*
X0091552*
X0091507Y0051324*
X0091154Y0051854*
X0090624Y0052207*
X00904Y0052252*
G37*
G36*
X00896D02*
X0089376Y0052207D01*
X0088846Y0051854*
X0088493Y0051324*
X0088448Y00511*
X00896*
Y0052252*
G37*
G36*
X0091552Y00503D02*
X00904D01*
Y0049148*
X0090624Y0049193*
X0091154Y0049547*
X0091507Y0050076*
X0091552Y00503*
G37*
G36*
X00896D02*
X0088448D01*
X0088493Y0050076*
X0088846Y0049547*
X0089376Y0049193*
X00896Y0049148*
Y00503*
G37*
G36*
X00083Y0049827D02*
Y0048675D01*
X0009452*
X0009407Y0048899*
X0009053Y0049429*
X0008524Y0049782*
X00083Y0049827*
G37*
G36*
X00075D02*
X0007276Y0049782D01*
X0006746Y0049429*
X0006393Y0048899*
X0006348Y0048675*
X00075*
Y0049827*
G37*
G36*
X0030807Y0049452D02*
X0030339Y0049359D01*
X0029942Y0049093*
X0029677Y0048697*
X0029584Y0048228*
X0029677Y004776*
X0029942Y0047363*
X0030339Y0047098*
X0030807Y0047005*
X0031275Y0047098*
X0031672Y0047363*
X0031938Y004776*
X0032031Y0048228*
X0031938Y0048697*
X0031672Y0049093*
X0031275Y0049359*
X0030807Y0049452*
G37*
G36*
X0009452Y0047875D02*
X00083D01*
Y0046723*
X0008524Y0046768*
X0009053Y0047122*
X0009407Y0047651*
X0009452Y0047875*
G37*
G36*
X00075D02*
X0006348D01*
X0006393Y0047651*
X0006746Y0047122*
X0007276Y0046768*
X00075Y0046723*
Y0047875*
G37*
G36*
X00686Y0054069D02*
X0068132Y0053976D01*
X0067735Y0053711*
X006747Y0053314*
X0067377Y0052846*
X006747Y0052377*
X0067735Y005198*
X0067746Y0051973*
Y0051473*
X0067735Y0051465*
X006747Y0051068*
X0067377Y00506*
X006747Y0050132*
X0067662Y0049843*
X0067706Y0049513*
X0067662Y0049182*
X006747Y0048893*
X0067377Y0048425*
X006747Y0047957*
X0067686Y0047634*
X0067735Y0047371*
Y0047254*
X0067686Y0046992*
X006747Y0046668*
X0067377Y00462*
X006747Y0045732*
X0067735Y0045335*
X0068132Y004507*
X00686Y0044976*
X0069068Y004507*
X0069465Y0045335*
X006973Y0045732*
X0069823Y00462*
X006973Y0046668*
X0069514Y0046992*
X0069465Y0047254*
Y0047371*
X0069514Y0047634*
X006973Y0047957*
X0069823Y0048425*
X006973Y0048893*
X0069538Y0049182*
X0069494Y0049513*
X0069538Y0049843*
X006973Y0050132*
X0069823Y00506*
X006973Y0051068*
X0069465Y0051465*
X0069454Y0051473*
Y0051973*
X0069465Y005198*
X006973Y0052377*
X0069823Y0052846*
X006973Y0053314*
X0069465Y0053711*
X0069068Y0053976*
X00686Y0054069*
G37*
G36*
X0009843Y0045318D02*
X0009374Y0045225D01*
X0008977Y004496*
X0008712Y0044563*
X0008619Y0044094*
X0008712Y0043626*
X0008977Y0043229*
X0009374Y0042964*
X0009843Y0042871*
X0010311Y0042964*
X0010708Y0043229*
X0010973Y0043626*
X0011066Y0044094*
X0010973Y0044563*
X0010708Y004496*
X0010311Y0045225*
X0009843Y0045318*
G37*
G36*
X0065748Y0042562D02*
X006528Y0042469D01*
X0064883Y0042204*
X0064818Y0042107*
X0064217*
X0064152Y0042204*
X0063756Y0042469*
X0063287Y0042562*
X0062819Y0042469*
X0062422Y0042204*
X0062157Y0041807*
X0062064Y0041339*
X0062157Y004087*
X0062422Y0040473*
X0062819Y0040208*
X0063287Y0040115*
X0063756Y0040208*
X0064152Y0040473*
X0064217Y004057*
X0064818*
X0064883Y0040473*
X006528Y0040208*
X0065748Y0040115*
X0066216Y0040208*
X0066613Y0040473*
X0066878Y004087*
X0066971Y0041339*
X0066878Y0041807*
X0066613Y0042204*
X0066216Y0042469*
X0065748Y0042562*
G37*
G36*
X00829Y0042152D02*
Y0041D01*
X0084052*
X0084007Y0041224*
X0083653Y0041754*
X0083124Y0042107*
X00829Y0042152*
G37*
G36*
X00821D02*
X0081876Y0042107D01*
X0081346Y0041754*
X0080993Y0041224*
X0080948Y0041*
X00821*
Y0042152*
G37*
G36*
X0050605Y0045989D02*
X0033661D01*
X0033388Y0045935*
X0033157Y004578*
X0014772Y0027396*
X0014218Y0027548*
X0014161Y0027676*
X0014216Y0027953*
X0014122Y0028421*
X0013857Y0028818*
X0013706Y0028919*
Y00375*
X0017225Y0041019*
X0019451*
X0019552Y0040867*
X0019949Y0040602*
X0020417Y0040509*
X0020886Y0040602*
X0021283Y0040867*
X0021548Y0041264*
X0021641Y0041732*
X0021548Y00422*
X0021283Y0042597*
X0020886Y0042863*
X0020417Y0042956*
X0019949Y0042863*
X0019552Y0042597*
X0019451Y0042446*
X0016929*
X0016656Y0042392*
X0016424Y0042237*
X0012488Y00383*
X0012333Y0038068*
X0012278Y0037795*
Y0031053*
X0011778Y003081*
X0011442Y0031035*
X0011218Y0031079*
Y0029528*
Y0027976*
X001129Y002799*
X0011315Y0027988*
X0011724Y0027764*
X0011824Y0027674*
X0011862Y0027485*
X0012127Y0027088*
X0012524Y0026822*
X0012843Y0026759*
X0013051Y0026599*
X0013202Y0026261*
X0013147Y0025984*
X0013202Y0025707*
X0013051Y002537*
X0012843Y002521*
X0012524Y0025146*
X0012127Y0024881*
X0011862Y0024484*
X0011769Y0024016*
X0011862Y0023548*
X0012127Y0023151*
X0012524Y0022885*
X0012843Y0022822*
X0013051Y0022661*
X0013202Y0022324*
X0013147Y0022047*
X001324Y0021579*
X0013505Y0021182*
X0013902Y0020917*
X001437Y0020824*
X0014838Y0020917*
X0015235Y0021182*
X0015336Y0021334*
X0016929*
X0017202Y0021388*
X0017434Y0021543*
X0028721Y0032829*
X0029263Y0032665*
X002927Y0032632*
X0029535Y0032235*
X0029932Y003197*
X00304Y0031877*
X0030868Y003197*
X0031265Y0032235*
X0031422Y003247*
X003145Y003248*
X003195*
X0031978Y003247*
X0032135Y0032235*
X0032532Y003197*
X0033Y0031877*
X0033468Y003197*
X0033865Y0032235*
X0033899Y0032286*
X0034501*
X0034535Y0032235*
X0034932Y003197*
X00354Y0031877*
X0035868Y003197*
X0036265Y0032235*
X003653Y0032632*
X0036623Y00331*
X003653Y0033568*
X0036265Y0033965*
X0035868Y003423*
X00354Y0034323*
X0034932Y003423*
X0034535Y0033965*
X0034501Y0033914*
X0033899*
X0033865Y0033965*
X0033468Y003423*
X0033Y0034323*
X0032532Y003423*
X0032135Y0033965*
X0031978Y003373*
X003195Y003372*
X003145*
X0031422Y003373*
X0031265Y0033965*
X0030868Y003423*
X0030835Y0034237*
X0030671Y003478*
X003691Y0041019*
X0047853*
X0047954Y0040867*
X0048351Y0040602*
X0048819Y0040509*
X0049287Y0040602*
X0049684Y0040867*
X0049949Y0041264*
X0050042Y0041732*
X004999Y0041994*
X0050451Y004224*
X005078Y0041911*
X0050745Y0041732*
X0050838Y0041264*
X0051103Y0040867*
X00515Y0040602*
X0051968Y0040509*
X0052437Y0040602*
X0052834Y0040867*
X005343*
X0053827Y0040602*
X0054295Y0040509*
X0054763Y0040602*
X005516Y0040867*
X0055425Y0041264*
X0055454Y0041411*
X0055985Y0041517*
X0056025Y0041458*
X0056422Y0041192*
X005689Y0041099*
X0057358Y0041192*
X0057755Y0041458*
X005802Y0041855*
X0058113Y0042323*
X005802Y0042791*
X0057755Y0043188*
X0057358Y0043453*
X005689Y0043546*
X0056422Y0043453*
X0056025Y0043188*
X0055759Y0042791*
X005573Y0042644*
X0055199Y0042538*
X005516Y0042597*
X0054763Y0042863*
X0054295Y0042956*
X0053994Y0042896*
X0051109Y004578*
X0050878Y0045935*
X0050605Y0045989*
G37*
G36*
X0084052Y00402D02*
X00829D01*
Y0039048*
X0083124Y0039093*
X0083653Y0039446*
X0084007Y0039976*
X0084052Y00402*
G37*
G36*
X00821D02*
X0080948D01*
X0080993Y0039976*
X0081346Y0039446*
X0081876Y0039093*
X00821Y0039048*
Y00402*
G37*
G36*
X0073228Y0038631D02*
X0072604Y0038507D01*
X0072075Y0038153*
X0071721Y0037624*
X0071597Y0037*
X0071721Y0036376*
X0072075Y0035846*
X0072604Y0035493*
X0073228Y0035369*
X0073853Y0035493*
X0074382Y0035846*
X0074735Y0036376*
X007486Y0037*
X0074735Y0037624*
X0074382Y0038153*
X0073853Y0038507*
X0073228Y0038631*
G37*
G36*
X00395Y0032968D02*
Y0031817D01*
X0040652*
X0040607Y0032041*
X0040253Y003257*
X0039724Y0032924*
X00395Y0032968*
G37*
G36*
X00387D02*
X0038476Y0032924D01*
X0037947Y003257*
X0037593Y0032041*
X0037548Y0031817*
X00387*
Y0032968*
G37*
G36*
X0049613Y0031852D02*
Y00307D01*
X0050764*
X005072Y0030924*
X0050366Y0031453*
X0049837Y0031807*
X0049613Y0031852*
G37*
G36*
X0048813D02*
X0048588Y0031807D01*
X0048059Y0031453*
X0047705Y0030924*
X0047661Y00307*
X0048813*
Y0031852*
G37*
G36*
X006639Y0033113D02*
X0065922Y003302D01*
X0065525Y0032755*
X0065259Y0032358*
X0065166Y003189*
X0065259Y0031422*
X0065525Y0031025*
X0065922Y0030759*
X006639Y0030666*
X0066858Y0030759*
X0067255Y0031025*
X006752Y0031422*
X0067613Y003189*
X006752Y0032358*
X0067255Y0032755*
X0066858Y003302*
X006639Y0033113*
G37*
G36*
X0010418Y0031079D02*
X0010194Y0031035D01*
X0009665Y0030681*
X0009311Y0030152*
X0009266Y0029928*
X0010418*
Y0031079*
G37*
G36*
X0040652Y0031016D02*
X00395D01*
Y0029865*
X0039724Y0029909*
X0040253Y0030263*
X0040607Y0030792*
X0040652Y0031016*
G37*
G36*
X00387D02*
X0037548D01*
X0037593Y0030792*
X0037947Y0030263*
X0038476Y0029909*
X00387Y0029865*
Y0031016*
G37*
G36*
X0050764Y00299D02*
X0049613D01*
Y0028748*
X0049837Y0028793*
X0050366Y0029147*
X005072Y0029676*
X0050764Y00299*
G37*
G36*
X0048813D02*
X0047661D01*
X0047705Y0029676*
X0048059Y0029147*
X0048588Y0028793*
X0048813Y0028748*
Y00299*
G37*
G36*
X0010418Y0029128D02*
X0009266D01*
X0009311Y0028903*
X0009665Y0028374*
X0010194Y002802*
X0010418Y0027976*
Y0029128*
G37*
G36*
X0037008Y0029921D02*
X003654Y0029828D01*
X0036143Y0029563*
X0035877Y0029166*
X0035784Y0028698*
X0035877Y0028229*
X0036143Y0027832*
X003654Y0027567*
X0037008Y0027474*
X0037476Y0027567*
X0037873Y0027832*
X0038138Y0028229*
X0038231Y0028698*
X0038138Y0029166*
X0037873Y0029563*
X0037476Y0029828*
X0037008Y0029921*
G37*
G36*
X0062887Y0027552D02*
X0062663Y0027507D01*
X0062134Y0027154*
X0061809Y0026667*
X0061544Y0026641*
X0061279Y0026667*
X0060953Y0027154*
X0060424Y0027507*
X00602Y0027552*
Y0026*
Y0024448*
X0060424Y0024493*
X0060953Y0024847*
X0061279Y0025333*
X0061544Y0025359*
X0061809Y0025333*
X0062134Y0024847*
X0062663Y0024493*
X0062887Y0024448*
Y0026*
Y0027552*
G37*
G36*
X0063687D02*
Y00264D01*
X0064839*
X0064795Y0026624*
X0064441Y0027154*
X0063912Y0027507*
X0063687Y0027552*
G37*
G36*
X00594D02*
X0059176Y0027507D01*
X0058647Y0027154*
X0058293Y0026624*
X0058248Y00264*
X00594*
Y0027552*
G37*
G36*
X00518Y0026623D02*
X0051332Y002653D01*
X0050935Y0026265*
X005067Y0025868*
X005061Y0025569*
X0050099Y0025434*
X0050078Y0025465*
X0049681Y002573*
X0049213Y0025824*
X0048744Y002573*
X0048347Y0025465*
X0048082Y0025068*
X0047989Y00246*
X0048082Y0024132*
X0048347Y0023735*
X0048744Y002347*
X0049213Y0023377*
X0049681Y002347*
X0050078Y0023735*
X0050343Y0024132*
X0050403Y0024431*
X0050914Y0024566*
X0050935Y0024535*
X0051332Y002427*
X00518Y0024177*
X0052268Y002427*
X0052665Y0024535*
X005293Y0024932*
X0053023Y00254*
X005293Y0025868*
X0052665Y0026265*
X0052268Y002653*
X00518Y0026623*
G37*
G36*
X00563Y0027224D02*
X0055832Y002713D01*
X0055435Y0026865*
X005517Y0026468*
X0055076Y0026*
X005517Y0025532*
X0055435Y0025135*
X0055832Y002487*
X00563Y0024777*
X0056768Y002487*
X0057165Y0025135*
X005743Y0025532*
X0057524Y0026*
X005743Y0026468*
X0057165Y0026865*
X0056768Y002713*
X00563Y0027224*
G37*
G36*
X0064839Y00256D02*
X0063687D01*
Y0024448*
X0063912Y0024493*
X0064441Y0024847*
X0064795Y0025376*
X0064839Y00256*
G37*
G36*
X00594D02*
X0058248D01*
X0058293Y0025376*
X0058647Y0024847*
X0059176Y0024493*
X00594Y0024448*
Y00256*
G37*
G36*
X00686Y0027185D02*
X0067839Y0027034D01*
X0067194Y0026603*
X0066763Y0025958*
X0066612Y0025197*
X0066763Y0024436*
X0067194Y0023791*
X0067839Y002336*
X00686Y0023209*
X0069361Y002336*
X0070006Y0023791*
X0070437Y0024436*
X0070588Y0025197*
X0070437Y0025958*
X0070006Y0026603*
X0069361Y0027034*
X00686Y0027185*
G37*
G36*
X0082277Y0020112D02*
X008105Y0019991D01*
X0079485Y0019516*
X0078044Y0018745*
X0077005Y0017894*
X0076463Y0018095*
X0076426Y0018283*
X007616Y001868*
X0075763Y0018945*
X0075295Y0019038*
X0074827Y0018945*
X007443Y001868*
X0074165Y0018283*
X0074072Y0017815*
X0074165Y0017347*
X007443Y001695*
X0074827Y0016685*
X0075258Y0016599*
X0075306Y0016574*
X0075579Y0016138*
X0074972Y0015002*
X0074497Y0013438*
X0074376Y0012211*
X0082277*
Y0020112*
G37*
G36*
X0035538Y0020975D02*
Y0016758D01*
X0038724*
Y0017441*
X0038602Y0018369*
X0038244Y0019234*
X0037674Y0019977*
X0036931Y0020547*
X0036066Y0020905*
X0035538Y0020975*
G37*
G36*
X0063687D02*
Y0016758D01*
X0066874*
Y0017441*
X0066752Y0018369*
X0066394Y0019234*
X0065824Y0019977*
X0065081Y0020547*
X0064216Y0020905*
X0063687Y0020975*
G37*
G36*
X0034738D02*
X0034209Y0020905D01*
X0033345Y0020547*
X0032602Y0019977*
X0032032Y0019234*
X0031673Y0018369*
X0031551Y0017441*
Y0016758*
X0034738*
Y0020975*
G37*
G36*
X0062887D02*
X0062359Y0020905D01*
X0061494Y0020547*
X0060751Y0019977*
X0060181Y0019234*
X0059823Y0018369*
X0059701Y0017441*
Y0016758*
X0062887*
Y0020975*
G37*
G36*
X0052953Y0016086D02*
X0052485Y0015993D01*
X0052088Y0015727*
X0051822Y001533*
X0051729Y0014862*
X0051822Y0014394*
X0052088Y0013997*
X0052485Y0013732*
X0052953Y0013639*
X0053421Y0013732*
X0053818Y0013997*
X0054083Y0014394*
X0054176Y0014862*
X0054083Y001533*
X0053818Y0015727*
X0053421Y0015993*
X0052953Y0016086*
G37*
G36*
X0083077Y0020112D02*
Y0012211D01*
X0090978*
X0090857Y0013438*
X0090382Y0015002*
X0089612Y0016444*
X0088574Y0017708*
X0087311Y0018745*
X0085869Y0019516*
X0084304Y0019991*
X0083077Y0020112*
G37*
G36*
X0016148D02*
Y0012211D01*
X0024049*
X0023928Y0013438*
X0023453Y0015002*
X0022682Y0016444*
X0021645Y0017708*
X0020381Y0018745*
X001894Y0019516*
X0017375Y0019991*
X0016148Y0020112*
G37*
G36*
X0015348D02*
X0014121Y0019991D01*
X0012556Y0019516*
X0011114Y0018745*
X0009851Y0017708*
X0008813Y0016444*
X0008043Y0015002*
X0007568Y0013438*
X0007447Y0012211*
X0015348*
Y0020112*
G37*
G36*
X0062887Y0015958D02*
X0059701D01*
Y0015276*
X0059823Y0014347*
X0060181Y0013482*
X0060751Y001274*
X0061494Y0012169*
X0062359Y0011811*
X0062887Y0011742*
Y0015958*
G37*
G36*
X0034738D02*
X0031551D01*
Y0015276*
X0031673Y0014347*
X0032032Y0013482*
X0032602Y001274*
X0033345Y0012169*
X0034209Y0011811*
X0034738Y0011742*
Y0015958*
G37*
G36*
X0066874D02*
X0063687D01*
Y0011742*
X0064216Y0011811*
X0065081Y0012169*
X0065824Y001274*
X0066394Y0013482*
X0066752Y0014347*
X0066874Y0015276*
Y0015958*
G37*
G36*
X0038724D02*
X0035538D01*
Y0011742*
X0036066Y0011811*
X0036931Y0012169*
X0037674Y001274*
X0038244Y0013482*
X0038602Y0014347*
X0038724Y0015276*
Y0015958*
G37*
G36*
X0040059Y0009617D02*
X0039591Y0009524D01*
X0039194Y0009258*
X0039058Y0009054*
X0038494Y000904*
X0038493*
X0038365Y0009231*
X0037968Y0009497*
X00375Y000959*
X0037032Y0009497*
X0036635Y0009231*
X003637Y0008834*
X0036277Y0008366*
X003637Y0007898*
X0036635Y0007501*
X0037032Y0007236*
X00375Y0007143*
X0037968Y0007236*
X0038365Y0007501*
X0038501Y0007705*
X0039065Y000772*
X0039066Y0007719*
X0039194Y0007528*
X0039591Y0007263*
X0040059Y000717*
X0040527Y0007263*
X0040924Y0007528*
X0041189Y0007925*
X0041283Y0008393*
X0041189Y0008861*
X0040924Y0009258*
X0040527Y0009524*
X0040059Y0009617*
G37*
G36*
X0090978Y0011411D02*
X0083077D01*
Y000351*
X0084304Y0003631*
X0085869Y0004106*
X0087311Y0004876*
X0088574Y0005914*
X0089612Y0007177*
X0090382Y0008619*
X0090857Y0010184*
X0090978Y0011411*
G37*
G36*
X0082277D02*
X0074376D01*
X0074497Y0010184*
X0074972Y0008619*
X0075743Y0007177*
X007678Y0005914*
X0078044Y0004876*
X0079485Y0004106*
X008105Y0003631*
X0082277Y000351*
Y0011411*
G37*
G36*
X0024049D02*
X0016148D01*
Y000351*
X0017375Y0003631*
X001894Y0004106*
X0020381Y0004876*
X0021645Y0005914*
X0022682Y0007177*
X0023453Y0008619*
X0023928Y0010184*
X0024049Y0011411*
G37*
G36*
X0015348D02*
X0007447D01*
X0007568Y0010184*
X0008043Y0008619*
X0008813Y0007177*
X0009851Y0005914*
X0011114Y0004876*
X0012556Y0004106*
X0014121Y0003631*
X0015348Y000351*
Y0011411*
G37*
%LNdigit-3*%
%LPD*%
G36*
X0048943Y0043441D02*
X0048904Y0043288D01*
X0048679Y0042928*
X0048351Y0042863*
X0047954Y0042597*
X0047853Y0042446*
X0036614*
X0036341Y0042392*
X003611Y0042237*
X0029148Y0035276*
X002854Y0035375*
X0028354Y0035653*
X0027951Y0035923*
X0027804Y0036482*
X0034883Y0043562*
X0048865*
X0048943Y0043441*
G37*
G54D15*
X00546Y0076745D02*
Y0079304D01*
X0046354Y00685D02*
X00546Y0076745D01*
X0031Y00685D02*
X0046354D01*
X00546Y0079304D02*
X0055905Y008061D01*
G54D52*
X0036614Y0041732D02*
X0048819D01*
X0016929Y0022047D02*
X0036614Y0041732D01*
X001437Y0022047D02*
X0016929D01*
X0049425Y0044276D02*
X0051968Y0041732D01*
X0034588Y0044276D02*
X0049425D01*
X001587Y0025558D02*
X0034588Y0044276D01*
X0050605Y0045276D02*
X0054148Y0041732D01*
X0033661Y0045276D02*
X0050605D01*
X001437Y0025984D02*
X0033661Y0045276D01*
X001587Y0024532D02*
Y0025558D01*
X0015354Y0024016D02*
X001587Y0024532D01*
X0012992Y0024016D02*
X0015354D01*
X0012992Y0027953D02*
Y0037795D01*
X0016929Y0041732*
X0054148D02*
X0054295D01*
X0016929D02*
X0020417D01*
G54D56*
X0063287Y0016358D03*
X0035138D03*
G54D57*
X0049213Y0105118D03*
X0015748Y0011811D03*
X0082677D03*
G54D58*
X0010818Y0029528D03*
X0012992Y0027953D03*
X0048819Y0041732D03*
X0051968D03*
X0054295D03*
X0020417D03*
X001437Y0022047D03*
X0012992Y0024016D03*
X001437Y0025984D03*
X0054232Y0089272D03*
X00299Y0078D03*
X00391Y0031416D03*
X00354Y00887D03*
X00273Y00871D03*
X0055905Y008061D03*
X005605Y0078524D03*
X00353Y0094488D03*
X0062205Y00983D03*
X0058661Y0098155D03*
X00081Y0065748D03*
X00079Y0048275D03*
X00155Y00986D03*
X00748Y00991D03*
X00715Y00869D03*
X00814Y0058439D03*
X00804Y0079705D03*
X00899Y00697D03*
X009Y00507D03*
X00825Y00406D03*
X0049213Y00303D03*
X0063287Y0026D03*
X00598D03*
X00121Y00695D03*
X00141Y00774D03*
Y00879D03*
X0032Y00641D03*
X00318Y0054724D03*
X0031Y00685D03*
M02*