%FSTAX25Y25*%
%MOIN*%
%SFA1B1*%

%IPPOS*%
%ADD47C,0.009842*%
%ADD48C,0.007874*%
%ADD49C,0.010000*%
%ADD66C,0.004921*%
%ADD67C,0.003937*%
%LNdigit_legend_top-1*%
%LPD*%
G54D47*
X0085531Y0059448D02*
D01*
X008553Y0059483*
X0085526Y0059517*
X008552Y0059551*
X0085512Y0059584*
X0085501Y0059617*
X0085488Y0059648*
X0085473Y0059679*
X0085456Y0059709*
X0085437Y0059738*
X0085416Y0059765*
X0085393Y005979*
X0085368Y0059814*
X0085342Y0059836*
X0085314Y0059856*
X0085285Y0059874*
X0085255Y0059891*
X0085223Y0059905*
X0085191Y0059916*
X0085158Y0059926*
X0085124Y0059933*
X008509Y0059938*
X0085056Y005994*
X0085022*
X0084987Y0059938*
X0084953Y0059933*
X008492Y0059926*
X0084887Y0059916*
X0084855Y0059905*
X0084823Y0059891*
X0084793Y0059874*
X0084764Y0059856*
X0084736Y0059836*
X008471Y0059814*
X0084685Y005979*
X0084662Y0059765*
X0084641Y0059738*
X0084622Y0059709*
X0084604Y0059679*
X0084589Y0059648*
X0084576Y0059617*
X0084566Y0059584*
X0084558Y0059551*
X0084552Y0059517*
X0084548Y0059483*
X0084547Y0059448*
X0084548Y0059414*
X0084552Y005938*
X0084558Y0059346*
X0084566Y0059313*
X0084576Y005928*
X0084589Y0059248*
X0084604Y0059217*
X0084622Y0059188*
X0084641Y0059159*
X0084662Y0059132*
X0084685Y0059106*
X008471Y0059083*
X0084736Y0059061*
X0084764Y005904*
X0084793Y0059022*
X0084823Y0059006*
X0084855Y0058992*
X0084887Y005898*
X008492Y0058971*
X0084953Y0058964*
X0084987Y0058959*
X0085022Y0058956*
X0085056*
X008509Y0058959*
X0085124Y0058964*
X0085158Y0058971*
X0085191Y005898*
X0085223Y0058992*
X0085255Y0059006*
X0085285Y0059022*
X0085314Y005904*
X0085342Y0059061*
X0085368Y0059083*
X0085393Y0059106*
X0085416Y0059132*
X0085437Y0059159*
X0085456Y0059188*
X0085473Y0059217*
X0085488Y0059248*
X0085501Y005928*
X0085512Y0059313*
X008552Y0059346*
X0085526Y005938*
X008553Y0059414*
X0085531Y0059448*
X0085925Y004311D02*
D01*
X0085924Y0043144*
X008592Y0043178*
X0085914Y0043212*
X0085906Y0043245*
X0085895Y0043278*
X0085882Y004331*
X0085867Y0043341*
X008585Y004337*
X0085831Y0043399*
X008581Y0043426*
X0085787Y0043452*
X0085762Y0043475*
X0085736Y0043497*
X0085708Y0043518*
X0085679Y0043536*
X0085648Y0043552*
X0085617Y0043566*
X0085585Y0043578*
X0085552Y0043587*
X0085518Y0043594*
X0085484Y0043599*
X008545Y0043602*
X0085415*
X0085381Y0043599*
X0085347Y0043594*
X0085314Y0043587*
X0085281Y0043578*
X0085248Y0043566*
X0085217Y0043552*
X0085187Y0043536*
X0085157Y0043518*
X008513Y0043497*
X0085103Y0043475*
X0085079Y0043452*
X0085056Y0043426*
X0085034Y0043399*
X0085015Y004337*
X0084998Y0043341*
X0084983Y004331*
X008497Y0043278*
X008496Y0043245*
X0084951Y0043212*
X0084945Y0043178*
X0084942Y0043144*
X0084941Y004311*
X0084942Y0043075*
X0084945Y0043041*
X0084951Y0043007*
X008496Y0042974*
X008497Y0042941*
X0084983Y004291*
X0084998Y0042879*
X0085015Y0042849*
X0085034Y004282*
X0085056Y0042793*
X0085079Y0042768*
X0085103Y0042744*
X008513Y0042722*
X0085157Y0042702*
X0085187Y0042684*
X0085217Y0042667*
X0085248Y0042653*
X0085281Y0042642*
X0085314Y0042632*
X0085347Y0042625*
X0085381Y004262*
X0085415Y0042618*
X008545*
X0085484Y004262*
X0085518Y0042625*
X0085552Y0042632*
X0085585Y0042642*
X0085617Y0042653*
X0085648Y0042667*
X0085679Y0042684*
X0085708Y0042702*
X0085736Y0042722*
X0085762Y0042744*
X0085787Y0042768*
X008581Y0042793*
X0085831Y004282*
X008585Y0042849*
X0085867Y0042879*
X0085882Y004291*
X0085895Y0042941*
X0085906Y0042974*
X0085914Y0043007*
X008592Y0043041*
X0085924Y0043075*
X0085925Y004311*
G54D48*
X0079724Y0060826D02*
X0080905D01*
X0079724Y0072637D02*
X0080905D01*
Y0060826D02*
Y0072637D01*
X0079724Y0060826D02*
Y0072637D01*
X0080118Y0044488D02*
X0081299D01*
X0080118Y0056299D02*
X0081299D01*
Y0044488D02*
Y0056299D01*
X0080118Y0044488D02*
Y0056299D01*
X0077543Y0096063D02*
X0078362D01*
X0077543Y0089763D02*
X0078362D01*
X0077543D02*
Y0096063D01*
X0078362Y0089763D02*
Y0096063D01*
X002085D02*
X0021669D01*
X002085Y0089763D02*
X0021669D01*
X002085D02*
Y0096063D01*
X0021669Y0089763D02*
Y0096063D01*
X0060039Y0081102D02*
X0060433D01*
X0029527Y0055708D02*
Y0056102D01*
X0093307Y004311D02*
Y0043503D01*
X0090157Y004311D02*
Y0043503D01*
G54D49*
X0092025Y0029966D02*
D01*
X0092024Y0029981*
X0092023Y0029996*
X009202Y0030012*
X0092016Y0030026*
X0092012Y0030041*
X0092006Y0030055*
X0091999Y0030069*
X0091991Y0030082*
X0091983Y0030095*
X0091973Y0030107*
X0091963Y0030119*
X0091952Y0030129*
X009194Y0030139*
X0091928Y0030148*
X0091915Y0030156*
X0091901Y0030164*
X0091887Y003017*
X0091873Y0030175*
X0091858Y0030179*
X0091843Y0030183*
X0091828Y0030185*
X0091812Y0030186*
X0091797*
X0091782Y0030185*
X0091767Y0030183*
X0091752Y0030179*
X0091737Y0030175*
X0091722Y003017*
X0091708Y0030164*
X0091695Y0030156*
X0091682Y0030148*
X0091669Y0030139*
X0091658Y0030129*
X0091646Y0030119*
X0091636Y0030107*
X0091627Y0030095*
X0091618Y0030082*
X009161Y0030069*
X0091604Y0030055*
X0091598Y0030041*
X0091593Y0030026*
X009159Y0030012*
X0091587Y0029996*
X0091585Y0029981*
X0091585Y0029966*
X0091585Y002995*
X0091587Y0029935*
X009159Y002992*
X0091593Y0029905*
X0091598Y0029891*
X0091604Y0029876*
X009161Y0029862*
X0091618Y0029849*
X0091627Y0029836*
X0091636Y0029824*
X0091646Y0029813*
X0091658Y0029802*
X0091669Y0029792*
X0091682Y0029783*
X0091695Y0029775*
X0091708Y0029768*
X0091722Y0029762*
X0091737Y0029756*
X0091752Y0029752*
X0091767Y0029749*
X0091782Y0029747*
X0091797Y0029746*
X0091812*
X0091828Y0029747*
X0091843Y0029749*
X0091858Y0029752*
X0091873Y0029756*
X0091887Y0029762*
X0091901Y0029768*
X0091915Y0029775*
X0091928Y0029783*
X009194Y0029792*
X0091952Y0029802*
X0091963Y0029813*
X0091973Y0029824*
X0091983Y0029836*
X0091991Y0029849*
X0091999Y0029862*
X0092006Y0029876*
X0092012Y0029891*
X0092016Y0029905*
X009202Y002992*
X0092023Y0029935*
X0092024Y002995*
X0092025Y0029966*
X0025433Y0030036D02*
D01*
X0025432Y0030051*
X0025431Y0030067*
X0025428Y0030082*
X0025424Y0030097*
X002542Y0030111*
X0025414Y0030126*
X0025407Y0030139*
X0025399Y0030153*
X0025391Y0030165*
X0025381Y0030178*
X0025371Y0030189*
X002536Y00302*
X0025348Y003021*
X0025336Y0030219*
X0025323Y0030227*
X0025309Y0030234*
X0025295Y003024*
X0025281Y0030245*
X0025266Y003025*
X0025251Y0030253*
X0025236Y0030255*
X002522Y0030256*
X0025205*
X002519Y0030255*
X0025174Y0030253*
X0025159Y003025*
X0025145Y0030245*
X002513Y003024*
X0025116Y0030234*
X0025103Y0030227*
X002509Y0030219*
X0025077Y003021*
X0025065Y00302*
X0025054Y0030189*
X0025044Y0030178*
X0025035Y0030165*
X0025026Y0030153*
X0025018Y0030139*
X0025012Y0030126*
X0025006Y0030111*
X0025001Y0030097*
X0024997Y0030082*
X0024995Y0030067*
X0024993Y0030051*
X0024993Y0030036*
X0024993Y0030021*
X0024995Y0030005*
X0024997Y002999*
X0025001Y0029975*
X0025006Y0029961*
X0025012Y0029947*
X0025018Y0029933*
X0025026Y0029919*
X0025035Y0029907*
X0025044Y0029895*
X0025054Y0029883*
X0025065Y0029873*
X0025077Y0029863*
X002509Y0029854*
X0025103Y0029845*
X0025116Y0029838*
X002513Y0029832*
X0025145Y0029827*
X0025159Y0029823*
X0025174Y0029819*
X002519Y0029817*
X0025205Y0029816*
X002522*
X0025236Y0029817*
X0025251Y0029819*
X0025266Y0029823*
X0025281Y0029827*
X0025295Y0029832*
X0025309Y0029838*
X0025323Y0029845*
X0025336Y0029854*
X0025348Y0029863*
X002536Y0029873*
X0025371Y0029883*
X0025381Y0029895*
X0025391Y0029907*
X0025399Y0029919*
X0025407Y0029933*
X0025414Y0029947*
X002542Y0029961*
X0025424Y0029975*
X0025428Y002999*
X0025431Y0030005*
X0025432Y0030021*
X0025433Y0030036*
X0057109Y0083759D02*
D01*
X0057109Y0083775*
X0057107Y008379*
X0057104Y0083805*
X0057101Y008382*
X0057096Y0083835*
X005709Y0083849*
X0057084Y0083863*
X0057076Y0083876*
X0057067Y0083889*
X0057058Y0083901*
X0057048Y0083912*
X0057036Y0083923*
X0057025Y0083933*
X0057012Y0083942*
X0056999Y008395*
X0056986Y0083957*
X0056972Y0083963*
X0056957Y0083969*
X0056942Y0083973*
X0056927Y0083976*
X0056912Y0083978*
X0056897Y0083979*
X0056882*
X0056866Y0083978*
X0056851Y0083976*
X0056836Y0083973*
X0056821Y0083969*
X0056807Y0083963*
X0056793Y0083957*
X0056779Y008395*
X0056766Y0083942*
X0056754Y0083933*
X0056742Y0083923*
X0056731Y0083912*
X0056721Y0083901*
X0056711Y0083889*
X0056703Y0083876*
X0056695Y0083863*
X0056688Y0083849*
X0056682Y0083835*
X0056678Y008382*
X0056674Y0083805*
X0056671Y008379*
X005667Y0083775*
X0056669Y0083759*
X005667Y0083744*
X0056671Y0083729*
X0056674Y0083714*
X0056678Y0083699*
X0056682Y0083684*
X0056688Y008367*
X0056695Y0083656*
X0056703Y0083643*
X0056711Y008363*
X0056721Y0083618*
X0056731Y0083606*
X0056742Y0083596*
X0056754Y0083586*
X0056766Y0083577*
X0056779Y0083569*
X0056793Y0083561*
X0056807Y0083555*
X0056821Y008355*
X0056836Y0083546*
X0056851Y0083543*
X0056866Y008354*
X0056882Y0083539*
X0056897*
X0056912Y008354*
X0056927Y0083543*
X0056942Y0083546*
X0056957Y008355*
X0056972Y0083555*
X0056986Y0083561*
X0056999Y0083569*
X0057012Y0083577*
X0057025Y0083586*
X0057036Y0083596*
X0057048Y0083606*
X0057058Y0083618*
X0057067Y008363*
X0057076Y0083643*
X0057084Y0083656*
X005709Y008367*
X0057096Y0083684*
X0057101Y0083699*
X0057104Y0083714*
X0057107Y0083729*
X0057109Y0083744*
X0057109Y0083759*
X0040649Y0038287D02*
Y0040786D01*
X0041899*
X0042315Y004037*
Y0039537*
X0041899Y003912*
X0040649*
X0041482D02*
X0042315Y0038287D01*
X0043148D02*
X0043981D01*
X0043565*
Y0040786*
X0043148Y004037*
X0046481Y0038287D02*
Y0040786D01*
X0045231Y0039537*
X0046897*
X0040748Y0034153D02*
Y0036652D01*
X0041997*
X0042414Y0036236*
Y0035403*
X0041997Y0034986*
X0040748*
X0041581D02*
X0042414Y0034153D01*
X0043247D02*
X004408D01*
X0043663*
Y0036652*
X0043247Y0036236*
X0045329D02*
X0045746Y0036652D01*
X0046579*
X0046996Y0036236*
Y0035819*
X0046579Y0035403*
X0046162*
X0046579*
X0046996Y0034986*
Y003457*
X0046579Y0034153*
X0045746*
X0045329Y003457*
X0003937Y0069199D02*
X0005603Y00667D01*
Y0069199D02*
X0003937Y00667D01*
X0006436D02*
X0007269D01*
X0006852*
Y0069199*
X0006436Y0068782*
X0082677Y0076199D02*
Y0074116D01*
X0083093Y00737*
X0083926*
X0084343Y0074116*
Y0076199*
X0086425Y00737D02*
Y0076199D01*
X0085176Y0074949*
X0086842*
X0073228Y0059585D02*
Y0057503D01*
X0073644Y0057086*
X0074478*
X0074894Y0057503*
Y0059585*
X0075727Y0059169D02*
X0076144Y0059585D01*
X0076977*
X0077393Y0059169*
Y0058752*
X0076977Y0058336*
X007656*
X0076977*
X0077393Y0057919*
Y0057503*
X0076977Y0057086*
X0076144*
X0075727Y0057503*
X0060433Y0047774D02*
Y0045692D01*
X0060849Y0045275*
X0061682*
X0062099Y0045692*
Y0047774*
X0064598Y0045275D02*
X0062932D01*
X0064598Y0046941*
Y0047358*
X0064181Y0047774*
X0063348*
X0062932Y0047358*
X007244Y0098031D02*
X0069941D01*
Y0099281*
X0070358Y0099697*
X0071191*
X0071607Y0099281*
Y0098031*
Y0098864D02*
X007244Y0099697D01*
Y010053D02*
Y0101363D01*
Y0100947*
X0069941*
X0070358Y010053*
X007244Y0104279D02*
Y0102613D01*
X0070774Y0104279*
X0070358*
X0069941Y0103863*
Y0103029*
X0070358Y0102613*
X0085531Y0083464D02*
X0083032D01*
Y0084714*
X0083448Y008513*
X0084281*
X0084698Y0084714*
Y0083464*
Y0084297D02*
X0085531Y008513D01*
Y0085963D02*
Y0086796D01*
Y008638*
X0083032*
X0083448Y0085963*
X0085531Y0088046D02*
Y0088879D01*
Y0088463*
X0083032*
X0083448Y0088046*
X0037401Y00973D02*
X0034902D01*
Y0098549*
X0035318Y0098966*
X0036152*
X0036568Y0098549*
Y00973*
Y0098133D02*
X0037401Y0098966D01*
Y0099799D02*
Y0100632D01*
Y0100215*
X0034902*
X0035318Y0099799*
Y0101881D02*
X0034902Y0102298D01*
Y0103131*
X0035318Y0103548*
X0036985*
X0037401Y0103131*
Y0102298*
X0036985Y0101881*
X0035318*
X0030315Y0109055D02*
Y0111554D01*
X0031564*
X0031981Y0111137*
Y0110304*
X0031564Y0109888*
X0030315*
X0031148D02*
X0031981Y0109055D01*
X0032814Y0109471D02*
X003323Y0109055D01*
X0034063*
X003448Y0109471*
Y0111137*
X0034063Y0111554*
X003323*
X0032814Y0111137*
Y0110721*
X003323Y0110304*
X003448*
X0011023Y0088189D02*
X0008524D01*
Y0089438*
X0008941Y0089855*
X0009774*
X001019Y0089438*
Y0088189*
Y0089022D02*
X0011023Y0089855D01*
X0008941Y0090688D02*
X0008524Y0091104D01*
Y0091937*
X0008941Y0092354*
X0009357*
X0009774Y0091937*
X001019Y0092354*
X0010607*
X0011023Y0091937*
Y0091104*
X0010607Y0090688*
X001019*
X0009774Y0091104*
X0009357Y0090688*
X0008941*
X0009774Y0091104D02*
Y0091937D01*
X00304Y0105118D02*
Y0107617D01*
X0031649*
X0032066Y01072*
Y0106367*
X0031649Y0105951*
X00304*
X0031233D02*
X0032066Y0105118D01*
X0032899Y0107617D02*
X0034565D01*
Y01072*
X0032899Y0105534*
Y0105118*
X0078831Y0098448D02*
Y0100114D01*
X0078414Y010053*
X0077581*
X0077165Y0100114*
Y0098448*
X0077581Y0098031*
X0078414*
X0077998Y0098864D02*
X0078831Y0098031D01*
X0078414D02*
X0078831Y0098448D01*
X008133Y0098031D02*
X0079664D01*
X008133Y0099697*
Y0100114*
X0080914Y010053*
X0080081*
X0079664Y0100114*
X0019382Y0099235D02*
Y0100901D01*
X0018966Y0101318*
X0018133*
X0017716Y0100901*
Y0099235*
X0018133Y0098818*
X0018966*
X0018549Y0099652D02*
X0019382Y0098818D01*
X0018966D02*
X0019382Y0099235D01*
X0020215Y0098818D02*
X0021048D01*
X0020632*
Y0101318*
X0020215Y0100901*
X0056555Y0089763D02*
X0059055D01*
Y0091429*
Y0093929D02*
Y0092263D01*
X0057389Y0093929*
X0056972*
X0056555Y0093512*
Y0092679*
X0056972Y0092263*
X0033464Y0055344D02*
Y0052845D01*
X003513*
X0035963D02*
X0036796D01*
X003638*
Y0055344*
X0035963Y0054928*
X0079138Y0019492D02*
X0080905Y0021259D01*
X0080021Y0022143*
X0079432*
X0078254Y0020965*
Y0020376*
X0079138Y0019492*
X0077665Y0021554D02*
X0077076D01*
X0076487Y0022143*
Y0022732*
X0076782Y0023027*
X0077371*
X0077665Y0022732*
X0077371Y0023027*
Y0023616*
X0077665Y002391*
X0078254*
X0078843Y0023321*
Y0022732*
X0007681Y0023823D02*
X0009448Y002559D01*
X0008565Y0026474*
X0007976*
X0006798Y0025296*
Y0024707*
X0007681Y0023823*
X0006503Y0028535D02*
X0007681Y0027357D01*
X0005325*
X000503Y0027063*
Y0026474*
X0005619Y0025885*
X0006209*
X0038582Y009305D02*
Y0090551D01*
X0039832*
X0040248Y0090967*
Y0092633*
X0039832Y009305*
X0038582*
X0041081Y0090551D02*
X0041914D01*
X0041498*
Y009305*
X0041081Y0092633*
X0060327Y0076885D02*
X0059911Y0077302D01*
X0059077*
X0058661Y0076885*
Y0075219*
X0059077Y0074803*
X0059911*
X0060327Y0075219*
X006116Y0076885D02*
X0061577Y0077302D01*
X006241*
X0062826Y0076885*
Y0076469*
X006241Y0076052*
X0061993*
X006241*
X0062826Y0075636*
Y0075219*
X006241Y0074803*
X0061577*
X006116Y0075219*
X0063659Y0076885D02*
X0064076Y0077302D01*
X0064909*
X0065325Y0076885*
Y0075219*
X0064909Y0074803*
X0064076*
X0063659Y0075219*
Y0076885*
X0089649Y0082177D02*
X0089233Y0081761D01*
Y0080928*
X0089649Y0080511*
X0091315*
X0091732Y0080928*
Y0081761*
X0091315Y0082177*
X0091732Y0084677D02*
Y0083011D01*
X0090066Y0084677*
X0089649*
X0089233Y008426*
Y0083427*
X0089649Y0083011*
X0091315Y008551D02*
X0091732Y0085926D01*
Y0086759*
X0091315Y0087176*
X0089649*
X0089233Y0086759*
Y0085926*
X0089649Y008551*
X0090066*
X0090482Y0085926*
Y0087176*
X0064658Y0037782D02*
X0064241Y0038199D01*
X0063408*
X0062992Y0037782*
Y0036116*
X0063408Y00357*
X0064241*
X0064658Y0036116*
X0067157Y00357D02*
X0065491D01*
X0067157Y0037366*
Y0037782*
X006674Y0038199*
X0065907*
X0065491Y0037782*
X006799D02*
X0068407Y0038199D01*
X006924*
X0069656Y0037782*
Y0037366*
X006924Y0036949*
X0069656Y0036533*
Y0036116*
X006924Y00357*
X0068407*
X006799Y0036116*
Y0036533*
X0068407Y0036949*
X006799Y0037366*
Y0037782*
X0068407Y0036949D02*
X006924D01*
X0089649Y0074303D02*
X0089233Y0073887D01*
Y0073054*
X0089649Y0072637*
X0091315*
X0091732Y0073054*
Y0073887*
X0091315Y0074303*
X0091732Y0076803D02*
Y0075137D01*
X0090066Y0076803*
X0089649*
X0089233Y0076386*
Y0075553*
X0089649Y0075137*
X0089233Y0077636D02*
Y0079302D01*
X0089649*
X0091315Y0077636*
X0091732*
X0092633Y0025105D02*
X009305Y0025522D01*
Y0026355*
X0092633Y0026771*
X0090967*
X0090551Y0026355*
Y0025522*
X0090967Y0025105*
X0090551Y0022606D02*
Y0024272D01*
X0092217Y0022606*
X0092633*
X009305Y0023022*
Y0023855*
X0092633Y0024272*
X0090551Y0020523D02*
X009305D01*
X00918Y0021773*
Y0020107*
X003513Y006783D02*
X0034714Y0068247D01*
X0033881*
X0033464Y006783*
Y0066164*
X0033881Y0065748*
X0034714*
X003513Y0066164*
X0037629Y0065748D02*
X0035963D01*
X0037629Y0067414*
Y006783*
X0037213Y0068247*
X003638*
X0035963Y006783*
X0038463D02*
X0038879Y0068247D01*
X0039712*
X0040129Y006783*
Y0067414*
X0039712Y0066997*
X0039296*
X0039712*
X0040129Y0066581*
Y0066164*
X0039712Y0065748*
X0038879*
X0038463Y0066164*
X003513Y0071782D02*
X0034714Y0072199D01*
X0033881*
X0033464Y0071782*
Y0070116*
X0033881Y00697*
X0034714*
X003513Y0070116*
X0037629Y00697D02*
X0035963D01*
X0037629Y0071366*
Y0071782*
X0037213Y0072199*
X003638*
X0035963Y0071782*
X0040129Y00697D02*
X0038463D01*
X0040129Y0071366*
Y0071782*
X0039712Y0072199*
X0038879*
X0038463Y0071782*
X0060744Y0071168D02*
X006116Y0071585D01*
Y0072418*
X0060744Y0072834*
X0059077*
X0058661Y0072418*
Y0071585*
X0059077Y0071168*
X0058661Y0068669D02*
Y0070335D01*
X0060327Y0068669*
X0060744*
X006116Y0069085*
Y0069918*
X0060744Y0070335*
X0058661Y0067836D02*
Y0067003D01*
Y0067419*
X006116*
X0060744Y0067836*
X0065074Y0071168D02*
X0065491Y0071585D01*
Y0072418*
X0065074Y0072834*
X0063408*
X0062992Y0072418*
Y0071585*
X0063408Y0071168*
X0062992Y0068669D02*
Y0070335D01*
X0064658Y0068669*
X0065074*
X0065491Y0069085*
Y0069918*
X0065074Y0070335*
Y0067836D02*
X0065491Y0067419D01*
Y0066586*
X0065074Y006617*
X0063408*
X0062992Y0066586*
Y0067419*
X0063408Y0067836*
X0065074*
X0066027Y0091429D02*
X0065611Y0091013D01*
Y009018*
X0066027Y0089763*
X0067693*
X006811Y009018*
Y0091013*
X0067693Y0091429*
X006811Y0092263D02*
Y0093096D01*
Y0092679*
X0065611*
X0066027Y0092263*
X0067693Y0094345D02*
X006811Y0094762D01*
Y0095595*
X0067693Y0096011*
X0066027*
X0065611Y0095595*
Y0094762*
X0066027Y0094345*
X0066444*
X006686Y0094762*
Y0096011*
X0061696Y0091429D02*
X006128Y0091013D01*
Y009018*
X0061696Y0089763*
X0063363*
X0063779Y009018*
Y0091013*
X0063363Y0091429*
X0063779Y0092263D02*
Y0093096D01*
Y0092679*
X006128*
X0061696Y0092263*
Y0094345D02*
X006128Y0094762D01*
Y0095595*
X0061696Y0096011*
X0062113*
X0062529Y0095595*
X0062946Y0096011*
X0063363*
X0063779Y0095595*
Y0094762*
X0063363Y0094345*
X0062946*
X0062529Y0094762*
X0062113Y0094345*
X0061696*
X0062529Y0094762D02*
Y0095595D01*
X003513Y0063106D02*
X0034714Y0063522D01*
X0033881*
X0033464Y0063106*
Y006144*
X0033881Y0061023*
X0034714*
X003513Y006144*
X0035963Y0061023D02*
X0036796D01*
X003638*
Y0063522*
X0035963Y0063106*
X0038046Y0063522D02*
X0039712D01*
Y0063106*
X0038046Y006144*
Y0061023*
X003513Y0059169D02*
X0034714Y0059585D01*
X0033881*
X0033464Y0059169*
Y0057503*
X0033881Y0057086*
X0034714*
X003513Y0057503*
X0035963Y0057086D02*
X0036796D01*
X003638*
Y0059585*
X0035963Y0059169*
X0039712Y0059585D02*
X0038879Y0059169D01*
X0038046Y0058336*
Y0057503*
X0038463Y0057086*
X0039296*
X0039712Y0057503*
Y0057919*
X0039296Y0058336*
X0038046*
X0005603Y0073582D02*
X0005186Y0073999D01*
X0004353*
X0003937Y0073582*
Y0071916*
X0004353Y00715*
X0005186*
X0005603Y0071916*
X0006436Y00715D02*
X0007269D01*
X0006852*
Y0073999*
X0006436Y0073582*
X0010185Y0073999D02*
X0008518D01*
Y0072749*
X0009351Y0073166*
X0009768*
X0010185Y0072749*
Y0071916*
X0009768Y00715*
X0008935*
X0008518Y0071916*
X0020465Y0049326D02*
X0020048Y0049743D01*
X0019215*
X0018799Y0049326*
Y004766*
X0019215Y0047244*
X0020048*
X0020465Y004766*
X0021298Y0047244D02*
X0022131D01*
X0021714*
Y0049743*
X0021298Y0049326*
X002463Y0047244D02*
Y0049743D01*
X0023381Y0048493*
X0025047*
G54D66*
X001934Y0054232D02*
D01*
X0019339Y0054249*
X0019338Y0054266*
X0019335Y0054283*
X001933Y00543*
X0019325Y0054316*
X0019319Y0054332*
X0019311Y0054347*
X0019303Y0054362*
X0019293Y0054376*
X0019282Y005439*
X0019271Y0054403*
X0019259Y0054415*
X0019245Y0054426*
X0019232Y0054436*
X0019217Y0054445*
X0019202Y0054453*
X0019186Y005446*
X001917Y0054466*
X0019153Y0054471*
X0019137Y0054474*
X001912Y0054477*
X0019102Y0054478*
X0019085*
X0019068Y0054477*
X0019051Y0054474*
X0019034Y0054471*
X0019018Y0054466*
X0019002Y005446*
X0018986Y0054453*
X0018971Y0054445*
X0018956Y0054436*
X0018942Y0054426*
X0018929Y0054415*
X0018917Y0054403*
X0018905Y005439*
X0018895Y0054376*
X0018885Y0054362*
X0018877Y0054347*
X0018869Y0054332*
X0018863Y0054316*
X0018857Y00543*
X0018853Y0054283*
X001885Y0054266*
X0018848Y0054249*
X0018848Y0054232*
X0018848Y0054215*
X001885Y0054198*
X0018853Y0054181*
X0018857Y0054164*
X0018863Y0054148*
X0018869Y0054132*
X0018877Y0054116*
X0018885Y0054101*
X0018895Y0054087*
X0018905Y0054074*
X0018917Y0054061*
X0018929Y0054049*
X0018942Y0054038*
X0018956Y0054028*
X0018971Y0054019*
X0018986Y0054011*
X0019002Y0054004*
X0019018Y0053998*
X0019034Y0053993*
X0019051Y0053989*
X0019068Y0053987*
X0019085Y0053986*
X0019102*
X001912Y0053987*
X0019137Y0053989*
X0019153Y0053993*
X001917Y0053998*
X0019186Y0054004*
X0019202Y0054011*
X0019217Y0054019*
X0019232Y0054028*
X0019245Y0054038*
X0019259Y0054049*
X0019271Y0054061*
X0019282Y0054074*
X0019293Y0054087*
X0019303Y0054101*
X0019311Y0054116*
X0019319Y0054132*
X0019325Y0054148*
X001933Y0054164*
X0019335Y0054181*
X0019338Y0054198*
X0019339Y0054215*
X001934Y0054232*
G54D67*
X0042815Y0052696D02*
D01*
X0042814Y005271*
X0042813Y0052724*
X004281Y0052737*
X0042807Y0052751*
X0042803Y0052764*
X0042797Y0052776*
X0042791Y0052789*
X0042785Y0052801*
X0042777Y0052812*
X0042768Y0052823*
X0042759Y0052833*
X0042749Y0052843*
X0042739Y0052851*
X0042728Y0052859*
X0042716Y0052867*
X0042704Y0052873*
X0042691Y0052879*
X0042679Y0052883*
X0042665Y0052887*
X0042652Y005289*
X0042638Y0052892*
X0042625Y0052893*
X0042611*
X0042597Y0052892*
X0042584Y005289*
X004257Y0052887*
X0042557Y0052883*
X0042544Y0052879*
X0042531Y0052873*
X0042519Y0052867*
X0042508Y0052859*
X0042497Y0052851*
X0042486Y0052843*
X0042476Y0052833*
X0042467Y0052823*
X0042458Y0052812*
X0042451Y0052801*
X0042444Y0052789*
X0042438Y0052776*
X0042433Y0052764*
X0042429Y0052751*
X0042425Y0052737*
X0042423Y0052724*
X0042421Y005271*
X0042421Y0052696*
X0042421Y0052683*
X0042423Y0052669*
X0042425Y0052655*
X0042429Y0052642*
X0042433Y0052629*
X0042438Y0052616*
X0042444Y0052604*
X0042451Y0052592*
X0042458Y0052581*
X0042467Y005257*
X0042476Y005256*
X0042486Y005255*
X0042497Y0052541*
X0042508Y0052533*
X0042519Y0052526*
X0042531Y0052519*
X0042544Y0052514*
X0042557Y0052509*
X004257Y0052505*
X0042584Y0052502*
X0042597Y0052501*
X0042611Y00525*
X0042625*
X0042638Y0052501*
X0042652Y0052502*
X0042665Y0052505*
X0042679Y0052509*
X0042691Y0052514*
X0042704Y0052519*
X0042716Y0052526*
X0042728Y0052533*
X0042739Y0052541*
X0042749Y005255*
X0042759Y005256*
X0042768Y005257*
X0042777Y0052581*
X0042785Y0052592*
X0042791Y0052604*
X0042797Y0052616*
X0042803Y0052629*
X0042807Y0052642*
X004281Y0052655*
X0042813Y0052669*
X0042814Y0052683*
X0042815Y0052696*
X0075492Y0097047D02*
D01*
X0075491Y0097061*
X007549Y0097074*
X0075487Y0097088*
X0075484Y0097101*
X007548Y0097114*
X0075475Y0097127*
X0075469Y0097139*
X0075462Y0097151*
X0075454Y0097162*
X0075446Y0097173*
X0075436Y0097184*
X0075426Y0097193*
X0075416Y0097202*
X0075405Y009721*
X0075393Y0097217*
X0075381Y0097224*
X0075369Y0097229*
X0075356Y0097234*
X0075342Y0097238*
X0075329Y0097241*
X0075315Y0097243*
X0075302Y0097243*
X0075288*
X0075274Y0097243*
X0075261Y0097241*
X0075247Y0097238*
X0075234Y0097234*
X0075221Y0097229*
X0075209Y0097224*
X0075196Y0097217*
X0075185Y009721*
X0075174Y0097202*
X0075163Y0097193*
X0075153Y0097184*
X0075144Y0097173*
X0075136Y0097162*
X0075128Y0097151*
X0075121Y0097139*
X0075115Y0097127*
X007511Y0097114*
X0075106Y0097101*
X0075102Y0097088*
X00751Y0097074*
X0075098Y0097061*
X0075098Y0097047*
X0075098Y0097033*
X00751Y0097019*
X0075102Y0097006*
X0075106Y0096993*
X007511Y0096979*
X0075115Y0096967*
X0075121Y0096954*
X0075128Y0096943*
X0075136Y0096931*
X0075144Y009692*
X0075153Y009691*
X0075163Y0096901*
X0075174Y0096892*
X0075185Y0096884*
X0075196Y0096876*
X0075209Y009687*
X0075221Y0096864*
X0075234Y009686*
X0075247Y0096856*
X0075261Y0096853*
X0075274Y0096851*
X0075288Y009685*
X0075302*
X0075315Y0096851*
X0075329Y0096853*
X0075342Y0096856*
X0075356Y009686*
X0075369Y0096864*
X0075381Y009687*
X0075393Y0096876*
X0075405Y0096884*
X0075416Y0096892*
X0075426Y0096901*
X0075436Y009691*
X0075446Y009692*
X0075454Y0096931*
X0075462Y0096943*
X0075469Y0096954*
X0075475Y0096967*
X007548Y0096979*
X0075484Y0096993*
X0075487Y0097006*
X007549Y0097019*
X0075491Y0097033*
X0075492Y0097047*
X0018799D02*
D01*
X0018798Y0097061*
X0018797Y0097074*
X0018794Y0097088*
X0018791Y0097101*
X0018787Y0097114*
X0018782Y0097127*
X0018776Y0097139*
X0018769Y0097151*
X0018761Y0097162*
X0018753Y0097173*
X0018743Y0097184*
X0018734Y0097193*
X0018723Y0097202*
X0018712Y009721*
X00187Y0097217*
X0018688Y0097224*
X0018676Y0097229*
X0018663Y0097234*
X001865Y0097238*
X0018636Y0097241*
X0018622Y0097243*
X0018609Y0097243*
X0018595*
X0018581Y0097243*
X0018568Y0097241*
X0018554Y0097238*
X0018541Y0097234*
X0018528Y0097229*
X0018516Y0097224*
X0018504Y0097217*
X0018492Y009721*
X0018481Y0097202*
X001847Y0097193*
X001846Y0097184*
X0018451Y0097173*
X0018443Y0097162*
X0018435Y0097151*
X0018428Y0097139*
X0018422Y0097127*
X0018417Y0097114*
X0018413Y0097101*
X0018409Y0097088*
X0018407Y0097074*
X0018406Y0097061*
X0018405Y0097047*
X0018406Y0097033*
X0018407Y0097019*
X0018409Y0097006*
X0018413Y0096993*
X0018417Y0096979*
X0018422Y0096967*
X0018428Y0096954*
X0018435Y0096943*
X0018443Y0096931*
X0018451Y009692*
X001846Y009691*
X001847Y0096901*
X0018481Y0096892*
X0018492Y0096884*
X0018504Y0096876*
X0018516Y009687*
X0018528Y0096864*
X0018541Y009686*
X0018554Y0096856*
X0018568Y0096853*
X0018581Y0096851*
X0018595Y009685*
X0018609*
X0018622Y0096851*
X0018636Y0096853*
X001865Y0096856*
X0018663Y009686*
X0018676Y0096864*
X0018688Y009687*
X00187Y0096876*
X0018712Y0096884*
X0018723Y0096892*
X0018734Y0096901*
X0018743Y009691*
X0018753Y009692*
X0018761Y0096931*
X0018769Y0096943*
X0018776Y0096954*
X0018782Y0096967*
X0018787Y0096979*
X0018791Y0096993*
X0018794Y0097006*
X0018797Y0097019*
X0018798Y0097033*
X0018799Y0097047*
M02*