%FSTAX25Y25*%
%MOIN*%
%SFA1B1*%

%IPPOS*%
%ADD30C,0.005000*%
%ADD34O,0.055118X0.076772*%
%ADD35C,0.131000*%
%ADD36C,0.016000*%
%ADD37C,0.024000*%
%LNdigit_copper_signal_1-1*%
%LPD*%
G36*
X0053571Y0117908D02*
X0057893Y0117305D01*
X0062141Y0116306*
X0066279Y0114919*
X0070271Y0113157*
X0074083Y0111033*
X0077683Y0108567*
X008104Y0105779*
X0084126Y0102694*
X0086914Y0099336*
X008938Y0095736*
X0091503Y0091924*
X0093266Y0087932*
X0094653Y0083794*
X0095652Y0079547*
X0096255Y0075225*
X0096456Y0070866*
Y0013779*
X0096217Y0011044*
X0095506Y0008393*
X0094346Y0005905*
X0092772Y0003656*
X0090831Y0001715*
X0088582Y0000141*
X0086094Y-0001018*
X0083443Y-0001729*
X0080708Y-0001968*
X0017716*
X0014981Y-0001729*
X001233Y-0001018*
X0009842Y0000141*
X0007593Y0001715*
X0005652Y0003656*
X0004078Y0005905*
X0002918Y0008393*
X0002207Y0011044*
X0001968Y0013779*
Y0070866*
X000217Y0075225*
X0002772Y0079547*
X0003771Y0083794*
X0005158Y0087932*
X0006921Y0091924*
X0009044Y0095736*
X001151Y0099336*
X0014298Y0102694*
X0017384Y0105779*
X0020741Y0108567*
X0024341Y0111033*
X0028154Y0113157*
X0032145Y0114919*
X0036283Y0116306*
X0040531Y0117305*
X0044853Y0117908*
X0049212Y011811*
X0053571Y0117908*
G37*
%LNdigit_copper_signal_1-2*%
%LPC*%
G36*
X0049612Y0112464D02*
Y0105518D01*
X0056558*
X0056456Y0106558*
X0056035Y0107944*
X0055353Y0109221*
X0054434Y011034*
X0053315Y0111258*
X0052038Y0111941*
X0050653Y0112361*
X0049612Y0112464*
G37*
G36*
X0048812D02*
X0047771Y0112361D01*
X0046386Y0111941*
X0045109Y0111258*
X004399Y011034*
X0043071Y0109221*
X0042389Y0107944*
X0041968Y0106558*
X0041866Y0105518*
X0048812*
Y0112464*
G37*
G36*
X0031462Y0103585D02*
X0030994Y0103492D01*
X0030597Y0103227*
X0030331Y010283*
X0030238Y0102362*
X0030331Y0101894*
X0030597Y0101497*
X0030994Y0101231*
X0031462Y0101138*
X003193Y0101231*
X0032327Y0101497*
X0032592Y0101894*
X0032685Y0102362*
X0032592Y010283*
X0032327Y0103227*
X003193Y0103492*
X0031462Y0103585*
G37*
G36*
X00752Y0100651D02*
Y00995D01*
X0076351*
X0076307Y0099724*
X0075953Y0100253*
X0075424Y0100607*
X00752Y0100651*
G37*
G36*
X00744D02*
X0074175Y0100607D01*
X0073646Y0100253*
X0073292Y0099724*
X0073248Y00995*
X00744*
Y0100651*
G37*
G36*
X0058261Y0099706D02*
X0058037Y0099662D01*
X0057507Y0099308*
X0057449Y0099221*
X0056796Y0099144*
X0056668Y009923*
X00562Y0099323*
X0055731Y009923*
X0055334Y0098965*
X0055069Y0098568*
X0054976Y00981*
X0055069Y0097631*
X0055334Y0097234*
X0055731Y0096969*
X00562Y0096876*
X0056668Y0096969*
X0056847Y0097089*
X0057486Y0097033*
X0057507Y0097001*
X0058037Y0096647*
X0058261Y0096603*
Y0098155*
Y0099706*
G37*
G36*
X00159Y0100151D02*
Y0099D01*
X0017051*
X0017007Y0099224*
X0016653Y0099753*
X0016124Y0100107*
X00159Y0100151*
G37*
G36*
X00151D02*
X0014875Y0100107D01*
X0014346Y0099753*
X0013992Y0099224*
X0013948Y0099*
X00151*
Y0100151*
G37*
G36*
X0061804Y0099851D02*
X006158Y0099807D01*
X0061051Y0099453*
X0060697Y0098924*
X0060673Y0098803*
X0060213Y0098781*
X0060161Y009879*
X0059815Y0099308*
X0059285Y0099662*
X0059061Y0099706*
Y0098155*
Y0096603*
X0059285Y0096647*
X0059815Y0097001*
X0060168Y009753*
X0060192Y0097651*
X0060652Y0097673*
X0060705Y0097664*
X0061051Y0097146*
X006158Y0096792*
X0061804Y0096748*
Y00983*
Y0099851*
G37*
G36*
X0062604D02*
Y00987D01*
X0063756*
X0063711Y0098924*
X0063358Y0099453*
X0062829Y0099807*
X0062604Y0099851*
G37*
G36*
X0056558Y0104718D02*
X0049612D01*
Y0097771*
X0050653Y0097874*
X0052038Y0098294*
X0053315Y0098977*
X0054434Y0099895*
X0055353Y0101014*
X0056035Y0102291*
X0056456Y0103677*
X0056558Y0104718*
G37*
G36*
X0048812D02*
X0041866D01*
X0041968Y0103677*
X0042389Y0102291*
X0043071Y0101014*
X004399Y0099895*
X0045109Y0098977*
X0046386Y0098294*
X0047771Y0097874*
X0048812Y0097771*
Y0104718*
G37*
G36*
X0076351Y00987D02*
X00752D01*
Y0097548*
X0075424Y0097592*
X0075953Y0097946*
X0076307Y0098475*
X0076351Y00987*
G37*
G36*
X00744D02*
X0073248D01*
X0073292Y0098475*
X0073646Y0097946*
X0074175Y0097592*
X00744Y0097548*
Y00987*
G37*
G36*
X0017051Y00982D02*
X00159D01*
Y0097048*
X0016124Y0097092*
X0016653Y0097446*
X0017007Y0097975*
X0017051Y00982*
G37*
G36*
X00151D02*
X0013948D01*
X0013992Y0097975*
X0014346Y0097446*
X0014875Y0097092*
X00151Y0097048*
Y00982*
G37*
G36*
X0065748Y0099371D02*
X0065279Y0099278D01*
X0064882Y0099013*
X0064617Y0098616*
X0064524Y0098148*
X0064617Y0097679*
X0064882Y0097282*
X0065279Y0097017*
X0065748Y0096924*
X0066216Y0097017*
X0066613Y0097282*
X0066878Y0097679*
X0066971Y0098148*
X0066878Y0098616*
X0066613Y0099013*
X0066216Y0099278*
X0065748Y0099371*
G37*
G36*
X0063756Y00979D02*
X0062604D01*
Y0096748*
X0062829Y0096792*
X0063358Y0097146*
X0063711Y0097675*
X0063756Y00979*
G37*
G36*
X0032283Y0098523D02*
X0031815Y009843D01*
X0031418Y0098165*
X0031153Y0097768*
X0031059Y00973*
X0031153Y0096831*
X0031418Y0096434*
X0031815Y0096169*
X0032283Y0096076*
X0032751Y0096169*
X0033148Y0096434*
X0033413Y0096831*
X0033507Y00973*
X0033413Y0097768*
X0033148Y0098165*
X0032751Y009843*
X0032283Y0098523*
G37*
G36*
X00357Y009604D02*
Y0094888D01*
X0036851*
X0036807Y0095112*
X0036453Y0095641*
X0035924Y0095995*
X00357Y009604*
G37*
G36*
X00349D02*
X0034675Y0095995D01*
X0034146Y0095641*
X0033792Y0095112*
X0033748Y0094888*
X00349*
Y009604*
G37*
G36*
X00531Y0096623D02*
X0052631Y009653D01*
X0052234Y0096265*
X0051969Y0095868*
X0051876Y00954*
X0051969Y0094931*
X0052234Y0094534*
X0052631Y0094269*
X00531Y0094176*
X0053568Y0094269*
X0053965Y0094534*
X005423Y0094931*
X0054323Y00954*
X005423Y0095868*
X0053965Y0096265*
X0053568Y009653*
X00531Y0096623*
G37*
G36*
X00108Y0096123D02*
X0010331Y009603D01*
X0009934Y0095765*
X0009669Y0095368*
X0009576Y00949*
X0009669Y0094431*
X0009934Y0094034*
X0010331Y0093769*
X00108Y0093676*
X0011268Y0093769*
X0011665Y0094034*
X001193Y0094431*
X0012023Y00949*
X001193Y0095368*
X0011665Y0095765*
X0011268Y009603*
X00108Y0096123*
G37*
G36*
X0036851Y0094088D02*
X00357D01*
Y0092936*
X0035924Y0092981*
X0036453Y0093334*
X0036807Y0093863*
X0036851Y0094088*
G37*
G36*
X00349D02*
X0033748D01*
X0033792Y0093863*
X0034146Y0093334*
X0034675Y0092981*
X00349Y0092936*
Y0094088*
G37*
G36*
X00875Y0092365D02*
X0087031Y0092272D01*
X0086634Y0092006*
X0086369Y009161*
X0086276Y0091141*
X0086369Y0090673*
X0086634Y0090276*
X0087031Y0090011*
X00875Y0089918*
X0087968Y0090011*
X0088365Y0090276*
X008863Y0090673*
X0088723Y0091141*
X008863Y009161*
X0088365Y0092006*
X0087968Y0092272*
X00875Y0092365*
G37*
G36*
X00683Y0092223D02*
X0067831Y009213D01*
X0067434Y0091865*
X0067169Y0091468*
X0067076Y0091*
X0067169Y0090531*
X0067434Y0090134*
X0067831Y0089869*
X00683Y0089776*
X0068768Y0089869*
X0069165Y0090134*
X006943Y0090531*
X0069523Y0091*
X006943Y0091468*
X0069165Y0091865*
X0068768Y009213*
X00683Y0092223*
G37*
G36*
X00358Y0090251D02*
Y00891D01*
X0036951*
X0036907Y0089324*
X0036553Y0089853*
X0036024Y0090207*
X00358Y0090251*
G37*
G36*
X0035D02*
X0034775Y0090207D01*
X0034246Y0089853*
X0033892Y0089324*
X0033848Y00891*
X0035*
Y0090251*
G37*
G36*
X00145Y0089451D02*
Y00883D01*
X0015651*
X0015607Y0088524*
X0015253Y0089053*
X0014724Y0089407*
X00145Y0089451*
G37*
G36*
X00137D02*
X0013475Y0089407D01*
X0012946Y0089053*
X0012592Y0088524*
X0012548Y00883*
X00137*
Y0089451*
G37*
G36*
X00585Y0089347D02*
Y0088195D01*
X0059651*
X0059607Y0088419*
X0059253Y0088948*
X0058724Y0089302*
X00585Y0089347*
G37*
G36*
X00577D02*
X0057475Y0089302D01*
X0056946Y0088948*
X0056592Y0088419*
X0056548Y0088195*
X00577*
Y0089347*
G37*
G36*
X00645Y0090323D02*
X0064031Y009023D01*
X0063634Y0089965*
X0063369Y0089568*
X0063276Y00891*
X0063369Y0088631*
X0063634Y0088234*
X0064031Y0087969*
X00645Y0087876*
X0064968Y0087969*
X0065365Y0088234*
X006563Y0088631*
X0065723Y00891*
X006563Y0089568*
X0065365Y0089965*
X0064968Y009023*
X00645Y0090323*
G37*
G36*
X00277Y0088651D02*
Y00875D01*
X0028851*
X0028807Y0087724*
X0028453Y0088253*
X0027924Y0088607*
X00277Y0088651*
G37*
G36*
X00269D02*
X0026675Y0088607D01*
X0026146Y0088253*
X0025792Y0087724*
X0025748Y00875*
X00269*
Y0088651*
G37*
G36*
X00719Y0088451D02*
Y00873D01*
X0073051*
X0073007Y0087524*
X0072653Y0088053*
X0072124Y0088407*
X00719Y0088451*
G37*
G36*
X00711D02*
X0070875Y0088407D01*
X0070346Y0088053*
X0069992Y0087524*
X0069948Y00873*
X00711*
Y0088451*
G37*
G36*
X0036951Y00883D02*
X00358D01*
Y0087148*
X0036024Y0087192*
X0036553Y0087546*
X0036907Y0088075*
X0036951Y00883*
G37*
G36*
X0035D02*
X0033848D01*
X0033892Y0088075*
X0034246Y0087546*
X0034775Y0087192*
X0035Y0087148*
Y00883*
G37*
G36*
X0015651Y00875D02*
X00145D01*
Y0086348*
X0014724Y0086392*
X0015253Y0086746*
X0015607Y0087275*
X0015651Y00875*
G37*
G36*
X00137D02*
X0012548D01*
X0012592Y0087275*
X0012946Y0086746*
X0013475Y0086392*
X00137Y0086348*
Y00875*
G37*
G36*
X0059651Y0087395D02*
X00585D01*
Y0086243*
X0058724Y0086288*
X0059253Y0086641*
X0059607Y0087171*
X0059651Y0087395*
G37*
G36*
X00577D02*
X0056548D01*
X0056592Y0087171*
X0056946Y0086641*
X0057475Y0086288*
X00577Y0086243*
Y0087395*
G37*
G36*
X0028851Y00867D02*
X00277D01*
Y0085548*
X0027924Y0085592*
X0028453Y0085946*
X0028807Y0086475*
X0028851Y00867*
G37*
G36*
X00269D02*
X0025748D01*
X0025792Y0086475*
X0026146Y0085946*
X0026675Y0085592*
X00269Y0085548*
Y00867*
G37*
G36*
X0073051Y00865D02*
X00719D01*
Y0085348*
X0072124Y0085392*
X0072653Y0085746*
X0073007Y0086275*
X0073051Y00865*
G37*
G36*
X00711D02*
X0069948D01*
X0069992Y0086275*
X0070346Y0085746*
X0070875Y0085392*
X00711Y0085348*
Y00865*
G37*
G36*
X0059645Y008203D02*
X0059177Y0081937D01*
X005878Y0081672*
X0058515Y0081275*
X005848Y0081101*
X0058387Y0080802*
X0057937Y0080738*
X0057874Y0080751*
X0057583Y0080693*
X0057403Y008066*
X0057047Y0081019*
X0057035Y0081078*
X005677Y0081475*
X0056373Y008174*
X0055905Y0081833*
X0055437Y008174*
X005504Y0081475*
X0054775Y0081078*
X0054682Y008061*
X0054222Y0080356*
X0054026Y0080375*
X0054014Y0080392*
X0053617Y0080657*
X0053149Y0080751*
X0052681Y0080657*
X0052284Y0080392*
X0052269Y0080369*
X0051667*
X0051652Y0080392*
X0051255Y0080657*
X0050787Y0080751*
X0050319Y0080657*
X0049922Y0080392*
X0049907Y0080369*
X0049305*
X004929Y0080392*
X0048893Y0080657*
X0048425Y0080751*
X0047957Y0080657*
X004756Y0080392*
X004752Y0080333*
X0046965Y0080265*
X0046568Y008053*
X00461Y0080623*
X0045631Y008053*
X0045234Y0080265*
X00452Y0080214*
X0044599*
X0044565Y0080265*
X0044168Y008053*
X00437Y0080623*
X0043231Y008053*
X0042834Y0080265*
X0042569Y0079868*
X0042476Y00794*
X0042569Y0078931*
X0042834Y0078534*
X0043231Y0078269*
X00437Y0078176*
X0044168Y0078269*
X0044565Y0078534*
X0044599Y0078586*
X00452*
X0045234Y0078534*
X0045631Y0078269*
X00461Y0078176*
X0046568Y0078269*
X0046965Y0078534*
X0047004Y0078593*
X004756Y0078662*
X0047957Y0078397*
X0048425Y0078304*
X0048893Y0078397*
X004929Y0078662*
X0049305Y0078685*
X0049907*
X0049922Y0078662*
X0050319Y0078397*
X0050787Y0078304*
X0051255Y0078397*
X0051652Y0078662*
X0051667Y0078685*
X0052269*
X0052284Y0078662*
X0052528Y0078499*
X0052664Y0077929*
X0043898Y0069162*
X0032*
X0031865Y0069365*
X0031468Y006963*
X0031Y0069723*
X0030531Y006963*
X0030134Y0069365*
X0029869Y0068968*
X0029776Y00685*
X0029869Y0068031*
X0030134Y0067634*
X0030531Y0067369*
X0031Y0067276*
X0031468Y0067369*
X0031865Y0067634*
X0032Y0067837*
X0044172*
X0044426Y0067887*
X0044641Y0068031*
X0054168Y0077558*
X0054812Y0077495*
X0054896Y007737*
X0055425Y0077016*
X0055649Y0076971*
Y0078523*
X0056449*
Y0076971*
X0056673Y0077016*
X0057203Y007737*
X0057556Y0077899*
X0057646Y0078349*
X0057874Y0078304*
X0058342Y0078397*
X0058739Y0078662*
X0059004Y0079059*
X0059039Y0079233*
X0059132Y0079532*
X0059582Y0079596*
X0059645Y0079583*
X0059709Y0079596*
X0060158Y0079532*
X0060252Y0079233*
X0060286Y0079059*
X0060552Y0078662*
X0060949Y0078397*
X0061417Y0078304*
X0061885Y0078397*
X0062282Y0078662*
X006233Y0078734*
X0062734*
X0063131Y0078469*
X00636Y0078376*
X0064068Y0078469*
X0064465Y0078734*
X006473Y0079131*
X0064823Y00796*
X006473Y0080068*
X0064465Y0080465*
X0064068Y008073*
X00636Y0080823*
X0063131Y008073*
X0062734Y0080465*
X0062686Y0080392*
X0062282*
X0061885Y0080657*
X0061417Y0080751*
X0061353Y0080738*
X0060904Y0080802*
X006081Y0081101*
X0060776Y0081275*
X006051Y0081672*
X0060113Y0081937*
X0059645Y008203*
G37*
G36*
X00808Y0081256D02*
Y0080104D01*
X0081951*
X0081907Y0080329*
X0081553Y0080858*
X0081024Y0081211*
X00808Y0081256*
G37*
G36*
X008D02*
X0079775Y0081211D01*
X0079246Y0080858*
X0078892Y0080329*
X0078848Y0080104*
X008*
Y0081256*
G37*
G36*
X00303Y0079551D02*
Y00784D01*
X0031451*
X0031407Y0078624*
X0031053Y0079153*
X0030524Y0079507*
X00303Y0079551*
G37*
G36*
X00295D02*
X0029275Y0079507D01*
X0028746Y0079153*
X0028392Y0078624*
X0028348Y00784*
X00295*
Y0079551*
G37*
G36*
X00669Y0080723D02*
X0066431Y008063D01*
X0066034Y0080365*
X0065769Y0079968*
X0065676Y00795*
X0065769Y0079031*
X0066034Y0078634*
X0066431Y0078369*
X00669Y0078276*
X0067368Y0078369*
X0067765Y0078634*
X006803Y0079031*
X0068123Y00795*
X006803Y0079968*
X0067765Y0080365*
X0067368Y008063*
X00669Y0080723*
G37*
G36*
X0081951Y0079304D02*
X00808D01*
Y0078153*
X0081024Y0078197*
X0081553Y0078551*
X0081907Y007908*
X0081951Y0079304*
G37*
G36*
X008D02*
X0078848D01*
X0078892Y007908*
X0079246Y0078551*
X0079775Y0078197*
X008Y0078153*
Y0079304*
G37*
G36*
X00145Y0078951D02*
Y00778D01*
X0015651*
X0015607Y0078024*
X0015253Y0078553*
X0014724Y0078907*
X00145Y0078951*
G37*
G36*
X00137D02*
X0013475Y0078907D01*
X0012946Y0078553*
X0012592Y0078024*
X0012548Y00778*
X00137*
Y0078951*
G37*
G36*
X0031451Y00776D02*
X00303D01*
Y0076448*
X0030524Y0076492*
X0031053Y0076846*
X0031407Y0077375*
X0031451Y00776*
G37*
G36*
X00295D02*
X0028348D01*
X0028392Y0077375*
X0028746Y0076846*
X0029275Y0076492*
X00295Y0076448*
Y00776*
G37*
G36*
X0017571Y0078551D02*
X0017103Y0078458D01*
X0016706Y0078193*
X0016441Y0077796*
X0016348Y0077328*
X0016441Y007686*
X0016706Y0076463*
X0017103Y0076198*
X0017571Y0076104*
X0018039Y0076198*
X0018436Y0076463*
X0018702Y007686*
X0018795Y0077328*
X0018702Y0077796*
X0018436Y0078193*
X0018039Y0078458*
X0017571Y0078551*
G37*
G36*
X0015651Y0077D02*
X00145D01*
Y0075848*
X0014724Y0075892*
X0015253Y0076246*
X0015607Y0076775*
X0015651Y0077*
G37*
G36*
X00137D02*
X0012548D01*
X0012592Y0076775*
X0012946Y0076246*
X0013475Y0075892*
X00137Y0075848*
Y0077*
G37*
G36*
X00686Y0078223D02*
X0068131Y007813D01*
X0067734Y0077865*
X0067469Y0077468*
X0067376Y0077*
X0067469Y0076531*
X0067734Y0076134*
X0068131Y0075869*
X00686Y0075776*
X0069068Y0075869*
X0069465Y0076134*
X006973Y0076531*
X0069823Y0077*
X006973Y0077468*
X0069465Y0077865*
X0069068Y007813*
X00686Y0078223*
G37*
G36*
X00209Y0074923D02*
X0020431Y007483D01*
X0020034Y0074565*
X0019769Y0074168*
X0019676Y00737*
X0019769Y0073231*
X0019974Y0072925*
X0020009Y00726*
X0019974Y0072274*
X0019769Y0071968*
X0019676Y00715*
X0019769Y0071031*
X0020034Y0070634*
X0020431Y0070369*
X00209Y0070276*
X0021368Y0070369*
X0021765Y0070634*
X002203Y0071031*
X0022123Y00715*
X002203Y0071968*
X0021826Y0072274*
X002179Y00726*
X0021826Y0072925*
X002203Y0073231*
X0022123Y00737*
X002203Y0074168*
X0021765Y0074565*
X0021368Y007483*
X00209Y0074923*
G37*
G36*
X00903Y0071251D02*
Y00701D01*
X0091451*
X0091407Y0070324*
X0091053Y0070853*
X0090524Y0071207*
X00903Y0071251*
G37*
G36*
X00895D02*
X0089275Y0071207D01*
X0088746Y0070853*
X0088392Y0070324*
X0088348Y00701*
X00895*
Y0071251*
G37*
G36*
X00125Y0071051D02*
Y00699D01*
X0013651*
X0013607Y0070124*
X0013253Y0070653*
X0012724Y0071007*
X00125Y0071051*
G37*
G36*
X00117D02*
X0011475Y0071007D01*
X0010946Y0070653*
X0010592Y0070124*
X0010548Y00699*
X00117*
Y0071051*
G37*
G36*
X0091451Y00693D02*
X00903D01*
Y0068148*
X0090524Y0068192*
X0091053Y0068546*
X0091407Y0069075*
X0091451Y00693*
G37*
G36*
X00895D02*
X0088348D01*
X0088392Y0069075*
X0088746Y0068546*
X0089275Y0068192*
X00895Y0068148*
Y00693*
G37*
G36*
X0013651Y00691D02*
X00125D01*
Y0067948*
X0012724Y0067992*
X0013253Y0068346*
X0013607Y0068875*
X0013651Y00691*
G37*
G36*
X00117D02*
X0010548D01*
X0010592Y0068875*
X0010946Y0068346*
X0011475Y0067992*
X00117Y0067948*
Y00691*
G37*
G36*
X00678Y0072423D02*
X0067331Y007233D01*
X0066934Y0072065*
X0066669Y0071668*
X0066576Y00712*
X0066669Y0070731*
X0066934Y0070334*
X0067169Y0070177*
X0067179Y007015*
Y0069649*
X0067169Y0069622*
X0066934Y0069465*
X0066669Y0069068*
X0066576Y00686*
X0066669Y0068131*
X0066934Y0067734*
X0067331Y0067469*
X00678Y0067376*
X0068268Y0067469*
X0068665Y0067734*
X006893Y0068131*
X0069023Y00686*
X006893Y0069068*
X0068665Y0069465*
X006843Y0069622*
X006842Y0069649*
Y007015*
X006843Y0070177*
X0068665Y0070334*
X006893Y0070731*
X0069023Y00712*
X006893Y0071668*
X0068665Y0072065*
X0068268Y007233*
X00678Y0072423*
G37*
G36*
X00085Y0067299D02*
Y0066148D01*
X0009651*
X0009607Y0066372*
X0009253Y0066901*
X0008724Y0067255*
X00085Y0067299*
G37*
G36*
X00077D02*
X0007475Y0067255D01*
X0006946Y0066901*
X0006592Y0066372*
X0006548Y0066148*
X00077*
Y0067299*
G37*
G36*
X00324Y0065651D02*
Y00645D01*
X0033551*
X0033507Y0064724*
X0033153Y0065253*
X0032624Y0065607*
X00324Y0065651*
G37*
G36*
X00316D02*
X0031375Y0065607D01*
X0030846Y0065253*
X0030492Y0064724*
X0030448Y00645*
X00316*
Y0065651*
G37*
G36*
X0009651Y0065348D02*
X00085D01*
Y0064196*
X0008724Y006424*
X0009253Y0064594*
X0009607Y0065123*
X0009651Y0065348*
G37*
G36*
X00077D02*
X0006548D01*
X0006592Y0065123*
X0006946Y0064594*
X0007475Y006424*
X00077Y0064196*
Y0065348*
G37*
G36*
X00221Y0067923D02*
X0021631Y006783D01*
X0021234Y0067565*
X0020969Y0067168*
X0020876Y00667*
X0020969Y0066231*
X0021234Y0065834*
Y0065565*
X0020969Y0065168*
X0020876Y00647*
X0020969Y0064231*
X0021234Y0063834*
X0021631Y0063569*
X00221Y0063476*
X0022568Y0063569*
X0022965Y0063834*
X002323Y0064231*
X0023323Y00647*
X002323Y0065168*
X0022965Y0065565*
Y0065834*
X002323Y0066231*
X0023323Y00667*
X002323Y0067168*
X0022965Y0067565*
X0022568Y006783*
X00221Y0067923*
G37*
G36*
X0033551Y00637D02*
X00324D01*
Y0062548*
X0032624Y0062592*
X0033153Y0062946*
X0033507Y0063475*
X0033551Y00637*
G37*
G36*
X00316D02*
X0030448D01*
X0030492Y0063475*
X0030846Y0062946*
X0031375Y0062592*
X00316Y0062548*
Y00637*
G37*
G36*
X00682Y0063923D02*
X0067731Y006383D01*
X0067334Y0063565*
X0067069Y0063168*
X0066976Y00627*
X0067069Y0062231*
X0067334Y0061834*
X0067731Y0061569*
X00682Y0061476*
X0068668Y0061569*
X0069065Y0061834*
X006933Y0062231*
X0069423Y00627*
X006933Y0063168*
X0069065Y0063565*
X0068668Y006383*
X00682Y0063923*
G37*
G36*
X00818Y005999D02*
Y0058839D01*
X0082951*
X0082907Y0059063*
X0082553Y0059592*
X0082024Y0059946*
X00818Y005999*
G37*
G36*
X0081D02*
X0080775Y0059946D01*
X0080246Y0059592*
X0079892Y0059063*
X0079848Y0058839*
X0081*
Y005999*
G37*
G36*
X0030315Y0060278D02*
X0029846Y0060185D01*
X0029449Y005992*
X0029184Y0059523*
X0029091Y0059055*
X0029184Y0058586*
X0029449Y005819*
X0029846Y0057924*
X0030315Y0057831*
X0030783Y0057924*
X003118Y005819*
X0031445Y0058586*
X0031538Y0059055*
X0031445Y0059523*
X003118Y005992*
X0030783Y0060185*
X0030315Y0060278*
G37*
G36*
X0091732Y0060831D02*
X0091108Y0060707D01*
X0090578Y0060353*
X0090225Y0059824*
X00901Y00592*
X0090225Y0058575*
X0090578Y0058046*
X0091108Y0057692*
X0091732Y0057568*
X0092356Y0057692*
X0092885Y0058046*
X0093239Y0058575*
X0093363Y00592*
X0093239Y0059824*
X0092885Y0060353*
X0092356Y0060707*
X0091732Y0060831*
G37*
G36*
X0082951Y0058039D02*
X00818D01*
Y0056887*
X0082024Y0056932*
X0082553Y0057285*
X0082907Y0057814*
X0082951Y0058039*
G37*
G36*
X0081D02*
X0079848D01*
X0079892Y0057814*
X0080246Y0057285*
X0080775Y0056932*
X0081Y0056887*
Y0058039*
G37*
G36*
X0022037Y005916D02*
X0021568Y0059067D01*
X0021171Y0058802*
X0020906Y0058405*
X0020813Y0057937*
X0020906Y0057468*
X0021171Y0057071*
X0021568Y0056806*
X0022037Y0056713*
X0022505Y0056806*
X0022902Y0057071*
X0023167Y0057468*
X002326Y0057937*
X0023167Y0058405*
X0022902Y0058802*
X0022505Y0059067*
X0022037Y005916*
G37*
G36*
X00322Y0056276D02*
Y0055124D01*
X0033351*
X0033307Y0055348*
X0032953Y0055877*
X0032424Y0056231*
X00322Y0056276*
G37*
G36*
X00314D02*
X0031175Y0056231D01*
X0030646Y0055877*
X0030292Y0055348*
X0030248Y0055124*
X00314*
Y0056276*
G37*
G36*
X0033351Y0054324D02*
X00322D01*
Y0053172*
X0032424Y0053217*
X0032953Y005357*
X0033307Y00541*
X0033351Y0054324*
G37*
G36*
X00314D02*
X0030248D01*
X0030292Y00541*
X0030646Y005357*
X0031175Y0053217*
X00314Y0053172*
Y0054324*
G37*
G36*
X00904Y0052251D02*
Y00511D01*
X0091551*
X0091507Y0051324*
X0091153Y0051853*
X0090624Y0052207*
X00904Y0052251*
G37*
G36*
X00896D02*
X0089375Y0052207D01*
X0088846Y0051853*
X0088492Y0051324*
X0088448Y00511*
X00896*
Y0052251*
G37*
G36*
X00298Y0052417D02*
X0029331Y0052324D01*
X0028934Y0052058*
X0028669Y0051661*
X0028576Y0051193*
X0028669Y0050725*
X0028934Y0050328*
X0029331Y0050063*
X00298Y004997*
X0030268Y0050063*
X0030665Y0050328*
X003093Y0050725*
X0031023Y0051193*
X003093Y0051661*
X0030665Y0052058*
X0030268Y0052324*
X00298Y0052417*
G37*
G36*
X0091551Y00503D02*
X00904D01*
Y0049148*
X0090624Y0049192*
X0091153Y0049546*
X0091507Y0050075*
X0091551Y00503*
G37*
G36*
X00896D02*
X0088448D01*
X0088492Y0050075*
X0088846Y0049546*
X0089375Y0049192*
X00896Y0049148*
Y00503*
G37*
G36*
X00083Y0049827D02*
Y0048675D01*
X0009451*
X0009407Y0048899*
X0009053Y0049428*
X0008524Y0049782*
X00083Y0049827*
G37*
G36*
X00075D02*
X0007275Y0049782D01*
X0006746Y0049428*
X0006392Y0048899*
X0006348Y0048675*
X00075*
Y0049827*
G37*
G36*
X0009451Y0047875D02*
X00083D01*
Y0046723*
X0008524Y0046768*
X0009053Y0047121*
X0009407Y004765*
X0009451Y0047875*
G37*
G36*
X00075D02*
X0006348D01*
X0006392Y004765*
X0006746Y0047121*
X0007275Y0046768*
X00075Y0046723*
Y0047875*
G37*
G36*
X00686Y0054069D02*
X0068131Y0053975D01*
X0067734Y005371*
X0067469Y0053313*
X0067376Y0052845*
X0067469Y0052377*
X0067734Y005198*
X0067746Y0051972*
Y0051472*
X0067734Y0051465*
X0067469Y0051068*
X0067376Y00506*
X0067469Y0050131*
X0067662Y0049843*
X0067705Y0049512*
X0067662Y0049181*
X0067469Y0048893*
X0067376Y0048425*
X0067469Y0047957*
X0067685Y0047633*
X0067734Y0047371*
Y0047254*
X0067685Y0046991*
X0067469Y0046668*
X0067376Y00462*
X0067469Y0045731*
X0067734Y0045334*
X0068131Y0045069*
X00686Y0044976*
X0069068Y0045069*
X0069465Y0045334*
X006973Y0045731*
X0069823Y00462*
X006973Y0046668*
X0069514Y0046991*
X0069465Y0047254*
Y0047371*
X0069514Y0047633*
X006973Y0047957*
X0069823Y0048425*
X006973Y0048893*
X0069537Y0049181*
X0069494Y0049512*
X0069537Y0049843*
X006973Y0050131*
X0069823Y00506*
X006973Y0051068*
X0069465Y0051465*
X0069453Y0051472*
Y0051972*
X0069465Y005198*
X006973Y0052377*
X0069823Y0052845*
X006973Y0053313*
X0069465Y005371*
X0069068Y0053975*
X00686Y0054069*
G37*
G36*
X00097Y0045323D02*
X0009231Y004523D01*
X0008834Y0044965*
X0008569Y0044568*
X0008476Y00441*
X0008569Y0043631*
X0008834Y0043234*
X0009231Y0042969*
X00097Y0042876*
X0010168Y0042969*
X0010565Y0043234*
X001083Y0043631*
X0010923Y00441*
X001083Y0044568*
X0010565Y0044965*
X0010168Y004523*
X00097Y0045323*
G37*
G36*
X0065748Y0042562D02*
X0065279Y0042469D01*
X0064882Y0042203*
X0064818Y0042107*
X0064217*
X0064152Y0042203*
X0063755Y0042469*
X0063287Y0042562*
X0062819Y0042469*
X0062422Y0042203*
X0062157Y0041806*
X0062063Y0041338*
X0062157Y004087*
X0062422Y0040473*
X0062819Y0040208*
X0063287Y0040115*
X0063755Y0040208*
X0064152Y0040473*
X0064217Y0040569*
X0064818*
X0064882Y0040473*
X0065279Y0040208*
X0065748Y0040115*
X0066216Y0040208*
X0066613Y0040473*
X0066878Y004087*
X0066971Y0041338*
X0066878Y0041806*
X0066613Y0042203*
X0066216Y0042469*
X0065748Y0042562*
G37*
G36*
X0056889Y0043546D02*
X0056421Y0043453D01*
X0056024Y0043188*
X0055759Y0042791*
X0055666Y0042322*
X0055759Y0041854*
X0056024Y0041457*
X0056421Y0041192*
X0056889Y0041099*
X0057358Y0041192*
X0057754Y0041457*
X005802Y0041854*
X0058113Y0042322*
X005802Y0042791*
X0057754Y0043188*
X0057358Y0043453*
X0056889Y0043546*
G37*
G36*
X00829Y0042151D02*
Y0041D01*
X0084051*
X0084007Y0041224*
X0083653Y0041753*
X0083124Y0042107*
X00829Y0042151*
G37*
G36*
X00821D02*
X0081875Y0042107D01*
X0081346Y0041753*
X0080992Y0041224*
X0080948Y0041*
X00821*
Y0042151*
G37*
G36*
X0052657Y0043349D02*
X0052189Y0043256D01*
X0051792Y0042991*
X0051527Y0042594*
X0051434Y0042126*
X0051527Y0041657*
X0051792Y004126*
X0052189Y0040995*
X0052657Y0040902*
X0053125Y0040995*
X0053522Y004126*
X0053787Y0041657*
X0053881Y0042126*
X0053787Y0042594*
X0053522Y0042991*
X0053125Y0043256*
X0052657Y0043349*
G37*
G36*
X004872Y0043251D02*
X0048252Y0043157D01*
X0047855Y0042892*
X004759Y0042495*
X0047497Y0042027*
X004759Y0041559*
X0047855Y0041162*
X0048252Y0040897*
X004872Y0040804*
X0049188Y0040897*
X0049585Y0041162*
X004985Y0041559*
X0049944Y0042027*
X004985Y0042495*
X0049585Y0042892*
X0049188Y0043157*
X004872Y0043251*
G37*
G36*
X0084051Y00402D02*
X00829D01*
Y0039048*
X0083124Y0039092*
X0083653Y0039446*
X0084007Y0039975*
X0084051Y00402*
G37*
G36*
X00821D02*
X0080948D01*
X0080992Y0039975*
X0081346Y0039446*
X0081875Y0039092*
X00821Y0039048*
Y00402*
G37*
G36*
X0073228Y0038631D02*
X0072604Y0038507D01*
X0072074Y0038153*
X0071721Y0037624*
X0071597Y0037*
X0071721Y0036375*
X0072074Y0035846*
X0072604Y0035492*
X0073228Y0035368*
X0073852Y0035492*
X0074381Y0035846*
X0074735Y0036375*
X0074859Y0037*
X0074735Y0037624*
X0074381Y0038153*
X0073852Y0038507*
X0073228Y0038631*
G37*
G36*
X00276Y0036051D02*
Y00349D01*
X0028751*
X0028707Y0035124*
X0028353Y0035653*
X0027824Y0036007*
X00276Y0036051*
G37*
G36*
X00268D02*
X0026575Y0036007D01*
X0026046Y0035653*
X0025692Y0035124*
X0025648Y00349*
X00268*
Y0036051*
G37*
G36*
X00082Y0036923D02*
X0007731Y003683D01*
X0007334Y0036565*
X0007069Y0036168*
X0006976Y00357*
X0007069Y0035231*
X0007334Y0034834*
X0007731Y0034569*
X00082Y0034476*
X0008668Y0034569*
X0009065Y0034834*
X000933Y0035231*
X0009423Y00357*
X000933Y0036168*
X0009065Y0036565*
X0008668Y003683*
X00082Y0036923*
G37*
G36*
X0091732Y0037263D02*
X0091108Y0037139D01*
X0090578Y0036785*
X0090225Y0036256*
X00901Y0035632*
X0090225Y0035008*
X0090578Y0034478*
X0091108Y0034125*
X0091732Y0034*
X0092356Y0034125*
X0092885Y0034478*
X0093239Y0035008*
X0093363Y0035632*
X0093239Y0036256*
X0092885Y0036785*
X0092356Y0037139*
X0091732Y0037263*
G37*
G36*
X00354Y0034323D02*
X0034931Y003423D01*
X0034534Y0033965*
X00345Y0033914*
X0033899*
X0033865Y0033965*
X0033468Y003423*
X0033Y0034323*
X0032531Y003423*
X0032134Y0033965*
X0031977Y003373*
X003195Y003372*
X0031449*
X0031422Y003373*
X0031265Y0033965*
X0030868Y003423*
X00304Y0034323*
X0029931Y003423*
X0029534Y0033965*
X0029269Y0033568*
X0029176Y00331*
X0029269Y0032631*
X0029534Y0032234*
X0029931Y0031969*
X00304Y0031876*
X0030868Y0031969*
X0031265Y0032234*
X0031422Y0032469*
X0031449Y0032479*
X003195*
X0031977Y0032469*
X0032134Y0032234*
X0032531Y0031969*
X0033Y0031876*
X0033468Y0031969*
X0033865Y0032234*
X0033899Y0032286*
X00345*
X0034534Y0032234*
X0034931Y0031969*
X00354Y0031876*
X0035868Y0031969*
X0036265Y0032234*
X003653Y0032631*
X0036623Y00331*
X003653Y0033568*
X0036265Y0033965*
X0035868Y003423*
X00354Y0034323*
G37*
G36*
X0028751Y00341D02*
X00276D01*
Y0032948*
X0027824Y0032992*
X0028353Y0033346*
X0028707Y0033875*
X0028751Y00341*
G37*
G36*
X00268D02*
X0025648D01*
X0025692Y0033875*
X0026046Y0033346*
X0026575Y0032992*
X00268Y0032948*
Y00341*
G37*
G36*
X00737Y0034423D02*
X0073231Y003433D01*
X0072834Y0034065*
X0072569Y0033668*
X0072476Y00332*
X0072569Y0032731*
X0072834Y0032334*
X0073231Y0032069*
X00737Y0031976*
X0074168Y0032069*
X0074565Y0032334*
X007483Y0032731*
X0074923Y00332*
X007483Y0033668*
X0074565Y0034065*
X0074168Y003433*
X00737Y0034423*
G37*
G36*
X00395Y0032968D02*
Y0031816D01*
X0040651*
X0040607Y003204*
X0040253Y003257*
X0039724Y0032923*
X00395Y0032968*
G37*
G36*
X00387D02*
X0038475Y0032923D01*
X0037946Y003257*
X0037592Y003204*
X0037548Y0031816*
X00387*
Y0032968*
G37*
G36*
X0049612Y0031851D02*
Y00307D01*
X0050764*
X0050719Y0030924*
X0050366Y0031453*
X0049836Y0031807*
X0049612Y0031851*
G37*
G36*
X0048812D02*
X0048588Y0031807D01*
X0048059Y0031453*
X0047705Y0030924*
X004766Y00307*
X0048812*
Y0031851*
G37*
G36*
X0066389Y0033113D02*
X0065921Y003302D01*
X0065524Y0032754*
X0065259Y0032358*
X0065166Y0031889*
X0065259Y0031421*
X0065524Y0031024*
X0065921Y0030759*
X0066389Y0030666*
X0066858Y0030759*
X0067254Y0031024*
X006752Y0031421*
X0067613Y0031889*
X006752Y0032358*
X0067254Y0032754*
X0066858Y003302*
X0066389Y0033113*
G37*
G36*
X0040651Y0031016D02*
X00395D01*
Y0029864*
X0039724Y0029909*
X0040253Y0030262*
X0040607Y0030792*
X0040651Y0031016*
G37*
G36*
X00387D02*
X0037548D01*
X0037592Y0030792*
X0037946Y0030262*
X0038475Y0029909*
X00387Y0029864*
Y0031016*
G37*
G36*
X0050764Y00299D02*
X0049612D01*
Y0028748*
X0049836Y0028792*
X0050366Y0029146*
X0050719Y0029675*
X0050764Y00299*
G37*
G36*
X0048812D02*
X004766D01*
X0047705Y0029675*
X0048059Y0029146*
X0048588Y0028792*
X0048812Y0028748*
Y00299*
G37*
G36*
X0037007Y0029921D02*
X0036539Y0029828D01*
X0036142Y0029562*
X0035877Y0029165*
X0035784Y0028697*
X0035877Y0028229*
X0036142Y0027832*
X0036539Y0027567*
X0037007Y0027474*
X0037476Y0027567*
X0037873Y0027832*
X0038138Y0028229*
X0038231Y0028697*
X0038138Y0029165*
X0037873Y0029562*
X0037476Y0029828*
X0037007Y0029921*
G37*
G36*
X0062887Y0027551D02*
X0062663Y0027507D01*
X0062133Y0027153*
X0061808Y0026666*
X0061543Y0026641*
X0061278Y0026666*
X0060953Y0027153*
X0060424Y0027507*
X00602Y0027551*
Y0026*
Y0024448*
X0060424Y0024492*
X0060953Y0024846*
X0061278Y0025333*
X0061543Y0025358*
X0061808Y0025333*
X0062133Y0024846*
X0062663Y0024492*
X0062887Y0024448*
Y0026*
Y0027551*
G37*
G36*
X0063687D02*
Y00264D01*
X0064839*
X0064794Y0026624*
X006444Y0027153*
X0063911Y0027507*
X0063687Y0027551*
G37*
G36*
X00594D02*
X0059175Y0027507D01*
X0058646Y0027153*
X0058292Y0026624*
X0058248Y00264*
X00594*
Y0027551*
G37*
G36*
X00518Y0026623D02*
X0051331Y002653D01*
X0050934Y0026265*
X0050669Y0025868*
X005061Y0025568*
X0050098Y0025433*
X0050077Y0025465*
X004968Y002573*
X0049212Y0025823*
X0048744Y002573*
X0048347Y0025465*
X0048082Y0025068*
X0047989Y00246*
X0048082Y0024131*
X0048347Y0023734*
X0048744Y0023469*
X0049212Y0023376*
X004968Y0023469*
X0050077Y0023734*
X0050343Y0024131*
X0050402Y0024431*
X0050913Y0024566*
X0050934Y0024534*
X0051331Y0024269*
X00518Y0024176*
X0052268Y0024269*
X0052665Y0024534*
X005293Y0024931*
X0053023Y00254*
X005293Y0025868*
X0052665Y0026265*
X0052268Y002653*
X00518Y0026623*
G37*
G36*
X00563Y0027223D02*
X0055831Y002713D01*
X0055434Y0026865*
X0055169Y0026468*
X0055076Y0026*
X0055169Y0025531*
X0055434Y0025134*
X0055831Y0024869*
X00563Y0024776*
X0056768Y0024869*
X0057165Y0025134*
X005743Y0025531*
X0057523Y0026*
X005743Y0026468*
X0057165Y0026865*
X0056768Y002713*
X00563Y0027223*
G37*
G36*
X0064839Y00256D02*
X0063687D01*
Y0024448*
X0063911Y0024492*
X006444Y0024846*
X0064794Y0025375*
X0064839Y00256*
G37*
G36*
X00594D02*
X0058248D01*
X0058292Y0025375*
X0058646Y0024846*
X0059175Y0024492*
X00594Y0024448*
Y00256*
G37*
G36*
X00226Y0025123D02*
X0022131Y002503D01*
X0021734Y0024765*
X0021469Y0024368*
X0021376Y00239*
X0021469Y0023431*
X0021734Y0023034*
X0022131Y0022769*
X00226Y0022676*
X0023068Y0022769*
X0023465Y0023034*
X002373Y0023431*
X0023823Y00239*
X002373Y0024368*
X0023465Y0024765*
X0023068Y002503*
X00226Y0025123*
G37*
G36*
X008582Y0022423D02*
X0085351Y002233D01*
X0084954Y0022065*
X0084689Y0021668*
X0084596Y00212*
X0084689Y0020731*
X0084954Y0020334*
X0085351Y0020069*
X008582Y0019976*
X0086288Y0020069*
X0086685Y0020334*
X008695Y0020731*
X0087043Y00212*
X008695Y0021668*
X0086685Y0022065*
X0086288Y002233*
X008582Y0022423*
G37*
G36*
X0035537Y0020974D02*
Y0016758D01*
X0038724*
Y0017441*
X0038602Y0018369*
X0038243Y0019234*
X0037673Y0019977*
X0036931Y0020547*
X0036066Y0020905*
X0035537Y0020974*
G37*
G36*
X0063687D02*
Y0016758D01*
X0066874*
Y0017441*
X0066751Y0018369*
X0066393Y0019234*
X0065823Y0019977*
X006508Y0020547*
X0064215Y0020905*
X0063687Y0020974*
G37*
G36*
X0034737D02*
X0034209Y0020905D01*
X0033344Y0020547*
X0032601Y0019977*
X0032031Y0019234*
X0031673Y0018369*
X0031551Y0017441*
Y0016758*
X0034737*
Y0020974*
G37*
G36*
X0062887D02*
X0062359Y0020905D01*
X0061494Y0020547*
X0060751Y0019977*
X0060181Y0019234*
X0059823Y0018369*
X00597Y0017441*
Y0016758*
X0062887*
Y0020974*
G37*
G36*
X0083077Y0019157D02*
Y001221D01*
X0090023*
X008992Y0013251*
X00895Y0014637*
X0088817Y0015914*
X0087899Y0017033*
X008678Y0017951*
X0085503Y0018634*
X0084117Y0019054*
X0083077Y0019157*
G37*
G36*
X0082277D02*
X0081236Y0019054D01*
X007985Y0018634*
X0078573Y0017951*
X0077454Y0017033*
X0076536Y0015914*
X0075853Y0014637*
X0075433Y0013251*
X007533Y001221*
X0082277*
Y0019157*
G37*
G36*
X0016148D02*
Y001221D01*
X0023094*
X0022991Y0013251*
X0022571Y0014637*
X0021888Y0015914*
X002097Y0017033*
X0019851Y0017951*
X0018574Y0018634*
X0017188Y0019054*
X0016148Y0019157*
G37*
G36*
X0015348D02*
X0014307Y0019054D01*
X0012921Y0018634*
X0011644Y0017951*
X0010525Y0017033*
X0009607Y0015914*
X0008924Y0014637*
X0008504Y0013251*
X0008401Y001221*
X0015348*
Y0019157*
G37*
G36*
X0062887Y0015958D02*
X00597D01*
Y0015275*
X0059823Y0014347*
X0060181Y0013482*
X0060751Y0012739*
X0061494Y0012169*
X0062359Y0011811*
X0062887Y0011741*
Y0015958*
G37*
G36*
X0034737D02*
X0031551D01*
Y0015275*
X0031673Y0014347*
X0032031Y0013482*
X0032601Y0012739*
X0033344Y0012169*
X0034209Y0011811*
X0034737Y0011741*
Y0015958*
G37*
G36*
X0066874D02*
X0063687D01*
Y0011741*
X0064215Y0011811*
X006508Y0012169*
X0065823Y0012739*
X0066393Y0013482*
X0066751Y0014347*
X0066874Y0015275*
Y0015958*
G37*
G36*
X0038724D02*
X0035537D01*
Y0011741*
X0036066Y0011811*
X0036931Y0012169*
X0037673Y0012739*
X0038243Y0013482*
X0038602Y0014347*
X0038724Y0015275*
Y0015958*
G37*
G36*
X0069325Y0008177D02*
Y0007025D01*
X0070477*
X0070432Y0007249*
X0070078Y0007778*
X0069549Y0008132*
X0069325Y0008177*
G37*
G36*
X0068525D02*
X00683Y0008132D01*
X0067771Y0007778*
X0067418Y0007249*
X0067373Y0007025*
X0068525*
Y0008177*
G37*
G36*
X0070477Y0006225D02*
X0069325D01*
Y0005073*
X0069549Y0005118*
X0070078Y0005471*
X0070432Y0006*
X0070477Y0006225*
G37*
G36*
X0068525D02*
X0067373D01*
X0067418Y0006*
X0067771Y0005471*
X00683Y0005118*
X0068525Y0005073*
Y0006225*
G37*
G36*
X0090023Y001141D02*
X0083077D01*
Y0004464*
X0084117Y0004567*
X0085503Y0004987*
X008678Y000567*
X0087899Y0006588*
X0088817Y0007707*
X00895Y0008984*
X008992Y001037*
X0090023Y001141*
G37*
G36*
X0082277D02*
X007533D01*
X0075433Y001037*
X0075853Y0008984*
X0076536Y0007707*
X0077454Y0006588*
X0078573Y000567*
X007985Y0004987*
X0081236Y0004567*
X0082277Y0004464*
Y001141*
G37*
G36*
X0023094D02*
X0016148D01*
Y0004464*
X0017188Y0004567*
X0018574Y0004987*
X0019851Y000567*
X002097Y0006588*
X0021888Y0007707*
X0022571Y0008984*
X0022991Y001037*
X0023094Y001141*
G37*
G36*
X0015348D02*
X0008401D01*
X0008504Y001037*
X0008924Y0008984*
X0009607Y0007707*
X0010525Y0006588*
X0011644Y000567*
X0012921Y0004987*
X0014307Y0004567*
X0015348Y0004464*
Y001141*
G37*
%LNdigit_copper_signal_1-3*%
%LPD*%
G54D30*
X0054599Y0079304D02*
X0055905Y008061D01*
X0054599Y0078927D02*
Y0079304D01*
X0044172Y00685D02*
X0054599Y0078927D01*
X0031Y00685D02*
X0044172D01*
G54D34*
X0063287Y0016358D03*
X0035137D03*
G54D35*
X0049212Y0105118D03*
X0015748Y001181D03*
X0082677D03*
G54D36*
X0055905Y008061D03*
X0053149Y0079527D03*
X0056049Y0078523D03*
X0050787Y0079527D03*
X00581Y0087795D03*
X0048425Y0079527D03*
X0057874D03*
X0061417D03*
X004872Y0042027D03*
X0052657Y0042126D03*
X0056889Y0042322D03*
X0037007Y0028697D03*
X00298Y0051193D03*
X0017571Y0077328D03*
X00562Y00981D03*
X00645Y00891D03*
X00737Y00332D03*
X00082Y00357D03*
X00531Y00954D03*
X00683Y0091D03*
X00353Y0094488D03*
X0032283Y00973D03*
X00108Y00949D03*
X0033Y00331D03*
X00304D03*
X00354D03*
X0068925Y0006625D03*
X00299Y0078D03*
X00354Y00887D03*
X00391Y0031416D03*
X0062204Y00983D03*
X0058661Y0098155D03*
X0065748Y0098148D03*
X00081Y0065748D03*
X00079Y0048275D03*
X00155Y00986D03*
X00273Y00871D03*
X00748Y00991D03*
X00715Y00869D03*
X00814Y0058439D03*
X00804Y0079704D03*
X00899Y00697D03*
X009Y00507D03*
X00825Y00406D03*
X0049212Y00303D03*
X0063287Y0026D03*
X00598D03*
X00272Y00345D03*
X00121Y00695D03*
X00141Y00774D03*
Y00879D03*
X00226Y00239D03*
X0031462Y0102362D03*
X00875Y0091141D03*
X008582Y00212D03*
X0032Y00641D03*
X00318Y0054724D03*
X00097Y00441D03*
X0049212Y00246D03*
X00518Y00254D03*
X00209Y00737D03*
Y00715D03*
X0059645Y0080807D03*
X0022037Y0057937D03*
X0066389Y0031889D03*
X00563Y0026D03*
X00682Y00627D03*
X00221Y00667D03*
Y00647D03*
X00437Y00794D03*
X00461D03*
X00678Y00686D03*
X00686Y00462D03*
Y0048425D03*
Y00506D03*
Y0052845D03*
X00678Y00712D03*
X0031Y00685D03*
X00686Y0077D03*
X00669Y00795D03*
X00636Y00796D03*
X0063287Y0041338D03*
X0065748D03*
X0030315Y0059055D03*
G54D37*
X0091732Y00592D03*
X0073228Y0037D03*
X0091732Y0035632D03*
M02*