%FSTAX25Y25*%
%MOIN*%
%SFA1B1*%

%IPPOS*%
%ADD84O,0.023622X0.045276*%
%ADD85C,0.122047*%
%ADD86C,0.122047*%
%ADD87C,0.122047*%
%ADD88C,0.008000*%
%ADD89C,0.012000*%
%LNdigit_pth_drill-1*%
%LPD*%
G54D84*
X0063287Y0016358D03*
X0035137D03*
G54D85*
X0049212Y0105118D03*
G54D86*
X0015748Y001181D03*
G54D87*
X0082677Y001181D03*
G54D88*
X0055905Y008061D03*
X0053149Y0079527D03*
X0056049Y0078523D03*
X0050787Y0079527D03*
X00581Y0087795D03*
X0048425Y0079527D03*
X0057874D03*
X0061417D03*
X004872Y0042027D03*
X0052657Y0042126D03*
X0056889Y0042322D03*
X0037007Y0028697D03*
X00298Y0051193D03*
X0017571Y0077328D03*
X00562Y00981D03*
X00645Y00891D03*
X00737Y00332D03*
X00082Y00357D03*
X00531Y00954D03*
X00683Y0091D03*
X00353Y0094488D03*
X0032283Y00973D03*
X00108Y00949D03*
X0033Y00331D03*
X00304D03*
X00354D03*
X0068925Y0006625D03*
X00299Y0078D03*
X00354Y00887D03*
X00391Y0031416D03*
X0062204Y00983D03*
X0058661Y0098155D03*
X0065748Y0098148D03*
X00081Y0065748D03*
X00079Y0048275D03*
X00155Y00986D03*
X00273Y00871D03*
X00748Y00991D03*
X00715Y00869D03*
X00814Y0058439D03*
X00804Y0079704D03*
X00899Y00697D03*
X009Y00507D03*
X00825Y00406D03*
X0049212Y00303D03*
X0063287Y0026D03*
X00598D03*
X00272Y00345D03*
X00121Y00695D03*
X00141Y00774D03*
Y00879D03*
X00226Y00239D03*
X0031462Y0102362D03*
X00875Y0091141D03*
X008582Y00212D03*
X0032Y00641D03*
X00318Y0054724D03*
X00097Y00441D03*
X0049212Y00246D03*
X00518Y00254D03*
X00209Y00737D03*
Y00715D03*
X0059645Y0080807D03*
X0022037Y0057937D03*
X0066389Y0031889D03*
X00563Y0026D03*
X00682Y00627D03*
X00221Y00667D03*
Y00647D03*
X00437Y00794D03*
X00461D03*
X00678Y00686D03*
X00686Y00462D03*
Y0048425D03*
Y00506D03*
Y0052845D03*
X00678Y00712D03*
X0031Y00685D03*
X00686Y0077D03*
X00669Y00795D03*
X00636Y00796D03*
X0063287Y0041338D03*
X0065748D03*
X0030315Y0059055D03*
G54D89*
X0091732Y00592D03*
X0073228Y0037D03*
X0091732Y0035632D03*
M02*