%FSTAX25Y25*%
%MOIN*%
%SFA1B1*%

%IPPOS*%
%ADD10C,0.010000*%
%LNgel_flex-1*%
%LPD*%
G36*
X001206Y0093004D02*
X0012096D01*
X0012156Y0092982*
X0012193Y0092967*
X0012215Y0092945*
X0012222Y009293*
X0012252Y0092893*
X0012274Y0092842*
X0012281Y0092768*
Y0091606*
X0012274Y0091561*
Y0091502*
X0012267Y0091376*
X0012252Y0091228*
X0012222Y0091073*
X0012193Y009091*
X0012148Y0090762*
Y0090755*
X0012141Y0090747*
X0012133Y0090725*
X0012126Y0090696*
X0012096Y0090629*
X0012052Y009054*
X0012Y0090437*
X0011934Y0090326*
X0011852Y0090222*
X0011763Y0090118*
X0011749Y0090104*
X0011719Y0090074*
X0011667Y009003*
X0011593Y008997*
X0011497Y0089904*
X0011394Y0089837*
X0011268Y0089771*
X0011135Y0089711*
X0011127*
X001112Y0089704*
X0011097Y0089697*
X0011068Y0089689*
X0010994Y0089667*
X001089Y0089637*
X0010757Y0089615*
X0010616Y0089593*
X0010446Y0089578*
X0010269Y0089571*
X0010261*
X0010246*
X0010217*
X0010172*
X0010121Y0089578*
X0010069*
X0009936Y0089593*
X000978Y0089608*
X0009618Y0089637*
X0009447Y0089674*
X0009292Y0089726*
X0009285*
X0009277Y0089734*
X0009255Y0089741*
X0009225Y0089756*
X0009151Y0089785*
X0009063Y0089837*
X0008959Y0089896*
X0008848Y008997*
X0008737Y0090059*
X0008633Y0090155*
X0008626Y009017*
X0008589Y0090207*
X0008545Y0090266*
X0008493Y009034*
X0008433Y0090437*
X0008374Y0090555*
X0008315Y0090688*
X0008263Y0090829*
Y0090836*
X0008256Y0090844*
Y0090866*
X0008248Y0090903*
X0008234Y009094*
X0008226Y0090984*
X0008204Y0091095*
X0008182Y0091236*
X0008167Y0091399*
X0008152Y0091576*
X0008145Y0091776*
Y0092782*
X0008152Y0092827*
X0008167Y0092886*
X0008204Y0092945*
X0008219Y0092953*
X0008248Y0092975*
X0008315Y0093004*
X0008352Y0093012*
X0008404*
X0012015*
X0012022*
X0012037*
X001206Y0093004*
G37*
G36*
X0012222Y0087388D02*
X001223Y008738D01*
X0012237Y0087373*
X0012252Y0087343*
X0012267Y0087314*
Y0087306*
X0012274Y0087277*
X0012281Y008724*
X0012289Y0087188*
Y0087173*
X0012296Y0087129*
X0012304Y008707*
Y0086914*
X0012296Y0086848*
X0012289Y0086781*
Y0086766*
X0012281Y0086737*
X0012274Y0086692*
X0012267Y0086655*
Y0086648*
X0012259Y0086626*
X0012245Y0086603*
X0012222Y0086581*
X0012215Y0086574*
X0012207Y0086566*
X0012185Y0086559*
X0012163*
X0008256*
X0008248*
X0008234*
X0008212Y0086566*
X0008189Y0086581*
Y0086589*
X0008174Y0086596*
X0008167Y0086618*
X0008152Y0086655*
Y0086663*
X0008145Y0086685*
Y0086729*
X0008138Y0086781*
Y0086796*
X000813Y0086833*
X0008123Y0086899*
Y0087055*
X000813Y0087121*
X0008138Y0087188*
Y0087203*
X0008145Y0087232*
Y0087277*
X0008152Y0087321*
Y0087329*
X000816Y0087343*
X0008174Y0087366*
X0008189Y0087388*
X0008197*
X0008212Y0087395*
X0008256Y0087403*
X0012163*
X0012171*
X0012185*
X0012222Y0087388*
G37*
G36*
X0010298Y0084383D02*
X001035D01*
X0010469Y0084369*
X0010609Y0084354*
X0010764Y0084332*
X001092Y0084295*
X0011075Y0084243*
X0011083*
X001109Y0084235*
X0011112Y0084228*
X0011142Y0084213*
X0011216Y0084176*
X0011312Y0084132*
X0011423Y0084065*
X0011534Y0083991*
X0011653Y0083902*
X0011763Y0083806*
X0011778Y0083791*
X0011808Y0083754*
X001186Y0083695*
X0011926Y0083614*
X0012Y0083518*
X0012067Y0083399*
X0012141Y0083266*
X00122Y0083125*
Y0083118*
X0012207Y0083111*
X0012215Y0083088*
X0012222Y0083051*
X0012237Y0083014*
X0012252Y008297*
X0012281Y0082866*
X0012304Y0082733*
X0012333Y0082585*
X0012348Y0082415*
X0012355Y0082237*
Y0082141*
X0012348Y0082075*
Y0082001*
X0012341Y0081919*
X0012319Y0081749*
Y0081742*
X0012311Y0081712*
X0012304Y0081668*
X0012296Y0081616*
X0012281Y0081557*
X0012259Y008149*
X0012222Y0081364*
Y0081357*
X0012215Y0081335*
X00122Y0081305*
X0012193Y0081268*
X0012156Y0081179*
X0012111Y008109*
Y0081083*
X0012104Y0081076*
X0012074Y0081031*
X0012045Y0080979*
X0012008Y0080942*
X0012Y0080935*
X0011978Y008092*
X0011934Y0080898*
X0011882Y0080876*
X0011867Y0080868*
X0011845*
X0011823Y0080861*
X0011786*
X0011741Y0080854*
X0011697*
X0011638*
X001163*
X0011623*
X0011586*
X0011534Y0080861*
X0011482Y0080868*
X0011475*
X0011445Y0080876*
X0011408Y0080883*
X0011371Y0080891*
X0011364*
X0011349Y0080898*
X0011334Y0080913*
X001132Y0080928*
X0011312Y0080935*
X0011305Y0080972*
Y0080979*
X0011312Y0081009*
X0011327Y0081053*
X0011356Y0081113*
Y008112*
X0011364Y0081127*
X0011379Y008115*
X0011394Y0081179*
X0011438Y0081253*
X0011482Y0081357*
Y0081364*
X0011497Y0081386*
X0011505Y0081416*
X0011527Y008146*
X0011541Y0081512*
X0011564Y0081571*
X0011586Y0081645*
X0011608Y0081719*
Y0081727*
X0011615Y0081756*
X001163Y0081801*
X0011638Y008186*
X0011653Y0081934*
X001166Y0082015*
X0011667Y0082112*
Y0082267*
X001166Y0082319*
X0011653Y0082393*
X0011638Y0082474*
X0011623Y008257*
X0011593Y0082659*
X0011556Y0082755*
X0011549Y0082763*
X0011534Y0082792*
X0011512Y0082844*
X0011482Y0082896*
X0011438Y0082963*
X0011386Y0083037*
X0011327Y0083103*
X001126Y008317*
X0011253Y0083177*
X0011231Y0083199*
X0011186Y0083229*
X0011135Y0083266*
X0011068Y008331*
X0010994Y0083355*
X0010905Y0083399*
X0010809Y0083436*
X0010794*
X0010764Y0083451*
X0010705Y0083466*
X0010639Y0083481*
X001055Y0083495*
X0010446Y008351*
X0010335Y0083518*
X0010217Y0083525*
X001021*
X0010202*
X0010158*
X0010091Y0083518*
X0010002Y008351*
X0009906Y0083503*
X0009803Y0083488*
X0009691Y0083466*
X0009588Y0083436*
X0009573Y0083429*
X0009544Y0083421*
X0009492Y0083399*
X0009432Y008337*
X0009358Y0083325*
X0009285Y0083281*
X0009211Y0083229*
X0009137Y008317*
X0009129Y0083162*
X0009107Y008314*
X0009077Y0083103*
X0009033Y0083051*
X0008988Y0082992*
X0008944Y0082926*
X00089Y0082852*
X0008863Y0082763*
Y0082755*
X0008848Y0082718*
X0008833Y0082674*
X0008818Y0082607*
X0008804Y0082533*
X0008789Y0082445*
X0008781Y0082341*
X0008774Y0082237*
Y0082186*
X0008781Y0082149*
X0008789Y008206*
X0008804Y0081956*
Y0081949*
X0008811Y0081934*
X0008818Y0081904*
X0008826Y0081867*
X0008855Y0081786*
X00089Y0081697*
X0009862*
Y0082496*
X0009869Y0082519*
X0009891Y0082548*
X0009928Y0082578*
X0009936*
X0009943Y0082585*
X0009958*
X0009988Y0082593*
X0010017Y00826*
X0010062*
X0010113Y0082607*
X0010172*
X001018*
X0010187*
X0010224*
X0010276*
X0010321Y00826*
X0010335*
X0010357Y0082593*
X0010395Y0082585*
X0010424Y0082578*
X0010431*
X0010446Y008257*
X0010461Y0082556*
X0010476Y0082541*
X0010483Y0082533*
X0010491Y0082526*
X0010498Y0082511*
Y0081061*
X0010491Y0081031*
X0010476Y0081002*
Y0080994*
X0010461Y0080972*
X0010446Y008095*
X0010424Y0080928*
X0010417Y008092*
X0010402Y0080913*
X0010372Y0080898*
X0010335Y0080883*
X0010328Y0080876*
X0010306Y0080868*
X0010269Y0080861*
X0010224*
X0008574*
X0008567*
X0008559*
X0008515Y0080868*
X0008463Y0080876*
X0008404Y0080898*
X0008397Y0080905*
X0008367Y0080928*
X000833Y0080972*
X0008293Y0081039*
Y0081046*
X0008286Y0081053*
X0008278Y0081083*
X0008271Y0081113*
X0008241Y0081194*
X0008204Y0081298*
Y0081305*
X0008197Y008132*
X0008189Y0081357*
X0008182Y0081394*
X0008167Y0081438*
X000816Y0081497*
X0008138Y0081616*
Y0081623*
X000813Y0081645*
Y0081675*
X0008123Y0081719*
X0008115Y0081771*
X0008108Y0081823*
X0008093Y0081949*
Y0081978*
X0008086Y0082008*
Y0082052*
X0008078Y0082104*
Y0082156*
X0008071Y0082282*
Y0082363*
X0008078Y0082408*
Y0082459*
X0008086Y0082578*
X0008108Y0082718*
X000813Y0082866*
X0008167Y0083022*
X0008212Y008317*
Y0083177*
X0008219Y0083185*
X0008226Y0083207*
X0008241Y0083236*
X0008271Y008331*
X0008315Y0083399*
X0008374Y0083503*
X0008441Y0083614*
X0008522Y0083725*
X0008619Y0083836*
X0008633Y0083851*
X000867Y008388*
X0008722Y0083932*
X0008804Y0083991*
X00089Y0084058*
X0009011Y0084124*
X0009137Y0084191*
X0009277Y008425*
X0009285*
X0009292Y0084258*
X0009314Y0084265*
X0009344Y0084272*
X0009381Y008428*
X0009425Y0084295*
X0009536Y0084317*
X0009669Y0084346*
X0009817Y0084369*
X0009988Y0084383*
X0010165Y0084391*
X0010172*
X0010187*
X0010217*
X0010254*
X0010298Y0084383*
G37*
G36*
X0012222Y0078508D02*
X001223Y00785D01*
X0012237Y0078493*
X0012252Y0078463*
X0012267Y0078434*
Y0078426*
X0012274Y0078397*
X0012281Y007836*
X0012289Y0078308*
Y0078293*
X0012296Y0078249*
X0012304Y007819*
Y0078034*
X0012296Y0077968*
X0012289Y0077901*
Y0077886*
X0012281Y0077857*
X0012274Y0077812*
X0012267Y0077775*
Y0077768*
X0012259Y0077746*
X0012245Y0077723*
X0012222Y0077701*
X0012215Y0077694*
X0012207Y0077686*
X0012185Y0077679*
X0012163*
X0008256*
X0008248*
X0008234*
X0008212Y0077686*
X0008189Y0077701*
Y0077709*
X0008174Y0077716*
X0008167Y0077738*
X0008152Y0077775*
Y0077783*
X0008145Y0077805*
Y0077849*
X0008138Y0077901*
Y0077916*
X000813Y0077953*
X0008123Y0078019*
Y0078175*
X000813Y0078241*
X0008138Y0078308*
Y0078323*
X0008145Y0078352*
Y0078397*
X0008152Y0078441*
Y0078449*
X000816Y0078463*
X0008174Y0078486*
X0008189Y0078508*
X0008197*
X0008212Y0078515*
X0008256Y0078523*
X0012163*
X0012171*
X0012185*
X0012222Y0078508*
G37*
G36*
X0012096Y0075703D02*
X0012111D01*
X0012133Y0075696*
X0012171Y0075688*
X00122Y0075681*
X0012207*
X0012222Y0075674*
X0012245Y0075659*
X0012259Y0075644*
X0012267Y0075637*
X0012274Y0075629*
X0012281Y0075614*
Y0072654*
X0012274Y0072632*
X0012259Y0072617*
Y007261*
X0012245Y0072603*
X001223Y0072595*
X00122Y007258*
X0012193*
X0012171Y0072573*
X0012141Y0072566*
X0012096Y0072558*
X0012082*
X0012052Y0072551*
X0012Y0072543*
X0011934*
X0011926*
X0011919*
X0011874*
X0011823Y0072551*
X0011771Y0072558*
X0011763*
X0011734Y0072566*
X0011704Y0072573*
X0011667Y007258*
X001166*
X0011645Y0072588*
X0011608Y0072617*
X0011601Y0072632*
X0011593Y0072669*
Y0073705*
X0008256*
X0008248*
X0008234*
X0008212Y0073713*
X0008189Y0073727*
Y0073735*
X0008174Y0073742*
X0008167Y0073764*
X0008152Y0073801*
Y0073809*
X0008145Y0073831*
Y0073875*
X0008138Y0073927*
Y0073942*
X000813Y0073979*
X0008123Y0074046*
Y0074201*
X000813Y0074268*
X0008138Y0074334*
Y0074349*
X0008145Y0074379*
Y0074423*
X0008152Y0074467*
Y0074475*
X000816Y007449*
X0008174Y0074512*
X0008189Y0074534*
X0008197*
X0008212Y0074541*
X0008256Y0074549*
X0011593*
Y0075607*
X0011608Y0075644*
X0011615*
X0011623Y0075659*
X0011667Y0075681*
X0011675*
X0011697Y0075688*
X0011727Y0075696*
X0011771Y0075703*
X0011786*
X0011815*
X0011867Y0075711*
X0011934*
X0011941*
X0011948*
X0011993*
X0012045*
X0012096Y0075703*
G37*
%LNgel_flex-2*%
%LPC*%
G36*
X0011623Y0092176D02*
X0008811D01*
Y009168*
X0008818Y0091621*
X0008826Y0091539*
X0008833Y009145*
X0008848Y0091354*
X000887Y0091258*
X00089Y0091162*
X0008907Y0091154*
X0008914Y0091125*
X0008937Y009108*
X0008966Y0091021*
X0009003Y0090962*
X0009048Y0090895*
X0009107Y0090829*
X0009166Y009077*
X0009173Y0090762*
X0009196Y009074*
X000924Y009071*
X0009292Y0090681*
X0009351Y0090636*
X0009425Y0090599*
X0009514Y0090562*
X000961Y0090525*
X0009625Y0090518*
X0009662Y0090511*
X0009714Y0090496*
X0009795Y0090481*
X0009884Y0090466*
X0009995Y0090459*
X0010113Y0090444*
X0010239*
X0010254*
X0010291*
X0010343*
X0010417Y0090451*
X0010505Y0090459*
X0010594Y0090474*
X0010787Y0090518*
X0010802*
X0010831Y0090533*
X0010875Y0090548*
X0010935Y009057*
X0011001Y0090599*
X0011075Y0090636*
X0011149Y0090688*
X0011223Y009074*
X0011231Y0090747*
X0011253Y009077*
X001129Y0090799*
X0011327Y0090844*
X0011379Y0090903*
X0011423Y0090969*
X0011468Y0091043*
X0011512Y0091132*
X0011519Y009114*
X0011527Y0091177*
X0011549Y0091228*
X0011571Y0091295*
X0011586Y0091391*
X0011608Y0091495*
X0011615Y0091613*
X0011623Y0091754*
Y0092176*
G37*
%LNgel_flex-3*%
%LPD*%
G54D10*
X-0075174Y0122933D02*
D01*
X-0075174Y0122948*
X-0075176Y0122963*
X-0075178Y0122978*
X-0075182Y0122993*
X-0075187Y0123008*
X-0075193Y0123022*
X-0075199Y0123036*
X-0075207Y0123049*
X-0075216Y0123062*
X-0075225Y0123074*
X-0075235Y0123085*
X-0075246Y0123096*
X-0075258Y0123106*
X-007527Y0123115*
X-0075284Y0123123*
X-0075297Y012313*
X-0075311Y0123136*
X-0075326Y0123142*
X-007534Y0123146*
X-0075355Y0123149*
X-0075371Y0123151*
X-0075386Y0123152*
X-0075401*
X-0075416Y0123151*
X-0075432Y0123149*
X-0075447Y0123146*
X-0075461Y0123142*
X-0075476Y0123136*
X-007549Y012313*
X-0075504Y0123123*
X-0075517Y0123115*
X-0075529Y0123106*
X-0075541Y0123096*
X-0075552Y0123085*
X-0075562Y0123074*
X-0075571Y0123062*
X-007558Y0123049*
X-0075588Y0123036*
X-0075594Y0123022*
X-00756Y0123008*
X-0075605Y0122993*
X-0075609Y0122978*
X-0075611Y0122963*
X-0075613Y0122948*
X-0075614Y0122933*
X-0075613Y0122917*
X-0075611Y0122902*
X-0075609Y0122887*
X-0075605Y0122872*
X-00756Y0122857*
X-0075594Y0122843*
X-0075588Y0122829*
X-007558Y0122816*
X-0075571Y0122803*
X-0075562Y0122791*
X-0075552Y012278*
X-0075541Y0122769*
X-0075529Y0122759*
X-0075517Y012275*
X-0075504Y0122742*
X-007549Y0122735*
X-0075476Y0122729*
X-0075461Y0122723*
X-0075447Y0122719*
X-0075432Y0122716*
X-0075416Y0122714*
X-0075401Y0122713*
X-0075386*
X-0075371Y0122714*
X-0075355Y0122716*
X-007534Y0122719*
X-0075326Y0122723*
X-0075311Y0122729*
X-0075297Y0122735*
X-0075284Y0122742*
X-007527Y012275*
X-0075258Y0122759*
X-0075246Y0122769*
X-0075235Y012278*
X-0075225Y0122791*
X-0075216Y0122803*
X-0075207Y0122816*
X-0075199Y0122829*
X-0075193Y0122843*
X-0075187Y0122857*
X-0075182Y0122872*
X-0075178Y0122887*
X-0075176Y0122902*
X-0075174Y0122917*
X-0075174Y0122933*
X0082307D02*
D01*
X0082306Y0122948*
X0082304Y0122963*
X0082302Y0122978*
X0082298Y0122993*
X0082293Y0123008*
X0082287Y0123022*
X0082281Y0123036*
X0082273Y0123049*
X0082264Y0123062*
X0082255Y0123074*
X0082245Y0123085*
X0082234Y0123096*
X0082222Y0123106*
X008221Y0123115*
X0082197Y0123123*
X0082183Y012313*
X0082169Y0123136*
X0082154Y0123142*
X008214Y0123146*
X0082125Y0123149*
X0082109Y0123151*
X0082094Y0123152*
X0082079*
X0082064Y0123151*
X0082048Y0123149*
X0082033Y0123146*
X0082019Y0123142*
X0082004Y0123136*
X008199Y012313*
X0081977Y0123123*
X0081963Y0123115*
X0081951Y0123106*
X0081939Y0123096*
X0081928Y0123085*
X0081918Y0123074*
X0081909Y0123062*
X00819Y0123049*
X0081892Y0123036*
X0081886Y0123022*
X008188Y0123008*
X0081875Y0122993*
X0081871Y0122978*
X0081869Y0122963*
X0081867Y0122948*
X0081867Y0122933*
X0081867Y0122917*
X0081869Y0122902*
X0081871Y0122887*
X0081875Y0122872*
X008188Y0122857*
X0081886Y0122843*
X0081892Y0122829*
X00819Y0122816*
X0081909Y0122803*
X0081918Y0122791*
X0081928Y012278*
X0081939Y0122769*
X0081951Y0122759*
X0081963Y012275*
X0081977Y0122742*
X008199Y0122735*
X0082004Y0122729*
X0082019Y0122723*
X0082033Y0122719*
X0082048Y0122716*
X0082064Y0122714*
X0082079Y0122713*
X0082094*
X0082109Y0122714*
X0082125Y0122716*
X008214Y0122719*
X0082154Y0122723*
X0082169Y0122729*
X0082183Y0122735*
X0082197Y0122742*
X008221Y012275*
X0082222Y0122759*
X0082234Y0122769*
X0082245Y012278*
X0082255Y0122791*
X0082264Y0122803*
X0082273Y0122816*
X0082281Y0122829*
X0082287Y0122843*
X0082293Y0122857*
X0082298Y0122872*
X0082302Y0122887*
X0082304Y0122902*
X0082306Y0122917*
X0082307Y0122933*
X0137425Y0122934D02*
D01*
X0137424Y0122949*
X0137422Y0122964*
X013742Y0122979*
X0137416Y0122994*
X0137411Y0123009*
X0137405Y0123023*
X0137399Y0123037*
X0137391Y012305*
X0137382Y0123063*
X0137373Y0123075*
X0137363Y0123086*
X0137352Y0123097*
X013734Y0123107*
X0137328Y0123116*
X0137315Y0123124*
X0137301Y0123131*
X0137287Y0123137*
X0137272Y0123143*
X0137258Y0123147*
X0137243Y012315*
X0137227Y0123152*
X0137212Y0123153*
X0137197*
X0137182Y0123152*
X0137166Y012315*
X0137151Y0123147*
X0137137Y0123143*
X0137122Y0123137*
X0137108Y0123131*
X0137095Y0123124*
X0137081Y0123116*
X0137069Y0123107*
X0137057Y0123097*
X0137046Y0123086*
X0137036Y0123075*
X0137027Y0123063*
X0137018Y012305*
X013701Y0123037*
X0137004Y0123023*
X0136998Y0123009*
X0136993Y0122994*
X0136989Y0122979*
X0136987Y0122964*
X0136985Y0122949*
X0136985Y0122934*
X0136985Y0122918*
X0136987Y0122903*
X0136989Y0122888*
X0136993Y0122873*
X0136998Y0122858*
X0137004Y0122844*
X013701Y012283*
X0137018Y0122817*
X0137027Y0122804*
X0137036Y0122792*
X0137046Y0122781*
X0137057Y012277*
X0137069Y012276*
X0137081Y0122751*
X0137095Y0122743*
X0137108Y0122736*
X0137122Y012273*
X0137137Y0122724*
X0137151Y012272*
X0137166Y0122717*
X0137182Y0122715*
X0137197Y0122714*
X0137212*
X0137227Y0122715*
X0137243Y0122717*
X0137258Y012272*
X0137272Y0122724*
X0137287Y012273*
X0137301Y0122736*
X0137315Y0122743*
X0137328Y0122751*
X013734Y012276*
X0137352Y012277*
X0137363Y0122781*
X0137373Y0122792*
X0137382Y0122804*
X0137391Y0122817*
X0137399Y012283*
X0137405Y0122844*
X0137411Y0122858*
X0137416Y0122873*
X013742Y0122888*
X0137422Y0122903*
X0137424Y0122918*
X0137425Y0122934*
X0016559Y0109153D02*
D01*
X0016558Y0109168*
X0016556Y0109183*
X0016554Y0109198*
X001655Y0109213*
X0016545Y0109228*
X0016539Y0109242*
X0016533Y0109256*
X0016525Y0109269*
X0016516Y0109282*
X0016507Y0109294*
X0016497Y0109305*
X0016486Y0109316*
X0016474Y0109326*
X0016462Y0109335*
X0016449Y0109343*
X0016435Y010935*
X0016421Y0109356*
X0016406Y0109362*
X0016392Y0109366*
X0016377Y0109369*
X0016361Y0109371*
X0016346Y0109372*
X0016331*
X0016316Y0109371*
X00163Y0109369*
X0016285Y0109366*
X0016271Y0109362*
X0016256Y0109356*
X0016242Y010935*
X0016229Y0109343*
X0016215Y0109335*
X0016203Y0109326*
X0016191Y0109316*
X001618Y0109305*
X001617Y0109294*
X0016161Y0109282*
X0016152Y0109269*
X0016144Y0109256*
X0016138Y0109242*
X0016132Y0109228*
X0016127Y0109213*
X0016123Y0109198*
X0016121Y0109183*
X0016119Y0109168*
X0016119Y0109153*
X0016119Y0109137*
X0016121Y0109122*
X0016123Y0109107*
X0016127Y0109092*
X0016132Y0109077*
X0016138Y0109063*
X0016144Y0109049*
X0016152Y0109036*
X0016161Y0109023*
X001617Y0109011*
X001618Y0109*
X0016191Y0108989*
X0016203Y0108979*
X0016215Y010897*
X0016229Y0108962*
X0016242Y0108955*
X0016256Y0108949*
X0016271Y0108943*
X0016285Y0108939*
X00163Y0108936*
X0016316Y0108934*
X0016331Y0108933*
X0016346*
X0016361Y0108934*
X0016377Y0108936*
X0016392Y0108939*
X0016406Y0108943*
X0016421Y0108949*
X0016435Y0108955*
X0016449Y0108962*
X0016462Y010897*
X0016474Y0108979*
X0016486Y0108989*
X0016497Y0109*
X0016507Y0109011*
X0016516Y0109023*
X0016525Y0109036*
X0016533Y0109049*
X0016539Y0109063*
X0016545Y0109077*
X001655Y0109092*
X0016554Y0109107*
X0016556Y0109122*
X0016558Y0109137*
X0016559Y0109153*
X-0130292Y0122933D02*
D01*
X-0130292Y0122948*
X-0130294Y0122963*
X-0130296Y0122978*
X-01303Y0122993*
X-0130305Y0123008*
X-0130311Y0123022*
X-0130317Y0123036*
X-0130325Y0123049*
X-0130334Y0123062*
X-0130343Y0123074*
X-0130353Y0123085*
X-0130364Y0123096*
X-0130376Y0123106*
X-0130388Y0123115*
X-0130402Y0123123*
X-0130415Y012313*
X-0130429Y0123136*
X-0130444Y0123142*
X-0130458Y0123146*
X-0130473Y0123149*
X-0130489Y0123151*
X-0130504Y0123152*
X-0130519*
X-0130534Y0123151*
X-013055Y0123149*
X-0130565Y0123146*
X-0130579Y0123142*
X-0130594Y0123136*
X-0130608Y012313*
X-0130622Y0123123*
X-0130635Y0123115*
X-0130647Y0123106*
X-0130659Y0123096*
X-013067Y0123085*
X-013068Y0123074*
X-0130689Y0123062*
X-0130698Y0123049*
X-0130706Y0123036*
X-0130712Y0123022*
X-0130718Y0123008*
X-0130723Y0122993*
X-0130727Y0122978*
X-0130729Y0122963*
X-0130731Y0122948*
X-0130732Y0122933*
X-0130731Y0122917*
X-0130729Y0122902*
X-0130727Y0122887*
X-0130723Y0122872*
X-0130718Y0122857*
X-0130712Y0122843*
X-0130706Y0122829*
X-0130698Y0122816*
X-0130689Y0122803*
X-013068Y0122791*
X-013067Y012278*
X-0130659Y0122769*
X-0130647Y0122759*
X-0130635Y012275*
X-0130622Y0122742*
X-0130608Y0122735*
X-0130594Y0122729*
X-0130579Y0122723*
X-0130565Y0122719*
X-013055Y0122716*
X-0130534Y0122714*
X-0130519Y0122713*
X-0130504*
X-0130489Y0122714*
X-0130473Y0122716*
X-0130458Y0122719*
X-0130444Y0122723*
X-0130429Y0122729*
X-0130415Y0122735*
X-0130402Y0122742*
X-0130388Y012275*
X-0130376Y0122759*
X-0130364Y0122769*
X-0130353Y012278*
X-0130343Y0122791*
X-0130334Y0122803*
X-0130325Y0122816*
X-0130317Y0122829*
X-0130311Y0122843*
X-0130305Y0122857*
X-01303Y0122872*
X-0130296Y0122887*
X-0130294Y0122902*
X-0130292Y0122917*
X-0130292Y0122933*
X-0058425Y0118012D02*
X-0061024D01*
Y0116712*
X-006059Y0116279*
X-0058858*
X-0058425Y0116712*
Y0118012*
Y011368D02*
Y0115413D01*
X-0059724*
X-0059291Y0114546*
Y0114113*
X-0059724Y011368*
X-006059*
X-0061024Y0114113*
Y011498*
X-006059Y0115413*
X0099056Y0118012D02*
X0096457D01*
Y0116712*
X009689Y0116279*
X0098623*
X0099056Y0116712*
Y0118012*
X0096457Y0114113D02*
X0099056D01*
X0097756Y0115413*
Y011368*
X0154174Y0118014D02*
X0151575D01*
Y0116714*
X0152008Y0116281*
X0153741*
X0154174Y0116714*
Y0118014*
X0153741Y0115414D02*
X0154174Y0114981D01*
Y0114115*
X0153741Y0113682*
X0153308*
X0152874Y0114115*
Y0114548*
Y0114115*
X0152441Y0113682*
X0152008*
X0151575Y0114115*
Y0114981*
X0152008Y0115414*
X0021202Y0117717D02*
X0018602D01*
Y0116417*
X0019036Y0115984*
X0020768*
X0021202Y0116417*
Y0117717*
X0018602Y0113385D02*
Y0115117D01*
X0020335Y0113385*
X0020768*
X0021202Y0113818*
Y0114684*
X0020768Y0115117*
X-0113543Y0117028D02*
X-0116142D01*
Y0115728*
X-0115708Y0115295*
X-0113976*
X-0113543Y0115728*
Y0117028*
X-0116142Y0114428D02*
Y0113562D01*
Y0113995*
X-0113543*
X-0113976Y0114428*
M02*