%FSTAX23Y23*%
%MOIN*%
%SFA1B1*%

%IPPOS*%
%ADD10C,0.007870*%
%ADD11C,0.010000*%
%LNgel_flex-1*%
%LPD*%
G36*
X0012Y0093D02*
X0012Y0093D01*
X00121Y00929*
X00121Y00929*
X00122Y00929*
X00122Y00929*
X00122Y00929*
X00122Y00929*
X00122Y00928*
X00122Y00928*
X00122Y00928*
Y00916*
X00122Y00915*
Y00915*
X00122Y00914*
X00122Y00913*
X00122Y00912*
X00122Y0091*
X00121Y00909*
X00121Y00907*
Y00907*
X00121Y00907*
X00121Y00907*
X00121Y00907*
X00121Y00906*
X0012Y00906*
X0012Y00905*
X0012Y00904*
X00119Y00903*
X00118Y00902*
X00117Y00901*
X00117Y00901*
X00117Y00901*
X00117Y009*
X00117Y009*
X00116Y009*
X00115Y00899*
X00115Y00899*
X00113Y00898*
X00112Y00897*
X00111Y00897*
X00111*
X00111Y00897*
X0011Y00897*
X0011Y00896*
X0011Y00896*
X00109Y00896*
X00109Y00896*
X00108Y00896*
X00108Y00896*
X00107Y00896*
X00106Y00895*
X00104Y00895*
X00102Y00895*
X00102*
X00102*
X00102*
X00101*
X00101Y00895*
X001*
X001Y00895*
X00099Y00895*
X00097Y00896*
X00096Y00896*
X00094Y00896*
X00092Y00897*
X00092*
X00092Y00897*
X00092Y00897*
X00092Y00897*
X00091Y00897*
X00091Y00897*
X0009Y00898*
X00089Y00898*
X00088Y00899*
X00087Y009*
X00086Y00901*
Y00901*
X00086Y00901*
X00086Y00901*
X00085Y00902*
X00085Y00902*
X00085Y00902*
X00084Y00903*
X00084Y00904*
X00083Y00905*
X00083Y00906*
X00082Y00908*
Y00908*
X00082Y00908*
X00082Y00908*
X00082Y00909*
X00082Y00909*
X00082Y00909*
X00082Y0091*
X00082Y0091*
X00081Y00911*
X00081Y00912*
X00081Y00913*
X00081Y00913*
X00081Y00915*
X00081Y00917*
Y00927*
X00081Y00928*
Y00928*
X00081Y00928*
X00081Y00929*
X00082Y00929*
X00082*
X00082Y00929*
X00082Y00929*
X00082Y00929*
X00082Y00929*
X00083Y0093*
X00083Y0093*
X00084Y0093*
X0012*
X0012*
X0012*
X0012Y0093*
G37*
G36*
X00122Y00873D02*
X00122Y00873D01*
X00122Y00873*
X00122Y00873*
X00122Y00873*
X00122Y00873*
X00122Y00873*
X00122Y00872*
X00122Y00872*
X00122Y00871*
Y00871*
X00122Y00871*
Y0087*
X00123Y0087*
Y00869*
X00122Y00868*
X00122Y00867*
Y00867*
X00122Y00867*
X00122Y00866*
X00122Y00866*
X00122Y00866*
X00122Y00866*
X00122Y00866*
X00122Y00865*
X00122Y00865*
X00122Y00865*
X00121Y00865*
X00121Y00865*
X00082*
X00082*
X00082*
X00082Y00865*
X00081Y00865*
X00081Y00865*
X00081Y00865*
X00081Y00866*
X00081Y00866*
Y00866*
X00081Y00866*
X00081Y00867*
X00081Y00867*
Y00867*
X00081Y00868*
Y00868*
X00081Y00868*
Y0087*
X00081Y00871*
X00081Y00871*
Y00871*
X00081Y00872*
X00081Y00872*
X00081Y00873*
X00081Y00873*
X00081Y00873*
X00081Y00873*
X00081Y00873*
X00082*
X00082Y00873*
X00082Y00873*
X00082Y00874*
X00121*
X00121*
X00121*
X00122Y00873*
G37*
G36*
X00102Y00843D02*
X00103D01*
X00104Y00843*
X00104Y00843*
X00106Y00843*
X00107Y00843*
X00109Y00842*
X0011Y00842*
X0011*
X0011Y00842*
X00111Y00842*
X00111Y00842*
X00111Y00841*
X00112Y00841*
X00113Y00841*
X00114Y0084*
X00115Y00839*
X00116Y00839*
X00117Y00838*
X00117Y00837*
X00117Y00837*
X00117Y00837*
X00118Y00837*
X00118Y00837*
X00118Y00836*
X00119Y00836*
X00119Y00835*
X0012Y00833*
X00121Y00832*
X00121Y00831*
Y00831*
X00122Y00831*
X00122Y0083*
X00122Y0083*
X00122Y0083*
X00122Y00829*
X00122Y00829*
X00122Y00828*
X00122Y00828*
X00123Y00827*
X00123Y00825*
X00123Y00824*
X00123Y00822*
Y00821*
X00123Y0082*
X00123Y00819*
X00123Y00819*
X00123Y00817*
Y00817*
X00123Y00817*
X00122Y00816*
X00122Y00816*
X00122Y00815*
X00122Y00814*
X00122Y00813*
Y00813*
X00122Y00813*
X00122Y00812*
X00121Y00812*
X00121Y00811*
X00121Y00811*
X00121Y0081*
Y0081*
X0012Y0081*
X0012Y0081*
X0012Y0081*
X0012Y00809*
X0012Y00809*
X0012Y00809*
X00119Y00809*
X00119Y00809*
X00119Y00808*
X00118Y00808*
X00118*
X00118Y00808*
X00118*
X00118Y00808*
X00117Y00808*
X00117*
X00116Y00808*
X00116*
X00116*
X00116*
X00115*
X00115*
X00115Y00808*
X00114Y00808*
X00114*
X00114Y00808*
X00114Y00808*
X00113Y00808*
X00113*
X00113Y00808*
X00113Y00809*
X00113Y00809*
Y00809*
X00113Y00809*
X00112Y00809*
Y00809*
X00113Y00809*
X00113Y0081*
X00113Y00811*
Y00811*
X00113Y00811*
X00113Y00811*
X00113Y00811*
X00114Y00812*
X00114Y00812*
X00114Y00812*
X00114Y00813*
X00114Y00813*
X00114Y00813*
X00115Y00814*
X00115Y00814*
X00115Y00815*
X00115Y00815*
X00115Y00816*
X00116Y00817*
X00116Y00817*
X00116Y00817*
X00116Y00817*
X00116Y00818*
X00116Y00819*
X00116Y0082*
X00116Y00821*
Y00822*
X00116Y00823*
X00116Y00823*
X00116Y00824*
X00116Y00825*
X00115Y00826*
X00115Y00827*
X00115Y00827*
X00115Y00827*
X00115Y00828*
X00114Y00828*
X00114Y00829*
X00113Y0083*
X00113Y00831*
X00112Y00831*
X00112Y00831*
X00112Y00831*
X00111Y00832*
X00111Y00832*
X0011Y00833*
X00109Y00833*
X00108Y00833*
X00108Y00834*
X00107*
X00107Y00834*
X00107*
X00107Y00834*
X00107Y00834*
X00106Y00834*
X00105Y00834*
X00104Y00835*
X00103Y00835*
X00102Y00835*
X00102*
X00101*
X00101*
X00101*
X00101Y00835*
X001*
X001Y00835*
X00099Y00834*
X00097Y00834*
X00096Y00834*
X00095Y00834*
X00095*
X00095Y00834*
X00095Y00834*
X00094Y00833*
X00094Y00833*
X00093Y00833*
X00092Y00832*
X00092Y00832*
X00091Y00831*
X00091Y00831*
X00091Y00831*
X0009Y00831*
X0009Y0083*
X00089Y00829*
X00089Y00829*
X00088Y00828*
X00088Y00827*
Y00827*
X00088Y00827*
X00088Y00827*
X00088Y00826*
X00088Y00826*
X00087Y00825*
X00087Y00824*
X00087Y00823*
X00087Y00822*
Y00821*
X00087Y00821*
Y00821*
X00087Y0082*
X00087Y00819*
Y00819*
X00088Y00819*
X00088Y00819*
X00088Y00818*
X00088Y00818*
X00088Y00817*
X00088Y00816*
X00098*
Y00824*
X00098Y00825*
X00098Y00825*
X00099Y00825*
X00099Y00825*
X00099*
X00099Y00825*
X00099Y00825*
X00099*
X001Y00825*
X001Y00825*
X00101Y00826*
X00101*
X00101*
X00101*
X00102*
X00102*
X00102*
X00103Y00825*
X00103*
X00103*
X00103Y00825*
X00103Y00825*
X00104Y00825*
X00104Y00825*
X00104Y00825*
X00104Y00825*
X00104Y00825*
X00104Y00825*
X00104Y00825*
X00104Y00825*
X00104Y00824*
Y0081*
X00104Y0081*
X00104Y00809*
X00104Y00809*
X00104Y00809*
X00104Y00809*
X00104Y00809*
X00104Y00809*
X00103Y00809*
X00103Y00808*
X00103Y00808*
X00103Y00808*
X00103Y00808*
X00102Y00808*
X00102*
X00085*
X00085*
X00085*
X00085*
X00085Y00808*
X00084Y00808*
X00084Y00808*
X00084*
X00083Y00809*
X00083Y00809*
X00083Y00809*
X00083Y00809*
X00083Y00809*
X00082Y0081*
Y0081*
X00082Y0081*
X00082Y0081*
X00082Y00811*
X00082Y00811*
X00082Y00811*
X00082Y00812*
X00082Y00812*
Y00812*
X00082Y00813*
X00081Y00813*
X00081Y00813*
X00081Y00814*
X00081Y00814*
X00081Y00816*
Y00816*
X00081Y00816*
X00081Y00816*
X00081Y00817*
X00081Y00817*
X00081Y00818*
X0008Y00819*
Y00819*
X0008Y0082*
Y0082*
X0008Y0082*
Y00821*
X0008Y00822*
Y00823*
X0008Y00824*
Y00824*
X0008Y00825*
X0008Y00825*
X00081Y00827*
X00081Y00828*
X00081Y0083*
X00082Y00831*
Y00831*
X00082Y00831*
X00082Y00832*
X00082Y00832*
X00082Y00832*
X00082Y00833*
X00083Y00833*
X00083Y00834*
X00084Y00836*
X00085Y00837*
X00086Y00838*
X00086Y00838*
X00086Y00838*
X00086Y00838*
X00086Y00838*
X00087Y00839*
X00088Y00839*
X00089Y0084*
X0009Y00841*
X00091Y00841*
X00092Y00842*
X00092*
X00092Y00842*
X00093Y00842*
X00093Y00842*
X00093Y00842*
X00094Y00842*
X00094Y00843*
X00095Y00843*
X00095Y00843*
X00096Y00843*
X00098Y00843*
X00099Y00843*
X00101Y00843*
X00101*
X00101*
X00102*
X00102*
X00102Y00843*
G37*
G36*
X00122Y00785D02*
X00122Y00784D01*
X00122Y00784*
X00122Y00784*
X00122Y00784*
X00122Y00784*
X00122Y00784*
X00122Y00783*
X00122Y00783*
X00122Y00782*
Y00782*
X00122Y00782*
Y00782*
X00123Y00781*
Y0078*
X00122Y00779*
X00122Y00778*
Y00778*
X00122Y00778*
X00122Y00778*
X00122Y00777*
X00122Y00777*
X00122Y00777*
X00122Y00777*
X00122Y00776*
X00122Y00776*
X00122Y00776*
X00121Y00776*
X00121Y00776*
X00082*
X00082*
X00082*
X00082Y00776*
X00081Y00776*
X00081Y00776*
X00081Y00777*
X00081Y00777*
X00081Y00777*
Y00777*
X00081Y00777*
X00081Y00778*
X00081Y00778*
Y00779*
X00081Y00779*
Y00779*
X00081Y0078*
Y00781*
X00081Y00782*
X00081Y00782*
Y00783*
X00081Y00783*
X00081Y00783*
X00081Y00784*
X00081Y00784*
X00081Y00784*
X00081Y00784*
X00081Y00784*
X00082*
X00082Y00785*
X00082Y00785*
X00082Y00785*
X00121*
X00121*
X00121*
X00122Y00785*
G37*
G36*
X00121Y00756D02*
X00121D01*
X00121*
X00121Y00756*
X00121Y00756*
X00122Y00756*
X00122Y00756*
X00122Y00756*
X00122Y00756*
X00122Y00756*
X00122Y00756*
X00122Y00756*
X00122Y00755*
X00122Y00755*
Y00726*
X00122Y00726*
X00122Y00726*
X00122Y00726*
X00122Y00725*
X00122Y00725*
X00122Y00725*
X00122Y00725*
X00121Y00725*
X00121Y00725*
X00121Y00725*
X0012*
X0012*
X0012Y00725*
X0012Y00725*
X00119*
X00119*
X00119*
X00119*
X00118*
X00118Y00725*
X00117Y00725*
X00117*
X00117Y00725*
X00117Y00725*
X00116Y00725*
X00116Y00725*
X00116Y00725*
X00116Y00725*
X00116Y00726*
Y00726*
X00116Y00726*
X00116Y00726*
X00115Y00726*
Y00736*
X00082*
X00082*
X00082*
X00082Y00737*
X00081Y00737*
X00081Y00737*
X00081Y00737*
X00081Y00737*
X00081Y00737*
Y00737*
X00081Y00738*
X00081Y00738*
X00081Y00739*
Y00739*
X00081Y00739*
Y00739*
X00081Y0074*
Y00741*
X00081Y00742*
X00081Y00743*
Y00743*
X00081Y00743*
X00081Y00744*
X00081Y00744*
X00081Y00744*
X00081Y00744*
X00081Y00744*
X00081Y00745*
X00082*
X00082Y00745*
X00082Y00745*
X00082Y00745*
X00115*
Y00755*
X00116Y00756*
X00116Y00756*
X00116Y00756*
X00116Y00756*
X00116Y00756*
X00116Y00756*
X00116*
X00116Y00756*
X00117Y00756*
X00117Y00756*
X00117*
X00117*
X00118*
X00118Y00756*
X00119*
X00119*
X00119*
X00119*
X00119*
X0012*
X00121Y00756*
G37*
%LNgel_flex-2*%
%LPC*%
G36*
X00116Y00921D02*
X00088D01*
Y00916*
X00088Y00916*
X00088Y00915*
X00088Y00914*
X00088Y00913*
X00088Y00912*
X00088Y00911*
Y00911*
X00089Y00911*
X00089Y00911*
X00089Y0091*
X00089Y0091*
X0009Y00909*
X0009Y00908*
X00091Y00908*
X00091Y00907*
X00091Y00907*
X00091Y00907*
X00092Y00907*
X00092Y00906*
X00093Y00906*
X00094Y00906*
X00095Y00905*
X00096Y00905*
X00096*
X00096Y00905*
X00096*
X00096Y00905*
X00097Y00905*
X00097Y00904*
X00098Y00904*
X00099Y00904*
X00101Y00904*
X00102Y00904*
X00102*
X00102*
X00102*
X00102*
X00103Y00904*
X00104Y00904*
X00105Y00904*
X00105Y00904*
X00106Y00904*
X00107Y00905*
X00107*
X00107Y00905*
X00108Y00905*
X00108Y00905*
X00109Y00905*
X0011Y00906*
X0011Y00906*
X00111Y00906*
X00112Y00907*
X00112Y00907*
X00112Y00907*
X00112Y00908*
X00113Y00908*
X00113Y00909*
X00114Y00909*
X00114Y0091*
X00115Y00911*
X00115Y00911*
X00115Y00911*
X00115Y00912*
X00115Y00912*
X00115Y00913*
X00116Y00914*
X00116Y00916*
X00116Y00917*
Y00921*
G37*
%LNgel_flex-3*%
%LPD*%
G54D10*
X-01311Y012D02*
D01*
X-01311Y01201*
X-01311Y01201*
X-01311Y01201*
X-01311Y01201*
X-01311Y01202*
X-01311Y01202*
X-01311Y01202*
X-01311Y01202*
X-01311Y01203*
X-01311Y01203*
X-01312Y01203*
X-01312Y01203*
X-01312Y01203*
X-01312Y01204*
X-01312Y01204*
X-01313Y01204*
X-01313Y01204*
X-01313Y01204*
X-01314Y01204*
X-01314Y01204*
X-01314Y01204*
X-01314Y01204*
X-01315*
X-01315Y01204*
X-01315Y01204*
X-01315Y01204*
X-01316Y01204*
X-01316Y01204*
X-01316Y01204*
X-01316Y01204*
X-01317Y01204*
X-01317Y01203*
X-01317Y01203*
X-01317Y01203*
X-01317Y01203*
X-01318Y01203*
X-01318Y01202*
X-01318Y01202*
X-01318Y01202*
X-01318Y01202*
X-01318Y01201*
X-01318Y01201*
X-01318Y01201*
X-01318Y01201*
X-01318Y012*
X-01318Y012*
X-01318Y012*
X-01318Y01199*
X-01318Y01199*
X-01318Y01199*
X-01318Y01199*
X-01318Y01198*
X-01318Y01198*
X-01318Y01198*
X-01317Y01198*
X-01317Y01198*
X-01317Y01197*
X-01317Y01197*
X-01317Y01197*
X-01316Y01197*
X-01316Y01197*
X-01316Y01197*
X-01316Y01197*
X-01315Y01196*
X-01315Y01196*
X-01315Y01196*
X-01315Y01196*
X-01314*
X-01314Y01196*
X-01314Y01196*
X-01314Y01196*
X-01313Y01197*
X-01313Y01197*
X-01313Y01197*
X-01312Y01197*
X-01312Y01197*
X-01312Y01197*
X-01312Y01197*
X-01312Y01198*
X-01311Y01198*
X-01311Y01198*
X-01311Y01198*
X-01311Y01198*
X-01311Y01199*
X-01311Y01199*
X-01311Y01199*
X-01311Y01199*
X-01311Y012*
X-01311Y012*
X-01311Y012*
X-00759D02*
D01*
X-00759Y01201*
X-00759Y01201*
X-00759Y01201*
X-00759Y01201*
X-0076Y01202*
X-0076Y01202*
X-0076Y01202*
X-0076Y01202*
X-0076Y01203*
X-0076Y01203*
X-0076Y01203*
X-00761Y01203*
X-00761Y01203*
X-00761Y01204*
X-00761Y01204*
X-00762Y01204*
X-00762Y01204*
X-00762Y01204*
X-00762Y01204*
X-00763Y01204*
X-00763Y01204*
X-00763Y01204*
X-00763*
X-00764Y01204*
X-00764Y01204*
X-00764Y01204*
X-00764Y01204*
X-00765Y01204*
X-00765Y01204*
X-00765Y01204*
X-00765Y01204*
X-00766Y01203*
X-00766Y01203*
X-00766Y01203*
X-00766Y01203*
X-00766Y01203*
X-00767Y01202*
X-00767Y01202*
X-00767Y01202*
X-00767Y01202*
X-00767Y01201*
X-00767Y01201*
X-00767Y01201*
X-00767Y01201*
X-00767Y012*
X-00767Y012*
X-00767Y012*
X-00767Y01199*
X-00767Y01199*
X-00767Y01199*
X-00767Y01199*
X-00767Y01198*
X-00767Y01198*
X-00766Y01198*
X-00766Y01198*
X-00766Y01198*
X-00766Y01197*
X-00766Y01197*
X-00765Y01197*
X-00765Y01197*
X-00765Y01197*
X-00765Y01197*
X-00764Y01197*
X-00764Y01196*
X-00764Y01196*
X-00764Y01196*
X-00763Y01196*
X-00763*
X-00763Y01196*
X-00763Y01196*
X-00762Y01196*
X-00762Y01197*
X-00762Y01197*
X-00762Y01197*
X-00761Y01197*
X-00761Y01197*
X-00761Y01197*
X-00761Y01197*
X-0076Y01198*
X-0076Y01198*
X-0076Y01198*
X-0076Y01198*
X-0076Y01198*
X-0076Y01199*
X-0076Y01199*
X-00759Y01199*
X-00759Y01199*
X-00759Y012*
X-00759Y012*
X-00759Y012*
X00177Y01145D02*
D01*
X00177Y01146*
X00177Y01146*
X00177Y01146*
X00177Y01146*
X00176Y01147*
X00176Y01147*
X00176Y01147*
X00176Y01147*
X00176Y01148*
X00176Y01148*
X00176Y01148*
X00175Y01148*
X00175Y01148*
X00175Y01148*
X00175Y01149*
X00174Y01149*
X00174Y01149*
X00174Y01149*
X00174Y01149*
X00173Y01149*
X00173Y01149*
X00173Y01149*
X00173*
X00172Y01149*
X00172Y01149*
X00172Y01149*
X00172Y01149*
X00171Y01149*
X00171Y01149*
X00171Y01149*
X00171Y01148*
X0017Y01148*
X0017Y01148*
X0017Y01148*
X0017Y01148*
X0017Y01148*
X00169Y01147*
X00169Y01147*
X00169Y01147*
X00169Y01147*
X00169Y01146*
X00169Y01146*
X00169Y01146*
X00169Y01146*
X00169Y01145*
X00169Y01145*
X00169Y01145*
X00169Y01144*
X00169Y01144*
X00169Y01144*
X00169Y01144*
X00169Y01143*
X00169Y01143*
X0017Y01143*
X0017Y01143*
X0017Y01142*
X0017Y01142*
X0017Y01142*
X00171Y01142*
X00171Y01142*
X00171Y01142*
X00171Y01142*
X00172Y01141*
X00172Y01141*
X00172Y01141*
X00172Y01141*
X00173Y01141*
X00173*
X00173Y01141*
X00173Y01141*
X00174Y01141*
X00174Y01141*
X00174Y01142*
X00174Y01142*
X00175Y01142*
X00175Y01142*
X00175Y01142*
X00175Y01142*
X00176Y01142*
X00176Y01143*
X00176Y01143*
X00176Y01143*
X00176Y01143*
X00176Y01144*
X00176Y01144*
X00177Y01144*
X00177Y01144*
X00177Y01145*
X00177Y01145*
X00177Y01145*
X00822Y012D02*
D01*
X00822Y01201*
X00822Y01201*
X00822Y01201*
X00822Y01201*
X00822Y01202*
X00822Y01202*
X00822Y01202*
X00822Y01202*
X00822Y01203*
X00821Y01203*
X00821Y01203*
X00821Y01203*
X00821Y01203*
X00821Y01204*
X0082Y01204*
X0082Y01204*
X0082Y01204*
X0082Y01204*
X00819Y01204*
X00819Y01204*
X00819Y01204*
X00819Y01204*
X00818*
X00818Y01204*
X00818Y01204*
X00817Y01204*
X00817Y01204*
X00817Y01204*
X00817Y01204*
X00816Y01204*
X00816Y01204*
X00816Y01203*
X00816Y01203*
X00816Y01203*
X00815Y01203*
X00815Y01203*
X00815Y01202*
X00815Y01202*
X00815Y01202*
X00815Y01202*
X00815Y01201*
X00815Y01201*
X00814Y01201*
X00814Y01201*
X00814Y012*
X00814Y012*
X00814Y012*
X00815Y01199*
X00815Y01199*
X00815Y01199*
X00815Y01199*
X00815Y01198*
X00815Y01198*
X00815Y01198*
X00815Y01198*
X00816Y01198*
X00816Y01197*
X00816Y01197*
X00816Y01197*
X00816Y01197*
X00817Y01197*
X00817Y01197*
X00817Y01197*
X00817Y01196*
X00818Y01196*
X00818Y01196*
X00818Y01196*
X00819*
X00819Y01196*
X00819Y01196*
X00819Y01196*
X0082Y01197*
X0082Y01197*
X0082Y01197*
X0082Y01197*
X00821Y01197*
X00821Y01197*
X00821Y01197*
X00821Y01198*
X00821Y01198*
X00822Y01198*
X00822Y01198*
X00822Y01198*
X00822Y01199*
X00822Y01199*
X00822Y01199*
X00822Y01199*
X00822Y012*
X00822Y012*
X00822Y012*
X01374D02*
D01*
X01374Y01201*
X01373Y01201*
X01373Y01201*
X01373Y01201*
X01373Y01202*
X01373Y01202*
X01373Y01202*
X01373Y01202*
X01373Y01203*
X01373Y01203*
X01372Y01203*
X01372Y01203*
X01372Y01203*
X01372Y01204*
X01372Y01204*
X01371Y01204*
X01371Y01204*
X01371Y01204*
X01371Y01204*
X0137Y01204*
X0137Y01204*
X0137Y01204*
X01369*
X01369Y01204*
X01369Y01204*
X01369Y01204*
X01368Y01204*
X01368Y01204*
X01368Y01204*
X01368Y01204*
X01367Y01204*
X01367Y01203*
X01367Y01203*
X01367Y01203*
X01367Y01203*
X01366Y01203*
X01366Y01202*
X01366Y01202*
X01366Y01202*
X01366Y01202*
X01366Y01201*
X01366Y01201*
X01366Y01201*
X01366Y01201*
X01366Y012*
X01366Y012*
X01366Y012*
X01366Y01199*
X01366Y01199*
X01366Y01199*
X01366Y01199*
X01366Y01198*
X01366Y01198*
X01366Y01198*
X01367Y01198*
X01367Y01198*
X01367Y01197*
X01367Y01197*
X01367Y01197*
X01368Y01197*
X01368Y01197*
X01368Y01197*
X01368Y01197*
X01369Y01196*
X01369Y01196*
X01369Y01196*
X01369Y01196*
X0137*
X0137Y01196*
X0137Y01196*
X01371Y01196*
X01371Y01197*
X01371Y01197*
X01371Y01197*
X01372Y01197*
X01372Y01197*
X01372Y01197*
X01372Y01197*
X01372Y01198*
X01373Y01198*
X01373Y01198*
X01373Y01198*
X01373Y01198*
X01373Y01199*
X01373Y01199*
X01373Y01199*
X01373Y01199*
X01373Y012*
X01374Y012*
X01374Y012*
G54D11*
X-01123Y01192D02*
X-01149D01*
Y01179*
X-01145Y01175*
X-01127*
X-01123Y01179*
Y01192*
X-01149Y01166D02*
Y01158D01*
Y01162*
X-01123*
X-01127Y01166*
X-00568Y01192D02*
X-00594D01*
Y01179*
X-0059Y01175*
X-00572*
X-00568Y01179*
Y01192*
Y01149D02*
Y01166D01*
X-00581*
X-00577Y01158*
Y01153*
X-00581Y01149*
X-0059*
X-00594Y01153*
Y01162*
X-0059Y01166*
X00237Y01192D02*
X00211D01*
Y01179*
X00216Y01175*
X00233*
X00237Y01179*
Y01192*
X00211Y01149D02*
Y01166D01*
X00229Y01149*
X00233*
X00237Y01153*
Y01162*
X00233Y01166*
X0101Y01192D02*
X00984D01*
Y01179*
X00988Y01175*
X01005*
X0101Y01179*
Y01192*
X00984Y01153D02*
X0101D01*
X00997Y01166*
Y01149*
X01553Y01192D02*
X01527D01*
Y01179*
X01531Y01175*
X01549*
X01553Y01179*
Y01192*
X01549Y01166D02*
X01553Y01162D01*
Y01153*
X01549Y01149*
X01544*
X0154Y01153*
Y01158*
Y01153*
X01536Y01149*
X01531*
X01527Y01153*
Y01162*
X01531Y01166*
M02*