%FSTAX23Y23*%
%MOIN*%
%SFA1B1*%

%IPPOS*%
%ADD11C,0.010000*%
%ADD25C,0.010000*%
%LNgel_flex-1*%
%LPD*%
G54D11*
X01678Y01279D02*
D01*
X01678Y01279*
X01678Y0128*
X01678Y0128*
X01678Y0128*
X01677Y01281*
X01677Y01281*
X01677Y01281*
X01677Y01282*
X01677Y01282*
X01677Y01282*
X01676Y01283*
X01676Y01283*
X01676Y01283*
X01676Y01283*
X01675Y01283*
X01675Y01284*
X01675Y01284*
X01674Y01284*
X01674Y01284*
X01674Y01284*
X01673Y01284*
X01673Y01284*
X01673Y01284*
X01678Y01279D02*
D01*
X01678Y01279*
X01678Y0128*
X01678Y0128*
X01678Y0128*
X01677Y01281*
X01677Y01281*
X01677Y01281*
X01677Y01282*
X01677Y01282*
X01677Y01282*
X01676Y01283*
X01676Y01283*
X01676Y01283*
X01676Y01283*
X01675Y01283*
X01675Y01284*
X01675Y01284*
X01674Y01284*
X01674Y01284*
X01674Y01284*
X01673Y01284*
X01673Y01284*
X01673Y01284*
Y01077D02*
D01*
X01673Y01077*
X01673Y01077*
X01674Y01077*
X01674Y01077*
X01674Y01077*
X01675Y01078*
X01675Y01078*
X01675Y01078*
X01676Y01078*
X01676Y01078*
X01676Y01079*
X01676Y01079*
X01677Y01079*
X01677Y01079*
X01677Y0108*
X01677Y0108*
X01677Y0108*
X01677Y01081*
X01678Y01081*
X01678Y01081*
X01678Y01082*
X01678Y01082*
X01678Y01082*
X01673Y01077D02*
D01*
X01673Y01077*
X01673Y01077*
X01674Y01077*
X01674Y01077*
X01674Y01077*
X01675Y01078*
X01675Y01078*
X01675Y01078*
X01676Y01078*
X01676Y01078*
X01676Y01079*
X01676Y01079*
X01677Y01079*
X01677Y01079*
X01677Y0108*
X01677Y0108*
X01677Y0108*
X01677Y01081*
X01678Y01081*
X01678Y01081*
X01678Y01082*
X01678Y01082*
X01678Y01082*
X00236Y01087D02*
D01*
X00235Y01087*
X00235Y01087*
X00226Y01086D02*
D01*
X00226Y01086*
X00226Y01086*
X00225Y01086*
X00225Y01086*
X00236Y01087D02*
D01*
X00235Y01087*
X00235Y01087*
X00226Y01086D02*
D01*
X00226Y01086*
X00226Y01086*
X00225Y01086*
X00225Y01086*
X00217Y01083D02*
D01*
X00217Y01083*
X00216Y01083*
X00216Y01083*
X00216Y01083*
X00217Y01083D02*
D01*
X00217Y01083*
X00216Y01083*
X00216Y01083*
X00216Y01083*
X00209Y01078D02*
D01*
X00208Y01078*
X00208Y01077*
X00208Y01077*
X00208Y01077*
X00209Y01078D02*
D01*
X00208Y01078*
X00208Y01077*
X00208Y01077*
X00208Y01077*
X00201Y01071D02*
D01*
X00201Y01071*
X00201Y0107*
X00201Y0107*
X00201Y0107*
X00201Y01071D02*
D01*
X00201Y01071*
X00201Y0107*
X00201Y0107*
X00201Y0107*
X00196Y01063D02*
D01*
X00196Y01062*
X00196Y01062*
X00196Y01062*
X00196Y01062*
X00196Y01063D02*
D01*
X00196Y01062*
X00196Y01062*
X00196Y01062*
X00196Y01062*
X00193Y01053D02*
D01*
X00193Y01053*
X00192Y01053*
X00192Y01052*
X00192Y01052*
X00193Y01053D02*
D01*
X00193Y01053*
X00192Y01053*
X00192Y01052*
X00192Y01052*
X00003D02*
D01*
X00003Y01052*
X00003Y01053*
X00003Y01053*
X00003Y01053*
X00191Y01043D02*
D01*
X00191Y01043*
X00191Y01043*
X00191Y01043D02*
D01*
X00191Y01043*
X00191Y01043*
X00196Y00437D02*
D01*
X00197Y00437*
X00197Y00437*
X00197Y00438*
X00198Y00438*
X00198Y00438*
X00198Y00438*
X00199Y00438*
X00199Y00438*
X00199Y00438*
X002Y00439*
X002Y00439*
X002Y00439*
X002Y00439*
X002Y0044*
X00201Y0044*
X00201Y0044*
X00201Y00441*
X00201Y00441*
X00201Y00441*
X00201Y00442*
X00201Y00442*
X00201Y00442*
X00201Y00442*
X00005Y01043D02*
D01*
X00004Y01043*
X00004Y01043*
X00196Y00437D02*
D01*
X00197Y00437*
X00197Y00437*
X00197Y00438*
X00198Y00438*
X00198Y00438*
X00198Y00438*
X00199Y00438*
X00199Y00438*
X00199Y00438*
X002Y00439*
X002Y00439*
X002Y00439*
X002Y00439*
X002Y0044*
X00201Y0044*
X00201Y0044*
X00201Y00441*
X00201Y00441*
X00201Y00441*
X00201Y00442*
X00201Y00442*
X00201Y00442*
X00201Y00442*
X-00038Y01087D02*
D01*
X-00039Y01087*
X-00039Y01087*
X-00028Y01086D02*
D01*
X-00029Y01086*
X-00029Y01086*
X-00029Y01086*
X-0003Y01086*
X-00038Y01087D02*
D01*
X-00039Y01087*
X-00039Y01087*
X-00028Y01086D02*
D01*
X-00029Y01086*
X-00029Y01086*
X-00029Y01086*
X-0003Y01086*
X-00019Y01083D02*
D01*
X-00019Y01083*
X-0002Y01083*
X-0002Y01083*
X-0002Y01083*
X-01476Y01284D02*
D01*
X-01476Y01284*
X-01477Y01284*
X-01477Y01284*
X-01477Y01284*
X-01478Y01284*
X-01478Y01284*
X-01478Y01283*
X-01479Y01283*
X-01479Y01283*
X-01479Y01283*
X-01479Y01283*
X-0148Y01282*
X-0148Y01282*
X-0148Y01282*
X-0148Y01282*
X-0148Y01281*
X-01481Y01281*
X-01481Y01281*
X-01481Y0128*
X-01481Y0128*
X-01481Y0128*
X-01481Y01279*
X-01481Y01279*
X-01476Y01284D02*
D01*
X-01476Y01284*
X-01477Y01284*
X-01477Y01284*
X-01477Y01284*
X-01478Y01284*
X-01478Y01284*
X-01478Y01283*
X-01479Y01283*
X-01479Y01283*
X-01479Y01283*
X-01479Y01283*
X-0148Y01282*
X-0148Y01282*
X-0148Y01282*
X-0148Y01282*
X-0148Y01281*
X-01481Y01281*
X-01481Y01281*
X-01481Y0128*
X-01481Y0128*
X-01481Y0128*
X-01481Y01279*
X-01481Y01279*
Y01082D02*
D01*
X-01481Y01082*
X-01481Y01081*
X-01481Y01081*
X-01481Y01081*
X-01481Y0108*
X-0148Y0108*
X-0148Y0108*
X-0148Y0108*
X-0148Y01079*
X-0148Y01079*
X-01479Y01079*
X-01479Y01078*
X-01479Y01078*
X-01479Y01078*
X-01478Y01078*
X-01478Y01078*
X-01478Y01078*
X-01477Y01077*
X-01477Y01077*
X-01477Y01077*
X-01476Y01077*
X-01476Y01077*
X-01476Y01077*
X-01481Y01082D02*
D01*
X-01481Y01082*
X-01481Y01081*
X-01481Y01081*
X-01481Y01081*
X-01481Y0108*
X-0148Y0108*
X-0148Y0108*
X-0148Y0108*
X-0148Y01079*
X-0148Y01079*
X-01479Y01079*
X-01479Y01078*
X-01479Y01078*
X-01479Y01078*
X-01478Y01078*
X-01478Y01078*
X-01478Y01078*
X-01477Y01077*
X-01477Y01077*
X-01477Y01077*
X-01476Y01077*
X-01476Y01077*
X-01476Y01077*
X-00004Y0107D02*
D01*
X-00004Y0107*
X-00004Y01071*
X-00004Y01071*
X-00005Y01071*
X0Y01062D02*
D01*
X0Y01062*
X0Y01062*
X0Y01062*
X0Y01063*
X0Y01062D02*
D01*
X0Y01062*
X0Y01062*
X0Y01062*
X0Y01063*
X00003Y01052D02*
D01*
X00003Y01052*
X00003Y01053*
X00003Y01053*
X00003Y01053*
X00005Y01043D02*
D01*
X00004Y01043*
X00004Y01043*
X-00005Y00442D02*
D01*
X-00004Y00442*
X-00004Y00442*
X-00004Y00441*
X-00004Y00441*
X-00004Y00441*
X-00004Y0044*
X-00004Y0044*
X-00004Y0044*
X-00004Y00439*
X-00003Y00439*
X-00003Y00439*
X-00003Y00439*
X-00003Y00438*
X-00002Y00438*
X-00002Y00438*
X-00002Y00438*
X-00001Y00438*
X-00001Y00438*
X-00001Y00438*
X0Y00437*
X0Y00437*
X0Y00437*
X0Y00437*
X-00005Y00442D02*
D01*
X-00004Y00442*
X-00004Y00442*
X-00004Y00441*
X-00004Y00441*
X-00004Y00441*
X-00004Y0044*
X-00004Y0044*
X-00004Y0044*
X-00004Y00439*
X-00003Y00439*
X-00003Y00439*
X-00003Y00439*
X-00003Y00438*
X-00002Y00438*
X-00002Y00438*
X-00002Y00438*
X-00001Y00438*
X-00001Y00438*
X-00001Y00438*
X0Y00437*
X0Y00437*
X0Y00437*
X0Y00437*
X-00011Y01077D02*
D01*
X-00011Y01077*
X-00011Y01078*
X-00012Y01078*
X-00012Y01078*
X-00011Y01077D02*
D01*
X-00011Y01077*
X-00011Y01078*
X-00012Y01078*
X-00012Y01078*
X-00019Y01083D02*
D01*
X-00019Y01083*
X-0002Y01083*
X-0002Y01083*
X-0002Y01083*
X-00004Y0107D02*
D01*
X-00004Y0107*
X-00004Y01071*
X-00004Y01071*
X-00005Y01071*
X01678Y01279D02*
Y01082D01*
X01437Y01087D02*
X01668D01*
Y01274D02*
Y01087D01*
X01437Y01077D02*
X01673Y01077D01*
X00236Y01087D02*
X01437D01*
X00236Y01077D02*
X01437D01*
X00235Y01087D02*
X00235Y01087D01*
X00226Y01086D02*
X00235Y01087D01*
X00226Y01086D02*
X00226D01*
X00225Y01086D02*
X00225Y01086D01*
X00217Y01083D02*
X00225Y01086D01*
X00217Y01083D02*
X00217D01*
X00216Y01083D02*
X00216Y01083D01*
X00209Y01078D02*
X00216Y01083D01*
X00209Y01078D02*
X00209Y01078D01*
X00228Y01076D02*
X00236Y01077D01*
X00221Y01074D02*
X00228Y01076D01*
X00208Y01077D02*
X00208Y01077D01*
X00201Y01071D02*
X00208Y01077D01*
X00201Y01071D02*
X00201Y01071D01*
X00214Y0107D02*
X00221Y01074D01*
X00209Y01064D02*
X00214Y0107D01*
X00205Y01058D02*
X00209Y01064D01*
X00202Y0105D02*
X00205Y01058D01*
X00201Y01043D02*
X00202Y0105D01*
X00201Y0107D02*
X00201Y0107D01*
X00196Y01063D02*
X00201Y0107D01*
X00196Y01063D02*
Y01063D01*
X00196Y01062D02*
X00196Y01062D01*
X00193Y01053D02*
X00196Y01062D01*
X00193Y01053D02*
Y01053D01*
X00192Y01052D02*
Y01052D01*
X00191Y01043D02*
X00192Y01052D01*
X00191Y01043D02*
Y01043D01*
X00003Y01052D02*
Y01052D01*
X00004Y01043*
Y01043*
X00201Y00442D02*
Y01043D01*
X00191Y00447D02*
Y01043D01*
X00005Y00447D02*
Y01043D01*
X-0003Y01086D02*
X-0003D01*
X-00038Y01087D02*
X-0003Y01086D01*
X-00038Y01087D02*
X-00038Y01087D01*
X-01247Y01284D02*
X01673D01*
X-01247Y01274D02*
X01668D01*
X-01247Y01087D02*
X-00039D01*
X-01247D02*
D01*
X-0002Y01083D02*
X-0002D01*
X-00028Y01086D02*
X-0002Y01083D01*
X-00028Y01086D02*
X-00028Y01086D01*
X-00012Y01078D02*
X-00012Y01078D01*
X-00019Y01083D02*
X-00012Y01078D01*
X-00019Y01083D02*
X-00019Y01083D01*
X-01247Y01077D02*
X-00039D01*
X-00031Y01076*
X-01471Y01274D02*
X-01247D01*
X-01471Y01087D02*
Y01274D01*
X-01476Y01284D02*
X-01247D01*
X-01481Y01082D02*
Y01279D01*
X-01471Y01087D02*
X-01247D01*
X-01476Y01077D02*
X-01247Y01077D01*
X-00004Y0107D02*
X-00004Y0107D01*
X0Y01063*
X0Y01063*
X0Y01062D02*
X0Y01062D01*
X00003Y01053*
Y01053*
X0Y00437D02*
X00196D01*
X00005Y00447D02*
X00191D01*
X-00011Y01077D02*
X-00011Y01077D01*
X-00005Y01071*
X-00005Y01071*
X-00024Y01074D02*
X-00017Y0107D01*
X-00031Y01076D02*
X-00024Y01074D01*
X-00008Y01058D02*
X-00005Y0105D01*
X-00012Y01064D02*
X-00008Y01058D01*
X-00005Y0105D02*
X-00005Y01043D01*
Y00442D02*
Y01043D01*
X-00017Y0107D02*
X-00012Y01064D01*
G54D25*
X-01247Y01077D03*
D03*
M02*