%FSTAX23Y23*%
%MOIN*%
%SFA1B1*%

%IPPOS*%
%ADD11C,0.010000*%
%ADD12R,0.019680X0.027560*%
%ADD13R,0.015750X0.021650*%
%ADD17C,0.006000*%
%ADD18C,0.014000*%
%LNgel_flex-1*%
%LPD*%
G36*
X00022Y00481D02*
X00022Y00479D01*
X00048*
X00047Y00446*
X00007*
X00005Y00448*
Y00479*
X00012*
X00012Y00482*
X00022*
Y00481*
G37*
G54D11*
X-01268Y01142D02*
X-00717D01*
X-00548D02*
X-00307D01*
X-00273Y01109D02*
X-0003D01*
X-00307Y01142D02*
X-00273Y01109D01*
X-00688Y01142D02*
X-0066D01*
X-00548*
X-00717D02*
X-00688D01*
X-00548D02*
X-00489Y01201D01*
X00069D02*
X00098D01*
X00126*
X-00489D02*
X00069D01*
X00126D02*
X00722D01*
X00857Y01145D02*
X00885D01*
X00914*
X01408*
X00778D02*
X00857D01*
X00722Y01201D02*
X00778Y01145D01*
X01408D02*
X01437D01*
X01465*
X-0003Y01109D02*
X00017Y01061D01*
Y0047D02*
Y01061D01*
G54D12*
X-0124Y01142D03*
Y01201D03*
X-00688Y01142D03*
Y01201D03*
X00098D03*
Y01142D03*
X00885D03*
Y01201D03*
X01437Y01142D03*
Y01201D03*
G54D13*
X-01211Y01145D03*
Y01198D03*
X-01268Y01145D03*
Y01198D03*
X-0066Y01145D03*
Y01198D03*
X-00717Y01145D03*
Y01198D03*
X00069D03*
Y01145D03*
X00126Y01198D03*
Y01145D03*
X00914D03*
Y01198D03*
X00857Y01145D03*
Y01198D03*
X01465Y01145D03*
Y01198D03*
X01408Y01145D03*
Y01198D03*
G54D17*
X00069Y01079D02*
Y01145D01*
Y01079D02*
X00099Y01049D01*
Y005D02*
Y01049D01*
X00098Y01081D02*
X00115Y01064D01*
X00098Y01081D02*
Y01142D01*
X00115Y00537D02*
Y01064D01*
X00126Y01089D02*
X00144Y01071D01*
X00126Y01089D02*
Y01145D01*
X-0066Y01198D02*
Y01228D01*
X-0065Y01238*
Y01241*
X-00727Y01239D02*
X-00717Y01228D01*
Y01198D02*
Y01228D01*
X-00727Y01239D02*
Y01241D01*
X01475Y01209D02*
Y01241D01*
X01398Y01209D02*
Y01241D01*
X01437Y01209D02*
Y01241D01*
X00885Y01201D02*
Y01241D01*
Y01201D02*
D01*
X00857Y01198D02*
Y01228D01*
X00846Y01239D02*
X00857Y01228D01*
X00846Y01239D02*
Y01241D01*
X00914Y01228D02*
X00924Y01239D01*
X00914Y01198D02*
Y01228D01*
X00924Y01239D02*
Y01241D01*
X-01211Y01198D02*
Y01219D01*
X-01201Y01229D02*
Y01241D01*
X-01211Y01219D02*
X-01201Y01229D01*
X-01268Y01198D02*
Y01219D01*
X-01279Y01229D02*
X-01268Y01219D01*
X00033Y00534D02*
Y01063D01*
X-00029Y01127D02*
X00033Y01063D01*
X-00202Y01127D02*
X-00029D01*
X-00033Y01164D02*
X00066Y01063D01*
X-00202Y01164D02*
X-00033D01*
X00066Y00542D02*
Y01063D01*
X-00202Y01145D02*
X-0003D01*
X00039Y005D02*
Y00528D01*
X00033Y00534D02*
X00039Y00528D01*
X00173Y00469D02*
Y00534D01*
Y00469D02*
X00174Y00468D01*
X0015Y005D02*
Y00529D01*
X00144Y00535D02*
X0015Y00529D01*
X00144Y00535D02*
Y01071D01*
X00078Y005D02*
Y0053D01*
X00066Y00542D02*
X00078Y0053D01*
X00122Y005D02*
Y0053D01*
X00115Y00537D02*
X00122Y0053D01*
X0006Y005D02*
Y00529D01*
X00051Y00537D02*
X0006Y00529D01*
X00051Y00537D02*
Y01064D01*
X-0003Y01145D02*
X00051Y01064D01*
X-00688Y01201D02*
Y01244D01*
X-0124Y01201D02*
Y01241D01*
X-01279D02*
X-01279Y0124D01*
Y01229D02*
Y0124D01*
X-00727Y01241D02*
Y01242D01*
X-00688Y01244D02*
D01*
G54D18*
X00173Y00534D03*
X00078Y005D03*
X0006Y005D03*
X00017Y0047D03*
Y00455D03*
X-00202Y01145D03*
Y01164D03*
Y01127D03*
X01475Y01241D03*
X01437D03*
X01398D03*
X00924D03*
X00885D03*
X00846D03*
X-01279D03*
X-01201D03*
X-0124D03*
X-0065D03*
X-00727D03*
X-00688D03*
X00099Y005D03*
X00039D03*
X00174Y00468D03*
X00122Y005D03*
X0015D03*
M02*