%FSTAX25Y25*%
%MOIN*%
%SFA1B1*%

%IPPOS*%
%AMD71*
4,1,8,-0.023700,0.004000,-0.023700,-0.004000,-0.019700,-0.007900,0.019700,-0.007900,0.023700,-0.004000,0.023700,0.004000,0.019700,0.007900,-0.019700,0.007900,-0.023700,0.004000,0.0*
%
%ADD32R,0.028470X0.028470*%
%ADD34R,0.043430X0.047370*%
%ADD38R,0.025720X0.029650*%
%ADD44R,0.028470X0.028470*%
%ADD46O,0.063120X0.084770*%
%ADD47C,0.158000*%
%ADD48C,0.024000*%
%ADD49C,0.039000*%
%ADD50C,0.032000*%
%ADD68R,0.326900X0.326900*%
%ADD69O,0.015870X0.047370*%
%ADD70O,0.047370X0.015870*%
G04~CAMADD=71~4~0.0~0.0~158.7~473.7~0.0~39.7~0~0.0~0.0~0.0~0.0~0~0.0~0.0~0.0~0.0~0~0.0~0.0~0.0~90.0~474.0~158.0*
%ADD71D71*%
%ADD72R,0.025720X0.025720*%
%ADD73R,0.029650X0.033590*%
%ADD74R,0.023750X0.067060*%
%ADD75R,0.032410X0.032410*%
%LNdigit-1*%
%LPD*%
G54D32*
X0032283Y0094488D03*
Y0091339D03*
X0063287Y002874D03*
Y003189D03*
X0062205Y0094488D03*
Y0091339D03*
X0058661Y0094488D03*
Y0091339D03*
X0059842Y002874D03*
Y003189D03*
G54D34*
X0010827Y0057874D03*
X0017126D03*
G54D38*
X0016732Y0044094D03*
X0013189D03*
G54D44*
X0015157Y0062598D03*
X0018307D03*
X0014961Y005315D03*
X001811D03*
X0015157Y00696D03*
X0018307D03*
X0015157Y0066142D03*
X0018307D03*
X0029921Y0030709D03*
X0033071D03*
G54D46*
X0063287Y0016358D03*
X0035138D03*
G54D47*
X0049213Y0105118D03*
X0015748Y0011811D03*
X0082677D03*
G54D48*
X0010818Y0029528D03*
X0012992Y0027953D03*
X0048819Y0041732D03*
X0051968D03*
X0054295D03*
X0020417D03*
X001437Y0022047D03*
X0012992Y0024016D03*
X001437Y0025984D03*
X0049213Y00246D03*
X0075295Y0017815D03*
X0034055Y0102362D03*
X00375Y0008366D03*
X0040059Y0008393D03*
X0052953Y0014862D03*
X0050295Y0089272D03*
X0009843Y0044094D03*
X00518Y00254D03*
X0054232Y0089272D03*
X005315Y0079528D03*
X00209Y00715D03*
X00299Y0078D03*
X00669Y00795D03*
X0050787Y0079528D03*
X00437Y00794D03*
X00354Y00331D03*
X0061417Y0079528D03*
X00221Y00667D03*
X0030315Y0059055D03*
X0033Y00331D03*
X0048425Y0079528D03*
X0063287Y0041339D03*
X00391Y0031416D03*
X0059646Y0080807D03*
X00686Y0077D03*
X00354Y00887D03*
X00636Y00796D03*
X00273Y00871D03*
X00221Y00647D03*
X00304Y00331D03*
X0057874Y0079528D03*
X0065748Y0041339D03*
X0055905Y008061D03*
X00209Y00737D03*
X00461Y00794D03*
X005605Y0078524D03*
X005689Y0042323D03*
X0037008Y0028698D03*
X0030807Y0048228D03*
X0017572Y0077328D03*
X00562Y00981D03*
X00683Y0091D03*
X00353Y0094488D03*
X0032283Y00973D03*
X00108Y00949D03*
X0062205Y00983D03*
X0058661Y0098155D03*
X0065748Y0098148D03*
X00081Y0065748D03*
X00079Y0048275D03*
X00155Y00986D03*
X00748Y00991D03*
X00715Y00869D03*
X00814Y0058439D03*
X00804Y0079705D03*
X00899Y00697D03*
X009Y00507D03*
X00825Y00406D03*
X0049213Y00303D03*
X0063287Y0026D03*
X00598D03*
X00272Y00345D03*
X00121Y00695D03*
X00141Y00774D03*
Y00879D03*
X0031462Y0102362D03*
X00875Y0091142D03*
X0032Y00641D03*
X00318Y0054724D03*
X0022037Y0057937D03*
X006639Y003189D03*
X00563Y0026D03*
X00682Y00627D03*
X00678Y00686D03*
X00686Y00462D03*
Y0048425D03*
Y00506D03*
Y0052846D03*
X00678Y00712D03*
X0031Y00685D03*
G54D49*
X00686Y0025197D03*
G54D50*
X0091732Y00592D03*
X0073228Y0037D03*
G54D68*
X0049606Y006063D03*
G54D69*
X0068504Y0084252D03*
X0066929D03*
X0065354D03*
X0063779D03*
X0062205D03*
X006063D03*
X0059055D03*
X005748D03*
X0055905D03*
X0054331D03*
X0052756D03*
X0051181D03*
X0049606D03*
X0048031D03*
X0046457D03*
X0044882D03*
X0043307D03*
X0041732D03*
X0040157D03*
X0038583D03*
X0037008D03*
X0035433D03*
X0033858D03*
X0032283D03*
X0030709D03*
Y0037008D03*
X0032283D03*
X0033858D03*
X0035433D03*
X0037008D03*
X0038583D03*
X0040157D03*
X0041732D03*
X0043307D03*
X0044882D03*
X0046457D03*
X0048031D03*
X0049606D03*
X0051181D03*
X0052756D03*
X0054331D03*
X0055905D03*
X005748D03*
X0059055D03*
X006063D03*
X0062205D03*
X0063779D03*
X0065354D03*
X0066929D03*
X0068504D03*
G54D70*
X0025984Y0079527D03*
Y0077953D03*
Y0076378D03*
Y0074803D03*
Y0073228D03*
Y0071653D03*
Y0070079D03*
Y0068504D03*
Y0066929D03*
Y0065354D03*
Y0063779D03*
Y0062205D03*
Y006063D03*
Y0059055D03*
Y005748D03*
Y0055905D03*
Y0054331D03*
Y0052756D03*
Y0051181D03*
Y0049606D03*
Y0048031D03*
Y0046457D03*
Y0044882D03*
Y0043307D03*
Y0041732D03*
X0073228D03*
Y0043307D03*
Y0044882D03*
Y0046457D03*
Y0048031D03*
Y0049606D03*
Y0051181D03*
Y0052756D03*
Y0054331D03*
Y0055905D03*
Y005748D03*
Y0059055D03*
Y006063D03*
Y0062205D03*
Y0063779D03*
Y0065354D03*
Y0066929D03*
Y0068504D03*
Y0070079D03*
Y0071653D03*
Y0073228D03*
Y0074803D03*
Y0076378D03*
Y0077953D03*
G54D71*
X0073228Y0079528D03*
G54D72*
X0052756Y002874D03*
Y003189D03*
X0056299D03*
Y002874D03*
X0065748Y0091339D03*
Y0094488D03*
G54D73*
X0014173Y0084646D03*
X001811D03*
X0014173Y0080709D03*
X001811D03*
G54D74*
X0054331Y0019862D03*
X0051772D03*
X0049213D03*
X0046654D03*
X0044094D03*
G54D75*
X0014028Y00736D03*
X0017572D03*
X0029724Y0026772D03*
X0033268D03*
M02*