%FSTAX25Y25*%
%MOIN*%
%SFA1B1*%

%IPPOS*%
%AMD63*
4,1,8,-0.019700,0.002000,-0.019700,-0.002000,-0.017700,-0.003900,0.017700,-0.003900,0.019700,-0.002000,0.019700,0.002000,0.017700,0.003900,-0.017700,0.003900,-0.019700,0.002000,0.0*
%
%ADD15C,0.005000*%
%ADD17R,0.020470X0.020470*%
%ADD19R,0.035430X0.039370*%
%ADD23R,0.017720X0.021650*%
%ADD29R,0.020470X0.020470*%
%ADD48C,0.024000*%
%ADD51C,0.008000*%
%ADD52C,0.006000*%
%ADD53C,0.015000*%
%ADD54C,0.007000*%
%ADD55C,0.004000*%
%ADD56O,0.055120X0.076770*%
%ADD57C,0.150000*%
%ADD58C,0.016000*%
%ADD59C,0.031000*%
%ADD60R,0.318900X0.318900*%
%ADD61O,0.007870X0.039370*%
%ADD62O,0.039370X0.007870*%
G04~CAMADD=63~4~0.0~0.0~78.7~393.7~0.0~19.7~0~0.0~0.0~0.0~0.0~0~0.0~0.0~0.0~0.0~0~0.0~0.0~0.0~90.0~394.0~78.0*
%ADD63D63*%
%ADD64R,0.017720X0.017720*%
%ADD65R,0.021650X0.025590*%
%ADD66R,0.015750X0.059060*%
%ADD67R,0.024410X0.024410*%
%LNdigit-1*%
%LPD*%
G36*
X0053572Y0117909D02*
X0057894Y0117306D01*
X0062142Y0116306*
X0066279Y011492*
X0070271Y0113157*
X0074083Y0111034*
X0077684Y0108568*
X0081041Y010578*
X0084126Y0102694*
X0086914Y0099337*
X008938Y0095737*
X0091504Y0091925*
X0093266Y0087932*
X0094653Y0083795*
X0095652Y0079547*
X0096255Y0075225*
X0096457Y0070866*
Y0013779*
X0096217Y0011045*
X0095507Y0008393*
X0094347Y0005905*
X0092772Y0003657*
X0090831Y0001716*
X0088583Y0000141*
X0086095Y-0001019*
X0083443Y-0001729*
X0080709Y-0001969*
X0017716*
X0014982Y-0001729*
X001233Y-0001019*
X0009842Y0000141*
X0007594Y0001716*
X0005653Y0003657*
X0004078Y0005905*
X0002918Y0008393*
X0002208Y0011045*
X0001968Y0013779*
Y0070866*
X000217Y0075225*
X0002773Y0079547*
X0003772Y0083795*
X0005159Y0087932*
X0006921Y0091925*
X0009045Y0095737*
X0011511Y0099337*
X0014299Y0102694*
X0017384Y010578*
X0020742Y0108568*
X0024342Y0111034*
X0028154Y0113157*
X0032146Y011492*
X0036284Y0116306*
X0040531Y0117306*
X0044853Y0117909*
X0049213Y011811*
X0053572Y0117909*
G37*
%LNdigit-2*%
%LPC*%
G36*
X0049613Y0113419D02*
Y0105518D01*
X0057513*
X0057392Y0106745*
X0056918Y010831*
X0056147Y0109751*
X005511Y0111015*
X0053846Y0112053*
X0052404Y0112823*
X005084Y0113298*
X0049613Y0113419*
G37*
G36*
X0048812D02*
X0047585Y0113298D01*
X0046021Y0112823*
X0044579Y0112053*
X0043315Y0111015*
X0042278Y0109751*
X0041507Y010831*
X0041033Y0106745*
X0040912Y0105518*
X0048812*
Y0113419*
G37*
G36*
X0032972Y0105343D02*
D01*
X0025787*
X0025475Y0105281*
X0025211Y0105104*
X0006608Y0086502*
X0006431Y0086237*
X0006369Y0085925*
Y0078487*
X0003852Y0075971*
X0003675Y0075706*
X0003613Y0075394*
Y0039643*
X0003675Y003933*
X0003852Y0039066*
X0011357Y0031562*
X0011218Y0031302*
Y0029528*
Y0027976*
X001129Y002799*
X0011315Y0027988*
X0011724Y0027764*
X0011824Y0027674*
X0011862Y0027485*
X0012127Y0027088*
X0012524Y0026822*
X0012843Y0026759*
X0013051Y0026599*
X0013202Y0026261*
X0013147Y0025984*
X0013202Y0025707*
X0013051Y002537*
X0012843Y002521*
X0012524Y0025146*
X0012127Y0024881*
X0011862Y0024484*
X0011769Y0024016*
X0011862Y0023548*
X0012127Y0023151*
X0012524Y0022885*
X0012843Y0022822*
X0013051Y0022661*
X0013202Y0022324*
X0013147Y0022047*
X001324Y0021579*
X0013505Y0021182*
X0013902Y0020917*
X001437Y0020824*
X0014838Y0020917*
X0015235Y0021182*
X00155Y0021579*
X0015594Y0022047*
X00155Y0022515*
X0015235Y0022912*
X0014838Y0023178*
X0014519Y0023241*
X0014312Y0023401*
X0014161Y0023739*
X0014216Y0024016*
X0014161Y0024293*
X0014312Y002463*
X0014519Y002479*
X0014838Y0024854*
X0015235Y0025119*
X00155Y0025516*
X0015594Y0025984*
X00155Y0026452*
X0015235Y0026849*
X0014838Y0027115*
X0014519Y0027178*
X0014312Y0027338*
X0014161Y0027676*
X0014216Y0027953*
X0014205Y0028006*
X0014666Y0028252*
X0032373Y0010545*
X0032638Y0010368*
X003295Y0010306*
X0036862*
X0037125Y0009986*
X0037001Y0009476*
X0036635Y0009231*
X003637Y0008834*
X0036277Y0008366*
X003637Y0007898*
X0036635Y0007501*
X0037032Y0007236*
X00375Y0007143*
X0037558Y0007154*
X0038793Y0005919*
X0039058Y0005742*
X003937Y000568*
X0065327*
X0065639Y0005742*
X0065904Y0005919*
X007164Y0011655*
X0071817Y001192*
X0071879Y0012232*
Y0016788*
X0073946Y0018855*
X0074334Y0018537*
X0074257Y0018421*
X0074165Y0018283*
X0074072Y0017815*
X0074165Y0017347*
X007443Y001695*
X0074827Y0016685*
X0075258Y0016599*
X0075306Y0016574*
X0075579Y0016138*
X0074972Y0015002*
X0074497Y0013438*
X0074376Y0012211*
X0082277*
Y0020112*
X008105Y0019991*
X0079485Y0019516*
X0078044Y0018745*
X0077005Y0017894*
X0076463Y0018095*
X0076426Y0018283*
X007616Y001868*
X0075763Y0018945*
X0075295Y0019038*
X0074827Y0018945*
X0074574Y0018776*
X0074255Y0019164*
X0088077Y0032986*
X0088254Y0033251*
X0088316Y0033563*
Y0049441*
X0088816Y0049593*
X0088846Y0049547*
X0089376Y0049193*
X00896Y0049148*
Y00507*
Y0052252*
X0089376Y0052207*
X0088846Y0051854*
X0088816Y0051807*
X0088316Y0051959*
Y0068291*
X0088536Y0068422*
X0088816Y00685*
X0089276Y0068193*
X00895Y0068148*
Y00697*
Y0071252*
X0089276Y0071207*
X0088816Y00709*
X0088536Y0070978*
X0088316Y0071109*
Y0090244*
X0088365Y0090277*
X008863Y0090674*
X0088723Y0091142*
X008863Y009161*
X0088365Y0092007*
X0087968Y0092272*
X00875Y0092365*
X0087032Y0092272*
X0086635Y0092007*
X008637Y009161*
X0086277Y0091142*
X008637Y0090674*
X0086635Y0090277*
X0086684Y0090244*
Y0033901*
X0070486Y0017703*
X0070309Y0017438*
X0070247Y0017126*
Y001257*
X0064989Y0007312*
X0041381*
X0041114Y0007812*
X0041189Y0007925*
X0041283Y0008393*
X0041189Y0008861*
X0040924Y0009258*
X0040527Y0009524*
X0040059Y0009617*
X0040001Y0009605*
X0037907Y0011699*
X0037642Y0011876*
X0037426Y0011919*
X0037306Y001218*
X0037281Y0012438*
X0037674Y001274*
X0038244Y0013482*
X0038602Y0014347*
X0038724Y0015276*
Y0015958*
X0035138*
X0031551*
Y0015276*
X0031673Y0014347*
X0031736Y0014196*
X0031312Y0013913*
X0024093Y0021132*
X00243Y0021632*
X0037745*
X0040424Y0018954*
Y001624*
X0040487Y0015928*
X0040663Y0015663*
X004214Y0014187*
X0042404Y001401*
X0042717Y0013948*
X0052161*
X0052485Y0013732*
X0052953Y0013639*
X0053421Y0013732*
X0053818Y0013997*
X0054083Y0014394*
X0054176Y0014862*
X0054083Y001533*
X0053818Y0015727*
X0053421Y0015993*
X0053336Y001601*
X0053385Y001651*
X0055518*
Y0019786*
X0055541Y00199*
Y0021962*
X0055733Y0022154*
X0066929*
X0067378Y0022243*
X0067758Y0022498*
X0068491Y002323*
X00686Y0023209*
X0069361Y002336*
X0070006Y0023791*
X0070437Y0024436*
X0070588Y0025197*
X0070437Y0025958*
X0070006Y0026603*
X0069361Y0027034*
X00686Y0027185*
X0067839Y0027034*
X0067194Y0026603*
X0066763Y0025958*
X0066612Y0025197*
X006667Y0024906*
X0066315Y0024499*
X0064753*
X0064543Y0024999*
X0064795Y0025376*
X0064839Y00256*
X0063287*
Y00264*
X0064839*
X0064836Y0026417*
X0065111Y0026917*
Y002834*
X0063287*
Y002914*
X0065111*
Y0030564*
X0064711*
Y0031176*
X0065423*
X0065525Y0031025*
X0065922Y0030759*
X006639Y0030666*
X0066858Y0030759*
X0067255Y0031025*
X006752Y0031422*
X0067613Y003189*
X006752Y0032358*
X0067255Y0032755*
X0066858Y003302*
X006639Y0033113*
X0065922Y003302*
X0065525Y0032755*
X0065423Y0032603*
X0064711*
Y0033313*
X0062873*
X006204Y0034147*
X0062142Y0034443*
X0062259Y0034635*
X0062514Y0034685*
X0062777Y0034861*
X0063207*
X006347Y0034685*
X0063779Y0034624*
X0064089Y0034685*
X0064352Y0034861*
X0064782*
X0065045Y0034685*
X0065354Y0034624*
X0065664Y0034685*
X0065927Y0034861*
X0066357*
X0066619Y0034685*
X0066929Y0034624*
X0067239Y0034685*
X0067501Y0034861*
X0067932*
X0068194Y0034685*
X0068504Y0034624*
X0068814Y0034685*
X0069076Y0034861*
X0069252Y0035123*
X0069313Y0035433*
Y0038583*
X0069252Y0038892*
X0069076Y0039155*
X0068814Y003933*
X0068504Y0039392*
X0068194Y003933*
X0067932Y0039155*
X0067501*
X0067239Y003933*
X0066929Y0039392*
X0066892Y0039385*
X0066471Y0039756*
X0066462Y0039781*
Y0040372*
X0066613Y0040473*
X0066878Y004087*
X0066971Y0041339*
X0066878Y0041807*
X0066613Y0042204*
X0066216Y0042469*
X0065748Y0042562*
X006528Y0042469*
X0064883Y0042204*
X0064818Y0042107*
X0064217*
X0064152Y0042204*
X0063756Y0042469*
X0063287Y0042562*
X0062819Y0042469*
X0062422Y0042204*
X0062157Y0041807*
X0062064Y0041339*
X0062157Y004087*
X0062422Y0040473*
X0062634Y0040332*
Y0040195*
X0062689Y0039922*
X0062778Y0039789*
X0062518Y0039352*
X0062492Y0039335*
X0062205Y0039392*
X0061895Y003933*
X0061633Y0039155*
X0061202*
X006094Y003933*
X006063Y0039392*
X006032Y003933*
X0060058Y0039155*
X0059627*
X0059365Y003933*
X0059055Y0039392*
X0058745Y003933*
X0058483Y0039155*
X0058052*
X005779Y003933*
X005748Y0039392*
X0057171Y003933*
X0056908Y0039155*
X0056478*
X0056215Y003933*
X0055905Y0039392*
X0055596Y003933*
X0055333Y0039155*
X0054903*
X005464Y003933*
X0054331Y0039392*
X0054083Y0039342*
X0053622Y0039619*
X005358Y0040008*
X0054116Y0040544*
X0054295Y0040509*
X0054763Y0040602*
X005516Y0040867*
X0055425Y0041264*
X0055454Y0041411*
X0055985Y0041517*
X0056025Y0041458*
X0056422Y0041192*
X005689Y0041099*
X0057358Y0041192*
X0057755Y0041458*
X005802Y0041855*
X0058113Y0042323*
X005802Y0042791*
X0057755Y0043188*
X005746Y0043385*
X0057555Y0043885*
X0066351*
Y006023*
X0050006*
Y0043885*
X0056225*
X0056319Y0043385*
X0056025Y0043188*
X0055759Y0042791*
X005573Y0042644*
X0055199Y0042538*
X005516Y0042597*
X0054763Y0042863*
X0054295Y0042956*
X0053827Y0042863*
X005343Y0042597*
X0052834*
X0052437Y0042863*
X0051968Y0042956*
X00515Y0042863*
X0051103Y0042597*
X0050838Y00422*
X0050758Y0041797*
X0050394Y0041611*
X005003Y0041797*
X0049949Y00422*
X0049684Y0042597*
X0049287Y0042863*
X0048819Y0042956*
X0048351Y0042863*
X0047954Y0042597*
X0047688Y00422*
X0047595Y0041732*
X0047688Y0041264*
X0047954Y0040867*
X0048351Y0040602*
X0048819Y0040509*
X0048893Y0040448*
Y0039554*
X0048393Y0039296*
X0048341Y003933*
X0048031Y0039392*
X0047722Y003933*
X0047459Y0039155*
X0047029*
X0046766Y003933*
X0046457Y0039392*
X0046147Y003933*
X0045884Y0039155*
X0045454*
X0045192Y003933*
X0044882Y0039392*
X0044572Y003933*
X004431Y0039155*
X0043879*
X0043617Y003933*
X0043307Y0039392*
X0042997Y003933*
X0042735Y0039155*
X0042305*
X0042042Y003933*
X0041732Y0039392*
X0041423Y003933*
X004116Y0039155*
X004073*
X0040467Y003933*
X0040157Y0039392*
X0039848Y003933*
X003962Y0039178*
X0039443Y0039443*
X0039048Y0039707*
X0038983Y003972*
Y0037008*
Y0034295*
X0039048Y0034309*
X0039443Y0034572*
X003962Y0034837*
X0039848Y0034685*
X0040157Y0034624*
X0040467Y0034685*
X004073Y0034861*
X004116*
X0041423Y0034685*
X0041732Y0034624*
X0042042Y0034685*
X0042305Y0034861*
X0042735*
X0042997Y0034685*
X0043307Y0034624*
X0043617Y0034685*
X0043879Y0034861*
X004431*
X0044572Y0034685*
X0044882Y0034624*
X0045192Y0034685*
X0045454Y0034861*
X0045884*
X0046147Y0034685*
X0046457Y0034624*
X0046766Y0034685*
X0047029Y0034861*
X0047459*
X0047722Y0034685*
X0048031Y0034624*
X0048341Y0034685*
X0048604Y0034861*
X0049034*
X0049297Y0034685*
X0049606Y0034624*
X0049916Y0034685*
X0050178Y0034861*
X0050609*
X0050871Y0034685*
X0051181Y0034624*
X0051491Y0034685*
X0051753Y0034861*
X0052184*
X0052335Y003476*
X0052453Y0034334*
X0052456Y0034174*
X0052251Y0033969*
X0052096Y0033738*
X0052042Y0033465*
Y0033176*
X005147*
Y0030683*
X005107Y0030426*
X0050746Y0030792*
X005072Y0030924*
X0050366Y0031453*
X0049837Y0031807*
X0049613Y0031852*
Y00303*
Y0028748*
X0049837Y0028793*
X0050366Y0029147*
X005057Y0029452*
X005107Y00293*
Y002914*
X0052756*
Y002834*
X005107*
Y0027054*
X0051403*
X0051452Y0026554*
X0051332Y002653*
X0050935Y0026265*
X005067Y0025868*
X005061Y0025569*
X0050099Y0025434*
X0050078Y0025465*
X0049681Y002573*
X0049213Y0025824*
X0048744Y002573*
X0048347Y0025465*
X0048082Y0025068*
X0047989Y00246*
X0048082Y0024132*
X0048347Y0023735*
X0048377Y0023715*
X0048226Y0023215*
X0048025*
X0047525*
X0045682*
Y0023615*
X0044495*
Y0019862*
X0043694*
Y0023615*
X0042507*
Y0019586*
X0042007Y0019536*
X0041994Y0019603*
X0041817Y0019868*
X003866Y0023025*
X0038396Y0023202*
X0038083Y0023264*
X002439*
X0006716Y0040938*
Y0046541*
X0007216Y0046808*
X0007276Y0046768*
X00075Y0046723*
Y0048275*
Y0049827*
X0007276Y0049782*
X0007216Y0049742*
X0006716Y005001*
Y0064147*
X0007216Y0064415*
X0007476Y0064241*
X00077Y0064196*
Y0065748*
Y00673*
X0007476Y0067255*
X0007216Y0067081*
X0006716Y0067349*
Y0074403*
X0009295Y0076982*
X0009472Y0077247*
X0009534Y0077559*
Y008498*
X0011743Y0087189*
X0012277Y0087083*
X0012291Y0086725*
Y0085046*
X0014173*
X0016056*
Y0086725*
X0015841*
X0015573Y0087225*
X0015607Y0087276*
X0015652Y00875*
X00141*
Y00883*
X0015652*
X0015607Y0088524*
X0015254Y0089053*
X0014724Y0089407*
X0014677Y0089416*
X0014513Y0089959*
X00261Y0101547*
X0030564*
X0030597Y0101497*
X0030994Y0101232*
X0031462Y0101139*
X003193Y0101232*
X0032327Y0101497*
X0032481Y0101727*
X00325Y0101734*
X0033018*
X0033037Y0101727*
X003319Y0101497*
X0033587Y0101232*
X0034055Y0101139*
X0034523Y0101232*
X003492Y0101497*
X0035186Y0101894*
X0035279Y0102362*
X0035186Y010283*
X003492Y0103227*
X0034798Y0103309*
Y0103518*
X0034736Y010383*
X0034559Y0104095*
X0033549Y0105104*
X0033285Y0105281*
X0032972Y0105343*
G37*
G36*
X00752Y0100652D02*
Y00995D01*
X0076352*
X0076307Y0099724*
X0075954Y0100253*
X0075424Y0100607*
X00752Y0100652*
G37*
G36*
X00744D02*
X0074176Y0100607D01*
X0073646Y0100253*
X0073293Y0099724*
X0073248Y00995*
X00744*
Y0100652*
G37*
G36*
X00159Y0100152D02*
Y0099D01*
X0017052*
X0017007Y0099224*
X0016654Y0099753*
X0016124Y0100107*
X00159Y0100152*
G37*
G36*
X00151D02*
X0014876Y0100107D01*
X0014346Y0099753*
X0013993Y0099224*
X0013948Y0099*
X00151*
Y0100152*
G37*
G36*
X0062605Y0099852D02*
Y00987D01*
X0063757*
X0063712Y0098924*
X0063358Y0099454*
X0062829Y0099807*
X0062605Y0099852*
G37*
G36*
X0076352Y00987D02*
X00752D01*
Y0097548*
X0075424Y0097593*
X0075954Y0097947*
X0076307Y0098476*
X0076352Y00987*
G37*
G36*
X00744D02*
X0073248D01*
X0073293Y0098476*
X0073646Y0097947*
X0074176Y0097593*
X00744Y0097548*
Y00987*
G37*
G36*
X0017052Y00982D02*
X00159D01*
Y0097048*
X0016124Y0097093*
X0016654Y0097447*
X0017007Y0097976*
X0017052Y00982*
G37*
G36*
X00151D02*
X0013948D01*
X0013993Y0097976*
X0014346Y0097447*
X0014876Y0097093*
X00151Y0097048*
Y00982*
G37*
G36*
X0048812Y0104718D02*
X0040912D01*
X0041033Y0103491*
X0041507Y0101926*
X0042278Y0100484*
X0043315Y0099221*
X0044579Y0098183*
X0046021Y0097413*
X0047585Y0096938*
X0048812Y0096817*
Y0104718*
G37*
G36*
X00357Y009604D02*
Y0094888D01*
X0036852*
X0036807Y0095113*
X0036454Y0095642*
X0035924Y0095995*
X00357Y009604*
G37*
G36*
X00108Y0096123D02*
X0010332Y009603D01*
X0009935Y0095765*
X000967Y0095368*
X0009577Y00949*
X000967Y0094432*
X0009935Y0094035*
X0010332Y009377*
X00108Y0093677*
X0011268Y009377*
X0011665Y0094035*
X001193Y0094432*
X0012024Y00949*
X001193Y0095368*
X0011665Y0095765*
X0011268Y009603*
X00108Y0096123*
G37*
G36*
X0036852Y0094088D02*
X00357D01*
Y0092936*
X0035924Y0092981*
X0036454Y0093335*
X0036807Y0093864*
X0036852Y0094088*
G37*
G36*
X0057513Y0104718D02*
X0049613D01*
Y0096817*
X005084Y0096938*
X0052404Y0097413*
X0053846Y0098183*
X0054559Y0098769*
X0055033Y0098575*
X0055063Y0098535*
X0054976Y00981*
X005507Y0097632*
X0055335Y0097235*
X0055486Y0097134*
Y00925*
X0055541Y0092227*
X0055695Y0091995*
X0056585Y0091106*
X0056816Y0090951*
X0057089Y0090897*
X0057238*
Y0089915*
X0057948*
Y0089764*
X0058002Y0089491*
X0058157Y0089259*
X0059709Y0087707*
X005974Y0087432*
X0059662Y0087105*
X0059455Y0086993*
Y0084252*
X0058655*
Y0086964*
X0058589Y0086951*
X0058195Y0086687*
X0058017Y0086422*
X005779Y0086574*
X005748Y0086636*
X0057171Y0086574*
X0056908Y0086399*
X0056478*
X0056215Y0086574*
X0055905Y0086636*
X0055596Y0086574*
X0055333Y0086399*
X0054903*
X005464Y0086574*
X0054331Y0086636*
X0054021Y0086574*
X0053759Y0086399*
X0053328*
X0053066Y0086574*
X0052756Y0086636*
X0052446Y0086574*
X0052184Y0086399*
X0051753*
X0051491Y0086574*
X0051181Y0086636*
X0050871Y0086574*
X0050609Y0086399*
X0050178*
X0049916Y0086574*
X0049606Y0086636*
X0049297Y0086574*
X0049034Y0086399*
X0048604*
X0048341Y0086574*
X0048031Y0086636*
X0047722Y0086574*
X0047459Y0086399*
X0047029*
X0046766Y0086574*
X0046457Y0086636*
X0046147Y0086574*
X0045884Y0086399*
X0045454*
X0045192Y0086574*
X0044882Y0086636*
X0044572Y0086574*
X004431Y0086399*
X0043879*
X0043617Y0086574*
X0043307Y0086636*
X0042997Y0086574*
X0042735Y0086399*
X0042305*
X0042042Y0086574*
X0041732Y0086636*
X0041423Y0086574*
X004116Y0086399*
X004073*
X0040467Y0086574*
X0040157Y0086636*
X0039848Y0086574*
X0039585Y0086399*
X0039155*
X0038892Y0086574*
X0038583Y0086636*
X0038273Y0086574*
X003801Y0086399*
X003758*
X0037317Y0086574*
X0037008Y0086636*
X0036698Y0086574*
X0036632Y008653*
X0036401Y0086652*
X0036198Y0086841*
X0036231Y0087331*
X0036553Y0087546*
X0036907Y0088076*
X0036952Y00883*
X00354*
Y00887*
X0035*
Y0090252*
X0034776Y0090207*
X0034307Y0089894*
X0034212Y0089857*
X0033807Y0089902*
X0033707Y009016*
Y0090405*
Y0090406*
Y0092665*
X0034107*
Y009276*
X0034607Y0093027*
X0034676Y0092981*
X00349Y0092936*
Y0094488*
Y009604*
X0034676Y0095995*
X0034607Y009595*
X0034107Y0096217*
Y0096312*
X0033668*
X00334Y0096812*
X0033414Y0096832*
X0033507Y00973*
X0033414Y0097768*
X0033149Y0098165*
X0032752Y009843*
X0032283Y0098523*
X0031815Y009843*
X0031418Y0098165*
X0031153Y0097768*
X003106Y00973*
X0031153Y0096832*
X0031166Y0096812*
X0030899Y0096312*
X003046*
Y0094888*
X0032283*
Y0094088*
X003046*
Y0092665*
X003086*
Y0089915*
X003157*
Y0087288*
X0031423Y0087163*
X0031109Y0086993*
Y0084252*
Y008154*
X0031174Y0081553*
X0031569Y0081817*
X0031746Y0082082*
X0031974Y0081929*
X0032283Y0081868*
X0032593Y0081929*
X0032856Y0082105*
X0033286*
X0033549Y0081929*
X0033858Y0081868*
X0034168Y0081929*
X0034395Y0082082*
X0034572Y0081817*
X0034967Y0081553*
X0035033Y008154*
Y0084252*
X0035833*
Y008154*
X0035899Y0081553*
X0036294Y0081817*
X0036471Y0082082*
X0036698Y0081929*
X0037008Y0081868*
X0037317Y0081929*
X003758Y0082105*
X003801*
X0038273Y0081929*
X0038583Y0081868*
X0038892Y0081929*
X0039155Y0082105*
X0039585*
X0039848Y0081929*
X0040157Y0081868*
X0040467Y0081929*
X004073Y0082105*
X004116*
X0041423Y0081929*
X0041732Y0081868*
X0042042Y0081929*
X0042305Y0082105*
X0042735*
X0042997Y0081929*
X0043307Y0081868*
X0043617Y0081929*
X0043879Y0082105*
X004431*
X0044572Y0081929*
X0044577*
X0044688Y0081464*
Y0081397*
X0043879Y0080588*
X00437Y0080624*
X0043232Y008053*
X0042835Y0080265*
X004257Y0079868*
X0042476Y00794*
X004257Y0078932*
X0042835Y0078535*
X0043232Y007827*
X00437Y0078176*
X0044168Y007827*
X0044565Y0078535*
X0044599Y0078586*
X0045201*
X0045235Y0078535*
X0045632Y007827*
X00461Y0078176*
X0046568Y007827*
X0046965Y0078535*
X0047005Y0078594*
X004756Y0078662*
X0047957Y0078397*
X0048425Y0078304*
X0048893Y0078397*
X004929Y0078662*
X0049306Y0078685*
X0049907*
X0049922Y0078662*
X0050319Y0078397*
X0050787Y0078304*
X0051256Y0078397*
X0051652Y0078662*
X0051668Y0078685*
X0052269*
X0052284Y0078662*
X0052681Y0078397*
X005315Y0078304*
X0053618Y0078397*
X0053931Y0078606*
X0054119Y0078574*
X0054227Y0078533*
X0054442Y0078402*
X0054542Y0077899*
X0054598Y0077816*
X0054362Y0077375*
X0050006*
Y006103*
X0066351*
Y0067321*
X0066851Y0067561*
X0067035Y0067414*
Y00648*
X0067093Y0064507*
X0067259Y0064259*
X0067419Y00641*
X006739Y0063602*
X0067335Y0063565*
X006707Y0063168*
X0066976Y00627*
X006707Y0062232*
X0067335Y0061835*
X0067732Y006157*
X00682Y0061476*
X0068668Y006157*
X0069065Y0061835*
X006933Y0062232*
X0069424Y00627*
X006933Y0063168*
X0069065Y0063565*
X0068965Y0063632*
Y00644*
X0068906Y0064693*
X0068741Y0064941*
X0068565Y0065117*
Y0067668*
X0068665Y0067735*
X006893Y0068132*
X0069024Y00686*
X006893Y0069068*
X0068665Y0069465*
X006843Y0069622*
X006842Y006965*
Y007015*
X006843Y0070178*
X0068665Y0070335*
X006893Y0070732*
X0069024Y00712*
X006893Y0071668*
X0068665Y0072065*
X0068268Y007233*
X00678Y0072423*
X0067332Y007233*
X0066935Y0072065*
X0066851Y007194*
X0066351Y0072092*
Y0077237*
X0066914*
X0067377Y0077*
X006747Y0076532*
X0067735Y0076135*
X0068132Y007587*
X00686Y0075776*
X0069068Y007587*
X0069465Y0076135*
X006973Y0076532*
X0069767Y0076717*
X0069805Y0076742*
X007044Y0077377*
X0070932Y0077301*
X0071036Y0076882*
X0070906Y0076688*
X0070844Y0076378*
X0070906Y0076068*
X0071081Y0075806*
Y0075375*
X0070906Y0075113*
X0070844Y0074803*
X0070906Y0074493*
X0071081Y0074231*
Y0073801*
X0070906Y0073538*
X0070844Y0073228*
X0070906Y0072919*
X0071081Y0072656*
Y0072226*
X0070906Y0071963*
X0070844Y0071653*
X0070906Y0071344*
X0071081Y0071081*
Y0070651*
X0070906Y0070388*
X0070844Y0070079*
X0070906Y0069769*
X0071081Y0069507*
Y0069076*
X0070906Y0068814*
X0070844Y0068504*
X0070906Y0068194*
X0071081Y0067932*
Y0067501*
X0070906Y0067239*
X0070844Y0066929*
X0070906Y0066619*
X0071081Y0066357*
Y0065926*
X0070906Y0065664*
X0070844Y0065354*
X0070906Y0065045*
X0071081Y0064782*
Y0064352*
X0070906Y0064089*
X0070844Y0063779*
X0070906Y006347*
X0071081Y0063207*
Y0062777*
X0070906Y0062514*
X0070844Y0062205*
X0070906Y0061895*
X0071081Y0061633*
Y0061202*
X0070906Y006094*
X0070844Y006063*
X0070906Y006032*
X0071081Y0060058*
Y0059627*
X0070906Y0059365*
X0070844Y0059055*
X0070906Y0058745*
X0071081Y0058483*
Y0058052*
X0070906Y005779*
X0070844Y005748*
X0070906Y0057171*
X0071081Y0056908*
Y0056478*
X0070906Y0056215*
X0070844Y0055905*
X0070906Y0055596*
X0071081Y0055333*
Y0054903*
X0070906Y005464*
X0070844Y0054331*
X0070906Y0054021*
X0071081Y0053759*
Y0053328*
X0070906Y0053066*
X0070844Y0052756*
X0070906Y0052446*
X0071081Y0052184*
Y0051753*
X0070906Y0051491*
X0070844Y0051181*
X0070906Y0050871*
X0071081Y0050609*
Y0050178*
X0070906Y0049916*
X0070844Y0049606*
X0070906Y0049297*
X0071081Y0049034*
Y0048604*
X0070906Y0048341*
X0070844Y0048031*
X0070906Y0047722*
X0071081Y0047459*
Y0047029*
X0070906Y0046766*
X0070844Y0046457*
X0070906Y0046147*
X0071081Y0045884*
Y0045454*
X0070906Y0045192*
X0070844Y0044882*
X0070906Y0044572*
X0071081Y004431*
Y0043879*
X0070906Y0043617*
X0070844Y0043307*
X0070906Y0042997*
X0071081Y0042735*
Y0042305*
X0070906Y0042042*
X0070844Y0041732*
X0070906Y0041423*
X0071081Y004116*
X0071344Y0040985*
X0071653Y0040923*
X0074803*
X0075113Y0040985*
X0075375Y004116*
X0075551Y0041423*
X0075612Y0041732*
X0075551Y0042042*
X0075375Y0042305*
Y0042735*
X0075551Y0042997*
X0075612Y0043307*
X0075551Y0043617*
X0075375Y0043879*
Y004431*
X0075551Y0044572*
X0075612Y0044882*
X0075551Y0045192*
X0075375Y0045454*
Y0045884*
X0075551Y0046147*
X0075612Y0046457*
X0075551Y0046766*
X0075375Y0047029*
Y0047459*
X0075551Y0047722*
X0075612Y0048031*
X0075551Y0048341*
X0075375Y0048604*
Y0049034*
X0075551Y0049297*
X0075612Y0049606*
X0075551Y0049916*
X0075375Y0050178*
Y0050609*
X0075551Y0050871*
X0075612Y0051181*
X0075551Y0051491*
X0075375Y0051753*
Y0052184*
X0075551Y0052446*
X0075612Y0052756*
X0075551Y0053066*
X0075375Y0053328*
Y0053759*
X0075551Y0054021*
X0075612Y0054331*
X0075551Y005464*
X0075375Y0054903*
Y0055333*
X0075551Y0055596*
X0075612Y0055905*
X0075551Y0056215*
X0075375Y0056478*
Y0056908*
X0075551Y0057171*
X0075612Y005748*
X0075551Y005779*
X0075375Y0058052*
Y0058483*
X0075551Y0058745*
X0075612Y0059055*
X0075551Y0059365*
X0075375Y0059627*
Y0060058*
X0075551Y006032*
X0075612Y006063*
X0075551Y006094*
X0075375Y0061202*
Y0061633*
X0075551Y0061895*
X0075612Y0062205*
X0075551Y0062514*
X0075375Y0062777*
Y0063207*
X0075551Y006347*
X0075612Y0063779*
X0075551Y0064089*
X0075375Y0064352*
Y0064782*
X0075551Y0065045*
X0075612Y0065354*
X0075551Y0065664*
X0075375Y0065926*
Y0066357*
X0075551Y0066619*
X0075612Y0066929*
X0075551Y0067239*
X0075375Y0067501*
Y0067932*
X0075551Y0068194*
X0075612Y0068504*
X0075551Y0068814*
X0075375Y0069076*
Y0069507*
X0075551Y0069769*
X0075612Y0070079*
X0075551Y0070388*
X0075375Y0070651*
Y0071081*
X0075551Y0071344*
X0075612Y0071653*
X0075551Y0071963*
X0075375Y0072226*
Y0072656*
X0075551Y0072919*
X0075612Y0073228*
X0075551Y0073538*
X0075375Y0073801*
Y0074231*
X0075551Y0074493*
X0075612Y0074803*
X0075551Y0075113*
X0075375Y0075375*
Y0075806*
X0075551Y0076068*
X0075612Y0076378*
X0075551Y0076688*
X0075375Y007695*
Y0077381*
X0075551Y0077643*
X0075612Y0077953*
X0075551Y0078262*
X0075375Y0078525*
X0075506Y0079039*
X0075597Y0079131*
Y0079924*
X00752Y0080321*
X0071257*
X007086Y0079924*
Y0079671*
X0069577Y0078389*
X0069444Y007839*
X0069135Y0078776*
X0069117Y0078803*
X0069167Y0079053*
Y008224*
X0069252Y0082367*
X0069313Y0082677*
Y0085827*
X0069252Y0086137*
X0069076Y0086399*
X0068814Y0086574*
X0068504Y0086636*
X0068194Y0086574*
X0067932Y0086399*
X0067501*
X0067239Y0086574*
X0066929Y0086636*
X0066619Y0086574*
X0066357Y0086399*
X0065926*
X0065664Y0086574*
X0065354Y0086636*
X0065045Y0086574*
X0064782Y0086399*
X0064352*
X0064089Y0086574*
X0063779Y0086636*
X006347Y0086574*
X0063418Y008654*
X0062918Y0086798*
Y0089915*
X0063628*
Y0090625*
X0064462*
Y0090053*
X0066888*
X0067034*
X0067534Y0090069*
X0067832Y008987*
X00683Y0089776*
X0068768Y008987*
X0069165Y0090135*
X006943Y0090532*
X0069524Y0091*
X006943Y0091468*
X0069165Y0091865*
X0068768Y009213*
X00683Y0092224*
X0067832Y009213*
X0067534Y0091931*
X0067179Y0092048*
X0067034Y0092153*
Y0092624*
X006492*
X0064589*
X0064533Y0092625*
X0064444Y0092631*
X0064401Y0092647*
Y009318*
X0064462Y0093202*
X0064528*
X0067034*
Y0095774*
X0066564*
Y009725*
X0066613Y0097283*
X0066878Y009768*
X0066972Y0098148*
X0066878Y0098616*
X0066613Y0099013*
X0066216Y0099278*
X0065748Y0099372*
X006528Y0099278*
X0064883Y0099013*
X0064618Y0098616*
X0064525Y0098148*
X0064618Y009768*
X0064883Y0097283*
X0064932Y009725*
Y0096006*
X0064462Y0095774*
X0064028Y009598*
Y0096312*
X0063091*
X0062852Y0096775*
X0062857Y0096812*
X0063358Y0097146*
X0063712Y0097676*
X0063757Y00979*
X0062205*
Y00983*
X0061805*
Y0099852*
X006158Y0099807*
X0061051Y0099454*
X0060698Y0098924*
X0060674Y0098804*
X0060214Y0098782*
X0060161Y0098791*
X0059815Y0099309*
X0059286Y0099662*
X0059061Y0099707*
Y0098155*
X0058261*
Y0099707*
X0058037Y0099662*
X0057508Y0099309*
X005745Y0099221*
X0056797Y0099144*
X0056668Y009923*
X00562Y0099323*
X0055771Y0099238*
X0055733Y0099269*
X0055571Y0099782*
X0056147Y0100484*
X0056918Y0101926*
X0057392Y0103491*
X0057513Y0104718*
G37*
G36*
X0054632Y0090823D02*
Y0089672D01*
X0055784*
X0055739Y0089896*
X0055386Y0090425*
X0054857Y0090779*
X0054632Y0090823*
G37*
G36*
X0053832D02*
X0053608Y0090779D01*
X0053079Y0090425*
X0052725Y0089896*
X005268Y0089672*
X0053832*
Y0090823*
G37*
G36*
X00358Y0090252D02*
Y00891D01*
X0036952*
X0036907Y0089324*
X0036553Y0089854*
X0036024Y0090207*
X00358Y0090252*
G37*
G36*
X0050295Y0090495D02*
X0049827Y0090402D01*
X004943Y0090137*
X0049165Y008974*
X0049072Y0089272*
X0049165Y0088803*
X004943Y0088406*
X0049827Y0088141*
X0050295Y0088048*
X0050763Y0088141*
X005116Y0088406*
X0051426Y0088803*
X0051519Y0089272*
X0051426Y008974*
X005116Y0090137*
X0050763Y0090402*
X0050295Y0090495*
G37*
G36*
X0055784Y0088872D02*
X0054632D01*
Y008772*
X0054857Y0087765*
X0055386Y0088118*
X0055739Y0088647*
X0055784Y0088872*
G37*
G36*
X0053832D02*
X005268D01*
X0052725Y0088647*
X0053079Y0088118*
X0053608Y0087765*
X0053832Y008772*
Y0088872*
G37*
G36*
X00277Y0088652D02*
Y00875D01*
X0028852*
X0028807Y0087724*
X0028453Y0088253*
X0027924Y0088607*
X00277Y0088652*
G37*
G36*
X00269D02*
X0026676Y0088607D01*
X0026147Y0088253*
X0025793Y0087724*
X0025748Y00875*
X00269*
Y0088652*
G37*
G36*
X00719Y0088452D02*
Y00873D01*
X0073052*
X0073007Y0087524*
X0072654Y0088054*
X0072124Y0088407*
X00719Y0088452*
G37*
G36*
X00711D02*
X0070876Y0088407D01*
X0070346Y0088054*
X0069993Y0087524*
X0069948Y00873*
X00711*
Y0088452*
G37*
G36*
X0028852Y00867D02*
X00277D01*
Y0085548*
X0027924Y0085593*
X0028453Y0085947*
X0028807Y0086476*
X0028852Y00867*
G37*
G36*
X00269D02*
X0025748D01*
X0025793Y0086476*
X0026147Y0085947*
X0026676Y0085593*
X00269Y0085548*
Y00867*
G37*
G36*
X0073052Y00865D02*
X00719D01*
Y0085348*
X0072124Y0085393*
X0072654Y0085747*
X0073007Y0086276*
X0073052Y00865*
G37*
G36*
X00711D02*
X0069948D01*
X0069993Y0086276*
X0070346Y0085747*
X0070876Y0085393*
X00711Y0085348*
Y00865*
G37*
G36*
X0030309Y0086964D02*
X0030243Y0086951D01*
X0029848Y0086687*
X0029584Y0086292*
X0029492Y0085827*
Y0084652*
X0030309*
Y0086964*
G37*
G36*
Y0083852D02*
X0029492D01*
Y0082677*
X0029584Y0082211*
X0029848Y0081817*
X0030243Y0081553*
X0030309Y008154*
Y0083852*
G37*
G36*
X0016056Y0084246D02*
X0014173D01*
X0012291*
Y0082566*
Y0081109*
X0014173*
X0016056*
Y0082566*
Y0084246*
G37*
G36*
X0019593Y0086325D02*
X0016628D01*
Y0082966*
X0019593*
Y0083932*
X0020122*
X002094Y0083114*
Y0081373*
X0020814Y0081249*
X0020471Y0081097*
X0020352Y0081177*
X0020079Y0081231*
X0019593*
Y0082388*
X0016628*
Y0079029*
X0017233*
X0017267Y0079001*
X001716Y007847*
X0017103Y0078459*
X0016706Y0078193*
X0016441Y0077797*
X0016348Y0077328*
X0016441Y007686*
X0016706Y0076463*
X0016858Y0076362*
Y0075221*
X0016049*
Y0075621*
X0015217*
X0015065Y0076121*
X0015254Y0076247*
X0015607Y0076776*
X0015652Y0077*
X0012548*
X0012593Y0076776*
X0012946Y0076247*
X0013135Y0076121*
X0012983Y0075621*
X0012008*
Y0074*
X0014028*
Y00732*
X0012008*
Y0071579*
X0011953Y0071102*
X0011476Y0071007*
X0010947Y0070653*
X0010593Y0070124*
X0010548Y00699*
X00121*
Y00695*
X00125*
Y0067948*
X0012724Y0067993*
X0012834Y0068066*
X0013334Y0067799*
Y0066542*
X0015157*
Y0065742*
X0013334*
Y0064318*
Y0062998*
X0015157*
Y0062198*
X0013334*
Y0061142*
Y0060775*
X0012889Y0060642*
X0011227*
Y0057874*
Y0055106*
X0012692*
X0013137Y0054973*
Y0054606*
Y0053549*
X0014961*
Y0053149*
X0015361*
Y0051326*
X0016784*
Y0051726*
X0019534*
Y0054573*
X0018832*
X0018659Y005506*
X0018897Y0055506*
X0019298*
Y005716*
X0021113*
X0021172Y0057072*
X0021569Y0056807*
X0022004Y005672*
X0022089Y0056588*
X0022233Y0056243*
X0021149Y0055158*
X0020994Y0054927*
X002094Y0054654*
Y0047849*
X0018477Y0045387*
X0018018Y0045577*
X0015447*
Y0042612*
X0018018*
Y0043381*
X0018194*
X0018468Y0043435*
X0018699Y004359*
X0022158Y0047049*
X0022313Y004728*
X0022367Y0047554*
Y0054358*
X0022992Y0054983*
X0023266Y0054949*
X0023342Y005489*
X0023622Y005444*
X00236Y0054331*
X0023662Y0054021*
X0023837Y0053759*
Y0053328*
X0023662Y0053066*
X00236Y0052756*
X0023662Y0052446*
X0023837Y0052184*
Y0051753*
X0023662Y0051491*
X00236Y0051181*
X0023662Y0050871*
X0023837Y0050609*
Y0050178*
X0023662Y0049916*
X00236Y0049606*
X0023662Y0049297*
X0023837Y0049034*
Y0048604*
X0023662Y0048341*
X00236Y0048031*
X0023662Y0047722*
X0023837Y0047459*
Y0047029*
X0023662Y0046766*
X00236Y0046457*
X0023662Y0046147*
X0023837Y0045884*
Y0045454*
X0023662Y0045192*
X00236Y0044882*
X0023662Y0044572*
X0023837Y004431*
Y0043879*
X0023662Y0043617*
X00236Y0043307*
X0023662Y0042997*
X0023696Y0042946*
X0023438Y0042446*
X0021384*
X0021283Y0042597*
X0020886Y0042863*
X0020417Y0042956*
X0019949Y0042863*
X0019552Y0042597*
X0019287Y00422*
X0019194Y0041732*
X0019287Y0041264*
X0019552Y0040867*
X0019949Y0040602*
X0020417Y0040509*
X0020886Y0040602*
X0021283Y0040867*
X0021384Y0041019*
X0024049*
X00241Y0040985*
X0024409Y0040923*
X0027559*
X0027869Y0040985*
X0028131Y004116*
X0028307Y0041423*
X0028368Y0041732*
X0028307Y0042042*
X0028131Y0042305*
Y0042735*
X0028307Y0042997*
X0028368Y0043307*
X0028307Y0043617*
X0028131Y0043879*
Y004431*
X0028307Y0044572*
X0028368Y0044882*
X0028307Y0045192*
X0028131Y0045454*
Y0045884*
X0028307Y0046147*
X0028368Y0046457*
X0028307Y0046766*
X0028131Y0047029*
Y0047459*
X0028307Y0047722*
X0028368Y0048031*
X0028307Y0048341*
X0028131Y0048604*
Y0049034*
X0028307Y0049297*
X0028368Y0049606*
X0028307Y0049916*
X0028131Y0050178*
Y0050609*
X0028307Y0050871*
X0028368Y0051181*
X0028307Y0051491*
X0028131Y0051753*
Y0052184*
X0028307Y0052446*
X0028368Y0052756*
X0028307Y0053066*
X0028131Y0053328*
Y0053759*
X0028307Y0054021*
X0028368Y0054331*
X0028307Y005464*
X0028131Y0054903*
Y0055333*
X0028307Y0055596*
X0028368Y0055905*
X0028307Y0056215*
X0028131Y0056478*
Y0056908*
X0028307Y0057171*
X0028368Y005748*
X0028307Y005779*
X0028272Y0057841*
X002853Y0058341*
X0029349*
X002945Y005819*
X0029847Y0057925*
X0030315Y0057832*
X0030783Y0057925*
X003118Y005819*
X0031445Y0058587*
X0031539Y0059055*
X0031445Y0059523*
X003118Y005992*
X0030783Y0060185*
X0030465Y0060249*
X0030277Y0060664*
X0030268Y0060759*
X0030705Y0061195*
X0030859Y0061427*
X0030914Y00617*
Y0062371*
X0031298Y0062577*
X0031414Y0062585*
X00316Y0062548*
Y00641*
Y0065652*
X0031414Y0065615*
X0031298Y0065623*
X0030914Y0065829*
Y0066*
X0030859Y0066273*
X0030705Y0066505*
X0030256Y0066953*
X0030514Y0067342*
X0030551Y0067366*
X0031Y0067277*
X0031468Y006737*
X0031865Y0067635*
X003213Y0068032*
X0032223Y00685*
X003213Y0068968*
X0031865Y0069365*
X0031468Y006963*
X0031Y0069723*
X0030532Y006963*
X0030135Y0069365*
X002987Y0068968*
X0029776Y00685*
X002987Y0068032*
X0029941Y0067924*
X0029581Y0067564*
X0029544Y0067589*
X0029271Y0067643*
X002853*
X0028272Y0068143*
X0028307Y0068194*
X0028368Y0068504*
X0028307Y0068814*
X0028131Y0069076*
Y0069507*
X0028307Y0069769*
X0028368Y0070079*
X0028307Y0070388*
X0028131Y0070651*
Y0071081*
X0028307Y0071344*
X0028368Y0071653*
X0028307Y0071963*
X0028131Y0072226*
Y0072656*
X0028307Y0072919*
X0028368Y0073228*
X0028307Y0073538*
X0028131Y0073801*
Y0074231*
X0028307Y0074493*
X0028368Y0074803*
X0028307Y0075113*
X0028131Y0075375*
Y0075806*
X0028307Y0076068*
X0028368Y0076378*
X002833Y0076569*
X0028685Y0076806*
X0028764Y0076835*
X0029276Y0076493*
X00295Y0076448*
Y0078*
Y0079552*
X0029276Y0079507*
X0028813Y0079198*
X0028562Y007929*
X0028352Y0079445*
X0028368Y0079527*
X0028307Y0079837*
X0028131Y00801*
X0027869Y0080275*
X0027559Y0080337*
X0024409*
X00241Y0080275*
X0024049Y0080241*
X0023726*
X0022367Y00816*
Y008341*
X0022313Y0083683*
X0022158Y0083914*
X0020922Y008515*
X0020691Y0085305*
X0020417Y0085359*
X0019593*
Y0086325*
G37*
G36*
X00808Y0081257D02*
Y0080105D01*
X0081952*
X0081907Y0080329*
X0081554Y0080858*
X0081024Y0081212*
X00808Y0081257*
G37*
G36*
X008D02*
X0079776Y0081212D01*
X0079246Y0080858*
X0078893Y0080329*
X0078848Y0080105*
X008*
Y0081257*
G37*
G36*
X00303Y0079552D02*
Y00784D01*
X0031452*
X0031407Y0078624*
X0031054Y0079154*
X0030524Y0079507*
X00303Y0079552*
G37*
G36*
X0081952Y0079305D02*
X00808D01*
Y0078153*
X0081024Y0078198*
X0081554Y0078551*
X0081907Y007908*
X0081952Y0079305*
G37*
G36*
X008D02*
X0078848D01*
X0078893Y007908*
X0079246Y0078551*
X0079776Y0078198*
X008Y0078153*
Y0079305*
G37*
G36*
X0016056Y0080309D02*
X0014173D01*
X0012291*
Y0078629*
X0012396*
X0012663Y0078129*
X0012593Y0078024*
X0012548Y00778*
X0015652*
X0015607Y0078024*
X0015537Y0078129*
X0015804Y0078629*
X0016056*
Y0080309*
G37*
G36*
X0031452Y00776D02*
X00303D01*
Y0076448*
X0030524Y0076493*
X0031054Y0076846*
X0031407Y0077376*
X0031452Y00776*
G37*
G36*
X00903Y0071252D02*
Y00701D01*
X0091452*
X0091407Y0070324*
X0091053Y0070854*
X0090524Y0071207*
X00903Y0071252*
G37*
G36*
X0091452Y00693D02*
X00903D01*
Y0068148*
X0090524Y0068193*
X0091053Y0068546*
X0091407Y0069076*
X0091452Y00693*
G37*
G36*
X00117Y00691D02*
X0010548D01*
X0010593Y0068876*
X0010947Y0068347*
X0011476Y0067993*
X00117Y0067948*
Y00691*
G37*
G36*
X00085Y00673D02*
Y0066148D01*
X0009652*
X0009607Y0066372*
X0009253Y0066902*
X0008724Y0067255*
X00085Y00673*
G37*
G36*
X0009652Y0065348D02*
X00085D01*
Y0064196*
X0008724Y0064241*
X0009253Y0064595*
X0009607Y0065124*
X0009652Y0065348*
G37*
G36*
X0049206Y0077375D02*
X0032861D01*
Y0066004*
X00324Y0065686*
Y00641*
Y0062514*
X0032861Y0062196*
Y006103*
X0049206*
Y0077375*
G37*
G36*
X00818Y0059991D02*
Y0058839D01*
X0082952*
X0082907Y0059063*
X0082553Y0059593*
X0082024Y0059946*
X00818Y0059991*
G37*
G36*
X0081D02*
X0080776Y0059946D01*
X0080247Y0059593*
X0079893Y0059063*
X0079848Y0058839*
X0081*
Y0059991*
G37*
G36*
X0010427Y0060642D02*
X0008255D01*
Y0058274*
X0010427*
Y0060642*
G37*
G36*
X0091732Y0060831D02*
X0091108Y0060707D01*
X0090579Y0060353*
X0090225Y0059824*
X0090101Y00592*
X0090225Y0058576*
X0090579Y0058047*
X0091108Y0057693*
X0091732Y0057569*
X0092357Y0057693*
X0092886Y0058047*
X0093239Y0058576*
X0093364Y00592*
X0093239Y0059824*
X0092886Y0060353*
X0092357Y0060707*
X0091732Y0060831*
G37*
G36*
X0082952Y0058039D02*
X00818D01*
Y0056887*
X0082024Y0056932*
X0082553Y0057286*
X0082907Y0057815*
X0082952Y0058039*
G37*
G36*
X0081D02*
X0079848D01*
X0079893Y0057815*
X0080247Y0057286*
X0080776Y0056932*
X0081Y0056887*
Y0058039*
G37*
G36*
X0049206Y006023D02*
X0032861D01*
Y0056465*
X0032572Y005631*
X0032361Y0056244*
X00322Y0056276*
Y0054724*
Y0053173*
X0032361Y0053205*
X0032572Y0053138*
X0032861Y0052984*
Y0043885*
X0049206*
Y006023*
G37*
G36*
X00314Y0056276D02*
X0031176Y0056232D01*
X0030646Y0055878*
X0030293Y0055349*
X0030248Y0055124*
X00314*
Y0056276*
G37*
G36*
X0010427Y0057474D02*
X0008255D01*
Y0055106*
X0010427*
Y0057474*
G37*
G36*
X00314Y0054324D02*
X0030248D01*
X0030293Y00541*
X0030646Y0053571*
X0031176Y0053217*
X00314Y0053173*
Y0054324*
G37*
G36*
X0014561Y005275D02*
X0013137D01*
Y0051326*
X0014561*
Y005275*
G37*
G36*
X00904Y0052252D02*
Y00511D01*
X0091552*
X0091507Y0051324*
X0091154Y0051854*
X0090624Y0052207*
X00904Y0052252*
G37*
G36*
X0091552Y00503D02*
X00904D01*
Y0049148*
X0090624Y0049193*
X0091154Y0049547*
X0091507Y0050076*
X0091552Y00503*
G37*
G36*
X00083Y0049827D02*
Y0048675D01*
X0009452*
X0009407Y0048899*
X0009053Y0049429*
X0008524Y0049782*
X00083Y0049827*
G37*
G36*
X0030807Y0049452D02*
X0030339Y0049359D01*
X0029942Y0049093*
X0029677Y0048697*
X0029584Y0048228*
X0029677Y004776*
X0029942Y0047363*
X0030339Y0047098*
X0030807Y0047005*
X0031275Y0047098*
X0031672Y0047363*
X0031938Y004776*
X0032031Y0048228*
X0031938Y0048697*
X0031672Y0049093*
X0031275Y0049359*
X0030807Y0049452*
G37*
G36*
X0009452Y0047875D02*
X00083D01*
Y0046723*
X0008524Y0046768*
X0009053Y0047122*
X0009407Y0047651*
X0009452Y0047875*
G37*
G36*
X00686Y0054069D02*
X0068132Y0053976D01*
X0067735Y0053711*
X006747Y0053314*
X0067377Y0052846*
X006747Y0052377*
X0067735Y005198*
X0067746Y0051973*
Y0051473*
X0067735Y0051465*
X006747Y0051068*
X0067377Y00506*
X006747Y0050132*
X0067662Y0049843*
X0067706Y0049513*
X0067662Y0049182*
X006747Y0048893*
X0067377Y0048425*
X006747Y0047957*
X0067686Y0047634*
X0067735Y0047371*
Y0047254*
X0067686Y0046992*
X006747Y0046668*
X0067377Y00462*
X006747Y0045732*
X0067735Y0045335*
X0068132Y004507*
X00686Y0044976*
X0069068Y004507*
X0069465Y0045335*
X006973Y0045732*
X0069823Y00462*
X006973Y0046668*
X0069514Y0046992*
X0069465Y0047254*
Y0047371*
X0069514Y0047634*
X006973Y0047957*
X0069823Y0048425*
X006973Y0048893*
X0069538Y0049182*
X0069494Y0049513*
X0069538Y0049843*
X006973Y0050132*
X0069823Y00506*
X006973Y0051068*
X0069465Y0051465*
X0069454Y0051473*
Y0051973*
X0069465Y005198*
X006973Y0052377*
X0069823Y0052846*
X006973Y0053314*
X0069465Y0053711*
X0069068Y0053976*
X00686Y0054069*
G37*
G36*
X0014475Y0045577D02*
X0011903D01*
Y0044808*
X0010809*
X0010708Y004496*
X0010311Y0045225*
X0009843Y0045318*
X0009374Y0045225*
X0008977Y004496*
X0008712Y0044563*
X0008619Y0044094*
X0008712Y0043626*
X0008977Y0043229*
X0009374Y0042964*
X0009843Y0042871*
X0010311Y0042964*
X0010708Y0043229*
X0010809Y0043381*
X0011903*
Y0042612*
X0014475*
Y0045577*
G37*
G36*
X00829Y0042152D02*
Y0041D01*
X0084052*
X0084007Y0041224*
X0083653Y0041754*
X0083124Y0042107*
X00829Y0042152*
G37*
G36*
X00821D02*
X0081876Y0042107D01*
X0081346Y0041754*
X0080993Y0041224*
X0080948Y0041*
X00821*
Y0042152*
G37*
G36*
X0038183Y003972D02*
X0038117Y0039707D01*
X0037722Y0039443*
X0037545Y0039178*
X0037318Y003933*
X0037008Y0039392*
X0036698Y003933*
X0036436Y0039155*
X0036005*
X0035743Y003933*
X0035433Y0039392*
X0035123Y003933*
X0034861Y0039155*
X0034431*
X0034168Y003933*
X0033858Y0039392*
X0033549Y003933*
X0033286Y0039155*
X0032856*
X0032593Y003933*
X0032283Y0039392*
X0031974Y003933*
X0031711Y0039155*
X0031281*
X0031018Y003933*
X0030709Y0039392*
X0030399Y003933*
X0030136Y0039155*
X0029961Y0038892*
X0029899Y0038583*
Y0035433*
X0029961Y0035123*
X0030136Y0034861*
X0030229Y0034799*
X0030125Y0034269*
X0029932Y003423*
X0029535Y0033965*
X002927Y0033568*
X0029177Y00331*
X002919Y0033032*
X002878Y0032532*
X0028098*
Y0031109*
X0029921*
Y0030309*
X0028098*
Y0028885*
X0027704Y0028792*
Y0027172*
X0029724*
Y0026772*
X0030124*
Y0024751*
X0031745*
Y0025151*
X0034888*
Y0026058*
X003622*
X0036494Y0026112*
X0036725Y0026267*
X0037512Y0027054*
X0037667Y0027286*
X0037722Y0027559*
Y0027731*
X0037873Y0027832*
X0038138Y0028229*
X0038231Y0028698*
X0038138Y0029166*
X0037873Y0029563*
X0037476Y0029828*
X0037008Y0029921*
X003654Y0029828*
X0036143Y0029563*
X0035877Y0029166*
X0035784Y0028698*
X0035877Y0028229*
X0036085Y0027919*
X0035851Y0027519*
X0035819Y0027485*
X0034888*
Y0028392*
X0033785*
Y0029285*
X0034495*
Y0029995*
X0035433*
X0035706Y0030049*
X0035938Y0030204*
X0036991Y0031257*
X0037533Y0031092*
X0037593Y0030792*
X0037947Y0030263*
X0038476Y0029909*
X00387Y0029865*
Y0031416*
Y0032968*
X0038476Y0032924*
X0038222Y0032754*
X0037722Y0033021*
Y0033971*
X0037868Y0034097*
X0038183Y0034267*
Y0037008*
Y003972*
G37*
G36*
X0084052Y00402D02*
X00829D01*
Y0039048*
X0083124Y0039093*
X0083653Y0039446*
X0084007Y0039976*
X0084052Y00402*
G37*
G36*
X00821D02*
X0080948D01*
X0080993Y0039976*
X0081346Y0039446*
X0081876Y0039093*
X00821Y0039048*
Y00402*
G37*
G36*
X0073228Y0038631D02*
X0072604Y0038507D01*
X0072075Y0038153*
X0071721Y0037624*
X0071597Y0037*
X0071721Y0036376*
X0072075Y0035846*
X0072604Y0035493*
X0073228Y0035369*
X0073853Y0035493*
X0074382Y0035846*
X0074735Y0036376*
X007486Y0037*
X0074735Y0037624*
X0074382Y0038153*
X0073853Y0038507*
X0073228Y0038631*
G37*
G36*
X00276Y0036052D02*
Y00349D01*
X0028752*
X0028707Y0035124*
X0028354Y0035653*
X0027824Y0036007*
X00276Y0036052*
G37*
G36*
X00268D02*
X0026576Y0036007D01*
X0026046Y0035653*
X0025693Y0035124*
X0025648Y00349*
X00268*
Y0036052*
G37*
G36*
X0028752Y00341D02*
X00276D01*
Y0032948*
X0027824Y0032993*
X0028354Y0033347*
X0028707Y0033876*
X0028752Y00341*
G37*
G36*
X00268D02*
X0025648D01*
X0025693Y0033876*
X0026046Y0033347*
X0026576Y0032993*
X00268Y0032948*
Y00341*
G37*
G36*
X00395Y0032968D02*
Y0031817D01*
X0040652*
X0040607Y0032041*
X0040253Y003257*
X0039724Y0032924*
X00395Y0032968*
G37*
G36*
X0048813Y0031852D02*
X0048588Y0031807D01*
X0048059Y0031453*
X0047705Y0030924*
X0047661Y00307*
X0048813*
Y0031852*
G37*
G36*
X0010418Y0031079D02*
X0010194Y0031035D01*
X0009665Y0030681*
X0009311Y0030152*
X0009266Y0029928*
X0010418*
Y0031079*
G37*
G36*
X0040652Y0031016D02*
X00395D01*
Y0029865*
X0039724Y0029909*
X0040253Y0030263*
X0040607Y0030792*
X0040652Y0031016*
G37*
G36*
X0048813Y00299D02*
X0047661D01*
X0047705Y0029676*
X0048059Y0029147*
X0048588Y0028793*
X0048813Y0028748*
Y00299*
G37*
G36*
X0010418Y0029128D02*
X0009266D01*
X0009311Y0028903*
X0009665Y0028374*
X0010194Y002802*
X0010418Y0027976*
Y0029128*
G37*
G36*
X0029324Y0026372D02*
X0027704D01*
Y0024751*
X0029324*
Y0026372*
G37*
G36*
X0035538Y0020975D02*
Y0016758D01*
X0038724*
Y0017441*
X0038602Y0018369*
X0038244Y0019234*
X0037674Y0019977*
X0036931Y0020547*
X0036066Y0020905*
X0035538Y0020975*
G37*
G36*
X0063687D02*
Y0016758D01*
X0066874*
Y0017441*
X0066752Y0018369*
X0066394Y0019234*
X0065824Y0019977*
X0065081Y0020547*
X0064216Y0020905*
X0063687Y0020975*
G37*
G36*
X0034738D02*
X0034209Y0020905D01*
X0033345Y0020547*
X0032602Y0019977*
X0032032Y0019234*
X0031673Y0018369*
X0031551Y0017441*
Y0016758*
X0034738*
Y0020975*
G37*
G36*
X0062887D02*
X0062359Y0020905D01*
X0061494Y0020547*
X0060751Y0019977*
X0060181Y0019234*
X0059823Y0018369*
X0059701Y0017441*
Y0016758*
X0062887*
Y0020975*
G37*
G36*
X0083077Y0020112D02*
Y0012211D01*
X0090978*
X0090857Y0013438*
X0090382Y0015002*
X0089612Y0016444*
X0088574Y0017708*
X0087311Y0018745*
X0085869Y0019516*
X0084304Y0019991*
X0083077Y0020112*
G37*
G36*
X0016148D02*
Y0012211D01*
X0024049*
X0023928Y0013438*
X0023453Y0015002*
X0022682Y0016444*
X0021645Y0017708*
X0020381Y0018745*
X001894Y0019516*
X0017375Y0019991*
X0016148Y0020112*
G37*
G36*
X0015348D02*
X0014121Y0019991D01*
X0012556Y0019516*
X0011114Y0018745*
X0009851Y0017708*
X0008813Y0016444*
X0008043Y0015002*
X0007568Y0013438*
X0007447Y0012211*
X0015348*
Y0020112*
G37*
G36*
X0062887Y0015958D02*
X0059701D01*
Y0015276*
X0059823Y0014347*
X0060181Y0013482*
X0060751Y001274*
X0061494Y0012169*
X0062359Y0011811*
X0062887Y0011742*
Y0015958*
G37*
G36*
X0066874D02*
X0063687D01*
Y0011742*
X0064216Y0011811*
X0065081Y0012169*
X0065824Y001274*
X0066394Y0013482*
X0066752Y0014347*
X0066874Y0015276*
Y0015958*
G37*
G36*
X0090978Y0011411D02*
X0083077D01*
Y000351*
X0084304Y0003631*
X0085869Y0004106*
X0087311Y0004876*
X0088574Y0005914*
X0089612Y0007177*
X0090382Y0008619*
X0090857Y0010184*
X0090978Y0011411*
G37*
G36*
X0082277D02*
X0074376D01*
X0074497Y0010184*
X0074972Y0008619*
X0075743Y0007177*
X007678Y0005914*
X0078044Y0004876*
X0079485Y0004106*
X008105Y0003631*
X0082277Y000351*
Y0011411*
G37*
G36*
X0024049D02*
X0016148D01*
Y000351*
X0017375Y0003631*
X001894Y0004106*
X0020381Y0004876*
X0021645Y0005914*
X0022682Y0007177*
X0023453Y0008619*
X0023928Y0010184*
X0024049Y0011411*
G37*
G36*
X0015348D02*
X0007447D01*
X0007568Y0010184*
X0008043Y0008619*
X0008813Y0007177*
X0009851Y0005914*
X0011114Y0004876*
X0012556Y0004106*
X0014121Y0003631*
X0015348Y000351*
Y0011411*
G37*
%LNdigit-3*%
%LPD*%
G54D15*
X0049213Y0019862D02*
Y00246D01*
X0051772Y0025372D02*
X00518Y00254D01*
X0051126Y0084197D02*
X0051181Y0084252D01*
X0051126Y0082228D02*
Y0084197D01*
X0063779Y008189D02*
Y0084252D01*
X0055905Y008061D02*
Y0084252D01*
X0066768Y0079632D02*
X0066929Y0079792D01*
X00609Y00779D02*
X0067351D01*
X0055905Y008061D02*
D01*
X0067351Y00779D02*
X0068504Y0079053D01*
X005315Y0079528D02*
X0054331Y0080709D01*
X00636Y00796D02*
X0063852D01*
X0068504Y0079053D02*
Y0084252D01*
X0057874Y0079528D02*
Y0081102D01*
X005748Y0081496D02*
X0057874Y0081102D01*
X0066929Y0079792D02*
Y0084252D01*
X0065354Y0081102D02*
Y0084252D01*
X0059646Y0079154D02*
Y0080807D01*
X0054331Y0080709D02*
Y0084252D01*
X006881Y007721D02*
X0069336D01*
X0061417Y0079528D02*
X0063779Y008189D01*
X0069336Y007721D02*
X0071653Y0079528D01*
X0048425D02*
X0051126Y0082228D01*
X0071653Y0079528D02*
X0073228D01*
X0063852Y00796D02*
X0065354Y0081102D01*
X0059646Y0079154D02*
X00609Y00779D01*
X00686Y0077D02*
X006881Y007721D01*
X0066637Y00795D02*
X0066768Y0079632D01*
X005748Y0081496D02*
Y0084252D01*
X0066637Y00795D02*
X00669D01*
X0051772Y0019862D02*
Y0025372D01*
G54D17*
X0032283Y0094488D03*
Y0091339D03*
X0063287Y002874D03*
Y003189D03*
X0062205Y0094488D03*
Y0091339D03*
X0058661Y0094488D03*
Y0091339D03*
X0059842Y002874D03*
Y003189D03*
G54D19*
X0010827Y0057874D03*
X0017126D03*
G54D23*
X0016732Y0044094D03*
X0013189D03*
G54D29*
X0015157Y0062598D03*
X0018307D03*
X0014961Y005315D03*
X001811D03*
X0015157Y00696D03*
X0018307D03*
X0015157Y0066142D03*
X0018307D03*
X0029921Y0030709D03*
X0033071D03*
G54D48*
X0091732Y00592D03*
X0073228Y0037D03*
G54D51*
X0065327Y0006496D02*
X0071063Y0012232D01*
Y0017126*
X0007185Y007815D02*
Y0085925D01*
X0004429Y0075394D02*
X0007185Y007815D01*
X0004429Y0039643D02*
Y0075394D01*
X0007185Y0085925D02*
X0025787Y0104528D01*
X0032972*
X003295Y0011122D02*
X003733D01*
X0040059Y0008393*
X0004429Y0039643D02*
X003295Y0011122D01*
X0032972Y0104528D02*
X0033982Y0103518D01*
Y0102435D02*
Y0103518D01*
Y0102435D02*
X0034055Y0102362D01*
X00059Y00406D02*
Y0074741D01*
X0008718Y0077559*
Y0085318*
X0025762Y0102362*
X0042717Y0014764D02*
X0052854D01*
X0052953Y0014862*
X004124Y001624D02*
X0042717Y0014764D01*
X004124Y001624D02*
Y0019291D01*
X0038083Y0022448D02*
X004124Y0019291D01*
X0024052Y0022448D02*
X0038083D01*
X00375Y0008366D02*
X003937Y0006496D01*
X0065327*
X00059Y00406D02*
X0024052Y0022448D01*
X0071063Y0017126D02*
X00875Y0033563D01*
Y0091142*
X0054232Y0089272D02*
X0056624D01*
X0059055Y008684*
X00354Y00887D02*
X0035433Y0088667D01*
X0030709Y0084252D02*
Y0086491D01*
X00301Y00871D02*
X0030709Y0086491D01*
X0029853Y0077953D02*
X00299Y0078D01*
X0025984Y0077953D02*
X0029853D01*
X0022321Y0070079D02*
X0025984D01*
X0038583Y0031934D02*
Y0037008D01*
Y0031934D02*
X00391Y0031416D01*
X00209Y00737D02*
X0021053Y0073547D01*
X00209Y00715D02*
X0022321Y0070079D01*
X0021748Y0073547D02*
X0023635Y007166D01*
X0025978*
X0025984Y0071653*
X00273Y00871D02*
X00301D01*
X0059055Y0084252D02*
Y008684D01*
X0021053Y0073547D02*
X0021748D01*
X0035433Y0084252D02*
Y0088667D01*
X0032283Y0094488D02*
X00353D01*
X00272Y00321D02*
Y00345D01*
Y00321D02*
X0028184Y0031116D01*
X0029514*
X0029921Y0030709*
X0029724Y0030512D02*
X0029921Y0030709D01*
X0029724Y0026772D02*
Y0030512D01*
X0063287Y0026D02*
Y002874D01*
X00598Y0026D02*
Y0028698D01*
X0059842Y002874*
X0050772D02*
X0052756D01*
X0049213Y00303D02*
X0050772Y002874D01*
X0062205Y0094488D02*
Y00983D01*
X0058661Y0094488D02*
Y0098155D01*
X0065748Y0094488D02*
Y0098148D01*
X0010827Y0057874D02*
Y0058071D01*
X0012198Y0059443*
X0012395*
X0014534Y0061581*
Y0061975*
X0015157Y0062598*
Y0066142*
Y00696*
X00121Y00695D02*
X00122Y00696D01*
X0015157*
X0014028Y0077328D02*
X00141Y00774D01*
X0014028Y00736D02*
Y0077328D01*
X00141Y00774D02*
X0014173Y0077473D01*
Y0080709*
X00141Y00879D02*
X0014173Y0087827D01*
Y0084646D02*
Y0087827D01*
X0025762Y0102362D02*
X0031462D01*
X0058487Y0030564D02*
X0058517D01*
X0058019Y0030095D02*
X0058487Y0030564D01*
X0058019Y0030066D02*
Y0030095D01*
X0056693Y002874D02*
X0058019Y0030066D01*
X0056299Y002874D02*
X0056693D01*
X0056299Y0026001D02*
X00563Y0026D01*
X0056299Y0026001D02*
Y002874D01*
X0058517Y0030564D02*
X0059842Y003189D01*
G54D52*
X0052756Y0040193D02*
X0054295Y0041732D01*
X0052756Y0037008D02*
Y0040193D01*
X0054295Y0037044D02*
X0054331Y0037008D01*
X0048819Y0041732D02*
X0049606Y0040945D01*
X0051181D02*
X0051968Y0041732D01*
X0051181Y0037008D02*
Y0040945D01*
X0049606Y0037008D02*
Y0040945D01*
X0020417Y0041732D02*
X0025984D01*
X0009843Y0044094D02*
X0013189D01*
X00461Y00794D02*
X0046169D01*
X0047638Y0082028D02*
X0048031Y0082421D01*
X004626Y0080905D02*
X0047382Y0082028D01*
X0045206Y0080905D02*
X004626D01*
X0050787Y0079528D02*
X0052756Y0081496D01*
X00221Y00667D02*
X0022221D01*
X0029271Y0066929D02*
X00302Y0066D01*
X0047796Y0081028D02*
X0048582D01*
X0030315Y0059055D02*
D01*
X0046169Y00794D02*
X0047796Y0081028D01*
X0025984Y0059055D02*
X0030315D01*
X0032248Y0036972D02*
X0032283Y0037008D01*
X0032248Y0034948D02*
Y0036972D01*
X0033Y00331D02*
X0033858Y0033958D01*
X00302Y00617D02*
Y0066D01*
X0035433Y0033133D02*
Y0037008D01*
X002913Y006063D02*
X00302Y00617D01*
X00354Y00331D02*
X0035433Y0033133D01*
X0063779Y0037008D02*
Y0039764D01*
X0065748D02*
Y0041339D01*
X0065354Y003937D02*
X0065748Y0039764D01*
X0023567Y0065354D02*
X0025984D01*
X00221Y00647D02*
X002302Y0063779D01*
X0048031Y0082421D02*
Y0084252D01*
X0063348Y0040195D02*
X0063779Y0039764D01*
X0049604Y008425D02*
X0049606Y0084252D01*
X0049604Y008205D02*
Y008425D01*
X0063348Y0040195D02*
Y0041278D01*
X002302Y0063779D02*
X0025984D01*
X0065354Y0037008D02*
Y003937D01*
X0025984Y006063D02*
X002913D01*
X0033858Y0033958D02*
Y0037008D01*
X0052756Y0081496D02*
Y0084252D01*
X0022221Y00667D02*
X0023567Y0065354D01*
X0047382Y0082028D02*
X0047638D01*
X0048582Y0081028D02*
X0049604Y008205D01*
X00437Y00794D02*
X0045206Y0080905D01*
X0063287Y0041339D02*
X0063348Y0041278D01*
X00304Y00331D02*
X0032248Y0034948D01*
X0025984Y0066929D02*
X0029271D01*
X0058661Y0089764D02*
X006063Y0087795D01*
Y0084252D02*
Y0087795D01*
X00562Y00925D02*
X0057089Y0091611D01*
X00562Y00925D02*
Y00981D01*
X0057089Y0091611D02*
X0058389D01*
X0037008Y0027559D02*
Y0028698D01*
X003622Y0026772D02*
X0037008Y0027559D01*
X0033268Y0026772D02*
X003622D01*
X0033071Y0026969D02*
X0033268Y0026772D01*
X0033071Y0026969D02*
Y0030709D01*
X0018307Y0066142D02*
Y00696D01*
X0017572Y00736D02*
Y0077328D01*
X0058389Y0091611D02*
X0058661Y0091339D01*
X0020079Y0080517D02*
X00217Y0078896D01*
Y007515D02*
Y0078896D01*
Y007515D02*
X0023622Y0073228D01*
X0017572Y00736D02*
X0018307Y0072865D01*
Y00696D02*
Y0072865D01*
X0018407Y00695D02*
X002126D01*
X0018307Y00696D02*
X0018407Y00695D01*
X002126D02*
X0022256Y0068504D01*
X0025984*
X0021974Y0057874D02*
X0022037Y0057937D01*
X0017126Y0057874D02*
X0021974D01*
X0063287Y003189D02*
X006639D01*
X0017691Y0060391D02*
X0018307Y0061007D01*
Y0062598*
X0017691Y0058439D02*
Y0060391D01*
X0017126Y0057874D02*
X0017691Y0058439D01*
X00173Y00554D02*
Y00577D01*
X0017126Y0057874D02*
X00173Y00577D01*
Y00554D02*
X0017978Y0054722D01*
Y0053282D02*
Y0054722D01*
Y0053282D02*
X001811Y005315D01*
X0016732Y0044094D02*
X0018194D01*
X0021654Y0047554*
Y0054654*
X0022906Y0055905*
X0025984*
X0018606Y00623D02*
X0020079D01*
X0018307Y0062598D02*
X0018606Y00623D01*
X0020079D02*
X0021749Y006063D01*
X0025984*
X0021995Y0062205D02*
X0025984D01*
X00206Y00636D02*
X0021995Y0062205D01*
X00206Y00636D02*
Y006528D01*
X0019738Y0066142D02*
X00206Y006528D01*
X0018307Y0066142D02*
X0019738D01*
X0059055Y0034646D02*
Y0037008D01*
Y0034646D02*
X0059842Y0033858D01*
X0061319*
X0063287Y003189*
X005748Y0034252D02*
Y0037008D01*
Y0034252D02*
X0059842Y003189D01*
X0056299D02*
Y0033858D01*
Y003189D02*
D01*
X0055905Y0034252D02*
X0056299Y0033858D01*
X0055905Y0034252D02*
Y0037008D01*
X0052756Y003189D02*
Y0033465D01*
Y003189D02*
D01*
Y0033465D02*
X0054295Y0035004D01*
Y0036972*
X0054331Y0037008*
X0033071Y0030709D02*
X0035433D01*
X0037008Y0032283*
Y0037008*
X0021654Y0081305D02*
Y008341D01*
X0020417Y0084646D02*
X0021654Y008341D01*
X001811Y0084646D02*
X0020417D01*
X0021654Y0081305D02*
X0023431Y0079527D01*
X0025984*
X0018302Y0080517D02*
X0020079D01*
X001811Y0080709D02*
X0018302Y0080517D01*
X0023622Y0073228D02*
X0025984D01*
X0032283Y0084252D02*
Y0091339D01*
X0062205D02*
X0065748D01*
X0062205D02*
D01*
D01*
Y0084252D02*
Y0091339D01*
X0058661Y0089764D02*
Y0091339D01*
G54D53*
X00686Y0024998D02*
Y0025197D01*
X0066929Y0023327D02*
X00686Y0024998D01*
X0055247Y0023327D02*
X0066929D01*
X0054368Y0022448D02*
X0055247Y0023327D01*
X0054368Y00199D02*
Y0022448D01*
X0054331Y0019862D02*
X0054368Y00199D01*
G54D54*
X00678Y00648D02*
X00682Y00644D01*
Y00627D02*
Y00644D01*
X00678Y00648D02*
Y00686D01*
G54D55*
X0068504Y0084252D02*
D01*
G54D56*
X0063287Y0016358D03*
X0035138D03*
G54D57*
X0049213Y0105118D03*
X0015748Y0011811D03*
X0082677D03*
G54D58*
X0010818Y0029528D03*
X0012992Y0027953D03*
X0048819Y0041732D03*
X0051968D03*
X0054295D03*
X0020417D03*
X001437Y0022047D03*
X0012992Y0024016D03*
X001437Y0025984D03*
X0049213Y00246D03*
X0075295Y0017815D03*
X0034055Y0102362D03*
X00375Y0008366D03*
X0040059Y0008393D03*
X0052953Y0014862D03*
X0050295Y0089272D03*
X0009843Y0044094D03*
X00518Y00254D03*
X0054232Y0089272D03*
X005315Y0079528D03*
X00209Y00715D03*
X00299Y0078D03*
X00669Y00795D03*
X0050787Y0079528D03*
X00437Y00794D03*
X00354Y00331D03*
X0061417Y0079528D03*
X00221Y00667D03*
X0030315Y0059055D03*
X0033Y00331D03*
X0048425Y0079528D03*
X0063287Y0041339D03*
X00391Y0031416D03*
X0059646Y0080807D03*
X00686Y0077D03*
X00354Y00887D03*
X00636Y00796D03*
X00273Y00871D03*
X00221Y00647D03*
X00304Y00331D03*
X0057874Y0079528D03*
X0065748Y0041339D03*
X0055905Y008061D03*
X00209Y00737D03*
X00461Y00794D03*
X005605Y0078524D03*
X005689Y0042323D03*
X0037008Y0028698D03*
X0030807Y0048228D03*
X0017572Y0077328D03*
X00562Y00981D03*
X00683Y0091D03*
X00353Y0094488D03*
X0032283Y00973D03*
X00108Y00949D03*
X0062205Y00983D03*
X0058661Y0098155D03*
X0065748Y0098148D03*
X00081Y0065748D03*
X00079Y0048275D03*
X00155Y00986D03*
X00748Y00991D03*
X00715Y00869D03*
X00814Y0058439D03*
X00804Y0079705D03*
X00899Y00697D03*
X009Y00507D03*
X00825Y00406D03*
X0049213Y00303D03*
X0063287Y0026D03*
X00598D03*
X00272Y00345D03*
X00121Y00695D03*
X00141Y00774D03*
Y00879D03*
X0031462Y0102362D03*
X00875Y0091142D03*
X0032Y00641D03*
X00318Y0054724D03*
X0022037Y0057937D03*
X006639Y003189D03*
X00563Y0026D03*
X00682Y00627D03*
X00678Y00686D03*
X00686Y00462D03*
Y0048425D03*
Y00506D03*
Y0052846D03*
X00678Y00712D03*
X0031Y00685D03*
G54D59*
X00686Y0025197D03*
G54D60*
X0049606Y006063D03*
G54D61*
X0068504Y0084252D03*
X0066929D03*
X0065354D03*
X0063779D03*
X0062205D03*
X006063D03*
X0059055D03*
X005748D03*
X0055905D03*
X0054331D03*
X0052756D03*
X0051181D03*
X0049606D03*
X0048031D03*
X0046457D03*
X0044882D03*
X0043307D03*
X0041732D03*
X0040157D03*
X0038583D03*
X0037008D03*
X0035433D03*
X0033858D03*
X0032283D03*
X0030709D03*
Y0037008D03*
X0032283D03*
X0033858D03*
X0035433D03*
X0037008D03*
X0038583D03*
X0040157D03*
X0041732D03*
X0043307D03*
X0044882D03*
X0046457D03*
X0048031D03*
X0049606D03*
X0051181D03*
X0052756D03*
X0054331D03*
X0055905D03*
X005748D03*
X0059055D03*
X006063D03*
X0062205D03*
X0063779D03*
X0065354D03*
X0066929D03*
X0068504D03*
G54D62*
X0025984Y0079527D03*
Y0077953D03*
Y0076378D03*
Y0074803D03*
Y0073228D03*
Y0071653D03*
Y0070079D03*
Y0068504D03*
Y0066929D03*
Y0065354D03*
Y0063779D03*
Y0062205D03*
Y006063D03*
Y0059055D03*
Y005748D03*
Y0055905D03*
Y0054331D03*
Y0052756D03*
Y0051181D03*
Y0049606D03*
Y0048031D03*
Y0046457D03*
Y0044882D03*
Y0043307D03*
Y0041732D03*
X0073228D03*
Y0043307D03*
Y0044882D03*
Y0046457D03*
Y0048031D03*
Y0049606D03*
Y0051181D03*
Y0052756D03*
Y0054331D03*
Y0055905D03*
Y005748D03*
Y0059055D03*
Y006063D03*
Y0062205D03*
Y0063779D03*
Y0065354D03*
Y0066929D03*
Y0068504D03*
Y0070079D03*
Y0071653D03*
Y0073228D03*
Y0074803D03*
Y0076378D03*
Y0077953D03*
G54D63*
X0073228Y0079528D03*
G54D64*
X0052756Y002874D03*
Y003189D03*
X0056299D03*
Y002874D03*
X0065748Y0091339D03*
Y0094488D03*
G54D65*
X0014173Y0084646D03*
X001811D03*
X0014173Y0080709D03*
X001811D03*
G54D66*
X0054331Y0019862D03*
X0051772D03*
X0049213D03*
X0046654D03*
X0044094D03*
G54D67*
X0014028Y00736D03*
X0017572D03*
X0029724Y0026772D03*
X0033268D03*
M02*