%FSTAX25Y25*%
%MOIN*%
%SFA1B1*%

%IPPOS*%
%AMD16*
4,1,8,-0.030000,0.007500,-0.030000,-0.007500,-0.022500,-0.015000,0.022500,-0.015000,0.030000,-0.007500,0.030000,0.007500,0.022500,0.015000,-0.022500,0.015000,-0.030000,0.007500,0.0*
1,1,0.015000,-0.022500,0.007500*
1,1,0.015000,-0.022500,-0.007500*
1,1,0.015000,0.022500,-0.007500*
1,1,0.015000,0.022500,0.007500*
%
%ADD15C,0.005000*%
G04~CAMADD=16~8~0.0~0.0~300.0~600.0~75.0~0.0~15~0.0~0.0~0.0~0.0~0~0.0~0.0~0.0~0.0~0~0.0~0.0~0.0~90.0~600.0~300.0*
%ADD16D16*%
%ADD17R,0.020470X0.020470*%
%ADD18R,0.039370X0.035430*%
%ADD19R,0.035430X0.039370*%
%ADD20R,0.031500X0.035430*%
%ADD21R,0.051180X0.027560*%
%ADD22C,0.009000*%
%ADD23R,0.017720X0.021650*%
%ADD24R,0.025590X0.021650*%
%ADD25R,0.021650X0.017720*%
%ADD26R,0.017720X0.011810*%
%ADD27R,0.014960X0.043310*%
%ADD28R,0.009060X0.028740*%
%ADD29R,0.020470X0.020470*%
%ADD30R,0.028350X0.028350*%
%ADD48C,0.024000*%
%ADD51C,0.008000*%
%ADD52C,0.006000*%
%ADD53C,0.015000*%
%ADD54C,0.007000*%
%ADD55C,0.004000*%
%ADD56O,0.055120X0.076770*%
%ADD57C,0.150000*%
%ADD58C,0.016000*%
%ADD59C,0.031000*%
%LNdigit-1*%
%LPD*%
G36*
X0053572Y0117909D02*
X0057894Y0117306D01*
X0062142Y0116306*
X0066279Y011492*
X0070271Y0113157*
X0074083Y0111034*
X0077684Y0108568*
X0081041Y010578*
X0084126Y0102694*
X0086914Y0099337*
X008938Y0095737*
X0091504Y0091925*
X0093266Y0087932*
X0094653Y0083795*
X0095652Y0079547*
X0096255Y0075225*
X0096457Y0070866*
Y0013779*
X0096217Y0011045*
X0095507Y0008393*
X0094347Y0005905*
X0092772Y0003657*
X0090831Y0001716*
X0088583Y0000141*
X0086095Y-0001019*
X0083443Y-0001729*
X0080709Y-0001969*
X0017716*
X0014982Y-0001729*
X001233Y-0001019*
X0009842Y0000141*
X0007594Y0001716*
X0005653Y0003657*
X0004078Y0005905*
X0002918Y0008393*
X0002208Y0011045*
X0001968Y0013779*
Y0070866*
X000217Y0075225*
X0002773Y0079547*
X0003772Y0083795*
X0005159Y0087932*
X0006921Y0091925*
X0009045Y0095737*
X0011511Y0099337*
X0014299Y0102694*
X0017384Y010578*
X0020742Y0108568*
X0024342Y0111034*
X0028154Y0113157*
X0032146Y011492*
X0036284Y0116306*
X0040531Y0117306*
X0044853Y0117909*
X0049213Y011811*
X0053572Y0117909*
G37*
%LNdigit-2*%
%LPC*%
G36*
X0049613Y0113419D02*
Y0105518D01*
X0057513*
X0057392Y0106745*
X0056918Y010831*
X0056147Y0109751*
X005511Y0111015*
X0053846Y0112053*
X0052404Y0112823*
X005084Y0113298*
X0049613Y0113419*
G37*
G36*
X0048812D02*
X0047585Y0113298D01*
X0046021Y0112823*
X0044579Y0112053*
X0043315Y0111015*
X0042278Y0109751*
X0041507Y010831*
X0041033Y0106745*
X0040912Y0105518*
X0048812*
Y0113419*
G37*
G36*
X0025498Y0103845D02*
X0022927D01*
Y0103076*
X00224*
X0022127Y0103022*
X0021895Y0102867*
X0020295Y0101267*
X0020141Y0101035*
X0020086Y0100762*
Y0096272*
X0019002*
Y0094882*
X0018602*
Y0094482*
X0016917*
Y0093677*
X0016417Y0093648*
X0015853Y0094212*
Y0096365*
X0012494*
Y0095596*
X0011778*
X0011665Y0095765*
X0011268Y009603*
X00108Y0096123*
X0010332Y009603*
X0009935Y0095765*
X000967Y0095368*
X0009577Y00949*
X000967Y0094432*
X0009935Y0094035*
X0010332Y009377*
X00108Y0093677*
X0011268Y009377*
X0011665Y0094035*
X0011754Y0094168*
X0012494*
Y0093399*
X0014261*
X0014308Y0093328*
X0014041Y0092828*
X0012094*
Y0091345*
X0014173*
X0016253*
Y00922*
X0017316*
Y0089954*
X0019888*
Y0090231*
X0020145*
X0020418Y0090285*
X002065Y009044*
X0021305Y0091095*
X0021459Y0091327*
X0021514Y00916*
Y0100467*
X0022427Y010138*
X0022927Y0101172*
Y010088*
X0025498*
Y0103845*
G37*
G36*
X0029042D02*
X002647D01*
Y010088*
X0029042*
Y0101597*
X003053*
X0030597Y0101497*
X0030994Y0101232*
X0031462Y0101139*
X003193Y0101232*
X0032327Y0101497*
X0032355Y0101538*
X0032917Y0101549*
X0033115Y0101274*
X0033026Y0101012*
X0031598Y0099584*
X0029042*
Y0100302*
X002647*
Y0097336*
X0029042*
Y0098054*
X0030789*
X0031111Y0097554*
X003106Y00973*
X0031095Y0097121*
X0030485Y0096511*
X0030026Y0096365*
X0026667*
Y0094212*
X0026082Y0093627*
X0025203*
Y0095872*
X0024754*
X0024682Y0096372*
X0024905Y0096595*
X0025059Y0096827*
X0025114Y00971*
Y0097336*
X0025498*
Y0100302*
X0022927*
Y0097336*
X0022954*
X0023223Y0096943*
X0023247Y0096836*
X0023204Y0096617*
Y0095872*
X0022632*
Y0092335*
X0022231*
Y0091345*
X0023917*
X0025603*
Y00922*
X0026267*
Y0091345*
X0028346*
X0030426*
Y0092828*
X0028479*
X0028211Y0093328*
X0028259Y0093399*
X0030026*
Y0094477*
X0030174*
X0030448Y0094532*
X0030679Y0094686*
X0032105Y0096112*
X0032283Y0096077*
X0032752Y009617*
X0033149Y0096435*
X0033414Y0096832*
X0033507Y00973*
X0033414Y0097768*
X0033149Y0098165*
X0033089Y0098205*
X0033025Y0098847*
X0034596Y0100418*
X0034762Y0100666*
X003482Y0100959*
Y010143*
X003492Y0101497*
X0035186Y0101894*
X0035279Y0102362*
X0035186Y010283*
X003492Y0103227*
X0034523Y0103493*
X0034055Y0103586*
X0033587Y0103493*
X003319Y0103227*
X0033037Y0102998*
X0033018Y010299*
X00325*
X0032481Y0102998*
X0032327Y0103227*
X003193Y0103493*
X0031462Y0103586*
X0030994Y0103493*
X0030597Y0103227*
X003053Y0103127*
X0029042*
Y0103845*
G37*
G36*
X00752Y0100652D02*
Y00995D01*
X0076352*
X0076307Y0099724*
X0075954Y0100253*
X0075424Y0100607*
X00752Y0100652*
G37*
G36*
X00744D02*
X0074176Y0100607D01*
X0073646Y0100253*
X0073293Y0099724*
X0073248Y00995*
X00744*
Y0100652*
G37*
G36*
X00159Y0100152D02*
Y0099D01*
X0017052*
X0017007Y0099224*
X0016654Y0099753*
X0016124Y0100107*
X00159Y0100152*
G37*
G36*
X00151D02*
X0014876Y0100107D01*
X0014346Y0099753*
X0013993Y0099224*
X0013948Y0099*
X00151*
Y0100152*
G37*
G36*
X0061805Y0099852D02*
X006158Y0099807D01*
X0061051Y0099454*
X0060698Y0098924*
X0060674Y0098804*
X0060214Y0098782*
X0060161Y0098791*
X0059815Y0099309*
X0059286Y0099662*
X0059061Y0099707*
Y0098155*
Y0096603*
X0059286Y0096648*
X0059815Y0097002*
X0060169Y0097531*
X0060193Y0097651*
X0060653Y0097673*
X0060705Y0097665*
X0061051Y0097146*
X006158Y0096793*
X0061805Y0096748*
Y00983*
Y0099852*
G37*
G36*
X0062605D02*
Y00987D01*
X0063757*
X0063712Y0098924*
X0063358Y0099454*
X0062829Y0099807*
X0062605Y0099852*
G37*
G36*
X0076352Y00987D02*
X00752D01*
Y0097548*
X0075424Y0097593*
X0075954Y0097947*
X0076307Y0098476*
X0076352Y00987*
G37*
G36*
X00744D02*
X0073248D01*
X0073293Y0098476*
X0073646Y0097947*
X0074176Y0097593*
X00744Y0097548*
Y00987*
G37*
G36*
X0017052Y00982D02*
X00159D01*
Y0097048*
X0016124Y0097093*
X0016654Y0097447*
X0017007Y0097976*
X0017052Y00982*
G37*
G36*
X00151D02*
X0013948D01*
X0013993Y0097976*
X0014346Y0097447*
X0014876Y0097093*
X00151Y0097048*
Y00982*
G37*
G36*
X0065748Y0099372D02*
X006528Y0099278D01*
X0064883Y0099013*
X0064618Y0098616*
X0064525Y0098148*
X0064618Y009768*
X0064883Y0097283*
X006528Y0097018*
X0065748Y0096925*
X0066216Y0097018*
X0066613Y0097283*
X0066878Y009768*
X0066972Y0098148*
X0066878Y0098616*
X0066613Y0099013*
X0066216Y0099278*
X0065748Y0099372*
G37*
G36*
X0048812Y0104718D02*
X0040912D01*
X0041033Y0103491*
X0041507Y0101926*
X0042278Y0100484*
X0043315Y0099221*
X0044579Y0098183*
X0046021Y0097413*
X0047585Y0096938*
X0048812Y0096817*
Y0104718*
G37*
G36*
X0063757Y00979D02*
X0062605D01*
Y0096748*
X0062829Y0096793*
X0063358Y0097146*
X0063712Y0097676*
X0063757Y00979*
G37*
G36*
X0057513Y0104718D02*
X0049613D01*
Y0096817*
X005084Y0096938*
X0052404Y0097413*
X0053846Y0098183*
X0054559Y0098769*
X0055033Y0098575*
X0055063Y0098535*
X0054976Y00981*
X005507Y0097632*
X0055335Y0097235*
X0055732Y009697*
X00562Y0096877*
X0056668Y009697*
X0056848Y009709*
X0057486Y0097034*
X0057508Y0097002*
X0058037Y0096648*
X0058261Y0096603*
Y0098155*
Y0099707*
X0058037Y0099662*
X0057508Y0099309*
X005745Y0099221*
X0056797Y0099144*
X0056668Y009923*
X00562Y0099323*
X0055771Y0099238*
X0055733Y0099269*
X0055571Y0099782*
X0056147Y0100484*
X0056918Y0101926*
X0057392Y0103491*
X0057513Y0104718*
G37*
G36*
X0085735Y0095971D02*
X0082769D01*
Y0095596*
X0081896*
Y0095872*
X0079324*
Y0093891*
Y0089954*
X0081896*
Y0094168*
X0082769*
Y0093399*
X0085735*
Y0095971*
G37*
G36*
X0018202Y0096272D02*
X0016917D01*
Y0095282*
X0018202*
Y0096272*
G37*
G36*
X007086Y0096765D02*
X006918D01*
Y0095282*
X007086*
Y0096765*
G37*
G36*
X0075695Y0096272D02*
Y0095282D01*
X0076981*
Y0096272*
X0075695*
G37*
G36*
X00357Y009604D02*
Y0094888D01*
X0036852*
X0036807Y0095113*
X0036454Y0095642*
X0035924Y0095995*
X00357Y009604*
G37*
G36*
X00349D02*
X0034676Y0095995D01*
X0034146Y0095642*
X0033793Y0095113*
X0033748Y0094888*
X00349*
Y009604*
G37*
G36*
X0036852Y0094088D02*
X00357D01*
Y0092936*
X0035924Y0092981*
X0036454Y0093335*
X0036807Y0093864*
X0036852Y0094088*
G37*
G36*
X00349D02*
X0033748D01*
X0033793Y0093864*
X0034146Y0093335*
X0034676Y0092981*
X00349Y0092936*
Y0094088*
G37*
G36*
X0073339Y0096765D02*
X007166D01*
Y0094882*
X007126*
Y0094482*
X006918*
Y0092999*
X0071128*
X0071395Y0092499*
X0071347Y0092427*
X006958*
Y0092143*
X0069393Y0092018*
X006908Y0091922*
X0068768Y009213*
X00683Y0092224*
X0067832Y009213*
X0067435Y0091865*
X006717Y0091468*
X0067076Y0091*
X006717Y0090532*
X0067435Y0090135*
X0067832Y008987*
X00683Y0089776*
X0068768Y008987*
X006908Y0090078*
X0069393Y0089982*
X006958Y0089857*
Y0089462*
X0072939*
Y0091615*
X007351Y0092185*
X007401Y0092165*
Y0089954*
X0076581*
Y0093491*
X0076981*
Y0094482*
X0075295*
Y0094882*
X0074895*
Y0096272*
X007361*
X0073339Y0096661*
Y0096765*
G37*
G36*
X0085735Y0092427D02*
X0082769D01*
Y0089856*
X0085735*
Y0090326*
X0086602*
X0086635Y0090277*
X0087032Y0090011*
X00875Y0089918*
X0087968Y0090011*
X0088365Y0090277*
X008863Y0090674*
X0088723Y0091142*
X008863Y009161*
X0088365Y0092007*
X0087968Y0092272*
X00875Y0092365*
X0087032Y0092272*
X0086635Y0092007*
X0086602Y0091957*
X0085735*
Y0092427*
G37*
G36*
X0054632Y0090823D02*
Y0089672D01*
X0055784*
X0055739Y0089896*
X0055386Y0090425*
X0054857Y0090779*
X0054632Y0090823*
G37*
G36*
X0053832D02*
X0053608Y0090779D01*
X0053079Y0090425*
X0052725Y0089896*
X005268Y0089672*
X0053832*
Y0090823*
G37*
G36*
X0025603Y0090545D02*
X0024317D01*
Y0089554*
X0025603*
Y0090545*
G37*
G36*
X0023517D02*
X0022231D01*
Y0089554*
X0023517*
Y0090545*
G37*
G36*
X00358Y0090252D02*
Y00891D01*
X0036952*
X0036907Y0089324*
X0036553Y0089854*
X0036024Y0090207*
X00358Y0090252*
G37*
G36*
X0035D02*
X0034776Y0090207D01*
X0034247Y0089854*
X0033893Y0089324*
X0033848Y00891*
X0035*
Y0090252*
G37*
G36*
X0016253Y0090545D02*
X0014173D01*
X0012094*
Y0089062*
X0012351*
X0012618Y0088562*
X0012593Y0088524*
X0012548Y00883*
X0015652*
X0015607Y0088524*
X0015582Y0088562*
X0015849Y0089062*
X0016253*
Y0090545*
G37*
G36*
X0030426D02*
X0028346D01*
X0026267*
Y0089062*
X0026525*
X0026601Y0088832*
X0026608Y0088562*
X0026147Y0088253*
X0025793Y0087724*
X0025748Y00875*
X0028852*
X0028807Y0087724*
X0028453Y0088253*
X0027992Y0088562*
X0027999Y0088832*
X0028075Y0089062*
X0030426*
Y0090545*
G37*
G36*
X00719Y0088452D02*
Y00873D01*
X0073052*
X0073007Y0087524*
X0072654Y0088054*
X0072124Y0088407*
X00719Y0088452*
G37*
G36*
X00711D02*
X0070876Y0088407D01*
X0070346Y0088054*
X0069993Y0087524*
X0069948Y00873*
X00711*
Y0088452*
G37*
G36*
X0036952Y00883D02*
X00358D01*
Y0087148*
X0036024Y0087193*
X0036553Y0087546*
X0036907Y0088076*
X0036952Y00883*
G37*
G36*
X0035D02*
X0033848D01*
X0033893Y0088076*
X0034247Y0087546*
X0034776Y0087193*
X0035Y0087148*
Y00883*
G37*
G36*
X0068753Y0088438D02*
X0067329D01*
Y0087014*
X0068753*
Y0088438*
G37*
G36*
X0062986D02*
X0061562D01*
Y0087014*
X0062986*
Y0088438*
G37*
G36*
X0015652Y00875D02*
X00145D01*
Y0086348*
X0014724Y0086393*
X0015254Y0086747*
X0015607Y0087276*
X0015652Y00875*
G37*
G36*
X00137D02*
X0012548D01*
X0012593Y0087276*
X0012946Y0086747*
X0013476Y0086393*
X00137Y0086348*
Y00875*
G37*
G36*
X0066529Y0088438D02*
X0063786D01*
Y0086614*
X0063386*
Y0086214*
X0061493*
X0061062Y0085948*
X0060931Y0086013*
Y0087506*
X0056588*
Y0082769*
X0060931*
Y0083291*
X0061431Y0083459*
X0061561Y0083373*
X0061834Y0083319*
X0061962*
Y0082041*
X006481*
Y0082751*
X0065505*
Y0082041*
X0065372Y0081581*
X0064895Y0081105*
X0064744Y0080879*
X006474Y0080873*
X0064213Y0080639*
X0064203Y008064*
X0064068Y008073*
X00636Y0080823*
X0063132Y008073*
X0062735Y0080465*
X0062687Y0080393*
X0062283*
X0061885Y0080658*
X0061417Y0080751*
X0061354Y0080738*
X0060904Y0080802*
X0060811Y0081101*
X0060776Y0081275*
X0060511Y0081672*
X0060114Y0081937*
X0059646Y0082031*
X0059177Y0081937*
X005878Y0081672*
X0058515Y0081275*
X0058481Y0081101*
X0058387Y0080802*
X0057938Y0080738*
X0057874Y0080751*
X0057583Y0080693*
X0057403Y008066*
X0057047Y008102*
X0057036Y0081078*
X0056771Y0081475*
X0056374Y0081741*
X0055905Y0081834*
X0055437Y0081741*
X005504Y0081475*
X0054775Y0081078*
X0054682Y008061*
X0054775Y0080142*
X0054756Y0080115*
X0054666Y0080093*
X0054172Y0080158*
X0054015Y0080393*
X0053618Y0080658*
X005315Y0080751*
X0052681Y0080658*
X0052284Y0080393*
X0052269Y008037*
X0051668*
X0051652Y0080393*
X0051256Y0080658*
X0050787Y0080751*
X0050319Y0080658*
X0049922Y0080393*
X0049907Y008037*
X0049306*
X004929Y0080393*
X0048893Y0080658*
X0048425Y0080751*
X0047957Y0080658*
X004756Y0080393*
X0047521Y0080334*
X0046965Y0080265*
X0046568Y008053*
X00461Y0080624*
X0045632Y008053*
X0045235Y0080265*
X0045201Y0080214*
X0044599*
X0044565Y0080265*
X0044168Y008053*
X00437Y0080624*
X0043232Y008053*
X0042835Y0080265*
X004257Y0079868*
X0042476Y00794*
X004257Y0078932*
X0042835Y0078535*
X0043232Y007827*
X00437Y0078176*
X0044168Y007827*
X0044565Y0078535*
X0044599Y0078586*
X0045201*
X0045235Y0078535*
X0045632Y007827*
X00461Y0078176*
X0046568Y007827*
X0046965Y0078535*
X0047005Y0078594*
X004756Y0078662*
X0047957Y0078397*
X0048425Y0078304*
X0048893Y0078397*
X004929Y0078662*
X0049306Y0078685*
X0049907*
X0049922Y0078662*
X0050319Y0078397*
X0050787Y0078304*
X0051256Y0078397*
X0051652Y0078662*
X0052125Y0078617*
X0052444Y0078316*
X0052449Y0077796*
X0047012Y0072358*
X0046868Y0072143*
X0046818Y007189*
Y0070866*
X0035433*
Y0070792*
X0028983*
Y0071502*
X0026233*
Y0071902*
X0024809*
Y0070079*
X0024409*
Y0069679*
X0022586*
Y0068337*
X002246Y0068169*
X00221Y0067923*
X0021632Y006783*
X0021235Y0067565*
X0021134Y0067414*
X00186*
X0018327Y0067359*
X0018095Y0067205*
X0017672Y0066781*
X0017172Y0066988*
Y0067565*
X0013635*
Y0067965*
X0013555*
X0013481Y0068059*
X0013333Y0068465*
X0013607Y0068876*
X0013652Y00691*
X00121*
Y00699*
X0013652*
X0013607Y0070124*
X0013253Y0070653*
X0012758Y0070984*
X0012754Y0071021*
X0013051Y0071484*
X0019417*
X0019578Y0071323*
X0019732Y007122*
X001977Y0071032*
X0020035Y0070635*
X0020432Y007037*
X00209Y0070276*
X0021368Y007037*
X0021765Y0070635*
X002203Y0071032*
X0022066Y0071213*
X0022086Y0071311*
X0022582Y0071262*
X0022586Y0071236*
Y0070479*
X0024009*
Y0071902*
X0022586*
Y0071764*
X0022582Y0071738*
X0022086Y0071689*
X0022066Y0071787*
X002203Y0071968*
X0021826Y0072274*
X0021791Y00726*
X0021826Y0072926*
X002203Y0073232*
X0022124Y00737*
X002203Y0074168*
X0021765Y0074565*
X0021368Y007483*
X00209Y0074923*
X0020432Y007483*
X0020035Y0074565*
X0020002Y0074516*
X00076*
X0007288Y0074454*
X0007023Y0074277*
X0003613Y0070867*
X0003436Y0070602*
X0003374Y007029*
Y0042248*
X0003436Y0041935*
X0003613Y0041671*
X0020861Y0024423*
X0021125Y0024246*
X0021437Y0024184*
X0021438*
X0048072*
X0048082Y0024132*
X0048347Y0023735*
X0048407Y0023695*
X0048255Y0023195*
X0042799*
Y0019521*
X004756*
Y0018694*
X0044249Y0015383*
X0042323*
X0042011Y0015321*
X0041746Y0015144*
X0040982Y0014379*
X0040565Y0014149*
X0040223Y0014253*
Y0014309*
Y0019002*
X003834*
X0038244Y0019234*
X0037674Y0019977*
X0036931Y0020547*
X0036066Y0020905*
X0035538Y0020975*
Y0016358*
Y0011742*
X0036066Y0011811*
X0036931Y0012169*
X0037674Y001274*
X0038244Y0013482*
X0038405Y0013872*
X0040071*
X0040354Y001369*
X0040523Y0013222*
Y0012543*
X0037558Y0009578*
X00375Y000959*
X0037032Y0009497*
X0036635Y0009231*
X003637Y0008834*
X0036277Y0008366*
X003637Y0007898*
X0036635Y0007501*
X0037032Y0007236*
X00375Y0007143*
X0037968Y0007236*
X0038365Y0007501*
X0038501Y0007705*
X0039065Y000772*
X0039066Y0007719*
X0039194Y0007528*
X0039591Y0007263*
X0040059Y000717*
X0040527Y0007263*
X0040924Y0007528*
X0040957Y0007577*
X0042717*
X0043029Y000764*
X0043293Y0007817*
X0044228Y0008751*
X0044405Y0009016*
X0044467Y0009328*
Y0009482*
X0055528*
Y0013156*
X0053319*
X0053277Y0013193*
X005342Y0013732*
X0053421*
X0053818Y0013997*
X0054083Y0014394*
X0054176Y0014862*
X0054083Y001533*
X0053916Y0015581*
Y0019521*
X0055528*
Y0021332*
X0055544Y0021411*
Y0022796*
X0055554Y0022806*
X0063431*
X0065198Y002104*
X0064914Y0020616*
X0064216Y0020905*
X0063687Y0020975*
Y0016758*
X0066874*
Y0017441*
X0066752Y0018369*
X0066462Y0019068*
X0066886Y0019351*
X0068999Y0017238*
X0069264Y0017061*
X0069576Y0016999*
X0074397*
X007443Y001695*
X0074827Y0016685*
X0075258Y0016599*
X0075306Y0016574*
X0075579Y0016138*
X0074972Y0015002*
X0074497Y0013438*
X0074376Y0012211*
X0082277*
Y0020112*
X008105Y0019991*
X0079485Y0019516*
X0078044Y0018745*
X0077724Y001913*
X007782Y0019275*
X0077883Y0019587*
Y0021155*
X0079928*
Y0021206*
X0080389Y0021397*
X008047Y0021317*
X008085Y0021062*
X0081028Y0021027*
Y0020722*
X0083875*
Y0020973*
X0086319*
X0086768Y0021062*
X0087148Y0021317*
X0092561Y002673*
X0092816Y002711*
X0092905Y0027559*
Y0037953*
X0093701*
X009378Y0037986*
X0094101*
Y0038306*
X0094134Y0038386*
Y0042028*
X0094101Y0042107*
Y0042329*
X0094009*
X0094007Y0042334*
X0092956Y0043385*
X0093163Y0043885*
X0094501*
Y0046057*
X0091732*
Y0046857*
X0094501*
Y0048802*
Y0049028*
X0094888Y0049302*
X0094924*
Y0050725*
X00931*
Y0051525*
X0094924*
Y0052949*
X0094524*
Y0055698*
X0091676*
Y0054949*
X0088392*
Y0055912*
X0082474*
Y0055322*
X00822Y0054949*
X0081888Y0054887*
X0081623Y0054711*
X0080323Y0053411*
X0080146Y0053146*
X0080084Y0052834*
Y0048*
X0080146Y0047688*
X0080323Y0047423*
X0081566Y0046181*
X0081831Y0046004*
X0082035Y0045963*
X0082263Y0045798*
X0082441Y0045586*
Y0043307*
X0082568Y0043001*
X0082909Y004266*
X0082663Y0042199*
X00825Y0042231*
X0081876Y0042107*
X0081458Y0041828*
X0081071Y0041963*
X0080958Y0042049*
Y0042375*
X0079534*
Y0040551*
Y0038728*
X0080958*
Y0039151*
X0081071Y0039237*
X0081458Y0039372*
X0081876Y0039093*
X00821Y0039048*
Y00406*
X00829*
Y0039048*
X0083124Y0039093*
X0083653Y0039446*
X0084007Y0039976*
X0084131Y00406*
X0084099Y0040763*
X008456Y0041009*
X0087489Y003808*
X0087795Y0037953*
X009056*
Y0028045*
X0085833Y0023318*
X0084711*
X0084275Y0023472*
Y0024895*
X0082451*
Y0025295*
X0082051*
Y0027119*
X0080628*
Y0025202*
X0080139Y002488*
X0079928Y002498*
Y0025498*
X0075191*
Y0021155*
X0076251*
Y0019925*
X0075354Y0019027*
X0075295Y0019038*
X0074827Y0018945*
X007443Y001868*
X0074397Y0018631*
X0069914*
X0064356Y0024188*
X0064346Y00242*
X0064359Y0024791*
X0064441Y0024847*
X0064795Y0025376*
X0064839Y00256*
X0063287*
Y0026*
X0062887*
Y0027552*
X0062663Y0027507*
X0062134Y0027154*
X0061809Y0026667*
X0061544Y0026641*
X0061279Y0026667*
X0060953Y0027154*
X0060424Y0027507*
X00602Y0027552*
Y0026*
X00598*
Y00256*
X0058248*
X0058293Y0025376*
X0058586Y0024938*
X005848Y0024606*
X0058364Y0024438*
X0056965*
X005687Y0024938*
X0057165Y0025135*
X005743Y0025532*
X0057524Y0026*
X005743Y0026468*
X0057165Y0026865*
X0056768Y002713*
X00563Y0027224*
X0055832Y002713*
X0055435Y0026865*
X005517Y0026468*
X0055076Y0026*
X005517Y0025532*
X0055435Y0025135*
X0055568Y0025046*
X0055477Y0024517*
X0055216Y0024438*
X0054904Y0024376*
X005464Y0024199*
X0054151Y002371*
X0053974Y0023446*
X0053925Y0023195*
X005017*
X0050019Y0023695*
X0050078Y0023735*
X0050343Y0024132*
X0050403Y0024431*
X0050914Y0024566*
X0050935Y0024535*
X0051332Y002427*
X00518Y0024177*
X0052268Y002427*
X0052665Y0024535*
X005293Y0024932*
X0053023Y00254*
X005293Y0025868*
X0052665Y0026265*
X0052268Y002653*
X00518Y0026623*
X0051742Y0026612*
X0051377Y0026977*
X0051112Y0027154*
X00508Y0027216*
X003785*
X0037698Y0027716*
X0037873Y0027832*
X0038138Y0028229*
X0038231Y0028698*
X0038138Y0029166*
X0037873Y0029563*
X0037476Y0029828*
X0037008Y0029921*
X003654Y0029828*
X0036143Y0029563*
X0035877Y0029166*
X0035784Y0028698*
X0035877Y0028229*
X0036143Y0027832*
X0036318Y0027716*
X0036166Y0027216*
X0022355*
X0006406Y0043165*
Y00468*
X0006906Y0047015*
X0007276Y0046768*
X00075Y0046723*
Y0048275*
Y0049827*
X0007276Y0049782*
X0006906Y0049535*
X0006406Y004975*
Y0064504*
X0006906Y0064656*
X0006946Y0064595*
X0007476Y0064241*
X00077Y0064196*
Y0065748*
X00085*
Y0064196*
X00087Y0064236*
X0008788Y0064241*
X00092Y0063984*
Y0063531*
X001152*
X001178Y0063031*
X0011688Y00629*
X000895*
Y0058557*
X00129*
Y0061405*
X0012972Y0061452*
X0013472Y0061185*
Y0061128*
X0015846*
X0018221*
Y00633*
X0016666*
X0016335Y00638*
X001635Y0063836*
X0016461Y0063931*
X0017172*
Y0065034*
X0017648*
X0017921Y0065089*
X0018153Y0065243*
X0018896Y0065986*
X0020558*
X0020729Y00657*
X0020558Y0065414*
X00203*
X0020027Y0065359*
X0019795Y0065205*
X0019295Y0064705*
X0019141Y0064473*
X0019086Y00642*
Y0056128*
X0018321Y0055363*
X0017821Y005557*
Y0056404*
X0013872*
Y0052061*
X0015133*
Y0050243*
X0013634*
Y0050643*
X0011817*
Y0048425*
Y0046208*
X0013634*
Y0046608*
X0017172*
Y0050243*
X001656*
Y0052061*
X0017821*
Y0053519*
X00182*
X0018473Y0053573*
X0018705Y0053728*
X0020305Y0055328*
X0020459Y0055559*
X0020514Y0055832*
Y0057144*
X0020959Y0057288*
X0021127Y005714*
X0021172Y0057072*
X0021297Y0056988*
X0021323Y0056965*
Y0045286*
X0021378Y0045013*
X0021532Y0044781*
X0024718Y0041595*
X002495Y0041441*
X0025223Y0041386*
X0040923*
X0049909Y0032401*
X0049891Y0032302*
X0049613Y0032109*
Y00307*
X0050764*
X0050721Y003092*
X0050731Y0030935*
X0051085Y0031278*
X0051156Y003123*
X0051429Y0031176*
X0065423*
X0065525Y0031025*
X0065922Y0030759*
X006639Y0030666*
X0066858Y0030759*
X0067255Y0031025*
X006752Y0031422*
X0067613Y003189*
X006752Y0032358*
X0067255Y0032755*
X0066858Y003302*
X006639Y0033113*
X0065922Y003302*
X0065525Y0032755*
X0065423Y0032603*
X0051725*
X0041724Y0042605*
X0041492Y0042759*
X0041219Y0042814*
X0025519*
X0022751Y0045581*
Y0056971*
X0022902Y0057072*
X0023167Y0057469*
X0023199Y0057625*
X0024009*
Y0059449*
X0024809*
Y0057625*
X002528*
X002557Y0057199*
X0025428Y0056699*
X0023714*
Y0052356*
X0028451*
Y0056699*
X0027779*
X0027572Y0057199*
X0027624Y0057252*
X002779Y0057499*
X0027848Y0057792*
Y0058025*
X0028983*
X0029182Y0058084*
X0029334Y0058015*
X0029652Y0057723*
Y0052756*
X0029703Y0052502*
X0029846Y0052287*
X003339Y0048744*
X0033605Y00486*
X0033858Y004855*
X0035433*
Y0045276*
X0050715*
X005122Y0044771*
X0051451Y0044616*
X0051724Y0044562*
X0061122*
X0062574Y004311*
Y0042305*
X0062422Y0042204*
X0062157Y0041807*
X0062064Y0041339*
X0062079Y0041263*
X0061976Y0041046*
X0061651Y0040853*
X0061259*
X0059147*
Y0037887*
X0061719*
Y0038656*
X00625*
X0062773Y0038711*
X0063005Y0038865*
X006378Y0039641*
X0063935Y0039873*
X006399Y0040146*
Y0040365*
X0064152Y0040473*
X0064154Y0040476*
X0064676Y0040511*
X0065034Y0040159*
Y0037993*
X0063456Y0036414*
X0061719*
Y0037183*
X0059147*
Y0034217*
X0061719*
Y0034986*
X0063751*
X0064024Y0035041*
X0064256Y0035195*
X0066253Y0037192*
X0066407Y0037424*
X0066462Y0037697*
Y0040372*
X0066613Y0040473*
X0066878Y004087*
X0066971Y0041339*
X0066878Y0041807*
X0066613Y0042204*
X0066462Y0042305*
Y0045669*
X0066407Y0045942*
X0066253Y0046174*
X0065327Y00471*
X0065518Y0047561*
X0066229*
X0067412Y0046379*
X0067377Y00462*
X006747Y0045732*
X0067735Y0045335*
X0068132Y004507*
X00686Y0044976*
X0069068Y004507*
X0069465Y0045335*
X006973Y0045732*
X0069823Y00462*
X006973Y0046668*
X0069514Y0046992*
X0069465Y0047254*
Y0047371*
X0069514Y0047634*
X006973Y0047957*
X0069823Y0048425*
X006973Y0048893*
X0069538Y0049182*
X0069494Y0049513*
X0069538Y0049843*
X006973Y0050132*
X0069823Y00506*
X006973Y0051068*
X0069465Y0051465*
X0069454Y0051473*
Y0051973*
X0069465Y005198*
X006973Y0052377*
X0069823Y0052846*
X006973Y0053314*
X0069465Y0053711*
X0069344Y0053791*
X0069496Y0054291*
X0070043*
Y0056115*
X0070442*
Y0056515*
X0072266*
Y0057939*
X0071866*
Y0060688*
X0071237*
Y0061983*
X0071481Y0062227*
X0072632*
Y0061214*
X007855*
Y006477*
X0072632*
Y0063757*
X0071165*
X0070872Y0063699*
X0070624Y0063533*
X0069932Y0062841*
X0069911Y006281*
X0069381Y0062916*
X006933Y0063168*
X0069065Y0063565*
X0068668Y006383*
X0068423Y0063879*
X006824Y0064402*
X0070941Y0067104*
X0071085Y0067319*
X0071135Y0067572*
Y0077248*
X0071085Y0077501*
X0070941Y0077716*
X0068986Y0079671*
X0068771Y0079815*
X0068518Y0079865*
X0068051*
X006803Y0079968*
X0067765Y0080365*
X0067368Y008063*
X0067184Y0080667*
X0067019Y008121*
X0067434Y0081625*
X0067589Y0081856*
X0067625Y0082041*
X0068353*
Y008479*
X0068753*
Y0086214*
X0066929*
Y0086614*
X0066529*
Y0088438*
G37*
G36*
X0028852Y00867D02*
X00277D01*
Y0085548*
X0027924Y0085593*
X0028453Y0085947*
X0028807Y0086476*
X0028852Y00867*
G37*
G36*
X00269D02*
X0025748D01*
X0025793Y0086476*
X0026147Y0085947*
X0026676Y0085593*
X00269Y0085548*
Y00867*
G37*
G36*
X0073052Y00865D02*
X00719D01*
Y0085348*
X0072124Y0085393*
X0072654Y0085747*
X0073007Y0086276*
X0073052Y00865*
G37*
G36*
X00711D02*
X0069948D01*
X0069993Y0086276*
X0070346Y0085747*
X0070876Y0085393*
X00711Y0085348*
Y00865*
G37*
G36*
X0050295Y0090495D02*
X0049827Y0090402D01*
X004943Y0090137*
X0049165Y008974*
X0049072Y0089272*
X0049165Y0088803*
X004943Y0088406*
X0049827Y0088141*
X0050098Y0088087*
X0050186Y0087963*
X0050289Y0087506*
Y0082769*
X0054632*
Y0087359*
X0054809Y0087678*
X0054989Y0087853*
X0055386Y0088118*
X0055739Y0088647*
X0055784Y0088872*
X005268*
X0052725Y0088647*
X0053079Y0088118*
X0053082Y0088116*
X005291Y0087629*
X0052626Y0087655*
X0052571Y0087928*
X0052417Y008816*
X0051483Y0089093*
X0051519Y0089272*
X0051426Y008974*
X005116Y0090137*
X0050763Y0090402*
X0050295Y0090495*
G37*
G36*
X00808Y0081257D02*
Y0080105D01*
X0081952*
X0081907Y0080329*
X0081554Y0080858*
X0081024Y0081212*
X00808Y0081257*
G37*
G36*
X008D02*
X0079776Y0081212D01*
X0079246Y0080858*
X0078893Y0080329*
X0078848Y0080105*
X008*
Y0081257*
G37*
G36*
X00303Y0079552D02*
Y00784D01*
X0031452*
X0031407Y0078624*
X0031054Y0079154*
X0030524Y0079507*
X00303Y0079552*
G37*
G36*
X00295D02*
X0029276Y0079507D01*
X0028747Y0079154*
X0028393Y0078624*
X0028348Y00784*
X00295*
Y0079552*
G37*
G36*
X00145Y0078952D02*
Y00778D01*
X0015652*
X0015607Y0078024*
X0015254Y0078553*
X0014724Y0078907*
X00145Y0078952*
G37*
G36*
X00137D02*
X0013476Y0078907D01*
X0012946Y0078553*
X0012593Y0078024*
X0012548Y00778*
X00137*
Y0078952*
G37*
G36*
X0031452Y00776D02*
X00303D01*
Y0076448*
X0030524Y0076493*
X0031054Y0076846*
X0031407Y0077376*
X0031452Y00776*
G37*
G36*
X00295D02*
X0028348D01*
X0028393Y0077376*
X0028747Y0076846*
X0029276Y0076493*
X00295Y0076448*
Y00776*
G37*
G36*
X0017572Y0078552D02*
X0017103Y0078459D01*
X0016706Y0078193*
X0016441Y0077797*
X0016348Y0077328*
X0016441Y007686*
X0016706Y0076463*
X0017103Y0076198*
X0017572Y0076105*
X001804Y0076198*
X0018437Y0076463*
X0018702Y007686*
X0018795Y0077328*
X0018702Y0077797*
X0018437Y0078193*
X001804Y0078459*
X0017572Y0078552*
G37*
G36*
X0015652Y0077D02*
X00145D01*
Y0075848*
X0014724Y0075893*
X0015254Y0076247*
X0015607Y0076776*
X0015652Y0077*
G37*
G36*
X00137D02*
X0012548D01*
X0012593Y0076776*
X0012946Y0076247*
X0013476Y0075893*
X00137Y0075848*
Y0077*
G37*
G36*
X0080564Y0075978D02*
X007914D01*
Y0074554*
X0080564*
Y0075978*
G37*
G36*
X0081952Y0079305D02*
X0078848D01*
X0078893Y007908*
X0079146Y0078702*
X0078938Y0078202*
X0076916*
Y0077802*
X0074167*
Y0074954*
X0074775*
Y007225*
X0072632*
Y0068695*
X007855*
Y007225*
X0076406*
Y0074954*
X0076916*
Y0074554*
X007834*
Y0076378*
X007874*
Y0076778*
X0080564*
Y0078106*
X0081024Y0078198*
X0081554Y0078551*
X0081907Y007908*
X0081952Y0079305*
G37*
G36*
X00903Y0071252D02*
Y00701D01*
X0091452*
X0091407Y0070324*
X0091053Y0070854*
X0090524Y0071207*
X00903Y0071252*
G37*
G36*
X0093556Y0067965D02*
X0092132D01*
Y0066542*
X0093556*
Y0067965*
G37*
G36*
X00818Y0059991D02*
Y0058839D01*
X0082952*
X0082907Y0059063*
X0082553Y0059593*
X0082024Y0059946*
X00818Y0059991*
G37*
G36*
X0081D02*
X0080776Y0059946D01*
X0080247Y0059593*
X0079893Y0059063*
X0079848Y0058839*
X0081*
Y0059991*
G37*
G36*
X0018221Y0060328D02*
X0016246D01*
Y0058157*
X0018221*
Y0060328*
G37*
G36*
X0015446D02*
X0013472D01*
Y0058157*
X0015446*
Y0060328*
G37*
G36*
X0087998Y007225D02*
X008208D01*
Y0071288*
X0081672*
X008136Y0071226*
X0081096Y0071049*
X0079823Y0069777*
X0079646Y0069512*
X0079584Y00692*
Y00641*
X0079646Y0063788*
X0079823Y0063523*
X0080931Y0062415*
X0081196Y0062239*
X0081508Y0062177*
X008208*
Y0061214*
X0087998*
Y0062176*
X0090309*
Y0061568*
X0090917*
Y0060579*
X0090579Y0060353*
X0090225Y0059824*
X0090101Y00592*
X0090225Y0058576*
X0090579Y0058047*
X0091108Y0057693*
X0091732Y0057569*
X0092357Y0057693*
X0092886Y0058047*
X0093239Y0058576*
X0093364Y00592*
X0093239Y0059824*
X0092886Y0060353*
X0092548Y0060579*
Y0061568*
X0093156*
Y0064318*
X0093556*
Y0065742*
X0091732*
Y0066142*
X0091332*
Y0067965*
X0091084*
X0090932Y0068465*
X0091053Y0068546*
X0091407Y0069076*
X0091452Y00693*
X00899*
Y00697*
X00895*
Y0071252*
X0089276Y0071207*
X0088747Y0070854*
X0088498Y0070482*
X0087998Y0070634*
Y007225*
G37*
G36*
X0082952Y0058039D02*
X00818D01*
Y0056887*
X0082024Y0056932*
X0082553Y0057286*
X0082907Y0057815*
X0082952Y0058039*
G37*
G36*
X0081D02*
X0079848D01*
X0079893Y0057815*
X0080247Y0057286*
X0080776Y0056932*
X0081Y0056887*
Y0058039*
G37*
G36*
X00133Y0056804D02*
X0011325D01*
Y0054632*
X00133*
Y0056804*
G37*
G36*
X0010525D02*
X000855D01*
Y0054632*
X0010525*
Y0056804*
G37*
G36*
X0072266Y0055715D02*
X0070842D01*
Y0054291*
X0072266*
Y0055715*
G37*
G36*
X0078943Y0055912D02*
X0073025D01*
Y0052356*
X0078943*
Y0055912*
G37*
G36*
X00133Y0053832D02*
X0011325D01*
Y0051661*
X00133*
Y0053832*
G37*
G36*
X0010525D02*
X000855D01*
Y0051661*
X0010525*
Y0053832*
G37*
G36*
X0011017Y0050643D02*
X00092D01*
Y0049932*
X00087Y0049665*
X0008524Y0049782*
X00083Y0049827*
Y0048275*
Y0046723*
X0008524Y0046768*
X00087Y0046885*
X00092Y0046618*
Y0046208*
X0011017*
Y0048425*
Y0050643*
G37*
G36*
X0028451Y00504D02*
X0023714D01*
Y0046057*
X0028451*
Y0047515*
X0029841*
X0029942Y0047363*
X0030339Y0047098*
X0030807Y0047005*
X0031275Y0047098*
X0031672Y0047363*
X0031938Y004776*
X0032031Y0048228*
X0031938Y0048697*
X0031672Y0049093*
X0031275Y0049359*
X0030807Y0049452*
X0030339Y0049359*
X0029942Y0049093*
X0029841Y0048942*
X0028451*
Y00504*
G37*
G36*
X0009843Y0045318D02*
X0009374Y0045225D01*
X0008977Y004496*
X0008712Y0044563*
X0008619Y0044094*
X0008712Y0043626*
X0008977Y0043229*
X0009374Y0042964*
X0009843Y0042871*
X0010311Y0042964*
X0010708Y0043229*
X0010973Y0043626*
X0011066Y0044094*
X0010973Y0044563*
X0010708Y004496*
X0010311Y0045225*
X0009843Y0045318*
G37*
G36*
X005689Y0043546D02*
X0056422Y0043453D01*
X0056025Y0043188*
X0055759Y0042791*
X005573Y0042644*
X0055199Y0042538*
X005516Y0042597*
X0054763Y0042863*
X0054295Y0042956*
X0053827Y0042863*
X005343Y0042597*
X0052834*
X0052437Y0042863*
X0051968Y0042956*
X00515Y0042863*
X0051103Y0042597*
X0050838Y00422*
X0050745Y0041732*
X0050838Y0041264*
X0051103Y0040867*
X00515Y0040602*
X0051968Y0040509*
X0052437Y0040602*
X0052834Y0040867*
X005343*
X0053827Y0040602*
X0054295Y0040509*
X0054763Y0040602*
X0055104Y004083*
X0055352Y0040766*
X0055604Y0040631*
Y0040406*
Y0037887*
X0056176*
Y0037183*
X0055604*
Y0034217*
X0058176*
Y0037183*
X0057604*
Y0037887*
X0058176*
Y0040853*
X0057604*
Y0041357*
X0057755Y0041458*
X005802Y0041855*
X0058113Y0042323*
X005802Y0042791*
X0057755Y0043188*
X0057358Y0043453*
X005689Y0043546*
G37*
G36*
X0048819Y0042956D02*
X0048351Y0042863D01*
X0047954Y0042597*
X0047688Y00422*
X0047595Y0041732*
X0047688Y0041264*
X0047954Y0040867*
X0048351Y0040602*
X0048819Y0040509*
X0049287Y0040602*
X0049684Y0040867*
X0049949Y0041264*
X0050042Y0041732*
X0049949Y00422*
X0049684Y0042597*
X0049287Y0042863*
X0048819Y0042956*
G37*
G36*
X0020417D02*
X0019949Y0042863D01*
X0019552Y0042597*
X0019287Y00422*
X0019194Y0041732*
X0019287Y0041264*
X0019552Y0040867*
X0019949Y0040602*
X0020417Y0040509*
X0020886Y0040602*
X0021283Y0040867*
X0021548Y0041264*
X0021641Y0041732*
X0021548Y00422*
X0021283Y0042597*
X0020886Y0042863*
X0020417Y0042956*
G37*
G36*
X00276Y0036052D02*
Y00349D01*
X0028752*
X0028707Y0035124*
X0028354Y0035653*
X0027824Y0036007*
X00276Y0036052*
G37*
G36*
X00268D02*
X0026576Y0036007D01*
X0026046Y0035653*
X0025693Y0035124*
X0025648Y00349*
X00268*
Y0036052*
G37*
G36*
X00354Y0034323D02*
X0034932Y003423D01*
X0034535Y0033965*
X0034501Y0033914*
X0033899*
X0033865Y0033965*
X0033468Y003423*
X0033Y0034323*
X0032532Y003423*
X0032135Y0033965*
X0031978Y003373*
X003195Y003372*
X003145*
X0031422Y003373*
X0031265Y0033965*
X0030868Y003423*
X00304Y0034323*
X0029932Y003423*
X0029535Y0033965*
X002927Y0033568*
X0029177Y00331*
X002927Y0032632*
X0029535Y0032235*
X0029932Y003197*
X00304Y0031877*
X0030868Y003197*
X0031265Y0032235*
X0031422Y003247*
X003145Y003248*
X003195*
X0031978Y003247*
X0032135Y0032235*
X0032532Y003197*
X0033Y0031877*
X0033468Y003197*
X0033865Y0032235*
X0033899Y0032286*
X0034501*
X0034535Y0032235*
X0034932Y003197*
X00354Y0031877*
X0035868Y003197*
X0036265Y0032235*
X003653Y0032632*
X0036623Y00331*
X003653Y0033568*
X0036265Y0033965*
X0035868Y003423*
X00354Y0034323*
G37*
G36*
X0028752Y00341D02*
X00276D01*
Y0032948*
X0027824Y0032993*
X0028354Y0033347*
X0028707Y0033876*
X0028752Y00341*
G37*
G36*
X00268D02*
X0025648D01*
X0025693Y0033876*
X0026046Y0033347*
X0026576Y0032993*
X00268Y0032948*
Y00341*
G37*
G36*
X0077067Y0048433D02*
X0073524D01*
X007352Y0048432*
X0073025*
Y0048114*
X0069576Y0044664*
X0069449Y0044358*
Y0032972*
X0069576Y0032666*
X0069882Y0032539*
X007438*
X0074686Y0032666*
X0077373Y0035353*
X00775Y0035659*
Y0038728*
X0078734*
Y0040551*
Y0042375*
X00775*
Y0044876*
X0078943*
Y0048432*
X007707*
X0077067Y0048433*
G37*
G36*
X00395Y0032968D02*
Y0031817D01*
X0040652*
X0040607Y0032041*
X0040253Y003257*
X0039724Y0032924*
X00395Y0032968*
G37*
G36*
X00387D02*
X0038476Y0032924D01*
X0037947Y003257*
X0037593Y0032041*
X0037548Y0031817*
X00387*
Y0032968*
G37*
G36*
X0048813Y0031852D02*
X0048588Y0031807D01*
X0048059Y0031453*
X0047705Y0030924*
X0047661Y00307*
X0048813*
Y0031852*
G37*
G36*
X0040652Y0031016D02*
X00395D01*
Y0029865*
X0039724Y0029909*
X0040253Y0030263*
X0040607Y0030792*
X0040652Y0031016*
G37*
G36*
X00387D02*
X0037548D01*
X0037593Y0030792*
X0037947Y0030263*
X0038476Y0029909*
X00387Y0029865*
Y0031016*
G37*
G36*
X0050764Y00299D02*
X0049613D01*
Y0028748*
X0049837Y0028793*
X0050366Y0029147*
X005072Y0029676*
X0050764Y00299*
G37*
G36*
X0048813D02*
X0047661D01*
X0047705Y0029676*
X0048059Y0029147*
X0048588Y0028793*
X0048813Y0028748*
Y00299*
G37*
G36*
X0079928Y0031798D02*
X0075191D01*
Y00307*
X0073819*
X007337Y0030611*
X007299Y0030357*
X0071513Y002888*
X0071259Y00285*
X007117Y0028051*
Y0026719*
X0070919*
Y0026468*
X0070096*
X0070006Y0026603*
X0069361Y0027034*
X00686Y0027185*
X0067839Y0027034*
X0067194Y0026603*
X0066763Y0025958*
X0066612Y0025197*
X0066763Y0024436*
X0067194Y0023791*
X0067839Y002336*
X00686Y0023209*
X0069361Y002336*
X0070006Y0023791*
X0070019Y002381*
X0070519Y0023659*
Y0022546*
X0072342*
X0074166*
Y0023969*
X0073766*
Y0026719*
X0073515*
Y0027566*
X0074305Y0028355*
X0075191*
Y0027454*
X0079928*
Y0031798*
G37*
G36*
X0063687Y0027552D02*
Y00264D01*
X0064839*
X0064795Y0026624*
X0064441Y0027154*
X0063912Y0027507*
X0063687Y0027552*
G37*
G36*
X00594D02*
X0059176Y0027507D01*
X0058647Y0027154*
X0058293Y0026624*
X0058248Y00264*
X00594*
Y0027552*
G37*
G36*
X0084275Y0027119D02*
X0082851D01*
Y0025695*
X0084275*
Y0027119*
G37*
G36*
X0008455Y0035092D02*
X0003955D01*
X0003507Y0035003*
X0003126Y0034748*
X0002872Y0034368*
X0002783Y0033919*
Y0032419*
X0002872Y0031971*
X0002878Y0031961*
X0002932Y0031395*
X0002589Y0030882*
X0002469Y0030278*
Y0029928*
X0006299*
Y0029128*
X0002469*
Y0028778*
X0002589Y0028173*
X0002932Y002766*
X000301Y0027265*
X0002966Y0027199*
X0002877Y002675*
Y002525*
X0002966Y0024801*
X0003128Y0024559*
X0003186Y002422*
X0003128Y0023881*
X0002966Y002364*
X0002877Y0023191*
Y0021691*
X0002966Y0021242*
X000312Y0021011*
X0003184Y0020669*
X000312Y0020327*
X0002966Y0020096*
X0002877Y0019648*
Y0018148*
X0002966Y0017699*
X000322Y0017319*
X0003601Y0017064*
X0004049Y0016975*
X0008549*
X0008612Y0016988*
X0008885Y0016532*
X0008813Y0016444*
X0008043Y0015002*
X0007568Y0013438*
X0007447Y0012211*
X0015348*
Y0020112*
X0014121Y0019991*
X0012556Y0019516*
X0011944Y0019189*
X0011642Y0019595*
X0013034Y0020987*
X0013505Y0021182*
X0013902Y0020917*
X001437Y0020824*
X0014838Y0020917*
X0015235Y0021182*
X00155Y0021579*
X0015594Y0022047*
X00155Y0022515*
X0015235Y0022912*
X0014838Y0023178*
X0014519Y0023241*
X0014312Y0023401*
X0014161Y0023739*
X0014216Y0024016*
X0014161Y0024293*
X0014312Y002463*
X0014519Y002479*
X0014838Y0024854*
X0015235Y0025119*
X00155Y0025516*
X0015594Y0025984*
X00155Y0026452*
X0015235Y0026849*
X0014838Y0027115*
X0014519Y0027178*
X0014312Y0027338*
X0014161Y0027676*
X0014216Y0027953*
X0014122Y0028421*
X0013857Y0028818*
X0013706Y0028919*
Y0030315*
X0013652Y0030588*
X0013497Y003082*
X0010643Y0033674*
X0010411Y0033829*
X0010138Y0033883*
X0009628*
Y0033919*
X0009539Y0034368*
X0009284Y0034748*
X0008904Y0035003*
X0008455Y0035092*
G37*
G36*
X0074166Y0021746D02*
X0072742D01*
Y0020322*
X0074166*
Y0021746*
G37*
G36*
X0071943D02*
X0070519D01*
Y0020322*
X0071943*
Y0021746*
G37*
G36*
X0034738Y0020975D02*
X0034209Y0020905D01*
X0033345Y0020547*
X0032602Y0019977*
X0032032Y0019234*
X0031673Y0018369*
X0031551Y0017441*
Y0016758*
X0034738*
Y0020975*
G37*
G36*
X0083077Y0020112D02*
Y0012211D01*
X0090978*
X0090857Y0013438*
X0090382Y0015002*
X0089612Y0016444*
X0088574Y0017708*
X0087311Y0018745*
X0085869Y0019516*
X0084304Y0019991*
X0083077Y0020112*
G37*
G36*
X0016148D02*
Y0012211D01*
X0024049*
X0023928Y0013438*
X0023453Y0015002*
X0022682Y0016444*
X0021645Y0017708*
X0020381Y0018745*
X001894Y0019516*
X0017375Y0019991*
X0016148Y0020112*
G37*
G36*
X0062887Y0020975D02*
X0062359Y0020905D01*
X0061494Y0020547*
X0060751Y0019977*
X0060181Y0019234*
X0060085Y0019002*
X0058104*
Y0013872*
X006002*
X0060181Y0013482*
X0060751Y001274*
X0061494Y0012169*
X0062359Y0011811*
X0062887Y0011742*
Y0016358*
Y0020975*
G37*
G36*
X0034738Y0015958D02*
X0031551D01*
Y0015276*
X0031673Y0014347*
X0032032Y0013482*
X0032602Y001274*
X0033345Y0012169*
X0034209Y0011811*
X0034738Y0011742*
Y0015958*
G37*
G36*
X0066874D02*
X0063687D01*
Y0011742*
X0064216Y0011811*
X0065081Y0012169*
X0065824Y001274*
X0066394Y0013482*
X0066752Y0014347*
X0066874Y0015276*
Y0015958*
G37*
G36*
X0090978Y0011411D02*
X0083077D01*
Y000351*
X0084304Y0003631*
X0085869Y0004106*
X0087311Y0004876*
X0088574Y0005914*
X0089612Y0007177*
X0090382Y0008619*
X0090857Y0010184*
X0090978Y0011411*
G37*
G36*
X0082277D02*
X0074376D01*
X0074497Y0010184*
X0074972Y0008619*
X0075743Y0007177*
X007678Y0005914*
X0078044Y0004876*
X0079485Y0004106*
X008105Y0003631*
X0082277Y000351*
Y0011411*
G37*
G36*
X0024049D02*
X0016148D01*
Y000351*
X0017375Y0003631*
X001894Y0004106*
X0020381Y0004876*
X0021645Y0005914*
X0022682Y0007177*
X0023453Y0008619*
X0023928Y0010184*
X0024049Y0011411*
G37*
G36*
X0015348D02*
X0007447D01*
X0007568Y0010184*
X0008043Y0008619*
X0008813Y0007177*
X0009851Y0005914*
X0011114Y0004876*
X0012556Y0004106*
X0014121Y0003631*
X0015348Y000351*
Y0011411*
G37*
%LNdigit-3*%
%LPD*%
G36*
X005645Y0076972D02*
X0056674Y0077016D01*
X0056711Y0077041*
X0057211Y0076774*
Y0076259*
X0051819Y0070866*
X0048143*
Y0071615*
X0053618Y007709*
X0053762Y0077305*
X0053812Y0077559*
Y0078135*
X0053947Y0078327*
X0053958Y0078336*
X0054166Y0078294*
X0054513Y0078045*
X0054542Y0077899*
X0054896Y007737*
X0055425Y0077016*
X005565Y0076972*
Y0078524*
X005645*
Y0076972*
G37*
G36*
X0066363Y0078416D02*
X0066432Y007837D01*
X00669Y0078276*
X0067368Y007837*
X0067373Y0078373*
X0067524Y0078326*
X0067595Y0078171*
X0067665Y007776*
X006747Y0077468*
X0067377Y0077*
X006747Y0076532*
X0067735Y0076135*
X0068132Y007587*
X00686Y0075776*
X006891Y0075328*
Y0072503*
X006841Y0072236*
X0068268Y007233*
X00678Y0072423*
X0067332Y007233*
X0066935Y0072065*
X006667Y0071668*
X0066576Y00712*
X0066612Y0071021*
X0062667Y0067076*
X0062205Y0067267*
Y0070866*
X0058793*
X0058602Y0071328*
X0065626Y0078352*
X0065979Y0078596*
X0066363Y0078416*
G37*
G36*
X0035433Y0057186D02*
Y0049875D01*
X0034133*
X0031332Y0052676*
X00314Y0052804*
Y0054724*
Y0056348*
X0030978Y0056655*
Y0058055*
X003118Y005819*
X0031445Y0058587*
X0031539Y0059055*
X0031445Y0059523*
X003118Y005992*
X0030783Y0060185*
X0030315Y0060279*
X0029847Y0060185*
X0029483Y0059942*
X002931Y005998*
X0028983Y0060121*
Y0060872*
X0028324*
Y0061568*
X0028983*
Y0062227*
X0030392*
X0035433Y0057186*
G37*
G36*
X0087992Y0043996D02*
X0088681Y0043307D01*
X0092421*
X0093701Y0042028*
Y0038386*
X0087795*
X0082874Y0043307*
Y0045669*
X0087992Y0046161*
Y0043996*
G37*
G36*
X0052285Y0015859D02*
X0052088Y0015727D01*
X0051822Y001533*
X0051729Y0014862*
X0051822Y0014394*
X0052088Y0013997*
X0052485Y0013732*
X0052629Y0013193*
X0052586Y0013156*
X0042799*
Y0009629*
X0042379Y0009209*
X0040957*
X0040924Y0009258*
X0040527Y0009524*
X004052Y0009525*
X0040355Y0010068*
X0041915Y0011628*
X0042092Y0011893*
X0042154Y0012205*
Y0013245*
X0042661Y0013751*
X0044587*
X0044899Y0013813*
X0045163Y001399*
X0048953Y0017779*
X004913Y0018044*
X0049192Y0018356*
Y0019521*
X0052285*
Y0015859*
G37*
G36*
X0077067Y0035659D02*
X007438Y0032972D01*
X0069882*
Y0044358*
X0073524Y0048*
X0077067*
Y0035659*
G37*
%LNdigit-4*%
%LPC*%
G36*
X00322Y0056276D02*
Y0055124D01*
X0033352*
X0033307Y0055349*
X0032954Y0055878*
X0032424Y0056232*
X00322Y0056276*
G37*
G36*
X0033352Y0054324D02*
X00322D01*
Y0053173*
X0032424Y0053217*
X0032954Y0053571*
X0033307Y00541*
X0033352Y0054324*
G37*
%LNdigit-5*%
%LPD*%
G54D15*
X0033858Y0049213D02*
X0045713D01*
X0030315Y0052756D02*
X0033858Y0049213D01*
X0030315Y0052756D02*
Y0059055D01*
X004748Y007189D02*
X005315Y0077559D01*
Y0079528*
X004748Y0062598D02*
Y007189D01*
X0057874Y0075984D02*
Y0079528D01*
X0061417Y0076772D02*
Y0079528D01*
X0049606Y0067716D02*
X0057874Y0075984D01*
X0067225Y00495D02*
X006845Y0048275D01*
X0049606Y0062598D02*
Y0067716D01*
X0061655Y0052846D02*
X00686D01*
X0059776Y0054724D02*
X0061655Y0052846D01*
X0053858Y0054724D02*
X0059776D01*
X00544Y00495D02*
X0067225D01*
X0051732Y0052168D02*
X00544Y00495D01*
X0051732Y0052168D02*
Y0054724D01*
X0049606Y0051194D02*
Y0054724D01*
X004748Y005098D02*
Y0054724D01*
X0045713Y0049213D02*
X004748Y005098D01*
X0038902Y0062598D02*
X0045354D01*
X0033Y00685D02*
X0038902Y0062598D01*
X0031Y00685D02*
X0033D01*
X0069572Y0068272D02*
Y0076028D01*
X0059961Y0058661D02*
X0069572Y0068272D01*
X0053858Y0058661D02*
X0059961D01*
X00669Y0079202D02*
X0068518D01*
X0070472Y0067572D02*
Y0077248D01*
X0059593Y0056693D02*
X0070472Y0067572D01*
X0053858Y0056693D02*
X0059593D01*
X00686Y0077D02*
X0069572Y0076028D01*
X00669Y0079202D02*
Y00795D01*
X0068518Y0079202D02*
X0070472Y0077248D01*
X0051732Y0067087D02*
X0061417Y0076772D01*
X0051732Y0062598D02*
Y0067087D01*
G54D16*
X0006205Y0033169D03*
X0006299Y0029528D03*
Y0026D03*
Y0022441D03*
Y0018898D03*
G54D17*
X0082451Y0025295D03*
Y0022146D03*
X0072342D03*
Y0025295D03*
X0091732Y0066142D03*
Y0062992D03*
X00931Y0051125D03*
Y0054275D03*
X0066899Y0056115D03*
Y0059265D03*
X0070442Y0056115D03*
Y0059265D03*
X0066929Y0086614D03*
Y0083465D03*
X0063386Y0086614D03*
Y0083465D03*
G54D18*
X0077559Y0029626D03*
Y0023327D03*
X0026083Y0048228D03*
Y0054527D03*
X0091732Y0046457D03*
Y0040157D03*
G54D19*
X0052461Y0085138D03*
X005876D03*
G54D20*
X0010925Y0060728D03*
Y0054232D03*
X0015846Y0060728D03*
Y0054232D03*
G54D21*
X0085039Y0062992D03*
Y0066732D03*
Y0070472D03*
X007559D03*
Y0062992D03*
X0085433Y0046654D03*
Y0050394D03*
Y0054134D03*
X0075984D03*
Y0046654D03*
G54D22*
X0053858Y0062598D03*
Y006063D03*
Y0058661D03*
Y0056693D03*
Y0054724D03*
X0051732Y0062598D03*
Y006063D03*
Y0058661D03*
Y0056693D03*
Y0054724D03*
X0049606Y0062598D03*
Y006063D03*
Y0058661D03*
Y0056693D03*
Y0054724D03*
X004748Y0062598D03*
Y006063D03*
Y0058661D03*
Y0056693D03*
Y0054724D03*
X0045354Y0062598D03*
Y006063D03*
Y0058661D03*
Y0056693D03*
Y0054724D03*
G54D23*
X0060433Y003937D03*
X005689D03*
X0060433Y00357D03*
X005689D03*
X0024213Y0102362D03*
X0027756D03*
X0024213Y0098819D03*
X0027756D03*
G54D24*
X007126Y0094882D03*
Y0090945D03*
X0028346D03*
Y0094882D03*
X0014173Y0090945D03*
Y0094882D03*
G54D25*
X0084252Y0094685D03*
Y0091142D03*
G54D26*
X0075295Y0094882D03*
Y0092913D03*
Y0090945D03*
X008061D03*
Y0092913D03*
Y0094882D03*
X0018602D03*
Y0092913D03*
Y0090945D03*
X0023917D03*
Y0092913D03*
Y0094882D03*
G54D27*
X0039075Y0016437D03*
X0059252D03*
G54D28*
X0054675Y0021358D03*
X00531D03*
X0051526D03*
X0049951D03*
X0043652D03*
X0045226D03*
X0046801D03*
X0048376D03*
Y0011319D03*
X0046801D03*
X0045226D03*
X0043652D03*
X0049951D03*
X0051526D03*
X00531D03*
X0054675D03*
G54D29*
X007874Y0076378D03*
X007559D03*
X0079134Y0040551D03*
X0075984D03*
X0024409Y0066535D03*
X0027559D03*
X0024409Y0070079D03*
X0027559D03*
X0024409Y0062992D03*
X0027559D03*
X0024409Y0059449D03*
X0027559D03*
G54D30*
X0011417Y0065748D03*
X0015354D03*
X0011417Y0048425D03*
X0015354D03*
G54D48*
X0091732Y00592D03*
X0073228Y0037D03*
G54D51*
X0006299Y0029528D02*
X0010818D01*
X0021437Y0025D02*
X0048813D01*
X000419Y0042248D02*
X0021437Y0025D01*
X000419Y0042248D02*
Y007029D01*
X0022017Y00264D02*
X00508D01*
X000559Y0042827D02*
X0022017Y00264D01*
X000559Y0042827D02*
Y006971D01*
X0048813Y0025D02*
X0049213Y00246D01*
X00508Y00264D02*
X00518Y00254D01*
X0048376Y0018356D02*
Y0021358D01*
X0044587Y0014567D02*
X0048376Y0018356D01*
X0042323Y0014567D02*
X0044587D01*
X0041339Y0012205D02*
Y0013583D01*
X00375Y0008366D02*
X0041339Y0012205D01*
Y0013583D02*
X0042323Y0014567D01*
X0040059Y0008393D02*
X0042717D01*
X0043652Y0009328*
Y0011319*
X0052953Y0014862D02*
X00531Y001501D01*
Y0021358D02*
Y0021407D01*
Y001501D02*
Y0021358D01*
X0069576Y0017815D02*
X0075295D01*
X0063769Y0023622D02*
X0069576Y0017815D01*
X0055216Y0023622D02*
X0063769D01*
X0077067Y0019587D02*
Y0022835D01*
X0077559Y0023327*
X0075295Y0017815D02*
X0077067Y0019587D01*
X0054728Y0023133D02*
X0055216Y0023622D01*
X0054728Y0021411D02*
Y0023133D01*
X0054675Y0021358D02*
X0054728Y0021411D01*
X0082424Y0025323D02*
X0082451Y0025295D01*
X0024409Y0062992D02*
Y0066535D01*
Y0059449D02*
Y0062992D01*
Y0066535D02*
Y0070079D01*
X0078828Y0076466D02*
Y0078133D01*
X007874Y0076378D02*
X0078828Y0076466D01*
Y0078133D02*
X00804Y0079705D01*
X00896Y00661D02*
X009169D01*
X0091732Y0066142*
X0088968Y0066732D02*
X00896Y00661D01*
X0085039Y0066732D02*
X0088968D01*
X009Y00696D02*
X0091D01*
X00899Y00697D02*
X009Y00696D01*
X0091D02*
X0091732Y0068868D01*
Y0066142D02*
Y0068868D01*
X0085839Y00508D02*
X00899D01*
X009Y00507*
X0085433Y0050394D02*
X0085839Y00508D01*
X009Y00507D02*
X0090216D01*
X0090642Y0051125*
X00931*
X0082451Y0040551D02*
X00825Y00406D01*
X0079134Y0040551D02*
X0082451D01*
X0010925Y0048917D02*
X0011417Y0048425D01*
X0010925Y0048917D02*
Y0054232D01*
X00079Y0048275D02*
X000805Y0048425D01*
X0011417*
X00081Y0065748D02*
X0011417D01*
X0010925Y0054232D02*
X0011853Y005516D01*
Y0056735*
X0014475Y0059357*
X0014672*
X0015846Y0060532*
Y0060728*
X00155Y00986D02*
X00173D01*
X0018602Y0097298*
Y0094882D02*
Y0097298D01*
X00141Y0090872D02*
X0014173Y0090945D01*
X00141Y00879D02*
Y0090872D01*
X00273Y00871D02*
X0028346Y0088147D01*
Y0090945*
X007126Y0094882D02*
D01*
X0075295*
X007126D02*
Y0097495D01*
X0072865Y00991*
X00748*
X0067215Y00869D02*
X00715D01*
X0066929Y0086614D02*
X0067215Y00869D01*
X0063386Y0086614D02*
X0066929D01*
X0072029Y0056672D02*
X0073796Y0058439D01*
X00814*
X0071Y0056672D02*
X0072029D01*
X0070442Y0056115D02*
X0071Y0056672D01*
X0066899Y0056115D02*
X0070442D01*
X0085433Y0054134D02*
X0093D01*
X0084252Y0091142D02*
X00875D01*
X0091732Y00592D02*
Y0062992D01*
X007334Y0037111D02*
X0074911D01*
X0073228Y0037D02*
X007334Y0037111D01*
X0074911D02*
X0075984Y0038184D01*
Y0040551*
X00822Y0054134D02*
X0085433D01*
X00809Y0052834D02*
X00822Y0054134D01*
X00809Y0048D02*
Y0052834D01*
Y0048D02*
X0082143Y0046757D01*
X0085329*
X0085433Y0046654*
X00076Y00737D02*
X00209D01*
X000559Y006971D02*
X000818Y00723D01*
X000419Y007029D02*
X00076Y00737D01*
X000818Y00723D02*
X0019754D01*
X0020154Y00719*
X0020283*
X0020684Y00715*
X00209*
X00804Y00692D02*
X0081672Y0070472D01*
X0085039*
X00804Y00641D02*
Y00692D01*
Y00641D02*
X0081508Y0062992D01*
X0085039*
X0091732*
X0075984Y0040551D02*
Y0046654D01*
X0085433Y0042518D02*
X0087794Y0040157D01*
X0091732*
X0085433Y0042518D02*
Y0046654D01*
X007559Y0076378D02*
D01*
Y0070472D02*
Y0076378D01*
G54D52*
X0012992Y0027953D02*
Y0030315D01*
X0010138Y0033169D02*
X0012992Y0030315D01*
X0006205Y0033169D02*
X0010138D01*
X0014354Y0026D02*
X001437Y0025984D01*
X0006299Y0026D02*
X0014354D01*
X0011417Y0022441D02*
X0012992Y0024016D01*
X0006299Y0022441D02*
X0011417D01*
X0009936Y0018898D02*
X0013086Y0022047D01*
X001437*
X0006299Y0018898D02*
X0009936D01*
X0063751Y00357D02*
X0065748Y0037697D01*
X0060433Y00357D02*
X0063751D01*
X0065748Y0037697D02*
Y0041339D01*
X0033864Y0102171D02*
X0034055Y0102362D01*
X0030807Y0048228D02*
D01*
X0026083D02*
X0030807D01*
X0050295Y0089272D02*
X0051912Y0087655D01*
Y0085686D02*
Y0087655D01*
Y0085686D02*
X0052461Y0085138D01*
X0063189Y0083268D02*
Y0083506D01*
X0061834Y0084032D02*
X0062662D01*
X0063189Y0083506*
X006108Y0084786D02*
X0061834Y0084032D01*
X0059111Y0084786D02*
X006108D01*
X005876Y0085138D02*
X0059111Y0084786D01*
X0040945Y0070079D02*
X0046358Y0064665D01*
X0025223Y00421D02*
X0041219D01*
X0022037Y0045286D02*
X0025223Y00421D01*
X0022037Y0045286D02*
Y0057937D01*
X0048556Y0069422D02*
X005605Y0076916D01*
Y0078524*
X0060433Y003937D02*
X00625D01*
X0063276Y0040146*
Y0041327*
X0063287Y0041339*
X005689Y003937D02*
Y0042323D01*
Y00357D02*
Y003937D01*
X0051429Y003189D02*
X006639D01*
X0041219Y00421D02*
X0051429Y003189D01*
X00683Y0091D02*
X0068355Y0090945D01*
X007126*
X00108Y00949D02*
X0010818Y0094882D01*
X0014173*
X0028656Y0095191D02*
X0030174D01*
X0028346Y0094882D02*
X0028656Y0095191D01*
X0030174D02*
X0032283Y00973D01*
X0032Y00641D02*
X0037439Y0058661D01*
X0027756Y0098819D02*
X0027837Y00989D01*
X0084055Y0094882D02*
X0084252Y0094685D01*
X008061Y0094882D02*
X0084055D01*
X0072239Y0091924D02*
X0073228Y0092913D01*
X0072239Y0091728D02*
Y0091924D01*
X0071457Y0090945D02*
X0072239Y0091728D01*
X007126Y0090945D02*
X0071457D01*
X0073228Y0092913D02*
X0075295D01*
X0023917D02*
X0026378D01*
X0027367Y0093902*
Y0094099*
X002815Y0094882*
X0028346*
X00224Y0102362D02*
X0024213D01*
X00208Y0100762D02*
X00224Y0102362D01*
X00208Y00916D02*
Y0100762D01*
X0020145Y0090945D02*
X00208Y00916D01*
X0018602Y0090945D02*
X0020145D01*
X0016142Y0092913D02*
X0018602D01*
X0015153Y0093902D02*
X0016142Y0092913D01*
X0015153Y0093902D02*
Y0094099D01*
X001437Y0094882D02*
X0015153Y0094099D01*
X0014173Y0094882D02*
X001437D01*
X00244Y00971D02*
Y0098632D01*
X0024213Y0098819D02*
X00244Y0098632D01*
X0023917Y0096617D02*
X00244Y00971D01*
X0023917Y0094882D02*
Y0096617D01*
X00153Y0064D02*
Y0065694D01*
X0015354Y0065748*
X00147Y00634D02*
X00153Y0064D01*
X00135Y00634D02*
X00147D01*
X00123Y00622D02*
X00135Y00634D01*
X00122Y00622D02*
X00123D01*
X0010925Y0060925D02*
X00122Y00622D01*
X0010925Y0060728D02*
Y0060925D01*
X0015354Y0048425D02*
X0015846Y0048917D01*
Y0054232*
X00182*
X00198Y0055832*
Y00642*
X00203Y00647*
X00221*
X0015354Y0065748D02*
X0017648D01*
X00186Y00667*
X00221*
X0059198Y0062598D02*
X00678Y00712D01*
X0053858Y0062598D02*
X0059198D01*
X00654Y0079135D02*
Y00806D01*
X0052782Y0066518D02*
X00654Y0079135D01*
X0055332Y00506D02*
X00686D01*
X0052782Y005315D02*
X0055332Y00506D01*
X0066525Y0048275D02*
X00686Y00462D01*
X0054125Y0048275D02*
X0066525D01*
X0050682Y0051718D02*
X0054125Y0048275D01*
X0064317Y00471D02*
X0065748Y0045669D01*
X00537Y00471D02*
X0064317D01*
X0049606Y0051194D02*
X00537Y00471D01*
X0051724Y0045276D02*
X0061417D01*
X0048556Y0048444D02*
X0051724Y0045276D01*
X0037439Y0058661D02*
X0045354D01*
X00654Y00806D02*
X0066929Y0082129D01*
X0063189Y0083268D02*
X0063386Y0083465D01*
X0066929*
Y0082129D02*
Y0083465D01*
X0063287Y0041339D02*
Y0043406D01*
X0061417Y0045276D02*
X0063287Y0043406D01*
X0065748Y0041339D02*
Y0045669D01*
X0027559Y0070079D02*
X0040945D01*
G54D53*
X0077559Y0023327D02*
X0080118D01*
X0081299Y0022146*
X0082451*
X0086319*
X0091732Y0027559*
Y0040157*
X0073819Y0029528D02*
X0077461D01*
X0077559Y0029626*
X0072342Y0028051D02*
X0073819Y0029528D01*
X0072342Y0025295D02*
Y0028051D01*
X00686Y0025197D02*
X0068698Y0025295D01*
X0072342*
G54D54*
X0034055Y0100959D02*
Y0102362D01*
X0031915Y0098819D02*
X0034055Y0100959D01*
X0027756Y0098819D02*
X0031915D01*
X0026378Y0054823D02*
Y0057087D01*
X0026083Y0054527D02*
X0026378Y0054823D01*
Y0057087D02*
X0027084Y0057792D01*
Y0058973*
X0027559Y0059449*
X0027756Y0102362D02*
X0031462D01*
X0066899Y0059265D02*
X0070442D01*
X0070472Y0059294D02*
Y00623D01*
X0070442Y0059265D02*
X0070472Y0059294D01*
Y00623D02*
X0071165Y0062992D01*
X007559*
X00682Y00618D02*
Y00627D01*
X0066899Y0060499D02*
X00682Y00618D01*
X0066899Y0059265D02*
Y0060499D01*
X0032677Y0066535D02*
X0038583Y006063D01*
X0045354*
X0027559Y0066535D02*
X0032677D01*
X005983Y006063D02*
X00678Y00686D01*
X0053858Y006063D02*
X005983D01*
X00318Y0054724D02*
X0045354D01*
X0027559Y0059449D02*
Y0062992D01*
X0030709*
X0037008Y0056693*
X0045354*
G54D55*
X0046358Y0063079D02*
Y0064665D01*
Y0063079D02*
X0046404Y0063033D01*
X0048556Y0061706D02*
Y0069422D01*
X0050682Y0059737D02*
Y006759D01*
X0052782Y006168D02*
Y0066518D01*
X0046404Y0059737D02*
Y0063033D01*
Y0059737D02*
X004748Y0058661D01*
X0050682Y0051718D02*
Y0057611D01*
X0051732Y006063D02*
X0052782Y006168D01*
X0059646Y0076554D02*
Y0080807D01*
X0050682Y006759D02*
X0059646Y0076554D01*
X0048556Y0048444D02*
Y0055617D01*
X004748Y006063D02*
X004853Y005958D01*
X0048556*
X0049606Y006063*
X004748D02*
X0048556Y0061706D01*
X0051732Y0056693D02*
X0052782Y0055643D01*
Y005315D02*
Y0055643D01*
X0050682Y0057611D02*
X0051732Y0058661D01*
X0048556Y0057743D02*
Y005958D01*
Y0057743D02*
X0049606Y0056693D01*
Y0058661D02*
X0050682Y0059737D01*
X004748Y0056693D02*
X0048556Y0055617D01*
G54D56*
X0063287Y0016358D03*
X0035138D03*
G54D57*
X0049213Y0105118D03*
X0015748Y0011811D03*
X0082677D03*
G54D58*
X0010818Y0029528D03*
X0012992Y0027953D03*
X0048819Y0041732D03*
X0051968D03*
X0054295D03*
X0020417D03*
X001437Y0022047D03*
X0012992Y0024016D03*
X001437Y0025984D03*
X0049213Y00246D03*
X0075295Y0017815D03*
X0034055Y0102362D03*
X00375Y0008366D03*
X0040059Y0008393D03*
X0052953Y0014862D03*
X0050295Y0089272D03*
X0009843Y0044094D03*
X00518Y00254D03*
X0054232Y0089272D03*
X005315Y0079528D03*
X00209Y00715D03*
X00299Y0078D03*
X00669Y00795D03*
X0050787Y0079528D03*
X00437Y00794D03*
X00354Y00331D03*
X0061417Y0079528D03*
X00221Y00667D03*
X0030315Y0059055D03*
X0033Y00331D03*
X0048425Y0079528D03*
X0063287Y0041339D03*
X00391Y0031416D03*
X0059646Y0080807D03*
X00686Y0077D03*
X00354Y00887D03*
X00636Y00796D03*
X00273Y00871D03*
X00221Y00647D03*
X00304Y00331D03*
X0057874Y0079528D03*
X0065748Y0041339D03*
X0055905Y008061D03*
X00209Y00737D03*
X00461Y00794D03*
X005605Y0078524D03*
X005689Y0042323D03*
X0037008Y0028698D03*
X0030807Y0048228D03*
X0017572Y0077328D03*
X00562Y00981D03*
X00683Y0091D03*
X00353Y0094488D03*
X0032283Y00973D03*
X00108Y00949D03*
X0062205Y00983D03*
X0058661Y0098155D03*
X0065748Y0098148D03*
X00081Y0065748D03*
X00079Y0048275D03*
X00155Y00986D03*
X00748Y00991D03*
X00715Y00869D03*
X00814Y0058439D03*
X00804Y0079705D03*
X00899Y00697D03*
X009Y00507D03*
X00825Y00406D03*
X0049213Y00303D03*
X0063287Y0026D03*
X00598D03*
X00272Y00345D03*
X00121Y00695D03*
X00141Y00774D03*
Y00879D03*
X0031462Y0102362D03*
X00875Y0091142D03*
X0032Y00641D03*
X00318Y0054724D03*
X0022037Y0057937D03*
X006639Y003189D03*
X00563Y0026D03*
X00682Y00627D03*
X00678Y00686D03*
X00686Y00462D03*
Y0048425D03*
Y00506D03*
Y0052846D03*
X00678Y00712D03*
X0031Y00685D03*
G54D59*
X00686Y0025197D03*
M02*