%FSTAX25Y25*%
%MOIN*%
%SFA1B1*%

%IPPOS*%
%ADD10C,0.010000*%
%ADD26C,0.010000*%
%LNgel_flex-1*%
%LPD*%
G54D10*
X0167823Y0127953D02*
D01*
X0167821Y0127987*
X0167818Y0128022*
X0167812Y0128056*
X0167803Y012809*
X0167792Y0128124*
X0167779Y0128156*
X0167764Y0128187*
X0167747Y0128217*
X0167727Y0128246*
X0167706Y0128274*
X0167682Y01283*
X0167657Y0128324*
X016763Y0128347*
X0167602Y0128367*
X0167573Y0128386*
X0167542Y0128402*
X016751Y0128416*
X0167477Y0128428*
X0167443Y0128438*
X0167409Y0128445*
X0167375Y012845*
X016734Y0128452*
X0167323Y0128453*
X0167823Y0127953D02*
D01*
X0167821Y0127987*
X0167818Y0128022*
X0167812Y0128056*
X0167803Y012809*
X0167792Y0128124*
X0167779Y0128156*
X0167764Y0128187*
X0167747Y0128217*
X0167727Y0128246*
X0167706Y0128274*
X0167682Y01283*
X0167657Y0128324*
X016763Y0128347*
X0167602Y0128367*
X0167573Y0128386*
X0167542Y0128402*
X016751Y0128416*
X0167477Y0128428*
X0167443Y0128438*
X0167409Y0128445*
X0167375Y012845*
X016734Y0128452*
X0167323Y0128453*
Y0107768D02*
D01*
X0167357Y0107769*
X0167392Y0107772*
X0167426Y0107778*
X016746Y0107787*
X0167494Y0107798*
X0167526Y0107811*
X0167557Y0107826*
X0167587Y0107843*
X0167616Y0107863*
X0167644Y0107884*
X016767Y0107908*
X0167694Y0107933*
X0167717Y010796*
X0167737Y0107988*
X0167756Y0108018*
X0167772Y0108048*
X0167786Y010808*
X0167798Y0108113*
X0167808Y0108147*
X0167815Y0108181*
X016782Y0108215*
X0167822Y010825*
X0167823Y0108268*
X0167323Y0107768D02*
D01*
X0167357Y0107769*
X0167392Y0107772*
X0167426Y0107778*
X016746Y0107787*
X0167494Y0107798*
X0167526Y0107811*
X0167557Y0107826*
X0167587Y0107843*
X0167616Y0107863*
X0167644Y0107884*
X016767Y0107908*
X0167694Y0107933*
X0167717Y010796*
X0167737Y0107988*
X0167756Y0108018*
X0167772Y0108048*
X0167786Y010808*
X0167798Y0108113*
X0167808Y0108147*
X0167815Y0108181*
X016782Y0108215*
X0167822Y010825*
X0167823Y0108268*
X0023622Y0108768D02*
D01*
X0023587Y0108766*
X0023566Y0108765*
X0022692Y0108666D02*
D01*
X0022657Y0108661*
X0022623Y0108653*
X0022589Y0108643*
X0022581Y0108641*
X0023622Y0108768D02*
D01*
X0023587Y0108766*
X0023564Y0108764*
X002269Y0108666D02*
D01*
X0022655Y010866*
X0022621Y0108653*
X0022587Y0108643*
X0022579Y010864*
X002175Y010835D02*
D01*
X0021717Y0108337*
X0021685Y0108322*
X0021655Y0108305*
X0021648Y0108301*
X0021749Y010835D02*
D01*
X0021716Y0108337*
X0021684Y0108322*
X0021654Y0108305*
X0021646Y01083*
X0020903Y0107833D02*
D01*
X0020874Y0107813*
X0020846Y0107792*
X002082Y0107768*
X0020814Y0107762*
X0020901Y0107832D02*
D01*
X0020872Y0107812*
X0020844Y010779*
X0020818Y0107767*
X0020812Y0107761*
X0020192Y0107141D02*
D01*
X0020168Y0107115*
X0020146Y0107088*
X0020125Y010706*
X0020121Y0107051*
X002019Y0107139D02*
D01*
X0020166Y0107113*
X0020144Y0107086*
X0020124Y0107057*
X002012Y010705*
X0019652Y0106306D02*
D01*
X0019634Y0106275*
X0019618Y0106244*
X0019605Y0106212*
X0019603Y0106204*
X0019652Y0106305D02*
D01*
X0019634Y0106274*
X0019619Y0106243*
X0019605Y0106211*
X0019602Y0106202*
X0019312Y0105374D02*
D01*
X0019301Y010534*
X0019293Y0105306*
X0019287Y0105272*
X0019287Y0105263*
X0019312Y0105372D02*
D01*
X0019301Y0105338*
X0019293Y0105304*
X0019288Y010527*
X0019287Y010526*
X0000398D02*
D01*
X0000393Y0105294*
X0000385Y0105328*
X0000375Y0105362*
X0000373Y0105372*
X0019188Y0104389D02*
D01*
X0019185Y0104354*
X0019185Y0104331*
X0019188Y0104387D02*
D01*
X0019185Y0104352*
X0019185Y0104331*
X0019685Y0043791D02*
D01*
X0019719Y0043792*
X0019754Y0043795*
X0019788Y0043801*
X0019822Y004381*
X0019856Y0043821*
X0019888Y0043834*
X0019919Y0043849*
X0019949Y0043866*
X0019978Y0043886*
X0020006Y0043907*
X0020032Y0043931*
X0020056Y0043956*
X0020079Y0043983*
X0020099Y0044011*
X0020118Y0044041*
X0020134Y0044071*
X0020148Y0044103*
X002016Y0044136*
X002017Y004417*
X0020177Y0044204*
X0020182Y0044238*
X0020184Y0044273*
X0020185Y0044291*
X00005Y0104331D02*
D01*
X0000498Y0104365*
X0000497Y0104387*
X0019685Y0043791D02*
D01*
X0019719Y0043792*
X0019754Y0043795*
X0019788Y0043801*
X0019822Y004381*
X0019856Y0043821*
X0019888Y0043834*
X0019919Y0043849*
X0019949Y0043866*
X0019978Y0043886*
X0020006Y0043907*
X0020032Y0043931*
X0020056Y0043956*
X0020079Y0043983*
X0020099Y0044011*
X0020118Y0044041*
X0020134Y0044071*
X0020148Y0044103*
X002016Y0044136*
X002017Y004417*
X0020177Y0044204*
X0020182Y0044238*
X0020184Y0044273*
X0020185Y0044291*
X-0003879Y0108764D02*
D01*
X-0003913Y0108766*
X-0003937Y0108768*
X-0002896Y0108641D02*
D01*
X-0002929Y0108651*
X-0002963Y0108659*
X-0002997Y0108664*
X-0003007Y0108666*
X-0003881Y0108765D02*
D01*
X-0003915Y0108767*
X-0003937Y0108768*
X-0002894Y010864D02*
D01*
X-0002927Y010865*
X-0002961Y0108658*
X-0002995Y0108664*
X-0003005Y0108666*
X-0001961Y01083D02*
D01*
X-0001991Y0108317*
X-0002022Y0108333*
X-0002054Y0108346*
X-0002064Y010835*
X-0147638Y0128453D02*
D01*
X-0147672Y0128451*
X-0147707Y0128448*
X-0147741Y0128442*
X-0147775Y0128433*
X-0147809Y0128422*
X-0147841Y0128409*
X-0147872Y0128394*
X-0147902Y0128377*
X-0147931Y0128357*
X-0147959Y0128336*
X-0147985Y0128312*
X-0148009Y0128287*
X-0148032Y012826*
X-0148052Y0128232*
X-0148071Y0128203*
X-0148087Y0128172*
X-0148101Y012814*
X-0148113Y0128107*
X-0148123Y0128073*
X-014813Y0128039*
X-0148135Y0128005*
X-0148137Y012797*
X-0148138Y0127953*
X-0147638Y0128453D02*
D01*
X-0147672Y0128451*
X-0147707Y0128448*
X-0147741Y0128442*
X-0147775Y0128433*
X-0147809Y0128422*
X-0147841Y0128409*
X-0147872Y0128394*
X-0147902Y0128377*
X-0147931Y0128357*
X-0147959Y0128336*
X-0147985Y0128312*
X-0148009Y0128287*
X-0148032Y012826*
X-0148052Y0128232*
X-0148071Y0128203*
X-0148087Y0128172*
X-0148101Y012814*
X-0148113Y0128107*
X-0148123Y0128073*
X-014813Y0128039*
X-0148135Y0128005*
X-0148137Y012797*
X-0148138Y0127953*
Y0108268D02*
D01*
X-0148136Y0108233*
X-0148133Y0108198*
X-0148127Y0108164*
X-0148118Y010813*
X-0148107Y0108096*
X-0148094Y0108064*
X-0148079Y0108033*
X-0148062Y0108003*
X-0148042Y0107974*
X-0148021Y0107946*
X-0147997Y010792*
X-0147972Y0107896*
X-0147945Y0107873*
X-0147917Y0107853*
X-0147888Y0107834*
X-0147857Y0107818*
X-0147825Y0107804*
X-0147792Y0107792*
X-0147758Y0107782*
X-0147724Y0107775*
X-014769Y010777*
X-0147655Y0107768*
X-0147638Y0107768*
X-0148138Y0108268D02*
D01*
X-0148136Y0108233*
X-0148133Y0108198*
X-0148127Y0108164*
X-0148118Y010813*
X-0148107Y0108096*
X-0148094Y0108064*
X-0148079Y0108033*
X-0148062Y0108003*
X-0148042Y0107974*
X-0148021Y0107946*
X-0147997Y010792*
X-0147972Y0107896*
X-0147945Y0107873*
X-0147917Y0107853*
X-0147888Y0107834*
X-0147857Y0107818*
X-0147825Y0107804*
X-0147792Y0107792*
X-0147758Y0107782*
X-0147724Y0107775*
X-014769Y010777*
X-0147655Y0107768*
X-0147638Y0107768*
X-0000434Y010705D02*
D01*
X-0000453Y0107078*
X-0000474Y0107106*
X-0000498Y0107132*
X-0000505Y0107139*
X0000083Y0106202D02*
D01*
X000007Y0106234*
X0000055Y0106266*
X0000038Y0106296*
X0000034Y0106305*
X0000082Y0106204D02*
D01*
X0000069Y0106236*
X0000054Y0106268*
X0000037Y0106298*
X0000033Y0106306*
X0000398Y0105263D02*
D01*
X0000392Y0105297*
X0000385Y0105331*
X0000375Y0105365*
X0000373Y0105374*
X00005Y0104331D02*
D01*
X0000498Y0104365*
X0000497Y0104389*
X-00005Y0044291D02*
D01*
X-0000498Y0044256*
X-0000495Y0044221*
X-0000489Y0044187*
X-000048Y0044153*
X-0000469Y0044119*
X-0000456Y0044087*
X-0000441Y0044056*
X-0000424Y0044026*
X-0000404Y0043997*
X-0000383Y0043969*
X-0000359Y0043943*
X-0000334Y0043919*
X-0000307Y0043896*
X-0000279Y0043876*
X-0000249Y0043857*
X-0000219Y0043841*
X-0000187Y0043827*
X-0000154Y0043815*
X-000012Y0043805*
X-0000086Y0043798*
X-0000052Y0043793*
X-0000017Y0043791*
X0Y0043791*
X-00005Y0044291D02*
D01*
X-0000498Y0044256*
X-0000495Y0044221*
X-0000489Y0044187*
X-000048Y0044153*
X-0000469Y0044119*
X-0000456Y0044087*
X-0000441Y0044056*
X-0000424Y0044026*
X-0000404Y0043997*
X-0000383Y0043969*
X-0000359Y0043943*
X-0000334Y0043919*
X-0000307Y0043896*
X-0000279Y0043876*
X-0000249Y0043857*
X-0000219Y0043841*
X-0000187Y0043827*
X-0000154Y0043815*
X-000012Y0043805*
X-0000086Y0043798*
X-0000052Y0043793*
X-0000017Y0043791*
X0Y0043791*
X-0001127Y0107761D02*
D01*
X-0001152Y0107784*
X-0001179Y0107806*
X-0001207Y0107827*
X-0001216Y0107832*
X-0001129Y0107762D02*
D01*
X-0001154Y0107785*
X-0001181Y0107807*
X-000121Y0107827*
X-0001218Y0107833*
X-0001963Y0108301D02*
D01*
X-0001993Y0108318*
X-0002024Y0108333*
X-0002056Y0108347*
X-0002065Y010835*
X-0000435Y0107051D02*
D01*
X-0000454Y0107079*
X-0000476Y0107107*
X-0000499Y0107133*
X-0000507Y0107141*
X0167823Y0127953D02*
Y0108268D01*
X0143701Y0108768D02*
X0166823D01*
Y0127453D02*
Y0108768D01*
X0143701Y0107767D02*
X0167323Y0107768D01*
X0023622Y0108768D02*
X0143701D01*
X002365Y0107767D02*
X0143701D01*
X0023564Y0108764D02*
X0023566Y0108765D01*
X0022692Y0108666D02*
X0023564Y0108764D01*
X002269Y0108666D02*
X0022692D01*
X0022579Y010864D02*
X0022581Y0108641D01*
X002175Y010835D02*
X0022579Y010864D01*
X0021749Y010835D02*
X002175D01*
X0021646Y01083D02*
X0021648Y0108301D01*
X0020903Y0107833D02*
X0021646Y01083D01*
X0020901Y0107832D02*
X0020903Y0107833D01*
X0022858Y0107678D02*
X002365Y0107767D01*
X0022132Y0107424D02*
X0022858Y0107678D01*
X0020812Y0107761D02*
X0020814Y0107762D01*
X0020192Y0107141D02*
X0020812Y0107761D01*
X002019Y0107139D02*
X0020192Y0107141D01*
X0021481Y0107015D02*
X0022132Y0107424D01*
X0020937Y0106472D02*
X0021481Y0107015D01*
X0020528Y010582D02*
X0020937Y0106472D01*
X0020275Y0105095D02*
X0020528Y010582D01*
X0020185Y0104303D02*
X0020275Y0105095D01*
X002012Y010705D02*
X0020121Y0107051D01*
X0019652Y0106306D02*
X002012Y010705D01*
X0019652Y0106305D02*
Y0106306D01*
X0019602Y0106202D02*
X0019603Y0106204D01*
X0019312Y0105374D02*
X0019602Y0106202D01*
X0019312Y0105372D02*
Y0105374D01*
X0019287Y010526D02*
Y0105263D01*
X0019188Y0104389D02*
X0019287Y010526D01*
X0019188Y0104387D02*
Y0104389D01*
X0000398Y0105263D02*
Y010526D01*
X0000497Y0104389*
Y0104387*
X0020185Y0044291D02*
Y0104303D01*
X0019185Y0044791D02*
Y0104331D01*
X00005Y0044791D02*
Y0104331D01*
X-0003007Y0108666D02*
X-0003005D01*
X-0003879Y0108764D02*
X-0003007Y0108666D01*
X-0003881Y0108765D02*
X-0003879Y0108764D01*
X-0124744Y0128453D02*
X0167323D01*
X-0124744Y0127453D02*
X0166823D01*
X-0124744Y0108768D02*
X-0003937D01*
X-0124744D02*
D01*
X-0002065Y010835D02*
X-0002064D01*
X-0002894Y010864D02*
X-0002065Y010835D01*
X-0002896Y0108641D02*
X-0002894Y010864D01*
X-0001218Y0107833D02*
X-0001216Y0107832D01*
X-0001961Y01083D02*
X-0001218Y0107833D01*
X-0001963Y0108301D02*
X-0001961Y01083D01*
X-0124744Y0107767D02*
X-0003965D01*
X-0003173Y0107678*
X-0147138Y0127453D02*
X-0124744D01*
X-0147138Y0108768D02*
Y0127453D01*
X-0147638Y0128453D02*
X-0124744D01*
X-0148138Y0108268D02*
Y0127953D01*
X-0147138Y0108768D02*
X-0124744D01*
X-0147638Y0107768D02*
X-0124744Y0107767D01*
X-0000435Y0107051D02*
X-0000434Y010705D01*
X0000033Y0106306*
X0000034Y0106305*
X0000082Y0106204D02*
X0000083Y0106202D01*
X0000373Y0105374*
Y0105372*
X0Y0043791D02*
X0019685D01*
X00005Y0044791D02*
X0019185D01*
X-0001129Y0107762D02*
X-0001127Y0107761D01*
X-0000507Y0107141*
X-0000505Y0107139*
X-0002447Y0107424D02*
X-0001796Y0107015D01*
X-0003173Y0107678D02*
X-0002447Y0107424D01*
X-0000843Y010582D02*
X-0000589Y0105095D01*
X-0001252Y0106472D02*
X-0000843Y010582D01*
X-0000589Y0105095D02*
X-00005Y0104303D01*
Y0044291D02*
Y0104303D01*
X-0001796Y0107015D02*
X-0001252Y0106472D01*
G54D26*
X-0124744Y0107767D03*
D03*
M02*