%FSTAX25Y25*%
%MOIN*%
%SFA1B1*%

%IPPOS*%
%ADD10C,0.010000*%
%ADD11R,0.028540X0.039370*%
%ADD12R,0.025590X0.039370*%
%ADD13R,0.025590X0.059060*%
%ADD18C,0.006000*%
%ADD19C,0.005000*%
%ADD20C,0.004000*%
%ADD21C,0.014000*%
%LNgel_flex-1*%
%LPD*%
G36*
X0148095Y0123604D02*
X0148052Y0123531D01*
X0148013Y0123453*
X014798Y0123369*
X0147952Y0123281*
X0147929Y0123188*
X0147912Y012309*
X0147899Y0122988*
X0147891Y012288*
X0147889Y0122767*
X0147289*
X0147286Y012288*
X0147266Y012309*
X0147248Y0123188*
X0147225Y0123281*
X0147197Y0123369*
X0147164Y0123453*
X0147126Y0123531*
X0147082Y0123604*
X0147034Y0123673*
X0148143*
X0148095Y0123604*
G37*
G36*
X0144207D02*
X0144164Y0123531D01*
X0144126Y0123453*
X0144093Y0123369*
X0144064Y0123281*
X0144042Y0123188*
X0144024Y012309*
X0144011Y0122988*
X0144003Y012288*
X0144001Y0122767*
X0143401*
X0143398Y012288*
X0143378Y012309*
X014336Y0123188*
X0143337Y0123281*
X0143309Y0123369*
X0143276Y0123453*
X0143238Y0123531*
X0143194Y0123604*
X0143146Y0123673*
X0144255*
X0144207Y0123604*
G37*
G36*
X0140319D02*
X0140276Y0123531D01*
X0140238Y0123453*
X0140205Y0123369*
X0140177Y0123281*
X0140154Y0123188*
X0140136Y012309*
X0140123Y0122988*
X0140115Y012288*
X0140113Y0122767*
X0139513*
X013951Y012288*
X013949Y012309*
X0139472Y0123188*
X0139449Y0123281*
X0139421Y0123369*
X0139388Y0123453*
X013935Y0123531*
X0139307Y0123604*
X0139258Y0123673*
X0140368*
X0140319Y0123604*
G37*
G36*
X0092977D02*
X0092933Y0123531D01*
X0092895Y0123453*
X0092862Y0123369*
X0092834Y0123281*
X0092811Y0123188*
X0092793Y012309*
X0092781Y0122988*
X0092773Y012288*
X009277Y0122767*
X0092171*
X0092168Y012288*
X0092148Y012309*
X009213Y0123188*
X0092107Y0123281*
X0092079Y0123369*
X0092046Y0123453*
X0092007Y0123531*
X0091964Y0123604*
X0091916Y0123673*
X0093025*
X0092977Y0123604*
G37*
G36*
X0089089D02*
X0089046Y0123531D01*
X0089008Y0123453*
X0088974Y0123369*
X0088946Y0123281*
X0088923Y0123188*
X0088906Y012309*
X0088893Y0122988*
X0088885Y012288*
X0088883Y0122767*
X0088283*
X008828Y012288*
X008826Y012309*
X0088242Y0123188*
X0088219Y0123281*
X0088191Y0123369*
X0088158Y0123453*
X008812Y0123531*
X0088076Y0123604*
X0088028Y0123673*
X0089137*
X0089089Y0123604*
G37*
G36*
X0085201D02*
X0085158Y0123531D01*
X008512Y0123453*
X0085087Y0123369*
X0085059Y0123281*
X0085036Y0123188*
X0085018Y012309*
X0085005Y0122988*
X0084997Y012288*
X0084995Y0122767*
X0084395*
X0084392Y012288*
X0084372Y012309*
X0084354Y0123188*
X0084331Y0123281*
X0084303Y0123369*
X008427Y0123453*
X0084232Y0123531*
X0084189Y0123604*
X008414Y0123673*
X008525*
X0085201Y0123604*
G37*
G36*
X-0064511D02*
X-0064554Y0123531D01*
X-0064592Y0123453*
X-0064625Y0123369*
X-0064653Y0123281*
X-0064676Y0123188*
X-0064694Y012309*
X-0064707Y0122988*
X-0064714Y012288*
X-0064717Y0122767*
X-0065317*
X-006532Y012288*
X-006534Y012309*
X-0065358Y0123188*
X-0065381Y0123281*
X-0065409Y0123369*
X-0065442Y0123453*
X-006548Y0123531*
X-0065523Y0123604*
X-0065572Y0123673*
X-0064462*
X-0064511Y0123604*
G37*
G36*
X-0068343Y0123673D02*
X-0068391Y0123604D01*
X-0068435Y0123531*
X-0068473Y0123452*
X-0068506Y0123369*
X-0068534Y0123281*
X-0068557Y0123188*
X-0068575Y012309*
X-0068587Y0122988*
X-0068595Y012288*
X-0068598Y0122767*
X-0069198Y0122768*
X-00692Y012288*
X-0069221Y012309*
X-0069238Y0123188*
X-0069261Y0123281*
X-0069289Y0123369*
X-0069322Y0123453*
X-0069361Y0123531*
X-0069404Y0123604*
X-0069452Y0123673*
X-0068343*
G37*
G36*
X-0072279Y0123604D02*
X-0072322Y0123531D01*
X-0072361Y0123453*
X-0072394Y0123369*
X-0072422Y0123281*
X-0072445Y0123188*
X-0072462Y012309*
X-0072475Y0122988*
X-0072483Y012288*
X-0072485Y0122767*
X-0073085*
X-0073088Y012288*
X-0073108Y012309*
X-0073126Y0123188*
X-0073149Y0123281*
X-0073177Y0123369*
X-007321Y0123453*
X-0073248Y0123531*
X-0073292Y0123604*
X-007334Y0123673*
X-0072231*
X-0072279Y0123604*
G37*
G36*
X-0119622D02*
X-0119665Y0123531D01*
X-0119703Y0123453*
X-0119736Y0123369*
X-0119764Y0123281*
X-0119787Y0123188*
X-0119805Y012309*
X-0119818Y0122988*
X-0119825Y012288*
X-0119828Y0122767*
X-0120428*
X-0120431Y012288*
X-0120451Y012309*
X-0120469Y0123188*
X-0120492Y0123281*
X-012052Y0123369*
X-0120553Y0123453*
X-0120591Y0123531*
X-0120634Y0123604*
X-0120683Y0123673*
X-0119573*
X-0119622Y0123604*
G37*
G36*
X-012351D02*
X-0123553Y0123531D01*
X-0123591Y0123453*
X-0123624Y0123369*
X-0123652Y0123281*
X-0123675Y0123188*
X-0123693Y012309*
X-0123706Y0122988*
X-0123713Y012288*
X-0123716Y0122767*
X-0124316*
X-0124318Y012288*
X-0124339Y012309*
X-0124356Y0123188*
X-0124379Y0123281*
X-0124407Y0123369*
X-0124441Y0123453*
X-0124479Y0123531*
X-0124522Y0123604*
X-012457Y0123673*
X-0123461*
X-012351Y0123604*
G37*
G36*
X-0127425Y0123628D02*
X-0127463Y0123558D01*
X-0127496Y0123483*
X-0127524Y0123401*
X-0127549Y0123314*
X-0127568Y0123221*
X-0127584Y0123123*
X-0127601Y0122909*
X-0127603Y0122793*
X-0128203Y0122747*
X-0128206Y0122856*
X-0128215Y0122961*
X-0128229Y0123063*
X-012825Y012316*
X-0128276Y0123253*
X-0128307Y0123341*
X-0128345Y0123426*
X-0128388Y0123506*
X-0128437Y0123582*
X-0128492Y0123654*
X-0127383Y0123693*
X-0127425Y0123628*
G37*
G36*
X0147892Y0122424D02*
X0147901Y0122322D01*
X0147916Y0122232*
X0147937Y0122154*
X0147964Y0122088*
X0147997Y0122034*
X0148036Y0121992*
X0148081Y0121962*
X0148132Y0121944*
X0148189Y0121938*
X0146989*
X0147046Y0121944*
X0147097Y0121962*
X0147142Y0121992*
X0147181Y0122034*
X0147214Y0122088*
X0147241Y0122154*
X0147262Y0122232*
X0147277Y0122322*
X0147286Y0122424*
X0147289Y0122538*
X0147889*
X0147892Y0122424*
G37*
G36*
X0144004D02*
X0144013Y0122322D01*
X0144028Y0122232*
X0144049Y0122154*
X0144076Y0122088*
X0144109Y0122034*
X0144148Y0121992*
X0144193Y0121962*
X0144244Y0121944*
X0144301Y0121938*
X0143101*
X0143158Y0121944*
X0143209Y0121962*
X0143254Y0121992*
X0143293Y0122034*
X0143326Y0122088*
X0143353Y0122154*
X0143374Y0122232*
X0143389Y0122322*
X0143398Y0122424*
X0143401Y0122538*
X0144001*
X0144004Y0122424*
G37*
G36*
X0140116D02*
X0140125Y0122322D01*
X014014Y0122232*
X0140161Y0122154*
X0140188Y0122088*
X0140221Y0122034*
X014026Y0121992*
X0140305Y0121962*
X0140356Y0121944*
X0140413Y0121938*
X0139213*
X013927Y0121944*
X0139321Y0121962*
X0139366Y0121992*
X0139405Y0122034*
X0139438Y0122088*
X0139465Y0122154*
X0139486Y0122232*
X0139501Y0122322*
X013951Y0122424*
X0139513Y0122538*
X0140113*
X0140116Y0122424*
G37*
G36*
X0092773Y0122423D02*
X0092782Y0122321D01*
X0092797Y0122231*
X0092818Y0122153*
X0092845Y0122087*
X0092879Y0122033*
X0092918Y0121991*
X0092962Y0121961*
X0093014Y0121943*
X0093071Y0121937*
X009187*
X0091927Y0121943*
X0091979Y0121961*
X0092023Y0121991*
X0092062Y0122033*
X0092096Y0122087*
X0092123Y0122153*
X0092143Y0122231*
X0092159Y0122321*
X0092168Y0122423*
X0092171Y0122537*
X009277*
X0092773Y0122423*
G37*
G36*
X0088886D02*
X0088895Y0122321D01*
X008891Y0122231*
X0088931Y0122153*
X0088958Y0122087*
X0088991Y0122033*
X008903Y0121991*
X0089075Y0121961*
X0089126Y0121943*
X0089183Y0121937*
X0087983*
X008804Y0121943*
X0088091Y0121961*
X0088136Y0121991*
X0088175Y0122033*
X0088208Y0122087*
X0088235Y0122153*
X0088256Y0122231*
X0088271Y0122321*
X008828Y0122423*
X0088283Y0122537*
X0088883*
X0088886Y0122423*
G37*
G36*
X0084998D02*
X0085007Y0122321D01*
X0085022Y0122231*
X0085043Y0122153*
X008507Y0122087*
X0085103Y0122033*
X0085142Y0121991*
X0085187Y0121961*
X0085238Y0121943*
X0085295Y0121937*
X0084095*
X0084152Y0121943*
X0084203Y0121961*
X0084248Y0121991*
X0084287Y0122033*
X008432Y0122087*
X0084347Y0122153*
X0084368Y0122231*
X0084383Y0122321*
X0084392Y0122423*
X0084395Y0122537*
X0084995*
X0084998Y0122423*
G37*
G36*
X-0064714D02*
X-0064705Y0122321D01*
X-006469Y0122231*
X-0064669Y0122153*
X-0064642Y0122087*
X-0064609Y0122033*
X-006457Y0121991*
X-0064525Y0121961*
X-0064474Y0121943*
X-0064417Y0121937*
X-0065617*
X-006556Y0121943*
X-0065509Y0121961*
X-0065464Y0121991*
X-0065425Y0122033*
X-0065392Y0122087*
X-0065365Y0122153*
X-0065344Y0122231*
X-0065329Y0122321*
X-006532Y0122423*
X-0065317Y0122537*
X-0064717*
X-0064714Y0122423*
G37*
G36*
X-0068595D02*
X-0068586Y0122321D01*
X-0068571Y0122231*
X-006855Y0122153*
X-0068523Y0122087*
X-006849Y0122033*
X-0068451Y0121991*
X-0068406Y0121961*
X-0068355Y0121943*
X-0068298Y0121937*
X-0069498*
X-0069441Y0121943*
X-006939Y0121961*
X-0069345Y0121991*
X-0069306Y0122033*
X-0069273Y0122087*
X-0069246Y0122153*
X-0069225Y0122231*
X-006921Y0122321*
X-0069201Y0122423*
X-0069198Y0122537*
X-0068598*
X-0068595Y0122423*
G37*
G36*
X-0072482D02*
X-0072473Y0122321D01*
X-0072458Y0122231*
X-0072437Y0122153*
X-007241Y0122087*
X-0072377Y0122033*
X-0072338Y0121991*
X-0072293Y0121961*
X-0072242Y0121943*
X-0072185Y0121937*
X-0073385*
X-0073328Y0121943*
X-0073277Y0121961*
X-0073232Y0121991*
X-0073193Y0122033*
X-007316Y0122087*
X-0073133Y0122153*
X-0073112Y0122231*
X-0073097Y0122321*
X-0073088Y0122423*
X-0073085Y0122537*
X-0072485*
X-0072482Y0122423*
G37*
G36*
X-0119825D02*
X-0119816Y0122321D01*
X-0119801Y0122231*
X-011978Y0122153*
X-0119753Y0122087*
X-011972Y0122033*
X-0119681Y0121991*
X-0119636Y0121961*
X-0119585Y0121943*
X-0119528Y0121937*
X-0120728*
X-0120671Y0121943*
X-012062Y0121961*
X-0120575Y0121991*
X-0120536Y0122033*
X-0120503Y0122087*
X-0120476Y0122153*
X-0120455Y0122231*
X-012044Y0122321*
X-0120431Y0122423*
X-0120428Y0122537*
X-0119828*
X-0119825Y0122423*
G37*
G36*
X-0123713D02*
X-0123704Y0122321D01*
X-0123689Y0122231*
X-0123668Y0122153*
X-0123641Y0122087*
X-0123608Y0122033*
X-0123569Y0121991*
X-0123524Y0121961*
X-0123473Y0121943*
X-0123416Y0121937*
X-0124616*
X-0124559Y0121943*
X-0124508Y0121961*
X-0124463Y0121991*
X-0124424Y0122033*
X-0124391Y0122087*
X-0124364Y0122153*
X-0124343Y0122231*
X-0124328Y0122321*
X-0124319Y0122423*
X-0124316Y0122537*
X-0123716*
X-0123713Y0122423*
G37*
G36*
X-0127601D02*
X-0127592Y0122321D01*
X-0127576Y0122231*
X-0127556Y0122153*
X-0127529Y0122087*
X-0127496Y0122033*
X-0127456Y0121991*
X-0127412Y0121961*
X-012736Y0121943*
X-0127304Y0121937*
X-0128504*
X-0128447Y0121943*
X-0128396Y0121961*
X-012835Y0121991*
X-0128312Y0122033*
X-0128279Y0122087*
X-0128252Y0122153*
X-0128231Y0122231*
X-0128216Y0122321*
X-0128207Y0122423*
X-0128203Y0122537*
X-0127603*
X-0127601Y0122423*
G37*
G36*
X0012327Y0119965D02*
X0012316Y012006D01*
X0012286Y0120145*
X0012235Y012022*
X0012164Y0120285*
X0012073Y012034*
X0011961Y0120385*
X001183Y012042*
X0011713Y0120439*
X0011595Y012042*
X0011464Y0120385*
X0011353Y012034*
X0011261Y0120285*
X001119Y012022*
X001114Y0120145*
X0011109Y012006*
X0011098Y0119965*
X001111Y0121937*
X001112Y0121847*
X001115Y0121767*
X00112Y0121696*
X001127Y0121635*
X001136Y0121583*
X001147Y012154*
X00116Y0121507*
X0011713Y0121489*
X0011825Y0121507*
X0011955Y012154*
X0012065Y0121583*
X0012155Y0121635*
X0012225Y0121696*
X0012275Y0121767*
X0012305Y0121847*
X0012315Y0121937*
X0012327Y0119965*
G37*
G36*
X0008587D02*
X0008576Y012006D01*
X0008546Y0120145*
X0008495Y012022*
X0008424Y0120285*
X0008332Y012034*
X0008221Y0120385*
X000809Y012042*
X0007972Y0120439*
X0007855Y012042*
X0007724Y0120385*
X0007612Y012034*
X0007521Y0120285*
X000745Y012022*
X0007399Y0120145*
X0007369Y012006*
X0007358Y0119965*
X000737Y0121937*
X000738Y0121847*
X000741Y0121767*
X000746Y0121696*
X000753Y0121635*
X000762Y0121583*
X000773Y012154*
X000786Y0121507*
X0007972Y0121489*
X0008085Y0121507*
X0008215Y012154*
X0008325Y0121583*
X0008415Y0121635*
X0008485Y0121696*
X0008535Y0121767*
X0008565Y0121847*
X0008575Y0121937*
X0008587Y0119965*
G37*
G36*
X0015156Y0121847D02*
X0015186Y0121767D01*
X0015236Y0121696*
X0015305Y0121635*
X0015395Y0121583*
X0015506Y012154*
X0015635Y0121507*
X0015786Y0121484*
X0015956Y0121469*
X0016146Y0121465*
Y0120465*
X0015954Y012046*
X0015782Y0120445*
X0015631Y012042*
X0015499Y0120385*
X0015388Y012034*
X0015297Y0120285*
X0015226Y012022*
X0015175Y0120145*
X0015144Y012006*
X0015134Y0119965*
X0015146Y0121937*
X0015156Y0121847*
G37*
G36*
X0004552Y0119472D02*
X0004541Y0119567D01*
X0004511Y0119652*
X0004461Y0119727*
X000439Y0119792*
X0004299Y0119847*
X0004187Y0119892*
X0004056Y0119927*
X0003904Y0119952*
X0003732Y0119967*
X000354Y0119972*
Y0120972*
X0003732Y0120977*
X0003904Y0120992*
X0004056Y0121017*
X0004187Y0121052*
X0004299Y0121097*
X000439Y0121152*
X0004461Y0121217*
X0004511Y0121292*
X0004541Y0121377*
X0004552Y0121472*
Y0119472*
G37*
G36*
X-0019781Y0116943D02*
X-0019707Y01169D01*
X-0019629Y0116862*
X-0019546Y0116829*
X-0019458Y0116801*
X-0019365Y0116778*
X-0019267Y011676*
X-0019164Y0116747*
X-0019057Y011674*
X-0018944Y0116737*
Y0116137*
X-0019057Y0116135*
X-0019267Y0116114*
X-0019365Y0116096*
X-0019458Y0116073*
X-0019546Y0116045*
X-0019629Y0116012*
X-0019707Y0115974*
X-0019781Y0115931*
X-001985Y0115882*
Y0116992*
X-0019781Y0116943*
G37*
G36*
Y0115079D02*
X-0019707Y0115035D01*
X-0019629Y0114997*
X-0019546Y0114964*
X-0019458Y0114936*
X-0019365Y0114913*
X-0019267Y0114895*
X-0019164Y0114883*
X-0019057Y0114875*
X-0018944Y0114873*
Y0114272*
X-0019057Y011427*
X-0019267Y011425*
X-0019365Y0114232*
X-0019458Y0114209*
X-0019546Y0114181*
X-0019629Y0114148*
X-0019707Y011411*
X-0019781Y0114066*
X-001985Y0114018*
Y0115127*
X-0019781Y0115079*
G37*
G36*
Y0113209D02*
X-0019707Y0113165D01*
X-0019629Y0113127*
X-0019546Y0113094*
X-0019458Y0113066*
X-0019365Y0113043*
X-0019267Y0113025*
X-0019164Y0113013*
X-0019057Y0113005*
X-0018944Y0113002*
Y0112402*
X-0019057Y01124*
X-0019267Y0112379*
X-0019365Y0112362*
X-0019458Y0112339*
X-0019546Y0112311*
X-0019629Y0112278*
X-0019707Y0112239*
X-0019781Y0112196*
X-001985Y0112148*
Y0113257*
X-0019781Y0113209*
G37*
G36*
X0142433Y0110151D02*
X0142423Y011024D01*
X0142393Y0110321*
X0142343Y0110391*
X0142273Y0110453*
X0142183Y0110505*
X0142073Y0110547*
X0141943Y011058*
X0141831Y0110598*
X0141718Y011058*
X0141588Y0110547*
X0141478Y0110505*
X0141388Y0110453*
X0141318Y0110391*
X0141268Y0110321*
X0141238Y011024*
X0141228Y0110151*
X0141216Y0112123*
X0141227Y0112028*
X0141258Y0111943*
X0141308Y0111868*
X0141379Y0111803*
X0141471Y0111748*
X0141582Y0111703*
X0141713Y0111668*
X0141831Y0111649*
X0141948Y0111668*
X0142079Y0111703*
X0142191Y0111748*
X0142282Y0111803*
X0142353Y0111868*
X0142404Y0111943*
X0142435Y0112028*
X0142445Y0112123*
X0142433Y0110151*
G37*
G36*
X0146173D02*
X0146163Y011024D01*
X0146133Y0110321*
X0146083Y0110391*
X0146013Y0110453*
X0145923Y0110505*
X0145813Y0110547*
X0145683Y011058*
X0145571Y0110598*
X0145458Y011058*
X0145328Y0110547*
X0145218Y0110505*
X0145128Y0110453*
X0145058Y0110391*
X0145008Y0110321*
X0144978Y011024*
X0144968Y0110151*
X0144956Y0112123*
X0144967Y0112028*
X0144998Y0111943*
X0145049Y0111868*
X014512Y0111803*
X0145211Y0111748*
X0145322Y0111703*
X0145454Y0111668*
X0145571Y0111649*
X0145688Y0111668*
X014582Y0111703*
X0145931Y0111748*
X0146022Y0111803*
X0146093Y0111868*
X0146144Y0111943*
X0146175Y0112028*
X0146185Y0112123*
X0146173Y0110151*
G37*
G36*
X0087315Y011015D02*
X0087305Y011024D01*
X0087275Y011032*
X0087225Y0110391*
X0087155Y0110452*
X0087065Y0110504*
X0086955Y0110547*
X0086825Y011058*
X0086713Y0110597*
X00866Y011058*
X008647Y0110547*
X008636Y0110504*
X008627Y0110452*
X00862Y0110391*
X008615Y011032*
X008612Y011024*
X008611Y011015*
X0086098Y0112122*
X0086109Y0112027*
X008614Y0111942*
X008619Y0111867*
X0086261Y0111802*
X0086353Y0111747*
X0086464Y0111702*
X0086595Y0111667*
X0086713Y0111648*
X008683Y0111667*
X0086961Y0111702*
X0087073Y0111747*
X0087164Y0111802*
X0087235Y0111867*
X0087286Y0111942*
X0087317Y0112027*
X0087327Y0112122*
X0087315Y011015*
G37*
G36*
X-0070165D02*
X-0070175Y011024D01*
X-0070205Y011032*
X-0070255Y0110391*
X-0070325Y0110452*
X-0070415Y0110504*
X-0070525Y0110547*
X-0070655Y011058*
X-0070768Y0110597*
X-007088Y011058*
X-007101Y0110547*
X-007112Y0110504*
X-007121Y0110452*
X-007128Y0110391*
X-007133Y011032*
X-007136Y011024*
X-007137Y011015*
X-0071382Y0112122*
X-0071372Y0112027*
X-0071341Y0111942*
X-007129Y0111867*
X-0071219Y0111802*
X-0071128Y0111747*
X-0071017Y0111702*
X-0070885Y0111667*
X-0070768Y0111648*
X-007065Y0111667*
X-0070519Y0111702*
X-0070408Y0111747*
X-0070317Y0111802*
X-0070245Y0111867*
X-0070195Y0111942*
X-0070164Y0112027*
X-0070153Y0112122*
X-0070165Y011015*
G37*
G36*
X-0125283D02*
X-0125293Y011024D01*
X-0125323Y011032*
X-0125373Y0110391*
X-0125443Y0110452*
X-0125533Y0110504*
X-0125643Y0110547*
X-0125773Y011058*
X-0125886Y0110597*
X-0125998Y011058*
X-0126128Y0110547*
X-0126238Y0110504*
X-0126328Y0110452*
X-0126398Y0110391*
X-0126448Y011032*
X-0126478Y011024*
X-0126488Y011015*
X-01265Y0112122*
X-012649Y0112027*
X-0126459Y0111942*
X-0126408Y0111867*
X-0126337Y0111802*
X-0126246Y0111747*
X-0126135Y0111702*
X-0126003Y0111667*
X-0125886Y0111648*
X-0125768Y0111667*
X-0125637Y0111702*
X-0125526Y0111747*
X-0125435Y0111802*
X-0125364Y0111867*
X-0125313Y0111942*
X-0125282Y0112027*
X-0125271Y0112122*
X-0125283Y011015*
G37*
G36*
X0091055D02*
X0091045Y011024D01*
X0091015Y011032*
X0090965Y0110391*
X0090895Y0110452*
X0090805Y0110504*
X0090695Y0110547*
X0090565Y011058*
X0090453Y0110597*
X009034Y011058*
X009021Y0110547*
X00901Y0110504*
X009001Y0110452*
X008994Y0110391*
X008989Y011032*
X008986Y011024*
X008985Y011015*
X0089838Y0112122*
X0089849Y0112027*
X008988Y0111942*
X0089931Y0111867*
X0090002Y0111802*
X0090093Y0111747*
X0090204Y0111702*
X0090335Y0111667*
X0090453Y0111648*
X009057Y0111667*
X0090702Y0111702*
X0090813Y0111747*
X0090904Y0111802*
X0090975Y0111867*
X0091026Y0111942*
X0091057Y0112027*
X0091067Y0112122*
X0091055Y011015*
G37*
G36*
X-0066425D02*
X-0066435Y011024D01*
X-0066465Y011032*
X-0066515Y0110391*
X-0066585Y0110452*
X-0066675Y0110504*
X-0066785Y0110547*
X-0066915Y011058*
X-0067028Y0110597*
X-006714Y011058*
X-006727Y0110547*
X-006738Y0110504*
X-006747Y0110452*
X-006754Y0110391*
X-006759Y011032*
X-006762Y011024*
X-006763Y011015*
X-0067642Y0112122*
X-0067631Y0112027*
X-0067601Y0111942*
X-006755Y0111867*
X-0067479Y0111802*
X-0067388Y0111747*
X-0067276Y0111702*
X-0067145Y0111667*
X-0067028Y0111648*
X-006691Y0111667*
X-0066779Y0111702*
X-0066667Y0111747*
X-0066576Y0111802*
X-0066505Y0111867*
X-0066454Y0111942*
X-0066424Y0112027*
X-0066413Y0112122*
X-0066425Y011015*
G37*
G36*
X-0121543D02*
X-0121553Y011024D01*
X-0121583Y011032*
X-0121633Y0110391*
X-0121703Y0110452*
X-0121793Y0110504*
X-0121903Y0110547*
X-0122033Y011058*
X-0122146Y0110597*
X-0122258Y011058*
X-0122388Y0110547*
X-0122498Y0110504*
X-0122588Y0110452*
X-0122658Y0110391*
X-0122708Y011032*
X-0122738Y011024*
X-0122748Y011015*
X-012276Y0112122*
X-012275Y0112027*
X-0122719Y0111942*
X-0122668Y0111867*
X-0122597Y0111802*
X-0122506Y0111747*
X-0122395Y0111702*
X-0122263Y0111667*
X-0122146Y0111648*
X-0122028Y0111667*
X-0121897Y0111702*
X-0121786Y0111747*
X-0121695Y0111802*
X-0121624Y0111867*
X-0121573Y0111942*
X-0121542Y0112027*
X-0121531Y0112122*
X-0121543Y011015*
G37*
G36*
X0013583Y0111347D02*
X0013593Y0111342D01*
X0013604Y0111337*
X0013617Y0111333*
X0013632Y011133*
X0013648Y0111327*
X0013686Y0111323*
X0013707Y0111322*
X001373*
Y0110922*
X0013707*
X0013648Y0110917*
X0013632Y0110914*
X0013617Y0110911*
X0013604Y0110907*
X0013593Y0110903*
X0013583Y0110897*
X0013575Y0110892*
Y0111353*
X0013583Y0111347*
G37*
G36*
X0138398Y0110151D02*
X0138388Y011024D01*
X0138358Y0110321*
X0138308Y0110391*
X0138238Y0110453*
X0138148Y0110505*
X0138038Y0110547*
X0137908Y011058*
X0137758Y0110604*
X0137588Y0110618*
X0137398Y0110623*
Y0111623*
X013759Y0111628*
X0137761Y0111643*
X0137913Y0111668*
X0138044Y0111703*
X0138155Y0111748*
X0138247Y0111803*
X0138318Y0111868*
X0138368Y0111943*
X0138399Y0112028*
X013841Y0112123*
X0138398Y0110151*
G37*
G36*
X0093884Y0112028D02*
X0093915Y0111943D01*
X0093966Y0111868*
X0094037Y0111803*
X0094128Y0111748*
X0094239Y0111703*
X0094371Y0111668*
X0094522Y0111643*
X0094694Y0111628*
X0094886Y0111623*
Y0110623*
X0094696Y0110618*
X0094526Y0110604*
X0094376Y011058*
X0094246Y0110547*
X0094136Y0110505*
X0094046Y0110453*
X0093976Y0110391*
X0093926Y011032*
X0093896Y011024*
X0093886Y011015*
X0093874Y0112123*
X0093884Y0112028*
G37*
G36*
X008328Y011015D02*
X008327Y011024D01*
X008324Y011032*
X008319Y0110391*
X008312Y0110452*
X008303Y0110504*
X008292Y0110547*
X008279Y011058*
X008264Y0110603*
X008247Y0110617*
X008228Y0110622*
Y0111622*
X0082472Y0111627*
X0082643Y0111642*
X0082795Y0111667*
X0082926Y0111702*
X0083037Y0111747*
X0083128Y0111802*
X0083199Y0111867*
X008325Y0111942*
X0083281Y0112027*
X0083292Y0112122*
X008328Y011015*
G37*
G36*
X-0063596Y0111864D02*
X-0063565Y0111779D01*
X-0063514Y0111704*
X-0063443Y0111639*
X-0063352Y0111584*
X-0063241Y0111539*
X-0063109Y0111504*
X-0062958Y0111479*
X-0062786Y0111464*
X-0062595Y0111459*
Y0110459*
X-0062785Y0110456*
X-0063105Y0110431*
X-0063235Y0110409*
X-0063345Y0110381*
X-0063435Y0110347*
X-0063505Y0110307*
X-0063555Y0110261*
X-0063585Y0110208*
X-0063595Y011015*
X-0063607Y0111959*
X-0063596Y0111864*
G37*
G36*
X-0074201Y011015D02*
X-0074211Y011024D01*
X-0074241Y011032*
X-0074291Y0110391*
X-0074361Y0110452*
X-0074451Y0110504*
X-0074561Y0110547*
X-0074691Y011058*
X-0074841Y0110603*
X-0075011Y0110617*
X-0075201Y0110622*
Y0111622*
X-0075009Y0111627*
X-0074837Y0111642*
X-0074686Y0111667*
X-0074554Y0111702*
X-0074443Y0111747*
X-0074352Y0111802*
X-0074281Y0111867*
X-007423Y0111942*
X-0074199Y0112027*
X-0074189Y0112122*
X-0074201Y011015*
G37*
G36*
X-0118714Y0112027D02*
X-0118683Y0111942D01*
X-0118632Y0111867*
X-0118561Y0111802*
X-011847Y0111747*
X-0118359Y0111702*
X-0118228Y0111667*
X-0118076Y0111642*
X-0117904Y0111627*
X-0117713Y0111622*
Y0110622*
X-0117903Y0110617*
X-0118073Y0110603*
X-0118223Y011058*
X-0118353Y0110547*
X-0118463Y0110504*
X-0118553Y0110452*
X-0118623Y0110391*
X-0118673Y011032*
X-0118703Y011024*
X-0118713Y011015*
X-0118725Y0112122*
X-0118714Y0112027*
G37*
G36*
X0013926Y0110144D02*
X0013875Y0110126D01*
X001383Y0110096*
X0013791Y0110054*
X0013758Y011*
X0013731Y0109934*
X001371Y0109856*
X0013695Y0109766*
X0013686Y0109664*
X0013683Y010955*
X0013083*
X001308Y0109664*
X0013071Y0109766*
X0013056Y0109856*
X0013035Y0109934*
X0013008Y011*
X0012975Y0110054*
X0012936Y0110096*
X0012891Y0110126*
X001284Y0110144*
X0012783Y011015*
X0013983*
X0013926Y0110144*
G37*
G36*
X0010385D02*
X0010334Y0110126D01*
X0010289Y0110096*
X001025Y0110054*
X0010217Y011*
X0010191Y0109934*
X001017Y0109856*
X0010154Y0109766*
X0010146Y0109664*
X0010142Y010955*
X0009543*
X0009539Y0109664*
X0009531Y0109766*
X0009516Y0109856*
X0009494Y0109934*
X0009467Y011*
X0009435Y0110054*
X0009396Y0110096*
X0009351Y0110126*
X00093Y0110144*
X0009243Y011015*
X0010442*
X0010385Y0110144*
G37*
G36*
X0006498D02*
X0006447Y0110126D01*
X0006402Y0110096*
X0006363Y0110054*
X000633Y011*
X0006303Y0109934*
X0006282Y0109856*
X0006267Y0109766*
X0006258Y0109664*
X0006255Y010955*
X0005655*
X0005652Y0109664*
X0005643Y0109766*
X0005628Y0109856*
X0005607Y0109934*
X000558Y011*
X0005547Y0110054*
X0005508Y0110096*
X0005463Y0110126*
X0005412Y0110144*
X0005355Y011015*
X0006555*
X0006498Y0110144*
G37*
G36*
X0017829Y0052949D02*
X0017786Y0052876D01*
X0017748Y0052797*
X0017715Y0052714*
X0017686Y0052626*
X0017664Y0052533*
X0017646Y0052435*
X0017633Y0052333*
X0017625Y0052225*
X0017623Y0052112*
X0017023*
X001702Y0052225*
X0017Y0052435*
X0016982Y0052533*
X0016959Y0052626*
X0016931Y0052714*
X0016898Y0052797*
X001686Y0052876*
X0016816Y0052949*
X0016768Y0053018*
X0017877*
X0017829Y0052949*
G37*
G36*
X0006307Y0051222D02*
X0006327Y0051012D01*
X0006345Y0050914*
X0006368Y0050821*
X0006396Y0050733*
X0006429Y005065*
X0006467Y0050572*
X000651Y0050498*
X0006559Y0050429*
X0005449*
X0005498Y0050498*
X0005541Y0050572*
X0005579Y005065*
X0005613Y0050733*
X0005641Y0050821*
X0005663Y0050914*
X0005681Y0051012*
X0005694Y0051115*
X0005702Y0051222*
X0005704Y0051335*
X0006304*
X0006307Y0051222*
G37*
G36*
X0015362Y005122D02*
X0015382Y005101D01*
X00154Y0050912*
X0015423Y0050819*
X0015451Y0050731*
X0015484Y0050647*
X0015522Y0050569*
X0015565Y0050496*
X0015614Y0050427*
X0014504*
X0014553Y0050496*
X0014596Y0050569*
X0014634Y0050647*
X0014667Y0050731*
X0014695Y0050819*
X0014718Y0050912*
X0014736Y005101*
X0014749Y0051112*
X0014757Y005122*
X0014759Y0051332*
X0015359*
X0015362Y005122*
G37*
G36*
X0012507D02*
X0012528Y005101D01*
X0012546Y0050912*
X0012568Y0050819*
X0012596Y0050731*
X001263Y0050647*
X0012668Y0050569*
X0012711Y0050496*
X0012759Y0050427*
X001165*
X0011698Y0050496*
X0011742Y0050569*
X001178Y0050647*
X0011813Y0050731*
X0011841Y0050819*
X0011864Y0050912*
X0011882Y005101*
X0011895Y0051112*
X0011902Y005122*
X0011905Y0051332*
X0012505*
X0012507Y005122*
G37*
G36*
X0010244D02*
X0010264Y005101D01*
X0010282Y0050912*
X0010305Y0050819*
X0010333Y0050731*
X0010366Y0050647*
X0010404Y0050569*
X0010447Y0050496*
X0010496Y0050427*
X0009386*
X0009435Y0050496*
X0009478Y0050569*
X0009516Y0050647*
X0009549Y0050731*
X0009577Y0050819*
X00096Y0050912*
X0009618Y005101*
X0009631Y0051112*
X0009638Y005122*
X0009641Y0051332*
X0010241*
X0010244Y005122*
G37*
G36*
X0008177D02*
X0008197Y005101D01*
X0008215Y0050912*
X0008238Y0050819*
X0008266Y0050731*
X0008299Y0050647*
X0008337Y0050569*
X000838Y0050496*
X0008429Y0050427*
X0007319*
X0007368Y0050496*
X0007411Y0050569*
X0007449Y0050647*
X0007482Y0050731*
X000751Y0050819*
X0007533Y0050912*
X0007551Y005101*
X0007564Y0051112*
X0007571Y005122*
X0007574Y0051332*
X0008174*
X0008177Y005122*
G37*
G36*
X000424D02*
X000426Y005101D01*
X0004278Y0050912*
X0004301Y0050819*
X0004329Y0050731*
X0004362Y0050647*
X00044Y0050569*
X0004443Y0050496*
X0004492Y0050427*
X0003382*
X0003431Y0050496*
X0003474Y0050569*
X0003512Y0050647*
X0003545Y0050731*
X0003573Y0050819*
X0003596Y0050912*
X0003614Y005101*
X0003627Y0051112*
X0003635Y005122*
X0003637Y0051332*
X0004237*
X000424Y005122*
G37*
G36*
X0002272Y0048112D02*
X0002283Y0047933D01*
X0004829*
X000479Y0044685*
X0000787*
X0000591Y0044882*
Y0047933*
X0001267*
X0001272Y0048244*
X0002272*
Y0048112*
G37*
G36*
X0017626Y0048065D02*
X0017636Y0047962D01*
X0017652Y0047862*
X0017674Y0047766*
X0017703Y0047674*
X0017739Y0047585*
X0017781Y00475*
X0017829Y0047418*
X0017884Y004734*
X0017945Y0047266*
X0016838Y0047188*
X0016873Y0047247*
X0016904Y0047313*
X0016932Y0047385*
X0016956Y0047464*
X0016977Y004755*
X0016993Y0047642*
X0017015Y0047846*
X0017021Y0047958*
X0017023Y0048077*
X0017623Y0048171*
X0017626Y0048065*
G37*
G54D10*
X-0064846Y0110959D02*
X-0003083D01*
X-0058071Y0111024D02*
X-0048622Y0120472D01*
X0005463*
X0081299Y0111122D02*
X0084695D01*
X0071457Y0120965D02*
X0081299Y0111122D01*
X001373Y0120965D02*
X0071457D01*
X-006501Y0111122D02*
X-0064846Y0110959D01*
X-0003083D02*
X0001772Y0106104D01*
Y0047054D02*
Y0106104D01*
X0092471Y0111122D02*
Y0111123D01*
X0139813*
X0142921*
X0143701Y0111902*
Y0112107*
Y0111902D02*
X014448Y0111123D01*
X0147589*
X0088583Y0111902D02*
X0089362Y0111122D01*
X0092471*
X0088583Y0111902D02*
Y0112106D01*
X0087803Y0111122D02*
X0088583Y0111902D01*
X0084695Y0111122D02*
X0087803D01*
X0009843Y011998D02*
Y0120185D01*
X0010622Y0120965*
X001373*
X0009063D02*
X0009843Y0120185D01*
X0005955Y0120965D02*
X0009063D01*
X0005463Y0120472D02*
X0005955Y0120965D01*
X-0068118Y0111122D02*
X-006501D01*
X-0068898Y0111902D02*
X-0068118Y0111122D01*
X-0068898Y0111902D02*
Y0112106D01*
X-0069677Y0111122D02*
X-0068898Y0111902D01*
X-0072785Y0111122D02*
X-0069677D01*
X-0120128D02*
X-0072785D01*
X-0124016Y0111902D02*
Y0112106D01*
Y0111902D02*
X-0123236Y0111122D01*
X-0120128*
X-0124795D02*
X-0124016Y0111902D01*
X-0127903Y0111122D02*
X-0124795D01*
G54D11*
X-006501Y011998D03*
X-0072785D03*
X-006501Y0112106D03*
X-0072785D03*
X0092471Y011998D03*
X0084695D03*
X0092471Y0112106D03*
X0084695D03*
X0147589Y0119981D03*
X0139813D03*
X0147589Y0112107D03*
X0139813D03*
X0005955Y0112106D03*
X001373D03*
X0005955Y011998D03*
X001373D03*
X-0120128D03*
X-0127903D03*
X-0120128Y0112106D03*
X-0127903D03*
G54D12*
X-0068898Y011998D03*
X0088583D03*
X0143701Y0119981D03*
X0009843Y0112106D03*
X-0124016Y011998D03*
G54D13*
X-0068898Y0113091D03*
X0088583D03*
X0143701D03*
X0009843Y0118996D03*
X-0124016Y0113091D03*
G54D18*
X0003347Y0053445D02*
Y010639D01*
X-0002966Y0112702D02*
X0003347Y010639D01*
X-0020277Y0112702D02*
X-0002966D01*
X-0003347Y0116437D02*
X0006693Y0106398D01*
X-0020277Y0116437D02*
X-0003347D01*
X0006693Y0054232D02*
Y0106398D01*
X-0020277Y0114573D02*
X-0003024D01*
X0003937Y005D02*
Y0052854D01*
X0003347Y0053445D02*
X0003937Y0052854D01*
X0017323Y00469D02*
Y0053445D01*
Y00469D02*
X0017421Y0046801D01*
X0015059Y005D02*
Y0052953D01*
X0014469Y0053543D02*
X0015059Y0052953D01*
X0014469Y0053543D02*
Y0107185D01*
X0007874Y005D02*
Y0053051D01*
X0006693Y0054232D02*
X0007874Y0053051D01*
X0012205Y005D02*
Y0053051D01*
X0011516Y005374D02*
X0012205Y0053051D01*
X0011516Y005374D02*
Y0106496D01*
X0006004Y0050002D02*
Y0052903D01*
X0005118Y0053789D02*
X0006004Y0052903D01*
X0005118Y0053789D02*
Y010643D01*
X0013383Y0108271D02*
X0014469Y0107185D01*
X0009843Y0108169D02*
X0011516Y0106496D01*
X-0003024Y0114573D02*
X0005118Y010643D01*
X-0068898Y0120965D02*
Y01244D01*
X0147589Y0120965D02*
Y01241D01*
X0143701Y0120965D02*
Y01241D01*
X0139813Y0120965D02*
Y01241D01*
X0092471Y0120965D02*
Y01241D01*
X0088583Y0120965D02*
Y01241D01*
X0084695Y0120965D02*
Y01241D01*
X-0120128Y0120965D02*
Y01241D01*
X-0124016Y0120965D02*
Y01241D01*
X-0127953D02*
X-0127903Y0124051D01*
Y0120965D02*
Y0124051D01*
X-0072785Y01241D02*
Y0124252D01*
Y0120965D02*
Y01241D01*
X-0065017Y0120972D02*
Y01241D01*
X-0068898Y01244D02*
D01*
X-0065017Y0120972D02*
X-006501Y0120965D01*
X0013383Y0108271D02*
Y0111122D01*
X0009941Y005D02*
Y0104724D01*
X0005955Y0108711D02*
X0009941Y0104724D01*
X0005955Y0108711D02*
Y0111122D01*
X0009843Y0108169D02*
Y0111122D01*
G54D19*
X-0120128Y0120965D02*
X-0119221Y0120058D01*
G54D20*
X0013383Y0111122D02*
X001373D01*
G54D21*
X0017323Y0053445D03*
X0007874Y005D03*
X0006004Y0050002D03*
X0001772Y0047054D03*
Y0045571D03*
X-0020277Y0114573D03*
Y0116437D03*
Y0112702D03*
X0147589Y01241D03*
X0143701D03*
X0139813D03*
X0092471D03*
X0088583D03*
X0084695D03*
X-0127953D03*
X-0120128D03*
X-0124016D03*
X-0065017D03*
X-0072785D03*
X-0068898D03*
X0009941Y005D03*
X0003937D03*
X0017421Y0046801D03*
X0012205Y005D03*
X0015059D03*
M02*