%FSTAX25Y25*%
%MOIN*%
%SFA1B1*%

%IPPOS*%
%ADD14R,0.036540X0.047370*%
%ADD15R,0.033590X0.047370*%
%ADD16R,0.033590X0.067060*%
%ADD17C,0.022000*%
%LNgel_flex-1*%
%LPD*%
G54D14*
X-006501Y011998D03*
X-0072785D03*
X-006501Y0112106D03*
X-0072785D03*
X0092471Y011998D03*
X0084695D03*
X0092471Y0112106D03*
X0084695D03*
X0147589Y0119981D03*
X0139813D03*
X0147589Y0112107D03*
X0139813D03*
X0005955Y0112106D03*
X001373D03*
X0005955Y011998D03*
X001373D03*
X-0120128D03*
X-0127903D03*
X-0120128Y0112106D03*
X-0127903D03*
G54D15*
X-0068898Y011998D03*
X0088583D03*
X0143701Y0119981D03*
X0009843Y0112106D03*
X-0124016Y011998D03*
G54D16*
X-0068898Y0113091D03*
X0088583D03*
X0143701D03*
X0009843Y0118996D03*
X-0124016Y0113091D03*
G54D17*
X0017323Y0053445D03*
X0007874Y005D03*
X0006004Y0050002D03*
X0001772Y0047054D03*
Y0045571D03*
X-0020277Y0114573D03*
Y0116437D03*
Y0112702D03*
X0147589Y01241D03*
X0143701D03*
X0139813D03*
X0092471D03*
X0088583D03*
X0084695D03*
X-0127953D03*
X-0120128D03*
X-0124016D03*
X-0065017D03*
X-0072785D03*
X-0068898D03*
X0009941Y005D03*
X0003937D03*
X0017421Y0046801D03*
X0012205Y005D03*
X0015059D03*
M02*