%FSTAX25Y25*%
%MOIN*%
%SFA1B1*%

%IPPOS*%
%ADD10C,0.010000*%
%ADD12R,3.144600X0.191850*%
%LNgel_flex-1*%
%LPD*%
G54D10*
X-0141671Y0145762D02*
X-0145669D01*
Y0142763*
X-014367*
X-0145669*
Y0139764*
X-0139671D02*
Y0143763D01*
X-0137672Y0145762*
X-0135672Y0143763*
Y0139764*
Y0142763*
X-0139671*
X-0133673Y0145762D02*
Y0139764D01*
X-0130674*
X-0129674Y0140763*
Y0141763*
X-0130674Y0142763*
X-0133673*
X-0130674*
X-0129674Y0143763*
Y0144762*
X-0130674Y0145762*
X-0133673*
X-0121677Y0139764D02*
Y0145762D01*
X-0117678Y0139764*
Y0145762*
X-011268D02*
X-0114679D01*
X-0115679Y0144762*
Y0140763*
X-0114679Y0139764*
X-011268*
X-011168Y0140763*
Y0144762*
X-011268Y0145762*
X-0109681D02*
X-0105682D01*
X-0107682*
Y0139764*
X-0099684Y0145762D02*
X-0103683D01*
Y0139764*
X-0099684*
X-0103683Y0142763D02*
X-0101683D01*
X-0097685Y0143763D02*
X-0096685D01*
Y0142763*
X-0097685*
Y0143763*
Y0140763D02*
X-0096685D01*
Y0139764*
X-0097685*
Y0140763*
X-0086688Y0144762D02*
X-0085689Y0145762D01*
X-0083689*
X-008269Y0144762*
Y0143763*
X-0083689Y0142763*
X-0084689*
X-0083689*
X-008269Y0141763*
Y0140763*
X-0083689Y0139764*
X-0085689*
X-0086688Y0140763*
X-008069Y0139764D02*
Y0145762D01*
X-0078691Y0143763*
X-0076692Y0145762*
Y0139764*
X-0071693D02*
Y0145762D01*
X-0074692Y0142763*
X-0070693*
X-0064696Y0145762D02*
X-0066695Y0144762D01*
X-0068694Y0142763*
Y0140763*
X-0067694Y0139764*
X-0065695*
X-0064696Y0140763*
Y0141763*
X-0065695Y0142763*
X-0068694*
X-0062696Y0145762D02*
X-0058697D01*
Y0144762*
X-0062696Y0140763*
Y0139764*
X-0054699D02*
X-0056698Y0141763D01*
Y0143763*
X-0054699Y0145762*
X-00517Y0139764D02*
Y0145762D01*
X-0047701Y0139764*
Y0145762*
X-0044702Y0139764D02*
X-0042703D01*
X-0041703Y0140763*
Y0142763*
X-0042703Y0143763*
X-0044702*
X-0045702Y0142763*
Y0140763*
X-0044702Y0139764*
X-0038704Y0144762D02*
Y0143763D01*
X-0039704*
X-0037704*
X-0038704*
Y0140763*
X-0037704Y0139764*
X-0027707D02*
Y0144762D01*
Y0142763*
X-0028707*
X-0026708*
X-0027707*
Y0144762*
X-0026708Y0145762*
X-0022709Y0139764D02*
X-002071D01*
X-001971Y0140763*
Y0142763*
X-002071Y0143763*
X-0022709*
X-0023709Y0142763*
Y0140763*
X-0022709Y0139764*
X-0017711Y0143763D02*
Y0139764D01*
Y0141763*
X-0016711Y0142763*
X-0015711Y0143763*
X-0014712*
X-0005715D02*
Y0140763D01*
X-0004715Y0139764*
X-0003715Y0140763*
X-0002716Y0139764*
X-0001716Y0140763*
Y0143763*
X0001283D02*
X0003283D01*
X0004282Y0142763*
Y0139764*
X0001283*
X0000283Y0140763*
X0001283Y0141763*
X0004282*
X0006282Y0143763D02*
X0008281Y0139764D01*
X001028Y0143763*
X0015279Y0139764D02*
X0013279D01*
X001228Y0140763*
Y0142763*
X0013279Y0143763*
X0015279*
X0016278Y0142763*
Y0141763*
X001228*
X0024276Y0139764D02*
X0027275D01*
X0028274Y0140763*
X0027275Y0141763*
X0025275*
X0024276Y0142763*
X0025275Y0143763*
X0028274*
X0031273Y0139764D02*
X0033273D01*
X0034273Y0140763*
Y0142763*
X0033273Y0143763*
X0031273*
X0030274Y0142763*
Y0140763*
X0031273Y0139764*
X0036272D02*
X0038271D01*
X0037271*
Y0145762*
X0036272*
X0045269D02*
Y0139764D01*
X004227*
X004127Y0140763*
Y0142763*
X004227Y0143763*
X0045269*
X0050267Y0139764D02*
X0048268D01*
X0047268Y0140763*
Y0142763*
X0048268Y0143763*
X0050267*
X0051267Y0142763*
Y0141763*
X0047268*
X0053266Y0143763D02*
Y0139764D01*
Y0141763*
X0054266Y0142763*
X0055266Y0143763*
X0056265*
X0059264Y0139764D02*
X0061264D01*
X0060264*
Y0143763*
X0059264*
X0064263Y0139764D02*
Y0143763D01*
X0067262*
X0068261Y0142763*
Y0139764*
X007226Y0137764D02*
X007326D01*
X007426Y0138764*
Y0143763*
X007126*
X0070261Y0142763*
Y0140763*
X007126Y0139764*
X007426*
X0076259D02*
X0078258Y0141763D01*
Y0143763*
X0076259Y0145762*
X0088255Y0139764D02*
X0090254D01*
X0091254Y0140763*
Y0142763*
X0090254Y0143763*
X0088255*
X0087255Y0142763*
Y0140763*
X0088255Y0139764*
X0093253D02*
Y0143763D01*
X0096252*
X0097252Y0142763*
Y0139764*
X0102251D02*
X0100251D01*
X0099252Y0140763*
Y0142763*
X0100251Y0143763*
X0102251*
X010325Y0142763*
Y0141763*
X0099252*
X010525Y0139764D02*
X0108249D01*
X0109248Y0140763*
X0108249Y0141763*
X0106249*
X010525Y0142763*
X0106249Y0143763*
X0109248*
X0111248Y0139764D02*
X0113247D01*
X0112247*
Y0143763*
X0111248*
X0120245Y0145762D02*
Y0139764D01*
X0117246*
X0116246Y0140763*
Y0142763*
X0117246Y0143763*
X0120245*
X0125243Y0139764D02*
X0123244D01*
X0122244Y0140763*
Y0142763*
X0123244Y0143763*
X0125243*
X0126243Y0142763*
Y0141763*
X0122244*
X0132241Y0145762D02*
Y0139764D01*
X0129242*
X0128242Y0140763*
Y0142763*
X0129242Y0143763*
X0132241*
X0140238Y0145762D02*
Y0139764D01*
X0143237*
X0144237Y0140763*
Y0141763*
X0143237Y0142763*
X0140238*
X0143237*
X0144237Y0143763*
Y0144762*
X0143237Y0145762*
X0140238*
X0149235D02*
X0147236D01*
X0146236Y0144762*
Y0140763*
X0147236Y0139764*
X0149235*
X0150235Y0140763*
Y0144762*
X0149235Y0145762*
X0152234D02*
X0156233D01*
X0154234*
Y0139764*
X016423D02*
X016623D01*
X016523*
Y0145762*
X016423*
X0170229Y0143763D02*
X0172228D01*
X0173228Y0142763*
Y0139764*
X0170229*
X0169229Y0140763*
X0170229Y0141763*
X0173228*
X0175227Y0143763D02*
Y0140763D01*
X0176227Y0139764*
X0179226*
Y0138764*
X0178226Y0137764*
X0177226*
X0179226Y0139764D02*
Y0143763D01*
X0184224Y0139764D02*
X0182225D01*
X0181225Y0140763*
Y0142763*
X0182225Y0143763*
X0184224*
X0185224Y0142763*
Y0141763*
X0181225*
X0187223Y0143763D02*
Y0139764D01*
Y0141763*
X0188223Y0142763*
X0189222Y0143763*
X0190222*
G54D12*
X0009592Y011786D03*
M02*