%FSTAX23Y23*%
%MOIN*%
%SFA1B1*%

%IPPOS*%
%ADD17C,0.006000*%
%ADD18C,0.014000*%
%ADD19R,0.014960X0.027560*%
%ADD20R,0.009060X0.028740*%
%ADD21C,0.005000*%
%ADD22C,0.004000*%
%LNgel_flex-1*%
%LPD*%
G36*
X00048Y00479D02*
X00005D01*
Y00448*
X00007Y00446*
X00047*
X00048Y00479*
G37*
G54D17*
X00173Y01077D02*
X0022Y01125D01*
X00173Y00534D02*
Y01077D01*
X-00699Y01145D02*
X-00202D01*
X-00694Y01164D02*
X-00202D01*
X-00771Y01241D02*
X-00694Y01164D01*
X-00776Y01223D02*
X-00699Y01145D01*
X00893Y01209D02*
X00924Y01241D01*
X00194Y01209D02*
X00893D01*
X00122Y01136D02*
X00194Y01209D01*
X0087Y01225D02*
X00885Y01241D01*
X00186Y01225D02*
X0087D01*
X00106Y01145D02*
X00186Y01225D01*
X01359Y01125D02*
X01475Y01241D01*
X0022Y01125D02*
X01359D01*
X01338Y01142D02*
X01437Y01241D01*
X00207Y01142D02*
X01338D01*
X00153Y01088D02*
X00207Y01142D01*
X00106Y0053D02*
Y01145D01*
X00122Y0053D02*
Y01136D01*
X00194Y01159D02*
X01316D01*
X00137Y01102D02*
X00194Y01159D01*
X00137Y0053D02*
Y01102D01*
X00153Y0053D02*
Y01088D01*
X00043Y0053D02*
Y01138D01*
X-00018Y012D02*
X00043Y01138D01*
X-00687Y012D02*
X-00018D01*
X00059Y0053D02*
Y01144D01*
X-00015Y01219D02*
X00059Y01144D01*
X-00667Y01219D02*
X-00015D01*
X-00727Y01241D02*
X-00687Y012D01*
X-00688Y01241D02*
X-00667Y01219D01*
X-00785Y01206D02*
X-00705Y01127D01*
X-01245Y01206D02*
X-00785D01*
X-01279Y01241D02*
X-01245Y01206D01*
X-01222Y01223D02*
X-00776D01*
X-0124Y01241D02*
X-01222Y01223D01*
X-00705Y01127D02*
X-00202D01*
X-01201Y01241D02*
X-00771D01*
X01316Y01159D02*
X01398Y01241D01*
X00074Y0053D02*
Y01148D01*
X-00017Y01241D02*
X00074Y01148D01*
X-0065Y01241D02*
X-00017D01*
X00183D02*
X00846D01*
X0009Y01147D02*
X00183Y01241D01*
X0009Y0053D02*
Y01147D01*
G54D18*
X00173Y00534D03*
X00078Y005D03*
X0006Y005D03*
X00017Y0047D03*
Y00455D03*
X-00202Y01145D03*
Y01164D03*
Y01127D03*
X01475Y01241D03*
X01437D03*
X01398D03*
X00924D03*
X00885D03*
X00846D03*
X-01279D03*
X-01201D03*
X-0124D03*
X-0065D03*
X-00727D03*
X-00688D03*
X00099Y005D03*
X00039D03*
X00174Y00468D03*
X00122Y005D03*
X0015D03*
G54D19*
X00181Y00499D03*
X00015D03*
G54D20*
X00043Y0053D03*
X00059D03*
X00074D03*
X0009D03*
X00153D03*
X00137D03*
X00122D03*
X00106D03*
Y00468D03*
X00122D03*
X00137D03*
X00153D03*
X0009D03*
X00074D03*
X00059D03*
X00043D03*
G54D21*
X00078Y005D02*
X0009Y00488D01*
X0006Y00499D02*
Y005D01*
Y00499D02*
X00073Y00485D01*
X0005Y00488D02*
X00059Y0048D01*
Y00468D02*
Y0048D01*
X00039Y005D02*
X0005Y00488D01*
X0005*
X00153Y00468D02*
X00174D01*
X00137D02*
Y00487D01*
X0015Y005*
X00122Y00468D02*
Y005D01*
X00099Y00499D02*
X00106Y00492D01*
Y00468D02*
Y00492D01*
X0009Y00468D02*
Y00488D01*
X00073Y00469D02*
Y00485D01*
G54D22*
X00099Y00499D02*
Y005D01*
X00056Y0047D02*
X00059Y00468D01*
X00073Y00469D02*
X00074Y00468D01*
M02*